<svg width="720" height="1024" viewBox="0 0 720 1024" fill="none" xmlns="http://www.w3.org/2000/svg">
<rect width="720" height="1024" fill="#1F61DE"/>
<g style="mix-blend-mode:overlay" filter="url(#filter0_d_31_5272)">
<path d="M81.8812 418.924C81.5669 421.292 79.5598 423.117 77.1054 423.117C74.4333 423.117 72.2691 420.954 72.2691 418.284C72.2691 415.613 74.4333 413.451 77.1054 413.451C79.5598 413.451 81.5548 415.275 81.8812 417.643H117.791C122.724 417.643 126.75 413.632 126.75 408.69V345.448H108.481C108.166 347.539 106.377 349.158 104.189 349.158C101.783 349.158 99.836 347.212 99.836 344.808C99.836 342.404 101.783 340.458 104.189 340.458C106.377 340.458 108.166 342.065 108.481 344.168H126.75V263.551C124.658 263.237 123.038 261.449 123.038 259.262C123.038 256.857 124.985 254.912 127.391 254.912C129.797 254.912 131.743 256.857 131.743 259.262C131.743 261.449 130.135 263.237 128.032 263.551V344.18C134.754 344.24 140.207 349.726 140.207 356.456V446.401C142.577 446.715 144.402 448.72 144.402 451.173C144.402 453.844 142.238 456.006 139.566 456.006C136.894 456.006 134.73 453.844 134.73 451.173C134.73 448.72 136.556 446.715 138.925 446.401V356.456C138.925 350.427 134.053 345.521 128.032 345.461V408.69C128.032 414.333 123.437 418.924 117.791 418.924H81.8812ZM261.235 57.8526C263.424 57.8526 265.213 56.2456 265.527 54.1432H284.969C291.039 54.1432 295.972 59.073 295.972 65.1386V155.083C293.602 155.397 291.776 157.403 291.776 159.856C291.776 162.526 293.941 164.689 296.613 164.689C299.285 164.689 301.449 162.526 301.449 159.856C301.449 157.403 299.623 155.397 297.253 155.083V65.1386C297.253 58.3601 291.74 52.8503 284.957 52.8503H265.515C265.201 50.76 263.411 49.1409 261.223 49.1409C258.817 49.1409 256.87 51.0863 256.87 53.4907C256.87 55.8952 258.817 57.8406 261.223 57.8406L261.235 57.8526ZM222.049 253.969H202.607C202.293 251.879 200.503 250.26 198.315 250.26C195.909 250.26 193.962 252.205 193.962 254.61C193.962 257.014 195.909 258.959 198.315 258.959C200.503 258.959 202.293 257.352 202.607 255.25H222.049C228.119 255.25 233.052 260.18 233.052 266.245V356.19C230.682 356.504 228.856 358.51 228.856 360.963C228.856 363.633 231.02 365.796 233.692 365.796C236.364 365.796 238.529 363.633 238.529 360.963C238.529 358.51 236.703 356.504 234.333 356.19V266.245C234.333 259.467 228.82 253.957 222.037 253.957L222.049 253.969ZM336.319 107.404C338.773 107.404 340.78 105.58 341.094 103.212H431.098C437.881 103.212 443.394 97.7019 443.394 90.9234V26.9085C445.486 26.5943 447.106 24.8061 447.106 22.6191C447.106 20.2146 445.159 18.2693 442.753 18.2693C440.347 18.2693 438.401 20.2146 438.401 22.6191C438.401 24.8061 440.009 26.5943 442.112 26.9085V90.9234C442.112 96.989 437.179 101.919 431.11 101.919H341.106C340.792 99.5505 338.785 97.726 336.331 97.726C333.659 97.726 331.494 99.8888 331.494 102.559C331.494 105.229 333.659 107.392 336.331 107.392L336.319 107.404ZM370.221 387.763V426.512C370.221 432.578 365.288 437.508 359.218 437.508H269.215C268.901 435.139 266.894 433.315 264.439 433.315C261.767 433.315 259.603 435.478 259.603 438.148C259.603 440.818 261.767 442.981 264.439 442.981C266.894 442.981 268.889 441.157 269.215 438.788H359.218C366.001 438.788 371.515 433.279 371.515 426.5V387.75C373.606 387.436 375.227 385.648 375.227 383.461C375.227 381.057 373.28 379.111 370.874 379.111C368.468 379.111 366.521 381.057 366.521 383.461C366.521 385.648 368.141 387.436 370.233 387.75L370.221 387.763ZM633.388 279.416C630.982 279.416 629.035 281.361 629.035 283.766C629.035 285.953 630.643 287.741 632.747 288.055V326.792C632.747 332.858 627.814 337.788 621.744 337.788H531.741C531.427 335.42 529.42 333.595 526.965 333.595C524.293 333.595 522.129 335.758 522.129 338.428C522.129 341.099 524.293 343.261 526.965 343.261C529.42 343.261 531.427 341.437 531.741 339.069H621.744C628.527 339.069 634.041 333.559 634.041 326.78V288.043C636.132 287.729 637.753 285.94 637.753 283.753C637.753 281.349 635.806 279.404 633.4 279.404L633.388 279.416ZM642.408 215.896C642.408 218.566 640.243 220.729 637.571 220.729C635.117 220.729 633.11 218.905 632.795 216.537H580.709C579.886 217.177 578.871 217.576 577.746 217.576C576.622 217.576 575.606 217.177 574.784 216.537H568.183V227.399C570.552 227.713 572.378 229.719 572.378 232.172C572.378 234.842 570.214 237.005 567.542 237.005C564.87 237.005 562.705 234.842 562.705 232.172C562.705 229.719 564.531 227.713 566.901 227.399V216.537H512.239V342.609C512.239 350.354 518.55 356.661 526.3 356.661H601.19C609.654 356.661 616.533 363.536 616.533 371.994V472.874C618.903 473.188 620.729 475.194 620.729 477.647C620.729 480.317 618.565 482.48 615.893 482.48C613.221 482.48 611.056 480.317 611.056 477.647C611.056 475.194 612.882 473.2 615.252 472.874V371.994C615.252 364.249 608.94 357.942 601.19 357.942H526.3C517.837 357.942 510.957 351.067 510.957 342.609V216.537H481.951C481.843 224.898 475.011 231.676 466.608 231.676H397.885C390.134 231.676 383.823 237.984 383.823 245.729V478.541H405.006V438.112C405.006 431.333 410.519 425.823 417.302 425.823H507.306C507.62 423.455 509.627 421.631 512.082 421.631C514.754 421.631 516.918 423.794 516.918 426.464C516.918 429.134 514.754 431.297 512.082 431.297C509.627 431.297 507.62 429.473 507.306 427.104H417.302C411.233 427.104 406.3 432.034 406.3 438.1V478.529H449.705C456.488 478.529 462.002 484.039 462.002 490.817V510.246C464.093 510.56 465.714 512.349 465.714 514.536C465.714 516.94 463.767 518.885 461.361 518.885C458.955 518.885 457.008 516.94 457.008 514.536C457.008 512.349 458.616 510.56 460.72 510.246V490.817C460.72 484.751 455.787 479.822 449.718 479.822H406.312V495.904C408.404 496.218 410.024 498.006 410.024 500.193C410.024 502.598 408.077 504.543 405.671 504.543C403.265 504.543 401.318 502.598 401.318 500.193C401.318 498.006 402.926 496.218 405.03 495.904V479.822H383.847V527.416C386.217 527.73 388.043 529.736 388.043 532.189C388.043 534.859 385.878 537.022 383.206 537.022C380.534 537.022 378.37 534.859 378.37 532.189C378.37 529.736 380.196 527.73 382.566 527.416V479.822H284.256V506.368C286.348 506.682 287.968 508.47 287.968 510.657C287.968 513.062 286.021 515.007 283.615 515.007C281.209 515.007 279.262 513.062 279.262 510.657C279.262 508.47 280.87 506.682 282.974 506.368V479.822H245.578V520.879C247.947 521.193 249.773 523.199 249.773 525.652C249.773 528.322 247.609 530.485 244.937 530.485C242.265 530.485 240.101 528.322 240.101 525.652C240.101 523.199 241.926 521.193 244.296 520.879V479.822H120.717C120.402 482.19 118.395 484.014 115.941 484.014C113.269 484.014 111.105 481.852 111.105 479.181C111.105 476.511 113.269 474.348 115.941 474.348C118.395 474.348 120.39 476.173 120.717 478.541H244.272V304.826C244.272 296.368 251.151 289.493 259.615 289.493H300.518C308.268 289.493 314.579 283.186 314.579 275.44V216.549H219.401V224.765C219.401 231.543 213.888 237.053 207.105 237.053H170.7C170.385 239.421 168.378 241.246 165.924 241.246C163.252 241.246 161.088 239.083 161.088 236.413C161.088 233.743 163.252 231.58 165.924 231.58C168.378 231.58 170.373 233.404 170.7 235.772H207.105C213.174 235.772 218.107 230.843 218.107 224.777V216.561H146.095V320.062C148.465 320.377 150.291 322.382 150.291 324.835C150.291 327.505 148.126 329.668 145.454 329.668C142.782 329.668 140.618 327.505 140.618 324.835C140.618 322.382 142.444 320.389 144.813 320.062V216.561H107.054C98.9171 216.561 92.3034 223.17 92.3034 231.302V262.186C94.3951 262.5 96.0153 264.288 96.0153 266.475C96.0153 268.879 94.0687 270.825 91.6626 270.825C89.2566 270.825 87.31 268.879 87.31 266.475C87.31 264.288 88.918 262.5 91.0218 262.186V231.302C91.0218 222.469 98.2158 215.28 107.054 215.28H144.813V85.6311C144.813 79.5655 139.88 74.6357 133.811 74.6357H114.369C114.055 76.726 112.265 78.3451 110.077 78.3451C107.671 78.3451 105.724 76.3998 105.724 73.9953C105.724 71.5908 107.671 69.6455 110.077 69.6455C112.265 69.6455 114.055 71.2646 114.369 73.3549H133.811C140.594 73.3549 146.107 78.8647 146.107 85.6432V215.292H218.12V70.6605C216.028 70.3463 214.408 68.558 214.408 66.371C214.408 63.9666 216.354 62.0212 218.76 62.0212C221.166 62.0212 223.113 63.9666 223.113 66.371C223.113 68.558 221.493 70.3463 219.401 70.6605V215.268H314.579V39.2451C312.488 38.9309 310.868 37.1427 310.868 34.9557C310.868 32.5512 312.814 30.6058 315.22 30.6058C317.626 30.6058 319.573 32.5512 319.573 34.9557C319.573 37.1427 317.953 38.9309 315.861 39.2451V215.268H480.67V103.502C478.578 103.187 476.958 101.399 476.958 99.2122C476.958 96.8077 478.905 94.8624 481.311 94.8624C483.717 94.8624 485.663 96.8077 485.663 99.2122C485.663 101.399 484.055 103.187 481.951 103.502V215.268H510.945V70.8296C508.853 70.5155 507.233 68.7272 507.233 66.5402C507.233 64.1357 509.18 62.1904 511.586 62.1904C513.992 62.1904 515.938 64.1357 515.938 66.5402C515.938 68.7272 514.33 70.5155 512.227 70.8296V215.268H566.889V137.466C566.889 131.401 561.956 126.471 555.886 126.471H536.444C536.13 128.561 534.341 130.181 532.152 130.181C529.746 130.181 527.799 128.235 527.799 125.831C527.799 123.426 529.746 121.481 532.152 121.481C534.341 121.481 536.13 123.088 536.444 125.19H555.886C562.669 125.19 568.183 130.7 568.183 137.479V215.28H573.623C573.176 214.543 572.898 213.685 572.898 212.767C572.898 210.314 574.724 208.308 577.093 207.994V118.049C577.093 111.271 582.607 105.761 589.39 105.761H608.832C609.146 103.671 610.935 102.052 613.124 102.052C615.53 102.052 617.476 103.997 617.476 106.401C617.476 108.806 615.53 110.751 613.124 110.751C610.935 110.751 609.146 109.144 608.832 107.042H589.39C583.32 107.042 578.387 111.972 578.387 118.037V207.982C580.757 208.296 582.583 210.302 582.583 212.755C582.583 213.685 582.304 214.531 581.857 215.268H632.783C633.098 212.9 635.105 211.075 637.559 211.075C640.231 211.075 642.395 213.238 642.395 215.908L642.408 215.896ZM480.67 216.537H315.873V275.428C315.873 283.886 308.993 290.761 300.53 290.761H259.627C251.877 290.761 245.566 297.069 245.566 304.814V478.529H282.962V467.618C282.962 460.84 288.476 455.33 295.258 455.33H331.603C331.918 452.962 333.925 451.137 336.379 451.137C339.051 451.137 341.215 453.3 341.215 455.97C341.215 458.64 339.051 460.803 336.379 460.803C333.925 460.803 331.918 458.979 331.603 456.611H295.258C289.189 456.611 284.256 461.54 284.256 467.606V478.517H382.566V245.705C382.566 237.247 389.445 230.371 397.909 230.371H466.632C474.322 230.371 480.573 224.173 480.682 216.525L480.67 216.537Z" fill="url(#paint0_radial_31_5272)" style="mix-blend-mode:overlay"/>
</g>
<g style="mix-blend-mode:overlay" filter="url(#filter1_d_31_5272)">
<path d="M602.629 883.896C596.983 883.896 592.388 879.305 592.388 873.662V810.432C586.379 810.493 581.494 815.398 581.494 821.428V911.372C583.864 911.687 585.69 913.692 585.69 916.145C585.69 918.815 583.526 920.978 580.854 920.978C578.182 920.978 576.017 918.815 576.017 916.145C576.017 913.692 577.843 911.687 580.213 911.372V821.428C580.213 814.698 585.666 809.212 592.388 809.152V728.523C590.296 728.209 588.676 726.42 588.676 724.233C588.676 721.829 590.623 719.884 593.029 719.884C595.435 719.884 597.382 721.829 597.382 724.233C597.382 726.42 595.774 728.209 593.67 728.523V809.139H611.939C612.253 807.049 614.043 805.43 616.231 805.43C618.637 805.43 620.584 807.375 620.584 809.78C620.584 812.184 618.637 814.13 616.231 814.13C614.043 814.13 612.253 812.511 611.939 810.42H593.67V873.662C593.67 878.592 597.684 882.615 602.629 882.615H638.538C638.853 880.247 640.86 878.422 643.314 878.422C645.986 878.422 648.151 880.585 648.151 883.256C648.151 885.926 645.986 888.089 643.314 888.089C640.86 888.089 638.853 886.264 638.538 883.896H602.629ZM466.028 514.125C466.028 511.72 464.081 509.775 461.675 509.775C459.487 509.775 457.697 511.382 457.383 513.484H437.941C431.158 513.484 425.645 518.994 425.645 525.773V615.717C423.275 616.032 421.449 618.037 421.449 620.49C421.449 623.16 423.614 625.323 426.286 625.323C428.958 625.323 431.122 623.16 431.122 620.49C431.122 618.037 429.296 616.032 426.927 615.717V525.773C426.927 519.707 431.86 514.777 437.929 514.777H457.371C457.685 516.868 459.475 518.487 461.663 518.487C464.069 518.487 466.016 516.541 466.016 514.137L466.028 514.125ZM486.086 731.229V821.174C483.717 821.488 481.891 823.494 481.891 825.947C481.891 828.617 484.055 830.78 486.727 830.78C489.399 830.78 491.564 828.617 491.564 825.947C491.564 823.494 489.738 821.488 487.368 821.174V731.229C487.368 725.164 492.301 720.234 498.371 720.234H517.813C518.127 722.324 519.916 723.943 522.105 723.943C524.511 723.943 526.457 721.998 526.457 719.594C526.457 717.189 524.511 715.244 522.105 715.244C519.916 715.244 518.127 716.863 517.813 718.953H498.371C491.588 718.953 486.074 724.463 486.074 731.241L486.086 731.229ZM375.214 567.543C375.214 564.873 373.05 562.71 370.378 562.71C367.924 562.71 365.929 564.534 365.602 566.903H275.599C269.529 566.903 264.596 561.973 264.596 555.907V491.892C266.688 491.578 268.308 489.79 268.308 487.603C268.308 485.199 266.362 483.253 263.956 483.253C261.549 483.253 259.603 485.199 259.603 487.603C259.603 489.79 261.211 491.578 263.315 491.892V555.907C263.315 562.686 268.828 568.196 275.611 568.196H365.614C365.929 570.564 367.936 572.388 370.39 572.388C373.062 572.388 375.227 570.225 375.227 567.555L375.214 567.543ZM353.923 848.457C353.923 846.053 351.976 844.107 349.57 844.107C347.164 844.107 345.217 846.053 345.217 848.457C345.217 850.644 346.825 852.432 348.929 852.746V891.496C348.929 898.275 354.443 903.784 361.225 903.784H451.229C451.543 906.153 453.55 907.977 456.005 907.977C458.677 907.977 460.841 905.814 460.841 903.144C460.841 900.474 458.677 898.311 456.005 898.311C453.55 898.311 451.543 900.135 451.229 902.504H361.225C355.156 902.504 350.223 897.574 350.223 891.508V852.759C352.315 852.444 353.935 850.656 353.935 848.469L353.923 848.457ZM82.6913 748.749C82.6913 750.936 84.2994 752.725 86.4031 753.039V791.776C86.4031 798.555 91.9165 804.065 98.6994 804.065H188.703C189.017 806.433 191.024 808.257 193.479 808.257C196.151 808.257 198.315 806.095 198.315 803.424C198.315 800.754 196.151 798.591 193.479 798.591C191.024 798.591 189.029 800.416 188.703 802.784H98.6873C92.6178 802.784 87.6848 797.854 87.6848 791.789V753.051C89.7765 752.737 91.3966 750.949 91.3966 748.762C91.3966 746.357 89.45 744.412 87.044 744.412C84.6379 744.412 82.6913 746.357 82.6913 748.762V748.749ZM82.8606 676.047C85.315 676.047 87.31 677.871 87.6364 680.24H138.563C138.115 679.503 137.837 678.645 137.837 677.727C137.837 675.274 139.663 673.28 142.033 672.954V583.009C142.033 576.944 137.1 572.014 131.03 572.014H111.588C111.274 574.104 109.484 575.723 107.296 575.723C104.89 575.723 102.943 573.778 102.943 571.373C102.943 568.969 104.89 567.024 107.296 567.024C109.484 567.024 111.274 568.643 111.588 570.733H131.03C137.813 570.733 143.326 576.243 143.326 583.021V672.966C145.696 673.28 147.522 675.286 147.522 677.739C147.522 678.669 147.244 679.515 146.796 680.252H152.237V602.45C152.237 595.672 157.751 590.162 164.533 590.162H183.975C184.29 588.072 186.079 586.453 188.268 586.453C190.674 586.453 192.62 588.398 192.62 590.803C192.62 593.207 190.674 595.152 188.268 595.152C186.079 595.152 184.29 593.545 183.975 591.443H164.533C158.464 591.443 153.531 596.373 153.531 602.438V680.24H208.193V535.801C206.101 535.487 204.481 533.699 204.481 531.512C204.481 529.108 206.428 527.162 208.834 527.162C211.24 527.162 213.187 529.108 213.187 531.512C213.187 533.699 211.578 535.487 209.475 535.801V680.24H238.468V568.473C236.377 568.159 234.756 566.371 234.756 564.184C234.756 561.78 236.703 559.834 239.109 559.834C241.515 559.834 243.462 561.78 243.462 564.184C243.462 566.371 241.854 568.159 239.75 568.473V680.24H404.559V504.217C402.467 503.903 400.847 502.115 400.847 499.928C400.847 497.523 402.793 495.578 405.199 495.578C407.605 495.578 409.552 497.523 409.552 499.928C409.552 502.115 407.944 503.903 405.84 504.217V680.24H501.018V463.135C498.927 462.821 497.307 461.033 497.307 458.846C497.307 456.441 499.253 454.496 501.659 454.496C504.065 454.496 506.012 456.441 506.012 458.846C506.012 461.033 504.404 462.821 502.3 463.135V680.24H574.312V514.342C574.312 507.564 579.826 502.054 586.609 502.054H606.051C606.365 499.964 608.154 498.345 610.343 498.345C612.749 498.345 614.696 500.29 614.696 502.694C614.696 505.099 612.749 507.044 610.343 507.044C608.154 507.044 606.365 505.437 606.051 503.335H586.609C580.539 503.335 575.606 508.265 575.606 514.33V680.228H613.366C622.204 680.228 629.398 687.417 629.398 696.249V727.133C631.49 727.447 633.11 729.236 633.11 731.423C633.11 733.827 631.163 735.772 628.757 735.772C626.351 735.772 624.404 733.827 624.404 731.423C624.404 729.236 626.025 727.447 628.116 727.133V696.249C628.116 688.118 621.503 681.508 613.366 681.508H575.606V785.01C577.976 785.324 579.802 787.33 579.802 789.783C579.802 792.453 577.637 794.616 574.965 794.616C572.293 794.616 570.129 792.453 570.129 789.783C570.129 787.33 571.955 785.324 574.325 785.01V681.508H502.312V689.725C502.312 695.79 507.245 700.72 513.315 700.72H549.72C550.034 698.352 552.041 696.527 554.496 696.527C557.168 696.527 559.332 698.69 559.332 701.361C559.332 704.031 557.168 706.194 554.496 706.194C552.041 706.194 550.034 704.369 549.72 702.001H513.315C506.532 702.001 501.018 696.491 501.018 689.713V681.496H405.84V740.388C405.84 748.133 412.152 754.44 419.902 754.44H460.805C469.268 754.44 476.148 761.316 476.148 769.774V943.489H599.703C600.017 941.12 602.024 939.296 604.479 939.296C607.151 939.296 609.315 941.459 609.315 944.129C609.315 946.799 607.151 948.962 604.479 948.962C602.024 948.962 600.017 947.138 599.703 944.769H476.148V985.827C478.518 986.141 480.343 988.147 480.343 990.6C480.343 993.27 478.179 995.433 475.507 995.433C472.835 995.433 470.671 993.27 470.671 990.6C470.671 988.147 472.496 986.141 474.866 985.827V944.769H437.47V971.315C439.561 971.63 441.181 973.418 441.181 975.605C441.181 978.009 439.235 979.955 436.829 979.955C434.423 979.955 432.476 978.009 432.476 975.605C432.476 973.418 434.084 971.63 436.188 971.315V944.769H337.878V992.364C340.248 992.678 342.074 994.684 342.074 997.136C342.074 999.807 339.909 1001.97 337.237 1001.97C334.565 1001.97 332.401 999.807 332.401 997.136C332.401 994.684 334.227 992.678 336.597 992.364V944.769H315.414V960.852C317.505 961.166 319.126 962.954 319.126 965.141C319.126 967.546 317.179 969.491 314.773 969.491C312.367 969.491 310.42 967.546 310.42 965.141C310.42 962.954 312.028 961.166 314.132 960.852V944.769H270.726C264.657 944.769 259.724 949.699 259.724 955.765V975.194C261.815 975.508 263.436 977.296 263.436 979.483C263.436 981.888 261.489 983.833 259.083 983.833C256.677 983.833 254.73 981.888 254.73 979.483C254.73 977.296 256.338 975.508 258.442 975.194V955.765C258.442 948.986 263.956 943.477 270.738 943.477H314.144V903.047C314.144 896.982 309.211 892.052 303.142 892.052H213.138C212.824 894.42 210.817 896.245 208.362 896.245C205.69 896.245 203.526 894.082 203.526 891.412C203.526 888.741 205.69 886.578 208.362 886.578C210.817 886.578 212.812 888.403 213.138 890.771H303.142C309.924 890.771 315.438 896.281 315.438 903.059V943.489H336.621V710.676C336.621 702.931 330.309 696.624 322.559 696.624H253.836C245.445 696.624 238.601 689.858 238.492 681.484H209.487V807.557C209.487 816.015 202.607 822.89 194.144 822.89H119.254C111.504 822.89 105.192 829.197 105.192 836.942V937.822C107.562 938.136 109.388 940.142 109.388 942.594C109.388 945.265 107.223 947.428 104.551 947.428C101.879 947.428 99.715 945.265 99.715 942.594C99.715 940.142 101.541 938.136 103.911 937.822V836.942C103.911 828.484 110.79 821.609 119.254 821.609H194.144C201.894 821.609 208.205 815.302 208.205 807.557V681.484H153.543V692.347C155.913 692.661 157.738 694.667 157.738 697.119C157.738 699.79 155.574 701.953 152.902 701.953C150.23 701.953 148.066 699.79 148.066 697.119C148.066 694.667 149.892 692.661 152.261 692.347V681.484H145.66C144.838 682.125 143.822 682.523 142.698 682.523C141.573 682.523 140.558 682.125 139.735 681.484H87.6243C87.31 683.853 85.3029 685.677 82.8485 685.677C80.1764 685.677 78.0122 683.514 78.0122 680.844C78.0122 678.174 80.1764 676.011 82.8485 676.011L82.8606 676.047ZM253.811 695.38H322.535C330.999 695.38 337.878 702.255 337.878 710.713V943.525H436.188V932.614C436.188 926.548 431.255 921.619 425.185 921.619H388.841C388.526 923.987 386.519 925.811 384.065 925.811C381.393 925.811 379.229 923.649 379.229 920.978C379.229 918.308 381.393 916.145 384.065 916.145C386.519 916.145 388.526 917.97 388.841 920.338H425.185C431.968 920.338 437.482 925.848 437.482 932.626V943.537H474.878V769.822C474.878 762.077 468.567 755.77 460.817 755.77H419.914C411.45 755.77 404.571 748.894 404.571 740.436V681.545H239.774C239.883 689.205 246.146 695.392 253.824 695.392L253.811 695.38Z" fill="url(#paint1_radial_31_5272)" style="mix-blend-mode:overlay"/>
</g>
<defs>
<filter id="filter0_d_31_5272" x="62.2691" y="8.26926" width="590.138" height="538.753" filterUnits="userSpaceOnUse" color-interpolation-filters="sRGB">
<feFlood flood-opacity="0" result="BackgroundImageFix"/>
<feColorMatrix in="SourceAlpha" type="matrix" values="0 0 0 0 0 0 0 0 0 0 0 0 0 0 0 0 0 0 127 0" result="hardAlpha"/>
<feOffset/>
<feGaussianBlur stdDeviation="5"/>
<feColorMatrix type="matrix" values="0 0 0 0 1 0 0 0 0 1 0 0 0 0 1 0 0 0 0.4 0"/>
<feBlend mode="normal" in2="BackgroundImageFix" result="effect1_dropShadow_31_5272"/>
<feBlend mode="normal" in="SourceGraphic" in2="effect1_dropShadow_31_5272" result="shape"/>
</filter>
<filter id="filter1_d_31_5272" x="68.0122" y="444.496" width="590.138" height="567.474" filterUnits="userSpaceOnUse" color-interpolation-filters="sRGB">
<feFlood flood-opacity="0" result="BackgroundImageFix"/>
<feColorMatrix in="SourceAlpha" type="matrix" values="0 0 0 0 0 0 0 0 0 0 0 0 0 0 0 0 0 0 127 0" result="hardAlpha"/>
<feOffset/>
<feGaussianBlur stdDeviation="5"/>
<feColorMatrix type="matrix" values="0 0 0 0 1 0 0 0 0 1 0 0 0 0 1 0 0 0 0.4 0"/>
<feBlend mode="normal" in2="BackgroundImageFix" result="effect1_dropShadow_31_5272"/>
<feBlend mode="normal" in="SourceGraphic" in2="effect1_dropShadow_31_5272" result="shape"/>
</filter>
<radialGradient id="paint0_radial_31_5272" cx="0" cy="0" r="1" gradientUnits="userSpaceOnUse" gradientTransform="translate(357.332 277.652) scale(401.485 401.223)">
<stop stop-color="white" stop-opacity="0"/>
<stop offset="0.3" stop-color="white" stop-opacity="0"/>
<stop offset="0.44" stop-color="white" stop-opacity="0.04"/>
<stop offset="0.54" stop-color="white" stop-opacity="0.09"/>
<stop offset="0.63" stop-color="white" stop-opacity="0.16"/>
<stop offset="0.71" stop-color="white" stop-opacity="0.25"/>
<stop offset="0.78" stop-color="white" stop-opacity="0.37"/>
<stop offset="0.84" stop-color="white" stop-opacity="0.5"/>
<stop offset="0.9" stop-color="white" stop-opacity="0.66"/>
<stop offset="0.96" stop-color="white" stop-opacity="0.83"/>
<stop offset="1" stop-color="white"/>
</radialGradient>
<radialGradient id="paint1_radial_31_5272" cx="0" cy="0" r="1" gradientUnits="userSpaceOnUse" gradientTransform="translate(363.087 728.257) rotate(-180) scale(411.714 411.445)">
<stop stop-color="white" stop-opacity="0"/>
<stop offset="0.3" stop-color="white" stop-opacity="0"/>
<stop offset="0.44" stop-color="white" stop-opacity="0.04"/>
<stop offset="0.54" stop-color="white" stop-opacity="0.09"/>
<stop offset="0.63" stop-color="white" stop-opacity="0.16"/>
<stop offset="0.71" stop-color="white" stop-opacity="0.25"/>
<stop offset="0.78" stop-color="white" stop-opacity="0.37"/>
<stop offset="0.84" stop-color="white" stop-opacity="0.5"/>
<stop offset="0.9" stop-color="white" stop-opacity="0.66"/>
<stop offset="0.96" stop-color="white" stop-opacity="0.83"/>
<stop offset="1" stop-color="white"/>
</radialGradient>
</defs>
</svg>
