<?xml version="1.0" encoding="utf-8"?>
<!-- Generator: Adobe Illustrator 26.0.0, SVG Export Plug-In . SVG Version: 6.00 Build 0)  -->
<svg version="1.1" id="Layer_1" xmlns="http://www.w3.org/2000/svg" xmlns:xlink="http://www.w3.org/1999/xlink" x="0px" y="0px"
	 viewBox="0 0 100 100" style="enable-background:new 0 0 100 100;" xml:space="preserve">
<style type="text/css">
	.st0{fill-rule:evenodd;clip-rule:evenodd;fill:#E6E9F2;}
	.st1{fill:#3366FF;}
	.st2{fill:#FFFFFF;}
	.st3{fill:none;stroke:#3366FF;stroke-linecap:round;stroke-miterlimit:10;}
</style>
<path class="st0" d="M50,0C22.9,0,1,21.9,1,49c0,16.1,7.8,30.4,19.8,39.3C29,94.4,39.1,98,50,98c11,0,21.1-3.6,29.2-9.7
	C91.2,79.4,99,65.1,99,49C99,21.9,77.1,0,50,0z"/>
<g>
	<path class="st1" d="M59.5,35.3h-2.7v-0.1c-0.4-1-0.9-1.8-1.6-2.4c-1.3-1.3-3.2-2.3-5.2-2.3c-2.1,0-3.9,0.9-5.2,2.3
		c-0.5,0.6-1,1.2-1.3,1.8c-0.1,0.2-0.1,0.4-0.2,0.6v0.1h-2.7v-0.1c0.2-0.8,0.6-1.7,1.1-2.4c1.7-2.9,4.9-4.9,8.4-4.9
		c3.5,0,6.7,1.9,8.4,4.9C58.9,33.5,59.1,34.3,59.5,35.3C59.5,35.2,59.5,35.2,59.5,35.3z"/>
	<path class="st1" d="M78.8,47.4h-0.6c-0.8,0.1-1.7,0.5-2.3,1c0.2,1.3,0.5,2.5,0.5,3.9c0,1.3-0.2,2.7-0.5,3.9c0.7,0.5,1.5,0.9,2.3,1
		h0.6c2.8,0,5-2.2,5-5C83.8,49.8,81.6,47.4,78.8,47.4z M78.8,54.9L78.8,54.9c-1.5-0.1-2.3-1.1-2.3-2.3c0-1.3,1-2.3,2.3-2.3h0.1
		c1.3,0,2.4,1.1,2.4,2.3C81.2,53.8,80.1,54.9,78.8,54.9z"/>
	<path class="st2" d="M88.9,53.6c-0.7,0-1.3-0.6-1.3-1.3s0.6-1.3,1.3-1.3s1.2,0.7,1.2,1.5S89.6,53.6,88.9,53.6z"/>
	<path class="st1" d="M88.9,50c-1.3,0-2.5,1.2-2.5,2.5s1.1,2.5,2.5,2.5s2.5-1.2,2.5-2.5C91.4,51.1,90.2,50,88.9,50z M88.9,52.5
		L88.9,52.5C88.9,52.4,88.9,52.4,88.9,52.5C88.9,52.4,89,52.4,88.9,52.5C89,52.5,88.9,52.5,88.9,52.5z"/>
	<path class="st2" d="M11.1,53.6c-0.7,0-1.2-0.5-1.2-1.2s0.6-1.3,1.3-1.3s1.3,0.6,1.3,1.3C12.5,53.2,11.9,53.6,11.1,53.6z"/>
	<path class="st1" d="M11.1,50c-1.3,0-2.6,1.1-2.6,2.4S9.8,55,11.1,55s2.6-1.2,2.6-2.5S12.5,50,11.1,50z M11.1,52.5
		C11.1,52.5,11,52.5,11.1,52.5C11,52.4,11.1,52.4,11.1,52.5C11.1,52.4,11.1,52.4,11.1,52.5L11.1,52.5z"/>
	<path class="st1" d="M23.6,52.4c0-0.4,0-0.6,0-1c0.1-1,0.2-2.1,0.5-2.9l0,0c-0.7-0.5-1.5-0.8-2.3-1h-0.6c-2.8,0-5,2.2-5,5
		c0,2.8,2.2,5,5,5h0.6l0,0c0.9-0.1,1.6-0.5,2.3-1c-0.2-1-0.4-1.9-0.5-3C23.6,53,23.6,52.8,23.6,52.4z M21.3,54.9L21.3,54.9
		c-1.5,0-2.5-1.1-2.5-2.4s1.1-2.3,2.4-2.3h0.1c1.3,0.1,2.3,1.1,2.3,2.3C23.5,53.6,22.6,54.7,21.3,54.9z"/>
	<path class="st1" d="M56.8,35.2c-0.2-1-0.9-1.8-1.6-2.4H44.8c-0.5,0.5-1,1.1-1.3,1.8c-0.1,0.2-0.1,0.4-0.2,0.6v0.1L56.8,35.2
		L56.8,35.2z M56.8,35.2c-0.4-1-0.9-1.8-1.6-2.4H44.8c-0.5,0.6-1,1.2-1.3,1.8c-0.1,0.2-0.1,0.4-0.2,0.6v0.1L56.8,35.2L56.8,35.2z
		 M78.7,50.1L78.7,50.1c-0.1-1-0.4-1.8-0.5-2.5v-0.1c-2.2-8.5-10-14.8-19.1-14.8H40.9c-9.2,0-17,6.3-19.2,14.9
		c-0.2,0.7-0.4,1.7-0.5,2.4s-0.1,1.6-0.1,2.3s0,1.6,0.1,2.3v0.1c0.1,0.9,0.2,1.6,0.5,2.3c0,0,0,0.1,0,0.2
		c1.6,5.6,5.2,10.1,10.1,12.6c2.7,1.5,5.8,2.2,9.1,2.2H59c3.3,0,6.4-0.8,9.1-2.2c4.9-2.5,8.5-7,10-12.5v-0.1
		c0.2-0.7,0.4-1.6,0.5-2.4c0,0,0,0,0-0.1c0.1-0.7,0.1-1.6,0.1-2.3C78.8,51.7,78.8,50.8,78.7,50.1z M65.7,68.3
		c-2.1,0.8-4.3,1.3-6.6,1.3H40.9c-2.3,0-4.5-0.5-6.6-1.3c-5.1-2.1-9-6.6-10.2-12c-0.2-1-0.4-1.9-0.5-2.9c0-0.4,0-0.7,0-1
		c0-0.4,0-0.6,0-1c0-1,0.2-1.9,0.5-2.9c0,0,0,0,0-0.1c1.8-7.5,8.4-13.1,16.4-13.4h2.7v0.1h13.6v-0.1h2.7c8,0.2,14.7,5.8,16.4,13.4
		c0.2,1.3,0.5,2.5,0.5,3.9c0,1.3-0.2,2.7-0.5,3.9C74.5,61.8,70.8,66.3,65.7,68.3z M56.8,35.2c-0.2-1-0.9-1.8-1.6-2.4H44.8
		c-0.5,0.5-1,1.1-1.3,1.8c-0.1,0.2-0.1,0.4-0.2,0.6v0.1L56.8,35.2L56.8,35.2z"/>
	<path class="st1" d="M57,41.1H43c-6.3,0-11.3,5-11.3,11.3S36.8,63.7,43,63.7H57c6.3,0,11.3-5.1,11.3-11.3S63.4,41.1,57,41.1z
		 M57,61.3H43c-4.9,0-8.9-3.9-8.9-8.9c0-4.9,3.9-8.7,8.9-8.7H57c4.9,0,8.9,3.9,8.9,8.7C65.9,57.3,61.9,61.3,57,61.3z"/>
	<path class="st3" d="M16.2,52.4h-2.6"/>
	<path class="st3" d="M86.3,52.4h-2.6"/>
	<path class="st1" d="M43.2,56.7c2.3,0,4.3-1.8,4.3-4.2c0-2.3-1.8-4.2-4.3-4.2c-2.3,0-4.2,1.8-4.2,4.2C39,54.7,40.8,56.7,43.2,56.7z
		"/>
	<path class="st1" d="M56.6,56.7c2.3,0,4.2-1.8,4.2-4.2c0-2.3-1.8-4.2-4.2-4.2c-2.4,0-4.3,1.8-4.3,4.2
		C52.3,54.7,54.1,56.7,56.6,56.7z"/>
</g>
</svg>
