<?xml version="1.0" encoding="utf-8"?>
<!-- Generator: Adobe Illustrator 26.0.0, SVG Export Plug-In . SVG Version: 6.00 Build 0)  -->
<svg version="1.1" id="Layer_1" xmlns="http://www.w3.org/2000/svg" xmlns:xlink="http://www.w3.org/1999/xlink" x="0px" y="0px"
	 viewBox="0 0 100 100" style="enable-background:new 0 0 100 100;" xml:space="preserve">
<style type="text/css">
	.st0{fill-rule:evenodd;clip-rule:evenodd;fill:#EBE5F4;}
	.st1{fill-rule:evenodd;clip-rule:evenodd;fill:#673AB7;}
	.st2{fill-rule:evenodd;clip-rule:evenodd;fill:#795548;}
	.st3{fill-rule:evenodd;clip-rule:evenodd;fill:#FDA844;}
	.st4{fill-rule:evenodd;clip-rule:evenodd;fill:#784719;}
	.st5{fill-rule:evenodd;clip-rule:evenodd;fill:#EE8D3D;}
	.st6{fill-rule:evenodd;clip-rule:evenodd;fill:#EE8D3E;}
	.st7{fill-rule:evenodd;clip-rule:evenodd;fill:#ED8B3C;}
	.st8{fill-rule:evenodd;clip-rule:evenodd;fill:#311B92;}
</style>
<g>
	<path class="st0" d="M99,50c0,16.1-7.8,30.4-19.8,39.3C78.8,76.2,65.9,65.8,50,65.8c-15.9,0-28.8,10.5-29.2,23.6
		C8.8,80.4,1,66.1,1,50C1,22.9,22.9,1,50,1S99,22.9,99,50z"/>
	<path class="st1" d="M79.2,89.3C71.1,95.4,61,99,50,99c-10.9,0-21.1-3.6-29.2-9.7C21.2,76.3,34.1,65.8,50,65.8
		C65.9,65.8,78.8,76.2,79.2,89.3z"/>
	<g>
		<path class="st2" d="M68.5,43.8c-0.5,0.5-1,1-1.5,1.5c-0.8,0.7-1.6,1.5-2.3,2.3c0-3.3,0-6.5-0.1-9.8c-2.2-2.3-4.3-4.6-6.5-7
			c-0.1-0.2-0.3-0.3-0.4-0.3c-7.5,2.4-14.9,4.8-22.4,7.3c-0.1,3.3-0.1,6.5-0.1,9.8c-0.8-0.8-1.5-1.5-2.3-2.3c-0.5-0.5-1-1-1.5-1.5
			c-0.3-0.4-0.7-0.7-1.1-1.1c0-1.8,0-3.7,0-5.5c0.3-3.5,1.4-6.8,3.2-9.8c3.4-5.3,8.3-8.4,14.6-9.1c2.5,0,5.1,0,7.6,0
			c0.7,1.3,1.3,2.6,2,3.9c5.5,1.2,9,4.5,10.6,9.8c0.9,3.5,1.3,7.1,1.1,10.7C69.2,43,68.8,43.4,68.5,43.8z"/>
	</g>
	<g>
		<path class="st3" d="M67,45.2c0.1,1.5,0.1,3,0.1,4.6c-0.8,5-3.3,9-7.3,11.9c-5.4,3.4-11.1,3.9-17,1.4c-0.9-0.4-1.7-0.9-2.5-1.4
			c-4.1-2.9-6.5-6.9-7.3-11.9c0-1.5,0-3,0.1-4.6c0.8,0.7,1.6,1.5,2.3,2.3c0-3.3,0-6.5,0.1-9.8c7.4-2.4,14.9-4.9,22.4-7.3
			c0.2,0,0.3,0.1,0.4,0.3c2.1,2.3,4.3,4.7,6.5,7c0,3.3,0,6.5,0.1,9.8C65.5,46.7,66.3,46,67,45.2z"/>
	</g>
	<g>
		<path class="st4" d="M42.2,42.7c1.4-0.1,2.4,0.6,2.8,1.9c0.2,1.8-0.6,2.8-2.4,3c-1.2-0.1-2-0.8-2.4-1.9
			C40.1,44.1,40.8,43.1,42.2,42.7z"/>
	</g>
	<g>
		<path class="st4" d="M56.9,42.7c1.4-0.1,2.4,0.6,2.8,1.9c0.2,1.8-0.6,2.8-2.4,3c-1.2-0.1-2-0.8-2.4-1.9
			C54.8,44.1,55.4,43.1,56.9,42.7z"/>
	</g>
	<g>
		<path class="st5" d="M31.5,43.8c0.5,0.5,1,1,1.5,1.5c-0.1,1.5-0.1,3-0.1,4.6c-1.1-0.4-1.8-1.1-2.2-2.1
			C30.2,46.2,30.4,44.9,31.5,43.8z"/>
	</g>
	<g>
		<path class="st6" d="M68.5,43.8c0.7,0.7,1.1,1.6,1.1,2.6c-0.1,1.7-0.9,2.8-2.5,3.5c0-1.5,0-3-0.1-4.6C67.5,44.7,68,44.2,68.5,43.8
			z"/>
	</g>
	<g>
		<path class="st7" d="M40.2,61.7c0.8,0.5,1.6,1,2.5,1.4c5.9,2.5,11.6,2,17-1.4c0,1.9,0,3.7,0,5.6c-0.1,3-1.2,5.6-3.5,7.7
			c-1.9,1.4-4,2-6.3,2c-5.1-0.1-8.3-2.6-9.5-7.6c-0.2-0.7-0.2-1.4-0.3-2.1C40.2,65.4,40.2,63.5,40.2,61.7z"/>
	</g>
	<g>
		<path class="st8" d="M40.2,67.3c0,0.7,0.1,1.4,0.3,2.1c1.2,4.9,4.4,7.5,9.5,7.6c2.3,0,4.4-0.6,6.3-2c2.2-2.1,3.4-4.6,3.5-7.7
			c1.6,0.4,3.2,1,4.8,1.7c-0.7,4.9-3.2,8.6-7.4,11c-3.8,2-7.8,2.4-12,1c-5.5-2.2-8.8-6.2-9.7-12.1C37,68.2,38.6,67.7,40.2,67.3z"/>
	</g>
</g>
</svg>
