<?xml version="1.0" encoding="utf-8"?>
<!-- Generator: Adobe Illustrator 26.0.0, SVG Export Plug-In . SVG Version: 6.00 Build 0)  -->
<svg version="1.1" id="Capa_1" xmlns="http://www.w3.org/2000/svg" xmlns:xlink="http://www.w3.org/1999/xlink" x="0px" y="0px"
	 viewBox="0 0 100 100" style="enable-background:new 0 0 100 100;" xml:space="preserve">
<style type="text/css">
	.st0{fill:#3366FF;}
	.st1{fill:#FFFFFF;}
	.st2{fill:none;stroke:#3366FF;stroke-linecap:round;stroke-miterlimit:10;}
</style>
<g>
	<path class="st0" d="M58.5,32.4c-1.7-2.9-4.9-4.9-8.5-4.9s-6.8,2-8.5,4.9c-0.5,0.8-0.8,1.7-1.1,2.6c0.1,0,0.2,0,0.4,0h2.3
		c0.3-1,0.9-1.8,1.6-2.6c1.3-1.4,3.2-2.3,5.3-2.3s4,0.9,5.3,2.3c0.7,0.7,1.2,1.6,1.6,2.6h2.3c0.1,0,0.2,0,0.4,0
		C59.3,34.1,59,33.2,58.5,32.4z"/>
	<path class="st0" d="M79.2,47.4c-0.2,0-0.4,0-0.6,0c-0.9,0.1-1.7,0.5-2.4,1c0.3,1.3,0.5,2.6,0.5,4s-0.2,2.7-0.5,4
		c0.7,0.5,1.5,0.9,2.4,1c0.2,0,0.4,0,0.6,0c2.8,0,5-2.2,5-5C84.2,49.7,82,47.4,79.2,47.4z M79.2,54.9L79.2,54.9
		c-1.4-0.1-2.4-1.1-2.4-2.4c0-1.3,1-2.4,2.3-2.4h0.1c1.4,0,2.5,1.1,2.5,2.4C81.7,53.8,80.6,54.9,79.2,54.9z"/>
	<path class="st1" d="M89.4,53.7c-0.7,0-1.3-0.6-1.3-1.3s0.6-1.3,1.3-1.3c0.7,0,1.3,0.6,1.3,1.3C90.7,53.2,90.1,53.7,89.4,53.7z"/>
	<path class="st0" d="M89.4,49.9c-1.4,0-2.6,1.2-2.6,2.6c0,1.4,1.1,2.6,2.6,2.6s2.6-1.2,2.6-2.6C92,51,90.8,49.9,89.4,49.9z
		 M89.4,52.5L89.4,52.5C89.4,52.4,89.4,52.4,89.4,52.5C89.4,52.4,89.5,52.4,89.4,52.5C89.5,52.5,89.4,52.5,89.4,52.5z"/>
	<path class="st1" d="M10.6,53.7c-0.7,0-1.3-0.6-1.3-1.3s0.6-1.3,1.3-1.3s1.3,0.6,1.3,1.3C11.9,53.2,11.3,53.7,10.6,53.7z"/>
	<path class="st0" d="M10.6,49.9C9.2,49.9,8,51,8,52.4S9.2,55,10.6,55s2.6-1.2,2.6-2.6C13.2,51,12,49.9,10.6,49.9z M10.6,52.5
		C10.6,52.5,10.5,52.5,10.6,52.5C10.5,52.4,10.6,52.4,10.6,52.5C10.6,52.4,10.6,52.4,10.6,52.5L10.6,52.5z"/>
	<path class="st0" d="M23.8,48.5c-0.7-0.5-1.5-0.9-2.4-1c-0.2,0-0.4,0-0.6,0c-2.8,0-5,2.2-5,5s2.2,5,5,5c0.2,0,0.4,0,0.6,0
		c0.9-0.1,1.7-0.5,2.4-1c-0.3-1.3-0.5-2.6-0.5-4S23.5,49.7,23.8,48.5z M20.9,54.9h-0.1c-1.4,0-2.5-1.1-2.5-2.5
		c0-1.3,1.1-2.4,2.5-2.4h0.1c1.3,0.1,2.3,1.1,2.3,2.4C23.2,53.7,22.2,54.8,20.9,54.9z"/>
	<path class="st0" d="M55.3,32.4H44.7C44,33.1,43.4,34,43.1,35h13.8C56.6,34,56,33.1,55.3,32.4z M79.1,50c-0.1-0.9-0.3-1.7-0.5-2.5
		c-2.2-8.7-10.1-15.1-19.4-15.1H40.8c-9.4,0-17.2,6.4-19.4,15.1c-0.2,0.8-0.4,1.7-0.5,2.5s-0.1,1.6-0.1,2.4c0,0.8,0,1.6,0.1,2.4
		c0.1,0.9,0.3,1.7,0.5,2.5c2.2,8.7,10.1,15.1,19.4,15.1h18.4c9.4,0,17.2-6.4,19.4-15.1c0.2-0.8,0.4-1.7,0.5-2.5s0.1-1.6,0.1-2.4
		S79.2,50.8,79.1,50z M59.2,69.9H40.8c-8.3,0-15.2-5.8-17-13.5c-0.3-1.3-0.5-2.6-0.5-4s0.2-2.7,0.5-4c1.8-7.6,8.5-13.3,16.6-13.5
		c0.1,0,0.2,0,0.4,0h18.4c0.1,0,0.2,0,0.4,0c8.1,0.2,14.9,5.9,16.6,13.5c0.3,1.3,0.5,2.6,0.5,4s-0.2,2.7-0.5,4
		C74.4,64.1,67.5,69.9,59.2,69.9z M55.3,32.4H44.7C44,33.1,43.4,34,43.1,35h13.8C56.6,34,56,33.1,55.3,32.4z"/>
	<path class="st0" d="M57.1,40.9H42.9c-6.4,0-11.5,5.1-11.5,11.5s5.2,11.5,11.5,11.5h14.3c6.4,0,11.5-5.2,11.5-11.5
		S63.5,40.9,57.1,40.9z M57.1,61.4H42.9c-4.9,0-9-4-9-9c0-4.9,4-8.9,9-8.9h14.3c4.9,0,9,4,9,8.9C66.1,57.4,62.1,61.4,57.1,61.4z"/>
	<path class="st2" d="M15.8,52.4h-2.6"/>
	<path class="st2" d="M86.8,52.4h-2.6"/>
	<path class="st0" d="M43.1,56.7c2.4,0,4.3-1.9,4.3-4.3c0-2.4-1.9-4.3-4.3-4.3c-2.4,0-4.3,1.9-4.3,4.3S40.7,56.7,43.1,56.7z"/>
	<path class="st0" d="M56.6,56.7c2.4,0,4.3-1.9,4.3-4.3c0-2.4-1.9-4.3-4.3-4.3s-4.3,1.9-4.3,4.3S54.2,56.7,56.6,56.7z"/>
</g>
</svg>
