<svg width="428" height="378" viewBox="0 0 428 378" fill="none" xmlns="http://www.w3.org/2000/svg">
<path d="M360.941 321.249C351.185 331.325 342.455 337.248 335.772 341.719C270.588 385.329 196.077 372.759 173.039 368.464C135.871 361.532 104.496 356.643 77.5392 332.24C16.2869 276.792 19.2652 161.12 66.0715 89.4675C71.6208 80.971 118.356 11.5604 193.029 1.78002C194.856 1.54023 196.218 1.40459 197.412 1.27853C208.963 0.0535882 280.548 -6.41503 338.917 42.584C347.273 49.5979 360.719 62.2488 373.188 81.5451C418.78 152.097 418.925 261.368 360.942 321.251L360.941 321.249Z" fill="url(#paint0_linear_47_2655)"/>
<path d="M272.081 259.737C272.081 259.737 290.7 98.8308 357.355 4.38293C361.836 -1.96649 371.541 -0.867605 374.453 6.34091C393.915 54.5425 437.779 202.538 272.083 259.738L272.081 259.737Z" fill="#BDD0FB"/>
<path opacity="0.5" d="M286.46 247.807C286.123 248.225 286.697 248.756 287.088 248.388C301.485 234.768 355.7 169.8 364.697 52.0108C364.726 51.6327 364.166 51.5559 364.105 51.93C359.581 79.5213 339.831 181.623 286.462 247.807H286.46Z" fill="white"/>
<path d="M113.372 344.614C113.372 344.614 96.1406 195.685 34.4465 108.267C30.299 102.39 21.316 103.407 18.622 110.079C0.609513 154.692 -39.9911 291.671 113.372 344.614Z" fill="#BDD0FB"/>
<path opacity="0.5" d="M131.808 335.555C132.12 335.942 131.589 336.434 131.228 336.092C117.902 323.486 67.7223 263.354 59.397 154.332C59.3697 153.981 59.888 153.911 59.9454 154.256C64.1326 179.794 82.4118 274.295 131.809 335.553L131.808 335.555Z" fill="white"/>
<path d="M91.8113 18.8196C90.3563 77.6456 85.6358 280.561 87.8894 352.468C88.1287 360.086 94.2236 366.2 101.825 366.45C139.429 367.683 247.599 370.808 309.105 368.223C321.915 367.684 332.103 357.287 332.368 344.443C333.647 282.697 336.467 109.03 329.763 29.4714C328.96 19.939 321.493 12.3482 311.994 11.3959C271.043 7.2895 162.278 -2.74296 109.141 0.711264C99.5581 1.3347 92.0493 9.19954 91.8113 18.8182V18.8196Z" fill="#3366FF"/>
<path d="M107.091 37.0978C105.037 85.2761 98.5588 245.554 100.616 304.823C100.916 313.485 107.731 320.489 116.366 320.996C151.924 323.082 243.127 327.679 295.281 323.494C304.673 322.741 312.042 315.131 312.548 305.705C315.192 256.553 322.78 107.311 320.809 48.7073C320.495 39.3586 313.268 31.7239 303.969 30.8868C265.501 27.4257 166.702 19.1923 122.383 21.6148C114.063 22.0697 107.446 28.7575 107.091 37.0978Z" fill="#FDFEFE"/>
<path opacity="0.5" d="M184.742 10.9904C184.742 12.7949 186.146 14.2843 187.944 14.3788C196.826 14.8447 221.846 16.1642 233.026 16.8136C235.231 16.9424 236.962 14.9557 236.543 12.7839L236.472 12.4126C236.186 10.9301 234.96 9.81476 233.46 9.67637C225.902 8.98306 203.096 7.05795 187.985 7.59917C186.171 7.66357 184.743 9.17077 184.743 10.9904H184.742Z" fill="#0C39A8"/>
<path d="M268.224 205.837C268.224 205.837 257.478 212.17 250.192 210.317L253.767 204.638C253.767 204.638 262.733 203.482 267.165 199.797L270.034 202.958L268.224 205.836V205.837Z" fill="#3366FF"/>
<path d="M282.476 194.404C282.476 194.404 285.813 189.348 287.372 186.694C287.619 186.272 288.091 186.032 288.578 186.084C290.822 186.324 297.253 186.456 300.475 180.727L302.515 177.128C303.277 175.785 302.849 174.079 301.545 173.255C300.199 172.405 298.417 172.809 297.567 174.158L295.606 177.273C295.606 177.273 292.337 182.168 287.834 180.075C283.329 177.981 284.214 173.742 284.743 172.007C284.854 171.644 284.983 171.266 285.115 170.896C285.666 169.363 284.95 167.664 283.463 167.001C281.803 166.261 279.861 167.101 279.275 168.823C278.047 172.425 277.083 178.421 281.969 182.636C282.418 183.023 282.521 183.681 282.204 184.184L279.046 189.199L282.476 194.403V194.404Z" fill="#0C39A8"/>
<path d="M284.352 195.884C282.351 198.765 277.791 204.859 272.542 208.717C270.894 209.928 268.544 209.157 267.911 207.208L265.04 198.368C264.603 197.018 265.163 195.546 266.386 194.83C268.801 193.416 272.843 190.818 276.124 187.572C277.298 186.409 279.224 186.53 280.258 187.82L284.245 192.796C284.96 193.688 285.003 194.945 284.35 195.885L284.352 195.884Z" fill="#E7EBF4" stroke="#3366FF" stroke-width="3" stroke-miterlimit="10"/>
<path d="M251.415 216.883C254.513 216.883 257.024 213.127 257.024 208.494C257.024 203.86 254.513 200.104 251.415 200.104C248.317 200.104 245.805 203.86 245.805 208.494C245.805 213.127 248.317 216.883 251.415 216.883Z" fill="#E7EBF4" stroke="#3366FF" stroke-width="3" stroke-miterlimit="10"/>
<path d="M148.525 210.845C148.525 210.845 159.271 204.512 166.557 206.364L162.982 212.044C162.982 212.044 154.016 213.2 149.584 216.885L146.715 213.724L148.525 210.846V210.845Z" fill="#3366FF"/>
<path d="M134.273 222.278C134.273 222.278 130.937 227.334 129.378 229.988C129.13 230.41 128.658 230.65 128.172 230.597C125.928 230.358 119.496 230.226 116.274 235.955L114.234 239.554C113.473 240.897 113.901 242.603 115.204 243.426C116.551 244.277 118.333 243.873 119.182 242.524L121.143 239.409C121.143 239.409 124.412 234.513 128.916 236.607C133.42 238.701 132.535 242.94 132.006 244.675C131.895 245.038 131.767 245.416 131.634 245.786C131.083 247.319 131.8 249.018 133.286 249.681C134.946 250.421 136.888 249.581 137.475 247.859C138.703 244.257 139.667 238.261 134.781 234.046C134.331 233.658 134.228 233.001 134.545 232.498L137.703 227.483L134.273 222.279V222.278Z" fill="#0C39A8"/>
<path d="M132.397 220.798C134.398 217.916 138.958 211.823 144.207 207.965C145.855 206.754 148.205 207.525 148.839 209.473L151.709 218.314C152.147 219.663 151.586 221.136 150.363 221.852C147.948 223.266 143.906 225.863 140.625 229.109C139.451 230.273 137.525 230.152 136.492 228.861L132.504 223.886C131.789 222.994 131.746 221.736 132.399 220.797L132.397 220.798Z" fill="#E7EBF4" stroke="#3366FF" stroke-width="3" stroke-miterlimit="10"/>
<path d="M165.334 216.578C168.432 216.578 170.944 212.822 170.944 208.188C170.944 203.555 168.432 199.799 165.334 199.799C162.236 199.799 159.725 203.555 159.725 208.188C159.725 212.822 162.236 216.578 165.334 216.578Z" fill="#E7EBF4" stroke="#3366FF" stroke-width="3" stroke-miterlimit="10"/>
<path d="M208.946 139.49C221.356 139.49 231.416 129.41 231.416 116.975C231.416 104.541 221.356 94.4604 208.946 94.4604C196.536 94.4604 186.475 104.541 186.475 116.975C186.475 129.41 196.536 139.49 208.946 139.49Z" fill="#E7EBF4" stroke="#3366FF" stroke-width="3" stroke-miterlimit="10"/>
<path d="M208.946 273.898C196.836 273.898 187.509 266.72 180.723 258.26C171.366 246.597 166.478 231.964 166.478 217V173.187C166.478 149.686 251.415 149.686 251.415 173.187V217.001C251.415 231.965 246.526 246.598 237.17 258.261C230.383 266.721 221.057 273.899 208.946 273.899V273.898Z" fill="#E7EBF4" stroke="#3366FF" stroke-width="3" stroke-miterlimit="10"/>
<path d="M275.491 162.684C281.776 162.684 286.871 157.579 286.871 151.282C286.871 144.984 281.776 139.879 275.491 139.879C269.205 139.879 264.11 144.984 264.11 151.282C264.11 157.579 269.205 162.684 275.491 162.684Z" fill="#E7EBF4" stroke="#3366FF" stroke-width="3" stroke-miterlimit="10"/>
<path d="M298.686 157.165C301.929 157.165 304.558 154.531 304.558 151.282C304.558 148.032 301.929 145.398 298.686 145.398C295.443 145.398 292.814 148.032 292.814 151.282C292.814 154.531 295.443 157.165 298.686 157.165Z" fill="#E7EBF4" stroke="#3366FF" stroke-width="3" stroke-miterlimit="10"/>
<path d="M119.206 157.165C122.449 157.165 125.078 154.531 125.078 151.282C125.078 148.032 122.449 145.398 119.206 145.398C115.963 145.398 113.334 148.032 113.334 151.282C113.334 154.531 115.963 157.165 119.206 157.165Z" fill="#E7EBF4" stroke="#3366FF" stroke-width="3" stroke-miterlimit="10"/>
<path d="M142.401 162.684C148.687 162.684 153.782 157.579 153.782 151.282C153.782 144.984 148.687 139.879 142.401 139.879C136.116 139.879 131.021 144.984 131.021 151.282C131.021 157.579 136.116 162.684 142.401 162.684Z" fill="#E7EBF4" stroke="#3366FF" stroke-width="3" stroke-miterlimit="10"/>
<path d="M229.873 105.573H188.021C162.826 105.573 142.402 126.037 142.402 151.282C142.402 176.526 162.826 196.991 188.021 196.991H229.873C255.068 196.991 275.492 176.526 275.492 151.282C275.492 126.037 255.068 105.573 229.873 105.573Z" fill="#E7EBF4" stroke="#3366FF" stroke-width="3" stroke-miterlimit="10"/>
<path d="M225.208 125.024H192.684C178.211 125.024 166.478 136.78 166.478 151.282V151.283C166.478 165.785 178.211 177.541 192.684 177.541H225.208C239.682 177.541 251.415 165.785 251.415 151.283V151.282C251.415 136.78 239.682 125.024 225.208 125.024Z" fill="white" stroke="#3366FF" stroke-width="3" stroke-miterlimit="10"/>
<path d="M131.021 151.282H125.078" stroke="#3366FF" stroke-width="3" stroke-miterlimit="10"/>
<path d="M292.814 151.282H286.871" stroke="#3366FF" stroke-width="3" stroke-miterlimit="10"/>
<path d="M235.781 219.103C238.192 219.103 240.146 217.145 240.146 214.729C240.146 212.314 238.192 210.356 235.781 210.356C233.371 210.356 231.416 212.314 231.416 214.729C231.416 217.145 233.371 219.103 235.781 219.103Z" fill="#0C39A8"/>
<path d="M246.622 242.032C244.558 247.194 241.834 252.087 238.463 256.583C230.362 258.574 220.522 259.74 209.921 259.74C198.243 259.74 187.493 258.324 178.965 255.959C175.609 251.364 172.913 246.36 170.903 241.092C180.106 245.112 194.163 247.684 209.921 247.684C224.405 247.684 237.462 245.511 246.622 242.032Z" fill="#E7EBF4" stroke="#3366FF" stroke-width="3" stroke-miterlimit="10"/>
<path d="M208.761 261.27C213.321 261.27 217.017 257.567 217.017 252.999C217.017 248.43 213.321 244.727 208.761 244.727C204.202 244.727 200.506 248.43 200.506 252.999C200.506 257.567 204.202 261.27 208.761 261.27Z" fill="#3366FF" stroke="#0C39A8" stroke-width="3" stroke-miterlimit="10"/>
<path d="M194.793 148.483C194.639 148.607 194.462 148.67 194.276 148.67C194.161 148.67 194.04 148.641 193.926 148.589C191.738 147.544 187.375 146.066 182.726 147.96C182.621 148.004 182.515 148.024 182.405 148.024C182.169 148.024 181.94 147.922 181.777 147.736C181.538 147.458 181.503 147.078 181.685 146.767C182.686 145.045 184.457 142.924 187.23 142.607C190.961 142.18 194.102 144.21 195.044 147.654C195.13 147.96 195.029 148.277 194.79 148.484L194.793 148.483Z" fill="#0C39A8"/>
<path d="M236.033 148.612C235.884 148.737 235.702 148.8 235.52 148.8C235.4 148.8 235.281 148.777 235.17 148.719C232.982 147.674 228.616 146.201 223.966 148.09C223.861 148.134 223.756 148.153 223.645 148.153C223.41 148.153 223.18 148.052 223.017 147.866C222.782 147.592 222.744 147.208 222.926 146.897C223.927 145.175 225.698 143.054 228.475 142.737C232.2 142.31 235.341 144.34 236.289 147.783C236.371 148.09 236.274 148.407 236.03 148.614L236.033 148.612Z" fill="#0C39A8"/>
<path d="M218.959 156.931C217.048 163.542 212.644 164.938 209.273 164.938H209.229C205.854 164.929 201.439 163.523 199.557 156.879C199.346 156.125 199.576 155.335 200.169 154.821C200.759 154.307 201.567 154.182 202.281 154.495C204.12 155.301 206.552 156.025 209.367 156.025C211.474 156.025 213.791 155.617 216.233 154.539C216.947 154.222 217.761 154.347 218.35 154.865C218.944 155.383 219.179 156.175 218.959 156.932V156.931Z" fill="#0C39A8"/>
<path d="M342.738 166.356C337.275 164.632 328.311 160.69 324.056 152.615C323.123 150.844 324.134 148.67 326.072 148.184C335.67 145.772 361.455 136.732 359.082 109.569C356.172 76.2596 318.872 74.0399 295.074 80.663C271.277 87.2862 259.209 103.639 264.707 128.697C269.892 152.323 315.2 170.034 342.524 168.091C343.506 168.02 343.676 166.652 342.738 166.356Z" fill="#91B3FA"/>
<g opacity="0.82">
<path d="M292.498 101.526H347.896C349.079 101.526 350.039 100.564 350.039 99.378C350.039 98.1923 349.079 97.2303 347.896 97.2303H292.498C291.315 97.2303 290.354 98.1923 290.354 99.378C290.354 100.564 291.315 101.526 292.498 101.526Z" fill="url(#paint1_linear_47_2655)"/>
<path d="M285.843 109.94H341.24C342.424 109.94 343.384 108.978 343.384 107.792C343.384 106.607 342.424 105.645 341.24 105.645H285.843C284.659 105.645 283.699 106.607 283.699 107.792C283.699 108.978 284.659 109.94 285.843 109.94Z" fill="url(#paint2_linear_47_2655)"/>
<path d="M301.595 126.767H341.239C342.422 126.767 343.383 125.805 343.383 124.619C343.383 123.434 342.422 122.472 341.239 122.472H301.595C300.412 122.472 299.452 123.434 299.452 124.619C299.452 125.805 300.412 126.767 301.595 126.767Z" fill="url(#paint3_linear_47_2655)"/>
<path d="M279.629 118.353H335.027C336.21 118.353 337.17 117.391 337.17 116.205C337.17 115.019 336.21 114.057 335.027 114.057H279.629C278.446 114.057 277.486 115.019 277.486 116.205C277.486 117.391 278.446 118.353 279.629 118.353Z" fill="url(#paint4_linear_47_2655)"/>
</g>
<path d="M359.155 363.883C359.155 363.883 359.937 368.403 360.32 372.878C360.47 374.627 359.149 376.145 357.433 376.219C351.599 376.467 339.121 376.949 334.643 376.745C333.97 376.715 333.529 376.011 333.778 375.371C333.988 374.835 334.39 374.402 334.902 374.161L355.515 364.485L359.155 363.883Z" fill="url(#paint5_linear_47_2655)"/>
<path d="M359.795 361.228L359.167 366.635C359.167 366.635 355.557 368.351 353.09 366.418L354.584 360.392L359.795 361.226V361.228Z" fill="url(#paint6_linear_47_2655)"/>
<path d="M359.323 259.577C359.594 260.988 360.779 330.037 353.553 360.981C353.436 361.485 353.686 362.006 354.157 362.203C355.264 362.666 357.437 363.335 360.041 363.425C360.848 363.453 361.57 362.919 361.798 362.127C363.863 354.947 373.761 318.977 375.052 284.615C376.494 246.22 375.052 283.308 375.052 283.308L374.205 259.574L359.322 259.577H359.323Z" fill="url(#paint7_linear_47_2655)"/>
<path d="M382.867 366.241C382.867 366.241 384.111 368.524 385.316 374.587C385.534 375.682 384.784 376.73 383.696 376.84C381.769 377.033 378.804 377.282 376.429 377.266C375.334 377.257 374.479 376.285 374.612 375.173C374.874 372.961 375.695 369.328 378.227 366.499L382.868 366.243L382.867 366.241Z" fill="url(#paint8_linear_47_2655)"/>
<path d="M383.959 359.288L382.492 367.465C382.492 367.465 381.041 368.568 378.171 367.768L378.871 358.97L383.959 359.288Z" fill="url(#paint9_linear_47_2655)"/>
<path d="M387.924 261.695C393.834 298.125 386.643 351.736 384.217 362.229C384.068 362.872 383.56 363.364 382.923 363.472C381.84 363.656 380.058 363.805 378.301 363.283C377.695 363.104 377.27 362.546 377.245 361.902C376.92 353.419 377.505 301.34 372 280.758C371.721 279.716 371.097 278.806 370.234 278.18L359.546 270.419L358.727 257.874L387.925 261.695H387.924Z" fill="url(#paint10_linear_47_2655)"/>
<path d="M350.266 192.667C367.976 192.368 387.518 197.417 387.518 197.417C392.797 228.881 388.441 265.173 388.441 265.173C374.729 268.845 359.263 262.927 359.263 262.927C356.984 249.776 346.351 212.763 346.351 212.763C337.697 211.666 330.569 209.116 324.698 205.745C329.175 200.444 331.287 193.697 332.204 189.71C338.466 191.698 344.803 192.76 350.264 192.667H350.266Z" fill="#593C79"/>
<path d="M297.951 166.021C299.691 163.874 301.894 164.89 301.894 164.89C304.5 176.136 318.166 185.254 332.206 189.71C331.288 193.697 329.178 200.444 324.699 205.745C301.399 192.364 297.951 166.021 297.951 166.021Z" fill="url(#paint11_linear_47_2655)"/>
<path d="M298.374 166.566C298.192 167.157 300.299 168.057 301.541 165.64C301.585 164.481 302.274 159.517 301.597 158.573C297.987 153.545 290.987 147.243 290.987 147.243C289.804 148.435 290.779 149.606 290.779 149.606L294.174 153.219C293.465 154.53 292.598 155.636 292.191 157.223C291.884 158.423 292.072 159.707 292.666 160.8C293.262 161.897 294.076 163.323 294.844 164.438C296.299 166.55 298.374 166.566 298.374 166.566Z" fill="url(#paint12_linear_47_2655)"/>
<path d="M295.659 155.565L298.754 158.244L299.725 160.911L296.967 164.038C296.967 164.038 296.04 158.745 295.35 157.6C294.661 156.454 295.018 155.901 295.661 155.565H295.659Z" fill="url(#paint13_linear_47_2655)"/>
<path d="M380.725 214.934L387.519 197.417C387.519 197.417 404.061 208.898 406.783 223.455C403.657 223.69 397.969 224.521 392.402 227.391C391.178 220.518 380.727 214.934 380.727 214.934H380.725Z" fill="#593C79"/>
<path d="M366.268 231.415C366.268 231.415 384.842 242.137 391.109 232.982C392.409 231.081 392.721 229.192 392.401 227.39C397.968 224.518 403.657 223.688 406.781 223.453C407.602 227.842 407.169 232.509 404.644 237.226C393.666 257.738 363.811 236.093 363.811 236.093L366.268 231.415Z" fill="url(#paint14_linear_47_2655)"/>
<path d="M368.5 244.98L358.363 208.823C358.248 208.411 357.905 208.113 357.491 208.063C355.654 207.844 350.332 207.23 344.188 206.699C336.787 206.059 328.192 205.541 323.056 205.982C322.326 206.045 321.884 206.834 322.209 207.504C325.13 213.54 337.144 238.091 343.161 246.134C343.36 246.4 343.668 246.556 343.996 246.553L367.514 246.33C368.198 246.323 368.689 245.653 368.5 244.98Z" fill="url(#paint15_linear_47_2655)"/>
<path d="M343.136 203.564L335.787 202.313C335.396 202.246 335.075 202.628 335.199 203.013L335.927 205.264C335.989 205.46 336.158 205.603 336.357 205.63L343.43 206.595C343.796 206.644 344.097 206.306 344.014 205.938L343.564 203.972C343.516 203.76 343.347 203.599 343.137 203.564H343.136Z" fill="#7D97F4"/>
<path d="M348.64 209.919L348.035 206.697C347.974 206.374 347.713 206.13 347.392 206.097L332.548 204.559C332.049 204.506 331.648 204.975 331.766 205.474L332.709 209.487C332.784 209.808 333.058 210.041 333.382 210.057L347.887 210.802C348.359 210.827 348.728 210.393 348.639 209.919H348.64Z" fill="#7D97F4"/>
<path d="M366.051 236.244C366.051 236.244 367.464 230.314 366.893 228.209C366.323 226.105 365.22 223.4 361.541 224.001C357.862 224.603 353.523 226.185 353.523 226.185C353.523 226.185 353.742 228.926 356.539 228.042L354.805 229.412C354.805 229.412 355.052 231.607 357.414 230.434L355.802 232.251C355.802 232.251 356.816 234.053 358.553 232.898C360.291 231.742 361.124 236.959 366.051 236.245V236.244Z" fill="url(#paint16_linear_47_2655)"/>
<path d="M368.206 177.98L373.842 194.626C373.935 194.902 373.824 195.207 373.574 195.348C372.038 196.216 366.504 198.723 359.834 194.404C359.14 193.955 358.667 193.22 358.561 192.387L356.737 177.98H368.208H368.206Z" fill="url(#paint17_linear_47_2655)"/>
<path d="M355.944 162.565C355.944 162.565 349.756 174.464 350.549 179.269C351.342 184.076 359.011 183.73 365.709 179.827L370.388 166.98L355.944 162.565Z" fill="url(#paint18_linear_47_2655)"/>
<path d="M365.412 173.518C365.14 173.395 365.04 173.055 365.203 172.801C365.699 172.026 366.628 170.449 366.925 169.067C366.925 169.067 368.036 168.339 364.094 167.375C360.15 166.41 354.269 164.914 353.032 161.486C351.828 158.142 354.993 149.735 360.046 156.434C360.239 156.689 360.615 156.694 360.807 156.439C361.635 155.338 363.812 153.052 366.836 154.439C369.665 155.735 369.984 157.853 369.944 158.921C369.933 159.234 370.208 159.478 370.51 159.419C371.941 159.141 375.373 158.901 376.976 162.498C378.295 165.46 377.438 167.138 376.657 167.958C376.404 168.224 376.515 168.661 376.862 168.769C377.802 169.063 379.016 169.878 378.894 172.128C378.726 175.238 375.322 174.964 374.353 174.822C374.194 174.798 374.034 174.854 373.926 174.975C373.095 175.915 369.351 179.904 365.299 180.383C364.947 180.424 364.676 180.071 364.791 179.73L366.544 174.523C366.627 174.282 366.513 174.016 366.283 173.912L365.414 173.518H365.412Z" fill="url(#paint19_linear_47_2655)"/>
<path d="M364.708 174.257C364.708 174.257 369.114 171.169 369.435 173.769C369.757 176.37 365.468 177.536 363.343 176.566L364.708 174.256V174.257Z" fill="url(#paint20_linear_47_2655)"/>
<path d="M165.666 27.5285H29.1877C25.6623 27.5285 22.9439 30.9961 23.4104 34.8996L31.4676 102.399C31.8536 105.634 34.3239 108.049 37.2449 108.049H118.671C120.708 108.049 122.591 109.276 123.57 111.272C128.026 120.36 143.292 136.816 161.415 137.613C162.472 137.66 162.958 136.167 162.119 135.444C158.262 132.125 151.422 125.116 149.418 115.786C148.573 111.844 151.242 108.049 154.871 108.049H165.666C168.885 108.049 171.494 105.135 171.494 101.538V34.0401C171.494 30.4447 168.884 27.5285 165.666 27.5285Z" fill="#7D97F4"/>
<g opacity="0.6">
<path d="M132.405 47.1685H53.4522C51.7646 47.1685 50.3967 45.6403 50.3967 43.7551C50.3967 41.8699 51.7646 40.3417 53.4522 40.3417H132.405C134.092 40.3417 135.46 41.8699 135.46 43.7551C135.46 45.6403 134.092 47.1685 132.405 47.1685Z" fill="url(#paint21_linear_47_2655)"/>
<path d="M141.891 60.5384H62.9386C61.251 60.5384 59.8831 59.0103 59.8831 57.125C59.8831 55.2398 61.251 53.7117 62.9386 53.7117H141.891C143.579 53.7117 144.947 55.2398 144.947 57.125C144.947 59.0103 143.579 60.5384 141.891 60.5384Z" fill="url(#paint22_linear_47_2655)"/>
<path d="M119.438 87.2765H62.9386C61.251 87.2765 59.8831 85.7484 59.8831 83.8632C59.8831 81.9779 61.251 80.4498 62.9386 80.4498H119.438C121.126 80.4498 122.494 81.9779 122.494 83.8632C122.494 85.7484 121.126 87.2765 119.438 87.2765Z" fill="url(#paint23_linear_47_2655)"/>
<path d="M150.745 73.9066H71.7926C70.105 73.9066 68.7371 72.3785 68.7371 70.4932C68.7371 68.608 70.105 67.0798 71.7926 67.0798H150.745C152.433 67.0798 153.801 68.608 153.801 70.4932C153.801 72.3785 152.433 73.9066 150.745 73.9066Z" fill="url(#paint24_linear_47_2655)"/>
</g>
<g opacity="0.3">
<path d="M97.5414 324.844C97.6768 325.487 97.309 326.142 96.6717 326.348C95.2782 326.801 93.8437 327.199 92.4093 327.532C91.7118 327.694 91.0144 327.26 90.8531 326.559C90.8517 326.551 90.8489 326.543 90.8476 326.535C90.7013 325.844 91.1334 325.16 91.824 325C93.1873 324.684 94.5494 324.305 95.8731 323.877C96.5541 323.656 97.2857 324.03 97.5059 324.712C97.5209 324.756 97.5318 324.8 97.5414 324.845V324.844ZM86.4716 327.108C86.4826 327.157 86.4894 327.208 86.4949 327.26C86.5605 327.975 86.034 328.606 85.3216 328.672C83.857 328.807 82.3705 328.878 80.9073 328.887C80.1908 328.891 79.6096 328.316 79.6028 327.595C79.5987 326.877 80.1757 326.292 80.8923 326.288C82.2844 326.28 83.6956 326.211 85.0877 326.084C85.7496 326.024 86.339 326.472 86.4744 327.108H86.4716ZM75.1789 326.873C75.209 327.014 75.2159 327.164 75.1954 327.316C75.0996 328.027 74.4473 328.526 73.7376 328.431C72.2826 328.235 70.818 327.973 69.3835 327.653C68.6848 327.497 68.2444 326.802 68.4003 326.102C68.5562 325.402 69.2495 324.96 69.9483 325.117C71.3103 325.421 72.7011 325.669 74.0822 325.855C74.6402 325.931 75.0682 326.351 75.1789 326.873ZM64.2199 324.114C64.2692 324.348 64.2555 324.597 64.1652 324.838C63.9136 325.51 63.1656 325.851 62.4955 325.599C61.1198 325.081 59.751 324.499 58.4245 323.866C57.7791 323.557 57.5042 322.782 57.8119 322.134C58.1196 321.486 58.8936 321.212 59.5404 321.52C60.7998 322.121 62.1003 322.675 63.4076 323.166C63.8384 323.327 64.1324 323.694 64.2213 324.114H64.2199ZM54.1511 318.975C54.2209 319.303 54.1634 319.658 53.9652 319.959C53.5713 320.558 52.7659 320.724 52.1683 320.329C50.9444 319.521 49.7383 318.649 48.5827 317.737C48.0193 317.293 47.9222 316.476 48.3667 315.912C48.8097 315.349 49.6248 315.251 50.1882 315.695C51.2863 316.563 52.4322 317.392 53.5959 318.159C53.8927 318.355 54.0828 318.652 54.1511 318.974V318.975ZM45.4676 311.734C45.5579 312.159 45.4334 312.619 45.097 312.943C44.5801 313.44 43.7596 313.424 43.2632 312.906C42.2472 311.845 41.2626 310.727 40.3395 309.583C39.8896 309.024 39.9758 308.207 40.5324 307.755C41.0889 307.304 41.9053 307.391 42.3566 307.948C43.2345 309.035 44.1685 310.098 45.1353 311.105C45.309 311.286 45.4198 311.505 45.469 311.734H45.4676ZM32.5996 265.792C32.6365 265.967 32.6379 266.154 32.5968 266.341C32.296 267.705 32.0499 269.1 31.8666 270.486C31.7723 271.197 31.1213 271.697 30.4116 271.604C29.7019 271.51 29.2014 270.857 29.2957 270.145C29.4886 268.684 29.747 267.216 30.0643 265.78C30.2188 265.078 30.9121 264.637 31.6109 264.792C32.1237 264.905 32.4984 265.308 32.5996 265.792ZM38.6069 302.75C38.7191 303.277 38.4921 303.84 38.0052 304.134C37.3912 304.504 36.594 304.304 36.2262 303.688C35.4699 302.428 34.7602 301.118 34.1148 299.797C33.803 299.152 34.0655 298.373 34.7096 298.058C35.3523 297.743 36.1291 298.01 36.4449 298.654C37.0576 299.909 37.7318 301.152 38.4497 302.35C38.5263 302.477 38.5782 302.611 38.6069 302.75ZM31.4181 277.049C31.4359 277.133 31.4454 277.221 31.4468 277.31C31.4577 278.707 31.5302 280.121 31.6588 281.515C31.7244 282.23 31.2006 282.863 30.4882 282.929C29.7757 282.995 29.1398 282.471 29.0769 281.756C28.9416 280.29 28.865 278.8 28.854 277.33C28.8486 276.612 29.4243 276.026 30.1408 276.02C30.7685 276.015 31.295 276.457 31.4194 277.049H31.4181ZM33.9206 292.454C34.056 293.096 33.6895 293.75 33.0536 293.957C32.3726 294.179 31.641 293.807 31.4181 293.124C30.9641 291.727 30.5634 290.292 30.2297 288.858C30.227 288.849 30.2256 288.84 30.2229 288.83C30.0766 288.141 30.5087 287.457 31.1965 287.296C31.894 287.132 32.5914 287.565 32.7541 288.266C33.0727 289.628 33.4529 290.991 33.885 292.319C33.8987 292.364 33.911 292.409 33.9206 292.453V292.454Z" fill="url(#paint25_linear_47_2655)"/>
<path d="M35.3618 257.097C35.4151 257.347 35.3946 257.616 35.288 257.87C35.0281 258.487 34.7765 259.121 34.5413 259.751C34.2897 260.422 33.5431 260.763 32.8716 260.513C32.2002 260.262 31.8597 259.512 32.1127 258.84C32.3602 258.175 32.6255 257.509 32.8976 256.86C33.1752 256.198 33.9369 255.888 34.596 256.166C35.0035 256.338 35.277 256.694 35.3618 257.095V257.097Z" fill="url(#paint26_linear_47_2655)"/>
</g>
<g opacity="0.3">
<path d="M63.7287 229.497C63.8586 230.111 63.5291 230.745 62.926 230.978C62.3024 231.22 61.672 231.477 61.0553 231.744C60.3975 232.029 59.6345 231.726 59.35 231.069C59.0642 230.407 59.3678 229.645 60.0242 229.36C60.6737 229.078 61.337 228.807 61.9934 228.553C62.6621 228.296 63.4128 228.629 63.6699 229.299C63.6945 229.364 63.715 229.431 63.7287 229.497Z" fill="url(#paint27_linear_47_2655)"/>
<path d="M131.322 266.176C131.445 266.761 131.56 267.35 131.665 267.943C131.79 268.65 131.319 269.324 130.614 269.449C129.908 269.574 129.233 269.1 129.111 268.395C128.869 267.025 128.572 265.669 128.225 264.348C128.043 263.653 128.456 262.943 129.148 262.76C129.841 262.576 130.551 262.991 130.733 263.685C130.947 264.501 131.146 265.34 131.322 266.174V266.176ZM132.394 274.765C132.409 274.837 132.419 274.909 132.422 274.985C132.479 276.433 132.475 277.9 132.411 279.346C132.379 280.062 131.773 280.617 131.058 280.586C130.343 280.554 129.786 279.946 129.821 279.229C129.882 277.856 129.885 276.463 129.83 275.086C129.801 274.369 130.359 273.765 131.075 273.736C131.716 273.712 132.266 274.156 132.394 274.764V274.765ZM128.539 257.21C128.666 257.809 128.355 258.434 127.769 258.678C127.107 258.955 126.349 258.641 126.074 257.978C125.547 256.71 124.959 255.448 124.325 254.228C123.995 253.59 124.241 252.807 124.877 252.475C125.513 252.144 126.297 252.392 126.626 253.029C127.293 254.315 127.913 255.644 128.468 256.979C128.5 257.056 128.523 257.132 128.541 257.21H128.539ZM131.607 285.88C131.641 286.042 131.643 286.212 131.612 286.384C131.351 287.809 131.024 289.24 130.644 290.636C130.455 291.328 129.743 291.736 129.052 291.547C128.36 291.358 127.954 290.644 128.143 289.951C128.504 288.625 128.813 287.267 129.062 285.913C129.192 285.207 129.867 284.74 130.571 284.87C131.103 284.969 131.5 285.38 131.607 285.879V285.88ZM123.155 247.471C123.259 247.963 123.072 248.492 122.637 248.802C122.053 249.217 121.244 249.078 120.829 248.493C120.038 247.374 119.187 246.272 118.3 245.22C117.837 244.672 117.907 243.851 118.454 243.389C119.001 242.926 119.819 242.996 120.281 243.544C121.215 244.653 122.111 245.812 122.945 246.99C123.05 247.14 123.12 247.304 123.155 247.471ZM115.77 239.152C115.853 239.545 115.753 239.971 115.465 240.292C114.985 240.825 114.164 240.867 113.632 240.386C112.612 239.464 111.541 238.575 110.45 237.743C109.88 237.309 109.769 236.495 110.203 235.922C110.636 235.351 111.45 235.24 112.02 235.674C113.169 236.55 114.296 237.485 115.369 238.455C115.58 238.646 115.714 238.891 115.77 239.15V239.152ZM106.748 232.643C106.811 232.942 106.77 233.264 106.609 233.552C106.257 234.176 105.466 234.397 104.842 234.043C103.646 233.365 102.407 232.731 101.161 232.158C100.51 231.858 100.224 231.088 100.524 230.434C100.823 229.782 101.593 229.497 102.244 229.796C103.555 230.4 104.859 231.067 106.118 231.78C106.456 231.97 106.675 232.291 106.748 232.643ZM96.5264 228.261C96.5702 228.468 96.5634 228.689 96.4991 228.905C96.2912 229.592 95.5678 229.981 94.8827 229.773C93.5672 229.374 92.2202 229.027 90.8787 228.741C90.1786 228.592 89.73 227.901 89.8791 227.199C90.0281 226.498 90.716 226.048 91.4175 226.198C92.8301 226.498 94.2496 226.864 95.6335 227.284C96.1025 227.427 96.4321 227.812 96.5264 228.26V228.261ZM85.5893 226.233C85.6139 226.35 85.6221 226.472 85.6139 226.597C85.5633 227.312 84.9425 227.852 84.2273 227.8C82.8598 227.701 81.4704 227.66 80.0975 227.678C79.3809 227.687 78.7943 227.11 78.7847 226.395C78.7751 225.677 79.3495 225.088 80.0647 225.08C81.5101 225.062 82.9733 225.104 84.4133 225.209C85.0026 225.251 85.4731 225.683 85.5893 226.235V226.233ZM74.4826 226.662C74.4881 226.688 74.4922 226.714 74.4963 226.742C74.6016 227.452 74.1134 228.113 73.405 228.219C72.4054 228.368 71.3975 228.55 70.4102 228.76C70.0533 228.835 69.6964 228.916 69.3436 228.998C68.6462 229.163 67.9474 228.729 67.7846 228.03C67.6055 227.325 68.054 226.632 68.7501 226.468C69.122 226.38 69.4967 226.296 69.8728 226.217C70.9107 225.996 71.9705 225.806 73.0221 225.648C73.7045 225.547 74.3404 225.996 74.4812 226.664L74.4826 226.662Z" fill="url(#paint28_linear_47_2655)"/>
<path d="M128.381 296.576C128.434 296.828 128.414 297.099 128.304 297.354C128.028 298.001 127.734 298.654 127.428 299.296C127.119 299.944 126.345 300.218 125.699 299.909C125.052 299.6 124.779 298.826 125.087 298.177C125.376 297.568 125.657 296.947 125.919 296.333C126.201 295.674 126.963 295.367 127.622 295.65C128.025 295.822 128.296 296.177 128.381 296.576Z" fill="url(#paint29_linear_47_2655)"/>
</g>
<path d="M113.303 297.984C113.466 297.783 113.482 297.499 113.344 297.28L109.418 291.021C110.909 287.909 111.915 284.536 112.349 281.011L119.019 277.865C119.253 277.754 119.391 277.507 119.364 277.249L118.412 268.434C118.385 268.176 118.196 267.965 117.944 267.907L110.757 266.265C109.581 262.913 107.878 259.834 105.757 257.113L108.256 250.158C108.343 249.914 108.267 249.642 108.066 249.48L101.172 243.921C100.971 243.758 100.688 243.742 100.469 243.88L94.2225 247.814C91.117 246.32 87.7502 245.312 84.2317 244.877L81.0919 238.194C80.9825 237.959 80.735 237.821 80.4779 237.848L71.6795 238.802C71.4225 238.829 71.2119 239.019 71.1544 239.271L69.5148 246.472C66.1699 247.649 63.0972 249.357 60.3814 251.482L53.44 248.978C53.1966 248.891 52.9245 248.967 52.7631 249.169L47.2152 256.076C47.0525 256.277 47.0361 256.561 47.1742 256.78L51.1003 263.039C49.6097 266.151 48.6032 269.524 48.1697 273.05L41.4992 276.196C41.2653 276.307 41.1272 276.553 41.1546 276.811L42.1063 285.627C42.1337 285.884 42.3224 286.095 42.574 286.153L49.7615 287.796C50.9362 291.147 52.6401 294.226 54.761 296.947L52.2626 303.902C52.1751 304.146 52.2517 304.419 52.4527 304.58L59.3462 310.139C59.5472 310.302 59.8303 310.319 60.0491 310.18L66.2958 306.247C69.4013 307.74 72.7681 308.748 76.2866 309.183L79.4263 315.867C79.5357 316.101 79.7832 316.239 80.0403 316.212L88.8374 315.258C89.0945 315.231 89.305 315.042 89.3638 314.79L91.0035 307.588C94.3483 306.411 97.4211 304.704 100.137 302.579L107.078 305.082C107.322 305.17 107.594 305.093 107.755 304.891L113.303 297.984Z" fill="url(#paint30_linear_47_2655)"/>
<path d="M88.963 275.19C89.8614 279.44 87.5353 283.833 83.3522 285.388C78.7533 287.097 73.6253 284.737 71.92 280.129C71.0927 277.897 71.1843 275.476 72.1757 273.313C73.1672 271.149 74.9394 269.502 77.167 268.675C81.7659 266.966 86.894 269.326 88.5992 273.934C88.7524 274.349 88.8741 274.769 88.963 275.19ZM73.5829 278.433C73.6526 278.762 73.7456 279.087 73.8646 279.407C75.1719 282.94 79.1048 284.748 82.6301 283.438C86.1555 282.129 87.9633 278.189 86.6533 274.656C85.346 271.123 81.4131 269.315 77.8877 270.625C76.1797 271.259 74.8204 272.522 74.0601 274.182C73.442 275.53 73.2807 277.01 73.5829 278.435V278.433Z" fill="#7D97F4"/>
<path d="M101.493 272.344C101.648 273.074 101.767 273.816 101.848 274.568C101.874 274.805 101.896 275.042 101.913 275.279C102.002 276.449 101.997 277.626 101.9 278.788C101.9 278.805 101.897 278.82 101.896 278.836C101.891 278.881 101.887 278.926 101.883 278.97C101.875 279.058 101.867 279.146 101.857 279.232C101.833 279.462 101.663 279.64 101.45 279.687C101.398 279.698 101.343 279.701 101.287 279.695C101.003 279.665 100.796 279.409 100.826 279.124C100.981 277.655 100.977 276.159 100.817 274.679C100.023 267.325 95.4875 261.269 89.316 258.207C85.8837 256.503 81.9453 255.727 77.8634 256.171C77.1482 256.249 76.4412 256.361 75.7465 256.509C71.0697 257.502 66.9112 260.055 63.874 263.837C60.3855 268.18 58.7938 273.627 59.3914 279.169C60.6289 290.617 70.9247 298.916 82.346 297.677C83.0502 297.601 83.7476 297.49 84.4369 297.343C87.4193 296.71 90.2309 295.429 92.665 293.583C92.7279 293.535 92.7977 293.504 92.8701 293.489C93.0602 293.449 93.2667 293.518 93.3911 293.683C93.5634 293.914 93.5197 294.238 93.2899 294.412C90.7355 296.35 87.7831 297.695 84.6515 298.36C83.9295 298.513 83.1965 298.631 82.4581 298.711C70.468 300.011 59.658 291.291 58.3603 279.28C57.7312 273.461 59.4023 267.744 63.0658 263.183C66.2548 259.212 70.6198 256.532 75.5291 255.49C76.2579 255.335 77.0005 255.216 77.7512 255.135C83.5603 254.504 89.2654 256.179 93.8164 259.849C97.7794 263.045 100.454 267.421 101.495 272.341L101.493 272.344Z" fill="#7D97F4"/>
<g opacity="0.3">
<path d="M140.148 361.13C140.22 361.47 140.065 361.831 139.745 362.003C139.146 362.327 138.529 362.636 137.912 362.923C137.511 363.109 137.036 362.935 136.848 362.532C136.66 362.131 136.837 361.653 137.238 361.466C137.826 361.192 138.414 360.898 138.986 360.589C139.374 360.38 139.861 360.525 140.071 360.915C140.108 360.985 140.134 361.056 140.149 361.13H140.148Z" fill="url(#paint31_linear_47_2655)"/>
<path d="M134.478 363.547C134.563 363.945 134.334 364.35 133.94 364.476C132.825 364.835 131.679 365.14 130.533 365.382C130.293 365.433 130.049 365.482 129.806 365.529C129.371 365.611 128.963 365.299 128.869 364.89C128.787 364.455 129.071 364.035 129.506 363.952C129.739 363.908 129.971 363.861 130.201 363.812C131.294 363.58 132.386 363.29 133.449 362.947C133.87 362.812 134.321 363.045 134.457 363.467C134.465 363.494 134.472 363.52 134.477 363.546L134.478 363.547ZM126.308 365.101C126.316 365.138 126.321 365.177 126.324 365.215C126.353 365.658 126.019 366.04 125.578 366.069C124.161 366.162 122.726 366.169 121.314 366.088C120.872 366.063 120.536 365.681 120.56 365.241C120.586 364.798 120.964 364.46 121.405 364.486C122.754 364.563 124.121 364.557 125.472 364.468C125.874 364.442 126.227 364.718 126.308 365.101ZM118.004 364.623C118.025 364.723 118.028 364.829 118.008 364.934C117.929 365.37 117.511 365.659 117.076 365.578C115.682 365.32 114.289 364.974 112.935 364.546C112.513 364.413 112.279 363.963 112.413 363.539C112.545 363.117 112.995 362.883 113.418 363.016C114.709 363.424 116.037 363.756 117.366 364C117.694 364.06 117.939 364.315 118.004 364.623ZM110.072 362.114C110.106 362.277 110.091 362.451 110.017 362.614C109.832 363.017 109.356 363.195 108.954 363.01C107.663 362.418 106.399 361.74 105.194 360.995C104.818 360.762 104.701 360.267 104.933 359.89C105.165 359.514 105.657 359.396 106.035 359.629C107.183 360.338 108.39 360.985 109.622 361.55C109.862 361.659 110.021 361.873 110.072 362.114ZM102.992 357.741C103.04 357.968 102.989 358.213 102.834 358.409C102.557 358.755 102.053 358.811 101.708 358.534C100.602 357.646 99.5392 356.68 98.5505 355.665C98.2401 355.348 98.247 354.84 98.5642 354.53C98.8815 354.221 99.3888 354.227 99.6965 354.544C100.64 355.513 101.653 356.433 102.71 357.28C102.861 357.401 102.957 357.565 102.994 357.741H102.992ZM97.1872 351.779C97.2487 352.074 97.1434 352.39 96.8877 352.585C96.5362 352.853 96.033 352.783 95.765 352.431C94.9076 351.301 94.1117 350.105 93.4006 348.878C93.1791 348.493 93.309 348.004 93.6919 347.781C94.0748 347.559 94.5643 347.689 94.7859 348.073C95.4628 349.243 96.2217 350.381 97.0395 351.46C97.1133 351.557 97.1612 351.667 97.1858 351.779H97.1872ZM93.0136 344.577C93.0916 344.946 92.9015 345.33 92.5432 345.482C92.1357 345.656 91.6653 345.465 91.493 345.057C90.9405 343.754 90.4619 342.399 90.0708 341.029C89.9559 340.6 90.1966 340.157 90.6219 340.036C91.0472 339.915 91.4902 340.161 91.6119 340.587C91.9839 341.894 92.4406 343.187 92.9671 344.429C92.9876 344.479 93.0027 344.528 93.0136 344.577ZM90.3374 332.407C90.347 332.453 90.3525 332.499 90.3538 332.548C90.3921 333.719 90.4961 334.905 90.6602 336.079C90.6848 336.258 90.7094 336.432 90.7381 336.606C90.8065 337.044 90.5084 337.455 90.0721 337.524C89.6346 337.593 89.2106 337.293 89.1559 336.856C89.1272 336.671 89.0999 336.486 89.0739 336.299C88.9016 335.072 88.7935 333.827 88.7539 332.601C88.7388 332.158 89.0862 331.787 89.5279 331.772C89.9217 331.758 90.2581 332.033 90.3374 332.406V332.407Z" fill="url(#paint32_linear_47_2655)"/>
</g>
<g opacity="0.3">
<path d="M157.076 323.833C157.167 324.262 156.897 324.685 156.469 324.782C156.038 324.88 155.609 324.608 155.512 324.175C155.219 322.874 154.845 321.579 154.399 320.326C154.255 319.91 154.467 319.45 154.884 319.3C155.301 319.151 155.759 319.369 155.909 319.787C156.376 321.101 156.769 322.457 157.076 323.822C157.076 323.826 157.078 323.829 157.079 323.833H157.076ZM157.735 327.886C157.741 327.915 157.746 327.942 157.749 327.972C157.891 329.361 157.95 330.775 157.924 332.172C157.916 332.616 157.551 332.968 157.109 332.96C156.666 332.951 156.316 332.583 156.323 332.143C156.347 330.811 156.291 329.463 156.156 328.137C156.111 327.695 156.431 327.302 156.871 327.257C157.283 327.214 157.652 327.493 157.737 327.887L157.735 327.886ZM154.325 316.116C154.399 316.464 154.233 316.831 153.901 317C153.506 317.198 153.025 317.039 152.826 316.643C152.227 315.45 151.552 314.284 150.816 313.177C150.573 312.806 150.671 312.31 151.04 312.064C151.408 311.819 151.906 311.919 152.151 312.288C152.922 313.448 153.63 314.672 154.258 315.921C154.289 315.984 154.313 316.05 154.326 316.116H154.325ZM157.58 336.084C157.599 336.173 157.603 336.267 157.589 336.363C157.394 337.747 157.109 339.134 156.747 340.483C156.632 340.911 156.192 341.164 155.765 341.049C155.34 340.934 155.087 340.493 155.2 340.065C155.546 338.779 155.817 337.458 156.003 336.138C156.066 335.7 156.471 335.394 156.908 335.456C157.25 335.505 157.511 335.764 157.58 336.085V336.084ZM149.794 309.294C149.853 309.572 149.763 309.872 149.532 310.071C149.196 310.36 148.69 310.32 148.402 309.984C147.538 308.973 146.601 308.004 145.621 307.106C145.294 306.806 145.272 306.299 145.57 305.971C145.868 305.644 146.376 305.622 146.703 305.92C147.731 306.864 148.713 307.88 149.619 308.939C149.71 309.044 149.767 309.168 149.794 309.294ZM143.763 303.76C143.808 303.972 143.767 304.202 143.631 304.393C143.374 304.753 142.874 304.837 142.514 304.579C141.43 303.803 140.289 303.086 139.124 302.448C138.736 302.236 138.593 301.748 138.805 301.359C139.017 300.97 139.504 300.827 139.891 301.04C141.112 301.708 142.309 302.459 143.445 303.273C143.615 303.395 143.723 303.571 143.763 303.76ZM136.58 299.833C136.612 299.982 136.602 300.142 136.541 300.294C136.378 300.707 135.912 300.907 135.5 300.744C134.263 300.249 132.984 299.829 131.7 299.49C131.273 299.378 131.016 298.938 131.128 298.51C131.24 298.082 131.678 297.825 132.106 297.938C133.453 298.293 134.795 298.734 136.092 299.252C136.351 299.355 136.526 299.578 136.579 299.833H136.58Z" fill="url(#paint33_linear_47_2655)"/>
<path d="M155.439 344.036C155.471 344.188 155.46 344.35 155.397 344.505C155.139 345.14 154.861 345.772 154.571 346.382C154.381 346.782 153.902 346.952 153.503 346.761C153.105 346.57 152.936 346.091 153.124 345.691C153.402 345.11 153.666 344.507 153.913 343.9C154.08 343.489 154.548 343.292 154.957 343.459C155.212 343.563 155.386 343.785 155.438 344.037L155.439 344.036Z" fill="url(#paint34_linear_47_2655)"/>
</g>
<path d="M145.178 345.532C145.286 345.397 145.297 345.208 145.205 345.061L142.578 340.874C143.576 338.791 144.249 336.534 144.539 334.175L149.003 332.07C149.16 331.996 149.251 331.832 149.234 331.659L148.596 325.761C148.577 325.588 148.451 325.447 148.283 325.408L143.474 324.31C142.688 322.067 141.548 320.006 140.129 318.186L141.801 313.532C141.86 313.369 141.808 313.186 141.674 313.077L137.062 309.357C136.926 309.249 136.738 309.238 136.591 309.329L132.412 311.962C130.334 310.961 128.081 310.287 125.727 309.997L123.626 305.524C123.552 305.367 123.388 305.275 123.216 305.293L117.329 305.931C117.157 305.951 117.016 306.077 116.977 306.245L115.881 311.064C113.642 311.852 111.585 312.993 109.769 314.416L105.124 312.74C104.961 312.681 104.78 312.733 104.671 312.867L100.959 317.49C100.851 317.626 100.84 317.815 100.931 317.962L103.558 322.149C102.56 324.231 101.887 326.488 101.597 328.848L97.1339 330.952C96.978 331.026 96.885 331.191 96.9028 331.363L97.54 337.262C97.5592 337.435 97.685 337.576 97.8532 337.614L102.663 338.713C103.449 340.956 104.588 343.017 106.008 344.836L104.335 349.491C104.276 349.654 104.328 349.836 104.462 349.946L109.075 353.666C109.21 353.774 109.399 353.785 109.545 353.693L113.724 351.061C115.803 352.061 118.055 352.735 120.41 353.026L122.51 357.498C122.584 357.654 122.748 357.747 122.921 357.728L128.808 357.09C128.98 357.071 129.121 356.945 129.159 356.776L130.256 351.957C132.494 351.169 134.55 350.028 136.367 348.606L141.012 350.281C141.175 350.34 141.357 350.288 141.466 350.154L145.179 345.531L145.178 345.532Z" fill="url(#paint35_linear_47_2655)"/>
<path d="M128.997 330.266C129.265 331.532 129.122 332.846 128.573 334.045C127.898 335.519 126.69 336.64 125.173 337.204C122.041 338.368 118.548 336.762 117.386 333.623C116.229 330.478 117.829 326.983 120.961 325.82C122.479 325.255 124.124 325.318 125.595 325.994C127.066 326.67 128.186 327.88 128.748 329.401C128.854 329.685 128.937 329.974 128.999 330.266H128.997ZM118.706 332.435C118.751 332.646 118.811 332.857 118.888 333.065C119.742 335.374 122.312 336.555 124.616 335.699C125.732 335.283 126.621 334.459 127.117 333.375C127.613 332.291 127.659 331.078 127.246 329.959C126.831 328.841 126.008 327.95 124.926 327.453C123.845 326.955 122.633 326.909 121.517 327.324C119.421 328.102 118.256 330.304 118.706 332.435Z" fill="#7D97F4"/>
<path d="M137.722 328.295C137.828 328.793 137.908 329.298 137.964 329.814C138.075 330.837 138.082 331.873 137.985 332.894C137.981 332.939 137.975 332.986 137.971 333.031C137.934 333.386 137.672 333.662 137.342 333.732C137.261 333.749 137.177 333.754 137.092 333.745C136.651 333.698 136.334 333.304 136.379 332.862C136.479 331.909 136.476 330.941 136.374 329.985C136.368 329.931 136.362 329.879 136.356 329.827C136.089 327.567 135.272 325.458 133.993 323.646C133.3 322.664 132.468 321.769 131.515 320.986C131.507 320.979 131.5 320.973 131.492 320.966C131.467 320.947 131.444 320.928 131.421 320.909C128.613 318.647 125.096 317.614 121.515 318.001C121.051 318.051 120.594 318.125 120.145 318.221C117.117 318.863 114.426 320.517 112.458 322.964C110.199 325.777 109.169 329.301 109.558 332.89C109.946 336.475 111.704 339.701 114.511 341.964C117.317 344.227 120.835 345.26 124.417 344.872C124.872 344.823 125.325 344.75 125.769 344.655C127.7 344.246 129.52 343.417 131.095 342.222C131.192 342.148 131.301 342.1 131.413 342.077C131.707 342.014 132.024 342.121 132.218 342.377C132.483 342.73 132.416 343.233 132.062 343.502C130.3 344.839 128.263 345.767 126.103 346.226C125.604 346.331 125.099 346.413 124.589 346.468C120.581 346.903 116.645 345.747 113.505 343.215C110.366 340.683 108.395 337.081 107.964 333.064C107.531 329.049 108.684 325.104 111.211 321.958C113.41 319.219 116.422 317.37 119.81 316.65C120.313 316.543 120.824 316.461 121.342 316.405C129.1 315.564 136.143 320.802 137.726 328.291L137.722 328.295Z" fill="#7D97F4"/>
<path d="M81.1407 343.135C81.1407 343.135 65.3559 326.516 73.0165 319.939C80.6758 313.365 86.2333 331.94 81.1407 343.135Z" fill="#99B7FF"/>
<path d="M75.6338 351.349C75.6338 351.349 64.9195 334.039 58.8876 343.135C53.4409 351.349 75.6338 351.349 75.6338 351.349Z" fill="#99B7FF"/>
<path d="M89.7598 346.279C89.7598 346.279 102.136 327.382 107.51 338.451C112.136 347.981 89.7598 346.279 89.7598 346.279Z" fill="#99B7FF"/>
<path d="M81.9777 376.779L81.5715 376.726C81.5811 376.656 82.4973 369.587 82.2963 359.66C82.1117 350.505 80.911 336.976 76.2424 324.518L76.6267 324.374C81.3158 336.888 82.5206 350.47 82.7065 359.66C82.9075 369.616 81.9872 376.709 81.9777 376.779Z" fill="#377FFD"/>
<path d="M82.7215 358.186L82.3345 358.049C82.3495 358.008 83.8141 353.896 86.8827 349.626C89.723 345.675 94.5584 340.771 101.464 339.856L101.518 340.263C94.7608 341.159 90.0129 345.975 87.2205 349.857C84.1833 354.08 82.7338 358.145 82.7201 358.185L82.7215 358.186Z" fill="#377FFD"/>
<path d="M82.3302 362.232C82.3207 362.201 81.3539 359.02 78.6763 355.267C76.208 351.808 71.7391 347.14 64.46 344.542L64.5981 344.154C71.9839 346.79 76.5184 351.53 79.0209 355.041C81.734 358.848 82.7145 362.083 82.7241 362.114L82.3302 362.232Z" fill="#377FFD"/>
<path d="M97.1322 364.797C97.1322 364.797 103.161 359.268 100.595 356.738C98.0293 354.208 95.5938 360.685 97.1322 364.797Z" fill="#D6E4FF"/>
<path d="M98.8921 367.858C98.8921 367.858 103.133 361.958 105.057 365.345C106.795 368.405 98.8921 367.858 98.8921 367.858Z" fill="#D6E4FF"/>
<path d="M93.9856 365.704C93.9856 365.704 90.0432 358.67 87.8566 362.479C85.9749 365.758 93.9856 365.704 93.9856 365.704Z" fill="#D6E4FF"/>
<path d="M95.9453 376.762C95.9385 376.66 95.3532 366.521 99.1425 358.201L99.3914 358.315C95.6308 366.571 96.212 376.644 96.2175 376.745L95.944 376.763L95.9453 376.762Z" fill="#99B7FF"/>
<path d="M96.0903 370.13C96.0738 370.071 94.4629 364.256 89.9338 363.334L89.9885 363.065C94.6845 364.022 96.3378 369.998 96.3542 370.059L96.0903 370.13Z" fill="#99B7FF"/>
<path d="M96.246 371.637L95.9902 371.54C96.008 371.495 97.7926 366.963 102.979 365.507L103.053 365.771C97.9963 367.191 96.2624 371.593 96.2446 371.638L96.246 371.637Z" fill="#99B7FF"/>
<path d="M395.921 352.642C395.921 352.642 408.677 340.945 403.247 335.59C397.818 330.237 392.667 343.943 395.921 352.642Z" fill="#D6E4FF"/>
<path d="M399.644 359.118C399.644 359.118 408.615 346.635 412.687 353.803C416.364 360.275 399.644 359.118 399.644 359.118Z" fill="#D6E4FF"/>
<path d="M389.265 354.56C389.265 354.56 380.923 339.678 376.299 347.737C372.319 354.676 389.265 354.56 389.265 354.56Z" fill="#D6E4FF"/>
<path d="M393.485 377.949C393.471 377.734 392.235 356.303 400.243 338.718L400.632 338.897C392.668 356.383 393.898 377.71 393.911 377.923L393.485 377.951V377.949Z" fill="#99B7FF"/>
<path d="M393.789 363.906C393.757 363.782 390.337 351.435 380.707 349.474L380.792 349.054C390.683 351.068 394.168 363.668 394.201 363.795L393.788 363.906H393.789Z" fill="#99B7FF"/>
<path d="M393.977 367.085L393.577 366.932C393.614 366.836 397.376 357.286 408.315 354.215L408.43 354.628C397.703 357.639 394.012 366.991 393.975 367.085H393.977Z" fill="#99B7FF"/>
<path d="M210.432 365.544C210.432 365.544 216.084 360.36 213.679 357.989C211.273 355.617 208.991 361.69 210.432 365.544Z" fill="#D6E4FF"/>
<path d="M212.081 368.414C212.081 368.414 216.057 362.884 217.86 366.059C219.489 368.927 212.081 368.414 212.081 368.414Z" fill="#D6E4FF"/>
<path d="M207.482 366.395C207.482 366.395 203.786 359.8 201.738 363.371C199.974 366.445 207.482 366.395 207.482 366.395Z" fill="#D6E4FF"/>
<path d="M209.311 376.762C209.305 376.667 208.756 367.159 212.31 359.357L212.559 359.471C209.035 367.209 209.579 376.649 209.584 376.744L209.311 376.762Z" fill="#99B7FF"/>
<path d="M209.446 370.546C209.431 370.492 207.923 365.045 203.682 364.182L203.737 363.913C208.144 364.811 209.697 370.419 209.712 370.475L209.448 370.546H209.446Z" fill="#99B7FF"/>
<path d="M209.611 371.96L209.355 371.862C209.371 371.819 211.047 367.568 215.913 366.202L215.987 366.466C211.256 367.794 209.627 371.919 209.611 371.96Z" fill="#99B7FF"/>
<path d="M227.48 369.298C227.48 369.298 231.239 365.851 229.639 364.272C228.039 362.695 226.521 366.735 227.48 369.298Z" fill="#99B7FF"/>
<path d="M228.578 371.207C228.578 371.207 231.221 367.528 232.422 369.641C233.505 371.548 228.578 371.207 228.578 371.207Z" fill="#99B7FF"/>
<path d="M225.518 369.864C225.518 369.864 223.06 365.478 221.698 367.853C220.524 369.897 225.518 369.864 225.518 369.864Z" fill="#99B7FF"/>
<path d="M226.757 376.757C226.753 376.694 226.388 370.376 228.75 365.192L228.874 365.249C226.528 370.401 226.89 376.686 226.894 376.749L226.757 376.757Z" fill="#377FFD"/>
<path d="M226.852 372.274C226.843 372.237 225.835 368.602 223 368.024L223.027 367.89C225.946 368.484 226.974 372.2 226.983 372.238L226.851 372.274H226.852Z" fill="#377FFD"/>
<path d="M226.912 373.557L226.785 373.507C226.796 373.479 227.905 370.661 231.132 369.756L231.169 369.887C228.007 370.775 226.923 373.528 226.913 373.555L226.912 373.557Z" fill="#377FFD"/>
<path d="M419.161 366.278C419.161 366.278 425.04 360.887 422.537 358.419C420.035 355.951 417.661 362.269 419.161 366.278Z" fill="#99B7FF"/>
<path d="M420.877 369.262C420.877 369.262 425.013 363.509 426.889 366.813C428.583 369.796 420.877 369.262 420.877 369.262Z" fill="#99B7FF"/>
<path d="M416.094 367.162C416.094 367.162 412.249 360.303 410.118 364.017C408.283 367.215 416.094 367.162 416.094 367.162Z" fill="#99B7FF"/>
<path d="M418.03 377.943C418.024 377.844 417.453 367.964 421.147 359.856L421.341 359.945C417.671 368.003 418.238 377.832 418.244 377.929L418.03 377.943Z" fill="#377FFD"/>
<path d="M418.171 371.471C418.156 371.414 416.581 365.727 412.147 364.824L412.19 364.615C416.753 365.544 418.361 371.356 418.378 371.415L418.171 371.471Z" fill="#377FFD"/>
<path d="M418.274 372.939L418.074 372.862C418.091 372.818 419.826 368.412 424.872 366.995L424.929 367.202C419.986 368.59 418.289 372.895 418.272 372.939H418.274Z" fill="#377FFD"/>
<defs>
<linearGradient id="paint0_linear_47_2655" x1="440.29" y1="434.341" x2="175.457" y2="152.975" gradientUnits="userSpaceOnUse">
<stop stop-color="#DAE3FE"/>
<stop offset="1" stop-color="#E9EFFD"/>
</linearGradient>
<linearGradient id="paint1_linear_47_2655" x1="290.354" y1="99.378" x2="350.039" y2="99.378" gradientUnits="userSpaceOnUse">
<stop stop-color="#DAE3FE"/>
<stop offset="1" stop-color="#E9EFFD"/>
</linearGradient>
<linearGradient id="paint2_linear_47_2655" x1="283.699" y1="107.792" x2="343.382" y2="107.792" gradientUnits="userSpaceOnUse">
<stop stop-color="#DAE3FE"/>
<stop offset="1" stop-color="#E9EFFD"/>
</linearGradient>
<linearGradient id="paint3_linear_47_2655" x1="299.452" y1="124.619" x2="343.383" y2="124.619" gradientUnits="userSpaceOnUse">
<stop stop-color="#DAE3FE"/>
<stop offset="1" stop-color="#E9EFFD"/>
</linearGradient>
<linearGradient id="paint4_linear_47_2655" x1="277.486" y1="116.205" x2="337.17" y2="116.205" gradientUnits="userSpaceOnUse">
<stop stop-color="#DAE3FE"/>
<stop offset="1" stop-color="#E9EFFD"/>
</linearGradient>
<linearGradient id="paint5_linear_47_2655" x1="335.33" y1="357.915" x2="411.028" y2="440.089" gradientUnits="userSpaceOnUse">
<stop stop-color="#09005D"/>
<stop offset="1" stop-color="#1A0F91"/>
</linearGradient>
<linearGradient id="paint6_linear_47_2655" x1="359.795" y1="363.865" x2="353.09" y2="363.865" gradientUnits="userSpaceOnUse">
<stop stop-color="#FEBBBA"/>
<stop offset="1" stop-color="#FF928E"/>
</linearGradient>
<linearGradient id="paint7_linear_47_2655" x1="328.712" y1="262.842" x2="394.339" y2="351.616" gradientUnits="userSpaceOnUse">
<stop stop-color="#4F52FF"/>
<stop offset="1" stop-color="#4042E2"/>
</linearGradient>
<linearGradient id="paint8_linear_47_2655" x1="351.893" y1="341.937" x2="428.444" y2="425.039" gradientUnits="userSpaceOnUse">
<stop stop-color="#09005D"/>
<stop offset="1" stop-color="#1A0F91"/>
</linearGradient>
<linearGradient id="paint9_linear_47_2655" x1="383.958" y1="363.513" x2="378.17" y2="363.513" gradientUnits="userSpaceOnUse">
<stop stop-color="#FEBBBA"/>
<stop offset="1" stop-color="#FF928E"/>
</linearGradient>
<linearGradient id="paint10_linear_47_2655" x1="340.171" y1="254.424" x2="405.626" y2="342.963" gradientUnits="userSpaceOnUse">
<stop stop-color="#4F52FF"/>
<stop offset="1" stop-color="#4042E2"/>
</linearGradient>
<linearGradient id="paint11_linear_47_2655" x1="297.951" y1="185.198" x2="332.206" y2="185.198" gradientUnits="userSpaceOnUse">
<stop stop-color="#FEBBBA"/>
<stop offset="1" stop-color="#FF928E"/>
</linearGradient>
<linearGradient id="paint12_linear_47_2655" x1="305.721" y1="179.27" x2="329.152" y2="232.478" gradientUnits="userSpaceOnUse">
<stop stop-color="#FEBBBA"/>
<stop offset="1" stop-color="#FF928E"/>
</linearGradient>
<linearGradient id="paint13_linear_47_2655" x1="298.128" y1="161.553" x2="288.344" y2="146.539" gradientUnits="userSpaceOnUse">
<stop stop-color="#FEBBBA"/>
<stop offset="1" stop-color="#FF928E"/>
</linearGradient>
<linearGradient id="paint14_linear_47_2655" x1="407.158" y1="234.756" x2="363.81" y2="234.756" gradientUnits="userSpaceOnUse">
<stop stop-color="#FEBBBA"/>
<stop offset="1" stop-color="#FF928E"/>
</linearGradient>
<linearGradient id="paint15_linear_47_2655" x1="398.873" y1="178.177" x2="318.257" y2="250.117" gradientUnits="userSpaceOnUse">
<stop stop-color="#4F52FF"/>
<stop offset="1" stop-color="#4042E2"/>
</linearGradient>
<linearGradient id="paint16_linear_47_2655" x1="367.029" y1="230.114" x2="353.523" y2="230.114" gradientUnits="userSpaceOnUse">
<stop stop-color="#FEBBBA"/>
<stop offset="1" stop-color="#FF928E"/>
</linearGradient>
<linearGradient id="paint17_linear_47_2655" x1="373.873" y1="187.422" x2="356.734" y2="187.422" gradientUnits="userSpaceOnUse">
<stop stop-color="#FEBBBA"/>
<stop offset="1" stop-color="#FF928E"/>
</linearGradient>
<linearGradient id="paint18_linear_47_2655" x1="352.597" y1="176.219" x2="371.569" y2="164.669" gradientUnits="userSpaceOnUse">
<stop stop-color="#FEBBBA"/>
<stop offset="1" stop-color="#FF928E"/>
</linearGradient>
<linearGradient id="paint19_linear_47_2655" x1="381.588" y1="152.305" x2="356.94" y2="171.736" gradientUnits="userSpaceOnUse">
<stop stop-color="#09005D"/>
<stop offset="1" stop-color="#1A0F91"/>
</linearGradient>
<linearGradient id="paint20_linear_47_2655" x1="357.565" y1="180.574" x2="374.622" y2="170.191" gradientUnits="userSpaceOnUse">
<stop stop-color="#FEBBBA"/>
<stop offset="1" stop-color="#FF928E"/>
</linearGradient>
<linearGradient id="paint21_linear_47_2655" x1="50.3967" y1="43.7568" x2="135.458" y2="43.7568" gradientUnits="userSpaceOnUse">
<stop stop-color="#DAE3FE"/>
<stop offset="1" stop-color="#E9EFFD"/>
</linearGradient>
<linearGradient id="paint22_linear_47_2655" x1="59.8831" y1="57.1251" x2="144.947" y2="57.1251" gradientUnits="userSpaceOnUse">
<stop stop-color="#DAE3FE"/>
<stop offset="1" stop-color="#E9EFFD"/>
</linearGradient>
<linearGradient id="paint23_linear_47_2655" x1="59.8831" y1="83.8632" x2="122.494" y2="83.8632" gradientUnits="userSpaceOnUse">
<stop stop-color="#DAE3FE"/>
<stop offset="1" stop-color="#E9EFFD"/>
</linearGradient>
<linearGradient id="paint24_linear_47_2655" x1="68.7371" y1="70.4932" x2="153.801" y2="70.4932" gradientUnits="userSpaceOnUse">
<stop stop-color="#DAE3FE"/>
<stop offset="1" stop-color="#E9EFFD"/>
</linearGradient>
<linearGradient id="paint25_linear_47_2655" x1="28.8513" y1="296.824" x2="97.5688" y2="296.824" gradientUnits="userSpaceOnUse">
<stop stop-color="#4F52FF"/>
<stop offset="1" stop-color="#4042E2"/>
</linearGradient>
<linearGradient id="paint26_linear_47_2655" x1="32.0293" y1="258.33" x2="35.3905" y2="258.33" gradientUnits="userSpaceOnUse">
<stop stop-color="#4F52FF"/>
<stop offset="1" stop-color="#4042E2"/>
</linearGradient>
<linearGradient id="paint27_linear_47_2655" x1="59.242" y1="230.159" x2="63.7574" y2="230.159" gradientUnits="userSpaceOnUse">
<stop stop-color="#4F52FF"/>
<stop offset="1" stop-color="#4042E2"/>
</linearGradient>
<linearGradient id="paint28_linear_47_2655" x1="67.7436" y1="258.333" x2="132.461" y2="258.333" gradientUnits="userSpaceOnUse">
<stop stop-color="#4F52FF"/>
<stop offset="1" stop-color="#4042E2"/>
</linearGradient>
<linearGradient id="paint29_linear_47_2655" x1="124.961" y1="297.791" x2="128.41" y2="297.791" gradientUnits="userSpaceOnUse">
<stop stop-color="#4F52FF"/>
<stop offset="1" stop-color="#4042E2"/>
</linearGradient>
<linearGradient id="paint30_linear_47_2655" x1="41.1505" y1="277.03" x2="119.366" y2="277.03" gradientUnits="userSpaceOnUse">
<stop stop-color="#4F52FF"/>
<stop offset="1" stop-color="#4042E2"/>
</linearGradient>
<linearGradient id="paint31_linear_47_2655" x1="136.772" y1="361.746" x2="140.164" y2="361.746" gradientUnits="userSpaceOnUse">
<stop stop-color="#4F52FF"/>
<stop offset="1" stop-color="#4042E2"/>
</linearGradient>
<linearGradient id="paint32_linear_47_2655" x1="88.7525" y1="348.959" x2="134.495" y2="348.959" gradientUnits="userSpaceOnUse">
<stop stop-color="#4F52FF"/>
<stop offset="1" stop-color="#4042E2"/>
</linearGradient>
<linearGradient id="paint33_linear_47_2655" x1="131.102" y1="319.495" x2="157.931" y2="319.495" gradientUnits="userSpaceOnUse">
<stop stop-color="#4F52FF"/>
<stop offset="1" stop-color="#4042E2"/>
</linearGradient>
<linearGradient id="paint34_linear_47_2655" x1="153.046" y1="345.119" x2="155.456" y2="345.119" gradientUnits="userSpaceOnUse">
<stop stop-color="#4F52FF"/>
<stop offset="1" stop-color="#4042E2"/>
</linearGradient>
<linearGradient id="paint35_linear_47_2655" x1="96.8973" y1="331.511" x2="149.235" y2="331.511" gradientUnits="userSpaceOnUse">
<stop stop-color="#4F52FF"/>
<stop offset="1" stop-color="#4042E2"/>
</linearGradient>
</defs>
</svg>
