<?xml version="1.0" encoding="utf-8"?>
<!-- Generator: Adobe Illustrator 26.0.0, SVG Export Plug-In . SVG Version: 6.00 Build 0)  -->
<svg version="1.1" id="Capa_1" xmlns="http://www.w3.org/2000/svg" xmlns:xlink="http://www.w3.org/1999/xlink" x="0px" y="0px"
	 viewBox="0 0 643 661" style="enable-background:new 0 0 643 661;" xml:space="preserve">
<style type="text/css">
	.st0{fill:#3366FF;}
	.st1{fill:#0C39A8;}
	.st2{fill:#FFFFFF;}
	.st3{fill:none;stroke:#3366FF;stroke-linecap:round;stroke-miterlimit:10;}
	.st4{fill:#EBF3FF;}
	.st5{fill:#99B7FF;}
	.st6{fill:#377FFD;}
	.st7{fill:#D6E4FF;}
	.st8{fill:#1F61DE;}
	.st9{fill:#72A0FF;}
	.st10{fill:#FDFEFE;}
	.st11{fill:#1E61DD;}
	.st12{fill:#C7DFFC;}
	.st13{fill:#94C4FD;}
	.st14{fill:#FFFFFF;filter:url(#Adobe_OpacityMaskFilter);}
	.st15{mask:url(#mask0_7_797_00000030465664185276395440000012709207760397506948_);}
	.st16{fill:#C1DBFF;}
	.st17{fill:#2C61DD;}
	.st18{fill:#551492;}
	.st19{fill:#DA6AD1;}
	.st20{opacity:0.44;fill:#842ABE;enable-background:new    ;}
	.st21{fill:#4D4D4D;}
	.st22{fill:#333333;}
	.st23{fill:#FFC6DB;}
	.st24{fill:#F5A3DD;}
	.st25{fill:#802AC7;}
	.st26{fill:#F3A4DC;}
	.st27{fill:#7422BD;}
	.st28{fill:#3680FF;}
	.st29{fill:#FFFFFF;filter:url(#Adobe_OpacityMaskFilter_00000116200970083387599540000007480581124418246548_);}
	.st30{mask:url(#mask1_7_797_00000023989980727739586670000003588206498123455674_);}
	.st31{fill:#1A66D8;}
	.st32{fill:#0238AE;}
	.st33{fill:#FFFFFF;filter:url(#Adobe_OpacityMaskFilter_00000055706339594395714160000011694399489364581774_);}
	.st34{mask:url(#mask2_7_797_00000018922213670112581610000013128514037753433279_);}
	.st35{fill:#FFFFFF;filter:url(#Adobe_OpacityMaskFilter_00000113321456030096902880000002705685405061961135_);}
	.st36{mask:url(#mask3_7_797_00000161612161069675019850000005943017410720710063_);}
	.st37{fill:#FFFFFF;filter:url(#Adobe_OpacityMaskFilter_00000163071004186130374900000008652815032188123537_);}
	.st38{mask:url(#mask4_7_797_00000101093039346881988600000010842493935787790010_);}
	.st39{fill:#42007C;}
	.st40{opacity:0.62;fill:#42007C;enable-background:new    ;}
	.st41{fill:#213B80;}
	.st42{fill:#3358AA;}
	.st43{opacity:0.76;fill:#2C61DD;enable-background:new    ;}
	.st44{opacity:0.67;fill:#0238AE;enable-background:new    ;}
	.st45{opacity:0.1;fill:#1E61DD;enable-background:new    ;}
	.st46{opacity:0.28;fill:#1E61DD;enable-background:new    ;}
	.st47{fill:#F2F2F2;}
	.st48{fill:#EDF6FD;}
	.st49{fill:#E7EBF4;stroke:#1F61DE;stroke-width:4;stroke-miterlimit:10;}
	.st50{fill:#FFFFFF;stroke:#1F61DE;stroke-width:4;stroke-miterlimit:10;}
	.st51{fill:none;stroke:#1F61DE;stroke-width:4;stroke-miterlimit:10;}
</style>
<g>
	<path class="st0" d="M284.9,154v2.6c0,2.2-0.6,4.1-1.8,5.6c-1.2,1.5-2.9,2.3-5.3,2.3c-0.7,0-1.6-0.1-2.5-0.4
		c-1-0.3-1.8-0.7-2.6-1.3c-0.8-0.6-1.4-1.4-2-2.4c-0.6-1-0.8-2.3-0.8-3.8v-54.3h13.3v-9.6h-13.3V75.4c-2.8,4.6-6.6,8.6-11.1,11.6
		v5.8h-5v9.6h5v54.3c0,3,0.6,5.8,1.7,8.2c1.1,2.4,2.6,4.4,4.4,6c1.8,1.6,3.9,2.9,6.2,3.7c2.3,0.8,4.7,1.2,7.1,1.2
		c2.6,0,5.1-0.5,7.3-1.4c2.2-1,4.1-2.3,5.6-4c1.6-1.7,2.8-3.8,3.7-6.1c0.9-2.3,1.3-4.8,1.3-7.5V154H284.9L284.9,154z"/>
	<path class="st0" d="M172.9,92c3.3,0,6.1,0.6,8.6,1.8c2.5,1.2,4.6,2.9,6.4,5c1.8,2.1,3.1,4.6,4,7.4c0.9,2.8,1.4,5.8,1.4,9.1v37.2
		c0,3.2-0.6,6.2-1.8,9c-1.2,2.8-2.9,5.3-5,7.4c-2.1,2.1-4.5,3.7-7.3,5c-2.8,1.2-5.8,1.8-9.1,1.8c-3.3,0-6.2-0.6-9-1.8
		c-2.8-1.2-5.3-2.9-7.4-5c-2.1-2.1-3.7-4.5-5-7.4c-1.2-2.8-1.8-5.8-1.8-9V62.8h11.1v35.8c1.7-2,3.8-3.7,6.3-4.9
		C166.9,92.6,169.8,92,172.9,92L172.9,92z M182.2,115.3c0-3.4-1.2-6.2-3.5-8.5c-2.3-2.3-5.2-3.5-8.5-3.5c-3.4,0-6.1,1.2-8.5,3.5
		c-2.4,2.3-3.6,5.2-3.6,8.5v37.2c0,3.3,1.2,6.1,3.6,8.5c2.4,2.4,5.2,3.6,8.5,3.6c3.3,0,6.2-1.2,8.5-3.6s3.5-5.2,3.5-8.5V115.3z"/>
	<path class="st0" d="M223.9,92c3.3,0,6.3,0.6,9.1,1.8c2.8,1.2,5.2,2.9,7.3,5c2.1,2.1,3.7,4.5,5,7.3c1.2,2.8,1.8,5.8,1.8,9.1v37.4
		c0,3.2-0.6,6.2-1.8,9c-1.2,2.8-2.9,5.3-5,7.4s-4.5,3.7-7.3,5c-2.8,1.2-5.8,1.8-9.1,1.8c-3.3,0-6.2-0.6-9-1.8
		c-2.8-1.2-5.3-2.9-7.4-5s-3.7-4.5-5-7.4c-1.2-2.8-1.8-5.8-1.8-9v-37.4c0-3.3,0.6-6.3,1.8-9.1c1.2-2.8,2.9-5.2,5-7.3
		c2.1-2.1,4.6-3.7,7.4-5C217.7,92.6,220.7,92,223.9,92z M235.9,115.2c0-3.3-1.2-6.1-3.5-8.5c-2.3-2.4-5.2-3.6-8.5-3.6
		c-3.4,0-6.1,1.2-8.5,3.6c-2.4,2.4-3.6,5.2-3.6,8.5v37.4c0,3.3,1.2,6.1,3.6,8.5c2.4,2.4,5.2,3.6,8.5,3.6c3.3,0,6.2-1.2,8.5-3.6
		c2.3-2.4,3.5-5.2,3.5-8.5V115.2z"/>
	<path class="st1" d="M128.7,101.3V90.9c0-3.3-1.1-6-3.4-8.2c-2.2-2.2-5-3.4-8.2-3.4s-6,1.1-8.3,3.4c-2.3,2.2-3.4,5-3.4,8.2v60.7
		c0,3.3,1.1,6,3.4,8.2c2.3,2.2,5.1,3.4,8.3,3.4c3.3,0,6-1.1,8.2-3.4c2.2-2.2,3.4-5,3.4-8.2v-10.4h12.1v10.4c0,3.3-0.6,6.3-1.9,9.1
		c-1.3,2.8-3,5.3-5.1,7.5c-2.1,2.1-4.6,3.8-7.5,5.1c-2.8,1.3-5.9,1.9-9.2,1.9s-6.3-0.6-9.2-1.9c-2.9-1.3-5.4-3-7.6-5.1
		c-2.1-2.1-3.8-4.6-5-7.5c-1.2-2.8-1.8-5.9-1.8-9.1V90.9c0-3.3,0.6-6.3,1.8-9.1c1.2-2.8,2.9-5.3,5-7.5c2.1-2.1,4.7-3.8,7.6-5.1
		c2.9-1.3,6-1.9,9.2-1.9s6.3,0.6,9.2,1.9c2.8,1.3,5.3,3,7.5,5.1c2.1,2.1,3.8,4.6,5.1,7.5c1.3,2.8,1.9,5.9,1.9,9.1v10.4H128.7z"/>
	<path class="st1" d="M51.8,136.1v15.8c0,3.5,1.1,6.4,3.3,8.7c2.2,2.3,4.9,3.5,8.2,3.5c3.3,0,6-1.2,8.2-3.5c2.2-2.3,3.3-5.2,3.3-8.7
		V149h11.1v2.9c0,3.3-0.6,6.3-1.8,9.1c-1.2,2.8-2.8,5.3-4.8,7.4c-2,2.1-4.4,3.7-7.2,5c-2.7,1.2-5.7,1.8-8.9,1.8
		c-3.2,0-6.1-0.6-8.8-1.8c-2.7-1.2-5.1-2.9-7.2-5c-2-2.1-3.6-4.5-4.8-7.4c-1.2-2.8-1.8-5.9-1.8-9.1V90.8c0-3.3,0.6-6.3,1.8-9.1
		c1.2-2.8,2.9-5.3,5-7.4c2.1-2.1,4.6-3.8,7.5-5c2.8-1.2,5.9-1.8,9-1.8c3.2,0,6.3,0.6,9.1,1.8c2.8,1.2,5.3,2.9,7.4,5
		c2.1,2.1,3.8,4.6,5,7.4c1.2,2.8,1.8,5.8,1.8,9.1V107c0,3.5-0.9,7.3-2.7,10.2c-1.8,2.9-4.2,5.1-7.3,6.6L51.8,136.1z M51.8,123.6
		l20.6-9.7c2.5-1.3,3.8-4.1,3.8-6.9V90.7c0-3.4-1.2-6.2-3.6-8.6c-2.4-2.4-5.3-3.6-8.6-3.6c-3.4,0-6.2,1.2-8.6,3.6s-3.6,5.3-3.6,8.6
		L51.8,123.6L51.8,123.6z"/>
	<path class="st2" d="M223.9,46.1c-7.4,0-13.5-6-13.5-13.4c0-7.4,6-13.4,13.5-13.4c7.4,0,13.5,6,13.5,13.4
		C237.3,40.1,231.3,46.1,223.9,46.1z"/>
	<path class="st0" d="M223.9,21.2c6.3,0,11.5,5.1,11.5,11.4s-5.1,11.4-11.5,11.4c-6.3,0-11.5-5.1-11.5-11.4S217.5,21.2,223.9,21.2z
		 M223.9,17.2c-8.5,0-15.5,6.9-15.5,15.4c0,8.5,6.9,15.4,15.5,15.4c8.5,0,15.4-6.9,15.4-15.4C239.3,24.1,232.4,17.2,223.9,17.2z"/>
	<path class="st2" d="M269.6,62c-3.2,0-5.8-2.6-5.8-5.8c0-3.2,2.6-5.8,5.8-5.8c3.2,0,5.8,2.6,5.8,5.8C275.4,59.4,272.8,62,269.6,62z
		"/>
	<path class="st0" d="M269.6,52.3c2.1,0,3.8,1.7,3.8,3.8c0,2.1-1.7,3.8-3.8,3.8c-2.1,0-3.8-1.7-3.8-3.8
		C265.8,54.1,267.5,52.3,269.6,52.3z M269.6,48.3c-4.3,0-7.8,3.5-7.8,7.8s3.5,7.8,7.8,7.8s7.8-3.5,7.8-7.8S273.9,48.3,269.6,48.3z"
		/>
	<path class="st2" d="M285.6,58.2c-1.1,0-2-0.9-2-2c0-1.1,0.9-2,2-2c1.1,0,2,0.9,2,2C287.6,57.3,286.7,58.2,285.6,58.2z"/>
	<path class="st0" d="M285.6,56.1C285.6,56.1,285.6,56.1,285.6,56.1C285.6,56.2,285.6,56.2,285.6,56.1
		C285.5,56.2,285.5,56.2,285.6,56.1C285.5,56.1,285.5,56.1,285.6,56.1z M285.6,52.1c-2.2,0-4,1.8-4,4c0,2.2,1.8,4,4,4
		c2.2,0,4-1.8,4-4C289.6,53.9,287.8,52.1,285.6,52.1z"/>
	<path class="st2" d="M162.2,58.2c-1.1,0-2-0.9-2-2c0-1.1,0.9-2,2-2c1.1,0,2,0.9,2,2C164.2,57.3,163.3,58.2,162.2,58.2z"/>
	<path class="st0" d="M162.2,56.1C162.2,56.1,162.2,56.1,162.2,56.1C162.2,56.2,162.2,56.2,162.2,56.1
		C162.1,56.2,162.1,56.2,162.2,56.1C162.1,56.1,162.1,56.1,162.2,56.1z M162.2,52.1c-2.2,0-4,1.8-4,4c0,2.2,1.8,4,4,4
		c2.2,0,4-1.8,4-4C166.2,53.9,164.4,52.1,162.2,52.1z"/>
	<path class="st2" d="M178.1,62c-3.2,0-5.8-2.6-5.8-5.8c0-3.2,2.6-5.8,5.8-5.8c3.2,0,5.8,2.6,5.8,5.8C183.9,59.4,181.3,62,178.1,62z
		"/>
	<path class="st0" d="M178.1,52.3c2.1,0,3.8,1.7,3.8,3.8c0,2.1-1.7,3.8-3.8,3.8c-2.1,0-3.8-1.7-3.8-3.8
		C174.3,54.1,176,52.3,178.1,52.3z M178.1,48.3c-4.3,0-7.8,3.5-7.8,7.8s3.5,7.8,7.8,7.8c4.3,0,7.8-3.5,7.8-7.8
		S182.4,48.3,178.1,48.3z"/>
	<path class="st2" d="M209.5,85.5c-16.2,0-29.4-13.2-29.4-29.3s13.2-29.3,29.4-29.3h28.8c16.2,0,29.4,13.2,29.4,29.3
		s-13.2,29.3-29.4,29.3H209.5z"/>
	<path class="st0" d="M238.2,28.8c15.1,0,27.4,12.3,27.4,27.3s-12.3,27.3-27.4,27.3h-28.8c-15.1,0-27.4-12.3-27.4-27.3
		s12.3-27.3,27.4-27.3H238.2z M238.2,24.8h-28.8c-17.3,0-31.4,14-31.4,31.3s14,31.3,31.4,31.3h28.8c17.3,0,31.4-14,31.4-31.3
		S255.6,24.8,238.2,24.8z"/>
	<path class="st2" d="M212.7,72.2c-8.8,0-16-7.2-16-16c0-8.8,7.2-16,16-16H235c8.8,0,16,7.2,16,16c0,8.8-7.2,16-16,16H212.7z"/>
	<path class="st0" d="M235,42.2c7.7,0,14,6.3,14,14s-6.3,14-14,14h-22.4c-7.7,0-14-6.3-14-14s6.3-14,14-14H235z M235,38.2h-22.4
		c-10,0-18,8.1-18,18c0,9.9,8.1,18,18,18H235c10,0,18-8.1,18-18C253.1,46.2,245,38.2,235,38.2z"/>
	<path class="st3" d="M170.3,56.2h-4.1"/>
	<path class="st3" d="M281.5,56.2h-4.1"/>
	<path class="st0" d="M213.1,62.8c3.7,0,6.7-3,6.7-6.7c0-3.7-3-6.7-6.7-6.7c-3.7,0-6.7,3-6.7,6.7C206.4,59.9,209.4,62.8,213.1,62.8z
		"/>
	<path class="st0" d="M234.2,62.8c3.7,0,6.7-3,6.7-6.7c0-3.7-3-6.7-6.7-6.7s-6.7,3-6.7,6.7C227.5,59.9,230.5,62.8,234.2,62.8z"/>
	<path class="st0" d="M223.9,102.6c1.8,0,3.4,0.3,4.8,0.9c1.6,0.7,2.9,1.6,4,2.7c1.2,1.1,2,2.5,2.7,4.1c0.6,1.5,0.9,3,0.9,4.8v37.4
		c0,1.7-0.3,3.3-1,4.8c-0.7,1.6-1.6,2.9-2.7,4.1c-1.1,1.1-2.5,2-4.1,2.7c-1.5,0.6-3,0.9-4.8,0.9c-1.8,0-3.3-0.3-4.8-1
		c-1.6-0.7-2.9-1.6-4.1-2.7c-1.1-1.1-2-2.4-2.7-4.1c-0.7-1.5-1-3.1-1-4.8v-37.4c0-1.8,0.3-3.4,0.9-4.8c0.7-1.6,1.6-2.9,2.7-4.1
		c1.1-1.1,2.5-2,4.1-2.7C220.6,102.9,222.1,102.6,223.9,102.6 M223.8,92c-3.2,0-6.2,0.6-9,1.8c-2.8,1.2-5.3,2.9-7.4,5
		c-2.1,2.1-3.7,4.5-5,7.3c-1.2,2.8-1.8,5.8-1.8,9.1v37.4c0,3.2,0.6,6.2,1.8,9c1.2,2.8,2.9,5.3,5,7.4c2.1,2.1,4.6,3.7,7.4,5
		c2.8,1.2,5.9,1.8,9,1.8s6.3-0.6,9.1-1.8c2.8-1.2,5.2-2.9,7.3-5c2.1-2.1,3.7-4.5,5-7.4c1.2-2.8,1.8-5.8,1.8-9v-37.4
		c0-3.3-0.6-6.3-1.8-9.1c-1.2-2.8-2.9-5.2-5-7.3c-2.1-2.1-4.5-3.7-7.3-5S227.1,92,223.8,92z"/>
</g>
<path class="st4" d="M182.7,636.3c34.2,0,61.9-7,61.9-15.6c0-8.6-27.7-15.6-61.9-15.6s-61.9,7-61.9,15.6
	C120.9,629.3,148.6,636.3,182.7,636.3z"/>
<path class="st4" d="M417.6,636.3c41.7,0,75.5-7,75.5-15.6c0-8.6-33.8-15.6-75.5-15.6s-75.5,7-75.5,15.6
	C342.1,629.3,375.9,636.3,417.6,636.3z"/>
<path class="st5" d="M74.1,588.1c0,0-23.1-24.3-11.9-33.9C73.5,544.6,81.6,571.7,74.1,588.1z"/>
<path class="st5" d="M66.1,600.1c0,0-15.7-25.3-24.6-12C33.5,600.1,66.1,600.1,66.1,600.1z"/>
<path class="st5" d="M86.8,592.7c0,0,18.1-27.6,26-11.4C119.6,595.2,86.8,592.7,86.8,592.7z"/>
<path class="st6" d="M75.4,637.3l-0.6-0.1c0-0.1,1.4-10.4,1.1-24.9c-0.3-13.4-2-33.2-8.9-51.4l0.6-0.2c6.9,18.3,8.6,38.1,8.9,51.6
	C76.7,626.8,75.4,637.2,75.4,637.3z"/>
<path class="st6" d="M76.5,610.1l-0.6-0.2c0-0.1,2.2-6.1,6.7-12.3c4.2-5.8,11.3-12.9,21.4-14.3l0.1,0.6c-9.9,1.3-16.9,8.4-21,14
	C78.6,604.1,76.5,610,76.5,610.1L76.5,610.1z"/>
<path class="st6" d="M75.9,616c0,0-1.4-4.7-5.4-10.2c-3.6-5.1-10.2-11.9-20.8-15.7l0.2-0.6c10.8,3.9,17.5,10.8,21.1,15.9
	c4,5.6,5.4,10.3,5.4,10.3L75.9,616z"/>
<path class="st7" d="M97.6,619.8c0,0,8.8-8.1,5.1-11.8C98.9,604.3,95.3,613.8,97.6,619.8z"/>
<path class="st7" d="M100.2,624.2c0,0,6.2-8.6,9-3.7C111.8,625,100.2,624.2,100.2,624.2z"/>
<path class="st7" d="M93,621.1c0,0-5.8-10.3-9-4.7C81.2,621.2,93,621.1,93,621.1z"/>
<path class="st5" d="M95.9,637.3c0-0.1-0.9-15,4.7-27.1l0.4,0.2c-5.5,12.1-4.7,26.8-4.7,26.9L95.9,637.3L95.9,637.3z"/>
<path class="st5" d="M96.1,627.6c0-0.1-2.4-8.6-9-9.9l0.1-0.4c6.9,1.4,9.3,10.1,9.3,10.2L96.1,627.6z"/>
<path class="st5" d="M96.3,629.8l-0.4-0.1c0-0.1,2.6-6.7,10.2-8.8l0.1,0.4C98.9,623.3,96.3,629.7,96.3,629.8L96.3,629.8z"/>
<path class="st7" d="M574.5,613.6c0,0,12-10.9,6.9-15.9C576.2,592.7,571.4,605.5,574.5,613.6z"/>
<path class="st7" d="M578,619.7c0,0,8.4-11.7,12.2-5C593.6,620.7,578,619.7,578,619.7z"/>
<path class="st7" d="M568.2,615.4c0,0-7.8-13.9-12.2-6.4C552.3,615.5,568.2,615.4,568.2,615.4z"/>
<path class="st5" d="M572.2,637.3c0-0.2-1.2-20.2,6.3-36.7l0.4,0.2c-7.5,16.3-6.3,36.3-6.3,36.5L572.2,637.3L572.2,637.3z"/>
<path class="st5" d="M572.5,624.1c0-0.1-3.2-11.7-12.3-13.5l0.1-0.4c9.3,1.9,12.5,13.7,12.6,13.8L572.5,624.1L572.5,624.1z"/>
<path class="st5" d="M572.6,627.1l-0.4-0.1c0-0.1,3.6-9,13.8-11.9l0.1,0.4C576.1,618.3,572.7,627,572.6,627.1z"/>
<path class="st7" d="M263.7,620.9c0,0,8.3-7.6,4.8-11C264.9,606.4,261.6,615.2,263.7,620.9z"/>
<path class="st7" d="M266.1,625.1c0,0,5.8-8.1,8.5-3.4C277,625.8,266.1,625.1,266.1,625.1z"/>
<path class="st7" d="M259.4,622.1c0,0-5.4-9.6-8.4-4.4C248.4,622.2,259.4,622.1,259.4,622.1z"/>
<path class="st5" d="M262.1,637.3c0-0.1-0.8-14,4.4-25.4l0.4,0.2c-5.2,11.3-4.4,25.1-4.4,25.2L262.1,637.3z"/>
<path class="st5" d="M262.3,628.2c0-0.1-2.2-8-8.4-9.3l0.1-0.4c6.5,1.3,8.7,9.5,8.8,9.6L262.3,628.2L262.3,628.2z"/>
<path class="st5" d="M262.5,630.2l-0.4-0.1c0-0.1,2.5-6.3,9.6-8.3l0.1,0.4C264.9,624.2,262.5,630.2,262.5,630.2z"/>
<path class="st5" d="M288.7,626.4c0,0,5.5-5,3.2-7.3C289.5,616.7,287.3,622.6,288.7,626.4z"/>
<path class="st5" d="M290.3,629.1c0,0,3.9-5.4,5.6-2.3C297.5,629.6,290.3,629.1,290.3,629.1z"/>
<path class="st5" d="M285.8,627.2c0,0-3.6-6.4-5.6-2.9C278.5,627.2,285.8,627.2,285.8,627.2z"/>
<path class="st6" d="M287.6,637.3c0-0.1-0.5-9.3,2.9-16.9l0.2,0.1c-3.4,7.5-2.9,16.7-2.9,16.8L287.6,637.3z"/>
<path class="st6" d="M287.8,631.2c0-0.1-1.5-5.4-5.6-6.2l0-0.2c4.3,0.9,5.8,6.3,5.8,6.4L287.8,631.2L287.8,631.2z"/>
<path class="st6" d="M287.9,632.6l-0.2-0.1c0,0,1.6-4.2,6.4-5.5l0.1,0.2C289.5,628.5,287.9,632.5,287.9,632.6L287.9,632.6z"/>
<path class="st5" d="M596.3,626.4c0,0,5.5-5,3.2-7.3C597.1,616.7,594.8,622.6,596.3,626.4z"/>
<path class="st5" d="M597.9,629.1c0,0,3.9-5.4,5.6-2.3C605.1,629.6,597.9,629.1,597.9,629.1z"/>
<path class="st5" d="M593.4,627.2c0,0-3.6-6.4-5.6-2.9C586.1,627.2,593.4,627.2,593.4,627.2z"/>
<path class="st6" d="M595.2,637.3c0-0.1-0.5-9.3,2.9-16.9l0.2,0.1c-3.4,7.5-2.9,16.7-2.9,16.8L595.2,637.3z"/>
<path class="st6" d="M595.3,631.2c0-0.1-1.5-5.4-5.6-6.2l0-0.2c4.3,0.9,5.8,6.3,5.8,6.4L595.3,631.2z"/>
<path class="st6" d="M595.4,632.6l-0.2-0.1c0,0,1.6-4.2,6.4-5.5l0.1,0.2C597,628.5,595.4,632.5,595.4,632.6L595.4,632.6z"/>
<path class="st8" d="M381.3,607.1H198.9c-7.5,0-13.4-6.4-12.8-13.9l30.8-378.1c0.5-6.7,6.1-11.8,12.8-11.8h182.4
	c7.5,0,13.4,6.4,12.8,13.9l-30.8,378.1C393.5,601.9,388,607.1,381.3,607.1L381.3,607.1z"/>
<path class="st9" d="M372,607.1H187.1c-6.8,0-12.1-5.8-11.5-12.5l31-380.7c0.5-6,5.5-10.6,11.5-10.6H403c6.8,0,12.1,5.8,11.5,12.5
	l-31,380.7C383,602.5,378,607.1,372,607.1L372,607.1z"/>
<path class="st10" d="M393.3,213.4c6.1,0,10.9,5.2,10.4,11.2l-27.9,342.6c-0.4,5.4-5,9.6-10.4,9.6H199c-6.1,0-10.9-5.2-10.4-11.2
	l27.9-342.6c0.4-5.4,5-9.6,10.4-9.6h17.6c0.8,0,1.4,0.7,1.4,1.4l-0.5,7.9c-0.2,4.1,3,7.6,7.2,7.6h101.5c3.8,0,7-3,7.2-6.8l0.4-7.3
	c0.1-1.6,1.4-2.9,3-2.9H393.3z"/>
<path class="st11" d="M297,224.4c2.9,0,5.2-2.3,5.2-5.2c0-2.9-2.3-5.2-5.2-5.2c-2.9,0-5.2,2.3-5.2,5.2
	C291.7,222.1,294.1,224.4,297,224.4z"/>
<path class="st12" d="M275.9,593.5c0.8-5-2.6-9.8-7.7-10.6c-5.1-0.8-9.8,2.6-10.6,7.7c-0.8,5,2.6,9.8,7.7,10.6
	C270.4,601.9,275.1,598.5,275.9,593.5z"/>
<path class="st5" d="M318.4,555.7c0,0-34-35.7-17.5-49.8C317.4,491.7,329.4,531.6,318.4,555.7z"/>
<path class="st5" d="M306.5,573.3c0,0-23.1-37.2-36.1-17.6C258.7,573.3,306.5,573.3,306.5,573.3z"/>
<path class="st5" d="M337,562.4c0,0,26.7-40.6,38.3-16.8C385.2,566.1,337,562.4,337,562.4z"/>
<path class="st6" d="M320.2,628l-0.9-0.1c0-0.2,2-15.3,1.6-36.7c-0.4-19.7-3-48.7-13-75.5l0.8-0.3c10.1,26.9,12.7,56.1,13.1,75.8
	C322.2,612.6,320.2,627.8,320.2,628L320.2,628z"/>
<path class="st6" d="M321.8,588l-0.8-0.3c0-0.1,3.2-8.9,9.8-18.1c6.1-8.5,16.5-19,31.4-21l0.1,0.9c-14.6,1.9-24.8,12.3-30.8,20.6
	C325,579.2,321.8,587.9,321.8,588L321.8,588z"/>
<path class="st6" d="M321,596.7c0-0.1-2.1-6.9-7.9-15c-5.3-7.4-14.9-17.5-30.6-23l0.3-0.8c15.9,5.7,25.7,15.8,31.1,23.4
	c5.8,8.2,8,15.1,8,15.2L321,596.7L321,596.7z"/>
<path class="st13" d="M129.3,612.8c0,0-3.5,5-16.4,4.4c0,0-16.8-2.9-16.7,9.8c0,0,0.1,12.1,23,8.6c22.9-3.6,26.5-20.3,26.5-20.3
	L129.3,612.8z"/>
<defs>
	<filter id="Adobe_OpacityMaskFilter" filterUnits="userSpaceOnUse" x="88.8" y="611.3" width="52.7" height="29.9">
		<feColorMatrix  type="matrix" values="1 0 0 0 0  0 1 0 0 0  0 0 1 0 0  0 0 0 1 0"/>
	</filter>
</defs>
<mask maskUnits="userSpaceOnUse" x="88.8" y="611.3" width="52.7" height="29.9" id="mask0_7_797_00000030465664185276395440000012709207760397506948_">
	<path class="st14" d="M129.3,612.8c0,0-3.5,5-16.4,4.4c0,0-16.8-2.9-16.7,9.8c0,0,0.1,12.1,23,8.6c22.9-3.6,26.5-20.3,26.5-20.3
		L129.3,612.8z"/>
</mask>
<g class="st15">
	<path class="st16" d="M113.7,617.2c0,0-13.4-0.6-14,7.9c-0.5,8.5,13.7,12.1,25,9.3c11.3-2.9,16.9-9.8,16.9-9.8L131,640.4l-26.3,0.8
		l-15.9-15.6l17.8-14.3L113.7,617.2L113.7,617.2z"/>
</g>
<path class="st6" d="M114.2,624c-0.8,0-1.3,0-1.3,0l0.1-0.8c0.1,0,14.2,1,25.2-9.2l0.5,0.6c-5.9,5.4-12.6,7.7-17.1,8.6
	C118.3,623.8,115.7,624,114.2,624L114.2,624z"/>
<path class="st17" d="M181.5,604.2c0,0,4.8,3.8,6.7,10.2l-25.4,0.9L181.5,604.2z"/>
<path class="st17" d="M181.5,575.1c0,0-32.2-18.3-47.2-21.1c-15-2.7-19.3,8.2-19.3,8.2s-4.2,7.8,2.7,16.8
	c6.9,8.9,21.8,24.3,21.8,24.3l39.7-18.5L181.5,575.1L181.5,575.1z"/>
<path class="st18" d="M210.7,445.6c-2-2.4-8.4-9.1-16.7-7.4c0,0-8.7,0.9-8,12.9c0,0,0.8,5.1-3.3,6.5c-4.1,1.4-7.8,3.9-7.9,8.6
	c-0.1,4.6,3.7,9,3.7,9s2.7,3.2,1.5,6.3c-1.3,3.1-5.1,5.3-10.9,7.1c-5.7,1.8-12.3,7.1-10,17.2c2.3,10.1,14.2,11.8,20.2,11.5
	c5.9-0.4,43.3-23.2,59.3-17.6l4.2,1.9c0,0,0.1-1.4-1.2-2.2c-1.3-0.8-1.7-2.9-0.1-6.9c1.6-4,2.1-14.9-8.1-21.8c0,0-4.2-2.2-5.5-8.9
	c-1.2-6.5-5-16.5-15.4-15.5C211.8,446.4,211.1,446.1,210.7,445.6L210.7,445.6z"/>
<path class="st18" d="M177.8,517.5c-2.2,0-6.2-0.3-10-1.9c-4.8-2-7.8-5.3-8.8-9.7c-2.2-9.7,3.8-15.3,10.1-17.3
	c6.2-2,9.6-4.2,10.8-7.1c1.2-3-1.4-6.2-1.4-6.2c0,0-3.9-4.5-3.8-9.1c0.1-3.9,2.8-6.9,8-8.7c1.7-0.6,2.7-1.8,3.1-3.7
	c0.3-1.4,0.1-2.7,0.1-2.7c-0.3-6.2,1.9-9.4,3.8-11c2.1-1.7,4.3-2,4.3-2c8.4-1.8,14.9,5.2,16.8,7.4c0.4,0.5,1,0.7,1.7,0.7
	c4.6-0.5,8.4,1.2,11.2,4.9c2.5,3.3,3.7,7.6,4.3,10.6c0.7,3.5,2.1,5.7,3.2,6.9c1.2,1.4,2.2,1.9,2.2,1.9c10.1,6.9,9.9,17.7,8.2,21.9
	c-1.4,3.5-1.4,5.9,0.1,6.8c1.3,0.8,1.2,2.2,1.2,2.3l0,0.1l-4.3-2c-11.1-3.9-32.6,6-46.8,12.6c-5.9,2.7-10.6,4.9-12.4,5
	C178.9,517.4,178.4,517.5,177.8,517.5L177.8,517.5z M196.7,438.1c-0.9,0-1.7,0.1-2.7,0.3c0,0-2.2,0.2-4.2,1.9
	c-1.9,1.6-4.1,4.7-3.7,10.8c0,0,0.8,5.2-3.4,6.6c-3.5,1.2-7.8,3.6-7.9,8.5c-0.1,4.6,3.7,8.9,3.7,9c0,0,2.8,3.3,1.5,6.4
	c-1.2,2.9-4.7,5.2-10.9,7.2c-6.2,2-12.1,7.5-10,17.1c1,4.4,3.9,7.6,8.7,9.6c4.9,2,10,1.9,11.4,1.8c1.8-0.1,6.4-2.3,12.4-5
	c14.2-6.6,35.8-16.5,47-12.6l4.1,1.9c0-0.4-0.2-1.3-1.1-1.9c-2.1-1.3-1-5-0.1-7.1c1.7-4.1,1.9-14.9-8.1-21.7c0,0-1.1-0.6-2.3-2
	c-1.1-1.3-2.6-3.5-3.2-7c-0.6-3-1.8-7.2-4.3-10.5c-2.8-3.7-6.5-5.3-11.1-4.9c-0.7,0.1-1.4-0.2-1.8-0.7
	C209,443.8,203.7,438.1,196.7,438.1L196.7,438.1z"/>
<path class="st19" d="M197.5,495.7l-10.8,3.3c0,0-6.5,2-8.5,10.2c-2,8.2-4.7,25-4.7,25l16.6,23.3c0,0,0.4,9.1-1.5,17.9
	c0,0,42.6-0.7,58.3,9.4c0.4,0.3,1-0.1,0.9-0.6c-0.3-1.2-0.9-3-1.8-4.9c-1.6-3.5-3.8-6-2.7-19.9s-4.3-60.9-4.3-60.9l-13.8-2
	l-13.6,6.7L197.5,495.7L197.5,495.7z"/>
<path class="st20" d="M187.2,512.5c0,0-4.1,11.9-6.3,14.4c-2.2,2.5-6.4,1.4-6.4,1.4l1.6-9C176.1,519.4,183.6,522.2,187.2,512.5
	L187.2,512.5z"/>
<path class="st20" d="M234.5,501c0,0-9.3,3-7.7,25.8c0,0,0.9,19.1-18.9,16.1l27.2,10.7l7.7-16.7L234.5,501L234.5,501z"/>
<path class="st18" d="M159.1,498.3c-0.6,1.6-1.1,3.3-1.3,5.1c-0.1,0.9-0.2,1.7-0.3,2.6c0,0.9-0.1,1.7,0,2.6c0.1,0.9,0.2,1.7,0.4,2.5
	c0.2,0.8,0.4,1.6,0.8,2.4c0.3,0.8,0.7,1.5,1.2,2.2l0.4,0.5c0.1,0.2,0.3,0.3,0.4,0.5c0.3,0.3,0.6,0.6,0.8,0.9
	c1.2,1.2,2.6,2.2,4.2,2.9c1.6,0.7,3.2,1.1,4.9,1.4c1.7,0.3,3.4,0.4,5.2,0.4c0.9,0,1.7,0,2.6-0.1c0.9-0.1,1.7-0.2,2.6-0.3
	c-0.8,0.2-1.7,0.4-2.6,0.6c-0.9,0.2-1.7,0.3-2.6,0.3c-0.9,0.1-1.8,0.1-2.7,0.1c-0.9,0-1.8-0.1-2.7-0.2c-0.2,0-0.4-0.1-0.7-0.1
	l-0.7-0.1c-0.2,0-0.4-0.1-0.7-0.1l-0.3-0.1l-0.3-0.1c-0.9-0.2-1.7-0.5-2.6-0.9c-1.7-0.7-3.2-1.7-4.5-3c-0.3-0.3-0.6-0.7-0.9-1
	c-0.1-0.2-0.3-0.4-0.4-0.5l-0.4-0.6c-0.1-0.2-0.2-0.4-0.4-0.6l-0.2-0.3c-0.1-0.1-0.1-0.2-0.2-0.3c-0.1-0.2-0.2-0.4-0.3-0.6l-0.3-0.6
	c-0.3-0.8-0.6-1.7-0.7-2.6c-0.2-0.9-0.3-1.8-0.3-2.7c0-1.8,0.2-3.6,0.6-5.3C157.7,501.5,158.3,499.9,159.1,498.3L159.1,498.3z"/>
<path d="M193,558h-19.5c-0.5,0-0.9-0.3-1.1-0.8l-10.9-34.5H181c0.5,0,1,0.4,1.2,0.9L193,558L193,558z"/>
<path d="M193.1,558h-19.6c-0.5,0-1-0.3-1.1-0.8l-10.9-34.6H181c0.6,0,1.1,0.4,1.2,0.9L193.1,558L193.1,558z M161.6,522.7l10.8,34.5
	c0.1,0.5,0.6,0.8,1,0.8h19.5l-10.8-34.4c-0.2-0.5-0.6-0.8-1.1-0.8L161.6,522.7L161.6,522.7z"/>
<path class="st21" d="M193.5,555.8l-10.6-33.6c-0.1-0.4-0.5-0.7-0.9-0.7h-19c-0.3,0-0.6,0.1-0.8,0.4l-0.6,0.8h19.5
	c0.5,0,0.9,0.3,1.1,0.8L193,558l0.5-1C193.6,556.6,193.6,556.2,193.5,555.8L193.5,555.8z"/>
<path class="st21" d="M193,558.1l-10.9-34.6c-0.1-0.5-0.6-0.8-1-0.8h-19.6l0.7-0.9c0.2-0.2,0.5-0.4,0.8-0.4h19c0.5,0,0.8,0.3,1,0.7
	l10.6,33.6c0.1,0.4,0.1,0.8-0.1,1.2L193,558.1L193,558.1z M161.6,522.6h19.4c0.5,0,1,0.3,1.1,0.8l10.8,34.4l0.4-0.9
	c0.2-0.3,0.2-0.7,0.1-1.1l-10.6-33.6c-0.1-0.4-0.5-0.7-0.9-0.7h-19c-0.3,0-0.5,0.1-0.7,0.3L161.6,522.6z"/>
<path class="st22" d="M173.4,526.7c0,0.7-0.6,1.3-1.3,1.3c-0.7,0-1.3-0.6-1.3-1.3c0-0.7,0.6-1.3,1.3-1.3
	C172.8,525.4,173.4,526,173.4,526.7z"/>
<path class="st22" d="M172.1,528.1c-0.8,0-1.4-0.6-1.4-1.4s0.6-1.4,1.4-1.4c0.8,0,1.4,0.6,1.4,1.4S172.8,528.1,172.1,528.1z
	 M172.1,525.5c-0.7,0-1.3,0.6-1.3,1.3s0.6,1.3,1.3,1.3c0.7,0,1.3-0.6,1.3-1.3S172.8,525.5,172.1,525.5z"/>
<path class="st23" d="M233.6,540.6l0.7,5.5c0.1,0.6-0.5,1.2-1.1,1.1l-31.5-5.3c0,0-2.6-0.4-3.7-2.3c-0.3-0.5-0.6-1-1-1.4
	c-1.4-1.5-4.8-4.4-10.5-4.7l0.4,1.1c0.2,0.6-0.3,1.2-0.9,1.1c-0.8-0.1-1.8-0.4-2.6-0.8c-1.6-0.8-2.8-1.4-2.8-1.4s-1.9-0.9-2.7,0.2
	c0,0-0.5,0.6,0,1.6l-2.5-1.3c0,0-1.6-0.6-2.3,0.5c0,0-0.9,1.2,1.3,2.5c0,0-1-0.1-1.4,0.7c-0.4,0.8,0.2,1.8,1,2.4
	c0.6,0.4,2.9,2.2,4.4,3.2c0.8,0.6,1.6,1,2.5,1.3l4.1,1.5c0,0,0.7,0.2,0.7,0.6c0,0.4-0.8,0.4-0.8,0.4l-2.1-0.3
	c-0.5-0.1-0.9-0.2-1.4-0.5c-1-0.6-2.9-1.5-3.5-0.4c-0.8,1.4,1.7,3.2,3.5,3.9c1.8,0.7,5.6,2.1,9.2,2.9c3.6,0.8,43.6,15.7,43.6,15.7
	s13.3,4.8,18.7-1.4c0,0,2.5-2.6,2.3-7.4c-0.2-4.8-3-24.1-3-24.1L233.6,540.6L233.6,540.6z"/>
<path class="st23" d="M243.9,570.1c-5,0-9.9-1.7-10-1.8c-0.4-0.1-40-14.9-43.6-15.7c-3.9-0.9-7.9-2.4-9.2-2.9
	c-1.5-0.6-3.2-1.7-3.6-2.9c-0.1-0.4-0.1-0.8,0.1-1.1c0.6-1.1,2.6-0.2,3.7,0.4c0.4,0.2,0.9,0.4,1.3,0.5l2.1,0.3
	c0.2,0,0.7-0.1,0.7-0.3c0-0.2-0.4-0.4-0.6-0.5l-4.1-1.5c-0.9-0.3-1.7-0.8-2.5-1.4c-1.4-1-3.8-2.8-4.4-3.2c-0.8-0.6-1.5-1.6-1-2.5
	c0.3-0.6,0.8-0.7,1.2-0.7c-0.7-0.5-1.1-1-1.2-1.5c-0.1-0.6,0.2-1,0.2-1c0.8-1.2,2.4-0.5,2.4-0.5l2.2,1.2c-0.3-0.9,0.1-1.4,0.1-1.4
	c0.8-1.2,2.7-0.3,2.8-0.2c0,0,1.2,0.6,2.8,1.4c0.8,0.4,1.9,0.7,2.6,0.8c0.3,0,0.5,0,0.7-0.2c0.2-0.2,0.2-0.5,0.1-0.7l-0.4-1.3l0.1,0
	c5.7,0.3,9.1,3.1,10.6,4.7c0.4,0.4,0.7,0.8,1,1.4c1.1,1.9,3.6,2.3,3.6,2.3l31.5,5.3c0.3,0,0.5,0,0.7-0.2c0.2-0.2,0.3-0.5,0.3-0.7
	l-0.7-5.5l18.4-5.3l0,0.1c0,0.2,2.8,19.3,3,24.1c0.2,4.8-2.3,7.4-2.3,7.5C250.5,569.4,247.2,570.2,243.9,570.1L243.9,570.1z
	 M178.6,545.5c-0.4,0-0.7,0.1-0.9,0.4c-0.2,0.3-0.2,0.6-0.1,1c0.4,1.1,2.1,2.2,3.5,2.8c1.3,0.5,5.3,2,9.2,2.9
	c3.6,0.8,43.2,15.6,43.6,15.7c0.1,0,13.3,4.7,18.6-1.4c0,0,2.4-2.6,2.3-7.3c-0.2-4.6-2.8-22.4-3-24l-18,5.2l0.7,5.4
	c0,0.3-0.1,0.7-0.3,0.9c-0.2,0.2-0.6,0.3-0.9,0.3l-31.5-5.3c-0.1,0-2.6-0.4-3.8-2.4c-0.3-0.5-0.7-1-1-1.4c-1.5-1.6-4.8-4.3-10.3-4.6
	l0.3,1c0.1,0.3,0,0.7-0.2,0.9c-0.2,0.2-0.5,0.4-0.9,0.3c-0.7-0.1-1.8-0.4-2.7-0.8c-1.6-0.8-2.8-1.4-2.8-1.4c0,0-1.8-0.9-2.6,0.2
	c0,0-0.4,0.6,0,1.5l0.1,0.3l-2.7-1.5c-0.1,0-1.5-0.6-2.2,0.5c0,0-0.2,0.3-0.1,0.8c0.1,0.5,0.6,1.1,1.4,1.5l0.4,0.2l-0.5-0.1
	c0,0-1-0.1-1.3,0.6c-0.4,0.8,0.2,1.7,1,2.3c0.6,0.4,3,2.2,4.4,3.3c0.8,0.6,1.6,1,2.5,1.3l4.1,1.5c0.1,0,0.8,0.3,0.8,0.7
	c-0.1,0.4-0.8,0.5-0.9,0.5l-2.2-0.3c-0.5-0.1-1-0.2-1.4-0.5C180.5,546,179.4,545.5,178.6,545.5L178.6,545.5z"/>
<path class="st24" d="M235.1,547.1c0.8-0.1,1.6,0,2.4,0.3c0.8,0.2,1.5,0.6,2.2,1c0.7,0.5,1.3,1.1,1.8,1.7c0.5,0.7,0.8,1.5,0.9,2.3
	c-0.5-0.6-1-1.2-1.5-1.8c-0.5-0.5-1.1-1-1.7-1.4c-0.6-0.4-1.3-0.8-1.9-1.1C236.5,547.8,235.8,547.4,235.1,547.1L235.1,547.1z"/>
<path class="st24" d="M183.8,542.5l-2.2-0.7c-0.7-0.2-1.4-0.6-2-1l-5.6-3.5l0.5-0.9l5.6,3.5c0.6,0.4,1.2,0.6,1.8,0.9l2.2,0.7
	L183.8,542.5z"/>
<path class="st24" d="M178,534.8l-0.5,0.9l5.7,3.2l0.5-0.9L178,534.8z"/>
<path class="st24" d="M234.3,546.1c0,0,11.4,1.5,18.1-6.8l-0.6-3.8l-18.2,5.2L234.3,546.1L234.3,546.1z"/>
<path class="st24" d="M236.3,546.3c-1.2,0-2-0.1-2-0.1l-0.1,0l-0.7-5.6l18.4-5.3l0.6,4l0,0C247.5,545.5,239.9,546.3,236.3,546.3
	L236.3,546.3z M234.4,546c1,0.1,11.6,1,17.9-6.8l-0.5-3.7l-18,5.2L234.4,546L234.4,546z"/>
<path class="st19" d="M239.6,499.4c0,0-10.4,0-11.3,13.1c-0.8,10.9,1.4,24.3,2.2,28.8c0.2,0.9,0.9,1.6,1.9,1.7
	c3.9,0.2,13.9,0.1,21.2-5.3c0.6-0.4,0.9-1.2,0.7-1.9l-4.5-26C249.8,509.9,248.1,500.6,239.6,499.4L239.6,499.4z"/>
<path class="st25" d="M239.6,499.4c-0.8,0.2-1.5,0.4-2.3,0.7c-0.7,0.3-1.4,0.6-2.1,1c-1.3,0.8-2.5,1.7-3.5,2.9c-1,1.2-1.7,2.5-2.2,4
	c-0.5,1.5-0.9,3-1.1,4.6c-0.1-1.6,0-3.2,0.4-4.8c0.4-1.6,1.2-3.1,2.2-4.4c1-1.3,2.4-2.3,3.9-3c0.8-0.3,1.5-0.6,2.3-0.8
	C238,499.5,238.8,499.4,239.6,499.4L239.6,499.4z"/>
<path class="st25" d="M228.2,518.5l0.5,5.7c0.2,1.9,0.4,3.8,0.6,5.7l0.3,2.9c0.1,0.9,0.2,1.9,0.4,2.8c0.3,1.9,0.6,3.8,1.1,5.6l0,0
	l0,0.1c0,0,0,0.1,0,0.1c0,0,0,0.1,0,0.1c0,0.1,0.1,0.2,0.1,0.3c0.1,0.2,0.2,0.3,0.3,0.4c0.1,0.1,0.3,0.2,0.5,0.2
	c0.1,0,0.2,0,0.3,0.1l0.1,0l0.1,0l0.1,0c1,0,1.9,0,2.8,0c1.9,0,3.8-0.2,5.7-0.4c1.9-0.3,3.7-0.6,5.6-1.2c1.8-0.5,3.6-1.2,5.3-2.1
	c-1.6,1.1-3.3,1.9-5.1,2.6c-1.8,0.7-3.7,1.1-5.6,1.5c-1.9,0.3-3.8,0.5-5.8,0.6c-1,0-1.9,0-2.9,0h-0.1l-0.1,0l-0.2,0
	c-0.1,0-0.3-0.1-0.4-0.1c-0.3-0.1-0.6-0.2-0.8-0.4c-0.2-0.2-0.4-0.5-0.6-0.7c-0.1-0.1-0.1-0.3-0.2-0.4c0-0.1,0-0.1-0.1-0.2
	c0-0.1,0-0.1,0-0.2l0,0.1l-0.3-1.4l-0.3-1.4c-0.2-1-0.3-1.9-0.4-2.9c-0.2-1.9-0.4-3.8-0.5-5.8c-0.1-1.9-0.2-3.8-0.3-5.8
	C228.2,522.3,228.1,520.4,228.2,518.5L228.2,518.5z"/>
<path class="st23" d="M202.8,450.5c-2.5-0.3-8.4-0.1-10.6,6.2c-0.4,1.2-0.6,2.5-0.6,3.9v18.6c0,1.6,0.3,3.3,1,4.8
	c1,2.3,3,4.4,7.1,4.8v5.5c0,0.5-0.3,1-0.8,1.1l-1.4,0.5c0,0-0.9,15.4,7.2,16.8c0,0,5.1,0.5,9.7-8.4c0,0-2.8-3.5-2.6-7.6
	c0.2-4.1,3-6.9,3-6.9s0.9-1,1-1.9c0,0,0.2-1.3-1.3-2.2c-1.6-0.9-5.6-4.7-5.1-10s4-8.6,4-8.6s0.9-0.9,1-1.9c0.1-1-0.7-1.5-1.8-1.4
	c-1.1,0.1-7.7,0.1-9.4-4.6c-1.2-3.3-0.4-5.9,0.2-7.3C203.7,451.1,203.3,450.6,202.8,450.5z"/>
<path class="st23" d="M204.9,512.6c-0.1,0-0.2,0-0.2,0c-3.3-0.6-5.6-3.7-6.7-9c-0.8-4-0.6-7.9-0.6-7.9l0-0.1l1.4-0.5
	c0.4-0.1,0.7-0.6,0.7-1v-5.4c-3.4-0.3-5.8-2-7.1-4.8c-0.7-1.5-1-3.1-1-4.8v-18.6c0-1.4,0.2-2.7,0.6-3.9c2.2-6.4,8.2-6.5,10.7-6.2
	c0.3,0,0.6,0.2,0.7,0.5c0.1,0.3,0.2,0.6,0,0.8c-0.6,1.3-1.4,4-0.2,7.2c1.9,5,9.3,4.6,9.3,4.6c0.6-0.1,1.2,0.1,1.5,0.4
	c0.3,0.3,0.4,0.6,0.4,1.1c-0.1,1.1-1,1.9-1,2c0,0-3.5,3.4-4,8.6c-0.5,5.2,3.5,9.1,5.1,9.9c1.6,0.9,1.4,2.3,1.4,2.3
	c-0.1,0.9-1,1.9-1,2c0,0-2.8,2.8-3,6.8c-0.2,4,2.5,7.5,2.5,7.5l0,0l0,0.1c-2.4,4.7-4.9,6.7-6.6,7.6
	C206.4,512.6,205.3,512.6,204.9,512.6L204.9,512.6z M197.6,495.8c0,1.1-0.5,15.3,7.1,16.7c0,0,5.1,0.4,9.6-8.3
	c-0.3-0.5-2.8-3.8-2.5-7.6c0.2-4.1,3-6.9,3.1-6.9c0,0,0.9-1,0.9-1.9c0-0.1,0.2-1.3-1.3-2.1c-1.5-0.8-5.7-4.8-5.2-10.1
	c0.5-5.3,4-8.7,4-8.7c0,0,0.9-0.8,0.9-1.8c0-0.4-0.1-0.7-0.3-0.9c-0.3-0.3-0.8-0.4-1.3-0.4c-0.1,0-7.6,0.5-9.5-4.7
	c-1.2-3.3-0.4-6,0.2-7.4c0.1-0.2,0.1-0.5,0-0.7c-0.1-0.2-0.3-0.3-0.6-0.4c-2.4-0.2-8.3-0.1-10.5,6.1c-0.4,1.2-0.6,2.5-0.6,3.8v18.6
	c0,1.7,0.3,3.3,1,4.7c1.3,2.8,3.6,4.4,7,4.7l0.1,0v5.6c0,0.5-0.3,1-0.9,1.2L197.6,495.8L197.6,495.8z"/>
<path class="st24" d="M199.7,488.6c0,0,7,0.5,10.1-3c0,0-0.4,8.6-10.1,8.6V488.6z"/>
<path class="st24" d="M199.7,494.2h-0.1v-5.7l0.1,0c0.1,0,7,0.4,10-3l0.2-0.2l0,0.3C209.9,485.6,209.4,494.2,199.7,494.2
	L199.7,494.2z M199.8,488.7v5.3c2.7,0,6.4-0.8,8.5-4.2c1-1.6,1.3-3.3,1.4-4C206.7,488.9,200.7,488.7,199.8,488.7z"/>
<path class="st18" d="M214.4,504.1c0,0,5.6,7,14.4,4.5c8.8-2.5,9.8-8.9,9.8-8.9s5.3-16.1-2.6-22.8c-7.9-6.7-10.3-13-10.1-17.2
	c0,0-6.6,5.5-2.5,13.9c4.1,8.5,5.5,14.8-0.1,18.2C217.6,495.2,210.5,499,214.4,504.1L214.4,504.1z"/>
<path class="st18" d="M225.1,509.2c-6.6,0-10.7-5-10.8-5.1c-1-1.2-1.3-2.5-1.1-3.7c0.6-3.1,4.7-5.6,8.8-8.1c0.4-0.2,0.7-0.4,1.1-0.7
	c2.6-1.6,3.8-3.9,3.7-7.1c-0.1-2.7-1.3-6.2-3.6-11c-2.1-4.4-1.3-8-0.3-10.2c1.1-2.4,2.8-3.8,2.8-3.8l0.2-0.1l0,0.2
	c-0.1,2.5,0.6,9.1,10.1,17.1c4.1,3.5,4.6,9.5,4.3,14c-0.3,4.8-1.7,8.9-1.7,8.9c0,0-1.1,6.5-9.8,9
	C227.5,509.1,226.3,509.2,225.1,509.2z M214.5,504c0.1,0.1,5.7,6.9,14.3,4.5c4.5-1.3,6.9-3.6,8.1-5.3c1.3-1.9,1.6-3.5,1.6-3.5
	c0.1-0.2,5.2-16.2-2.6-22.7c-9.3-7.8-10.2-14.4-10.2-17.1c-0.4,0.4-1.7,1.7-2.6,3.6c-1,2.2-1.8,5.7,0.3,10.1c2.3,4.8,3.4,8.3,3.6,11
	c0.2,3.3-1.1,5.6-3.8,7.3c-0.4,0.2-0.7,0.4-1.1,0.7c-3.8,2.3-8.1,4.9-8.7,7.9C213.2,501.7,213.6,502.8,214.5,504L214.5,504z"/>
<path class="st26" d="M178.7,510.7c0.4,0.5,0.9,0.9,1.4,1.2c0.5,0.4,1,0.7,1.5,1c0.1,0.1,0.3,0.1,0.4,0.2c0.1,0,0.1,0.1,0.2,0.1
	l0.2,0.1l0.4,0.2c0.1,0.1,0.3,0.1,0.4,0.2l0.2,0.1c0.1,0,0.1,0,0.2,0.1l0.4,0.2c0.3,0.1,0.6,0.2,0.9,0.3c-0.3,0-0.6,0-1,0
	c-0.3-0.1-0.6-0.1-0.9-0.2c-0.2,0-0.3-0.1-0.5-0.1c-0.2,0-0.3-0.1-0.5-0.2c-0.3-0.1-0.6-0.3-0.9-0.4c-0.6-0.3-1.1-0.7-1.5-1.2
	C179.3,511.8,178.9,511.3,178.7,510.7z"/>
<path class="st26" d="M190.8,516.5c2.9,0,5.7-0.1,8.6,0c1.4,0,2.9,0,4.3,0.1l4.3,0.1l4.3,0.1c1.4,0,2.9,0.1,4.3,0.2
	c2.9,0.1,5.7,0.3,8.6,0.4c-2.9,0-5.7,0.1-8.6,0c-1.4,0-2.9,0-4.3-0.1l-4.3-0.1l-4.3-0.1c-1.4-0.1-2.9-0.1-4.3-0.2
	C196.5,516.9,193.6,516.7,190.8,516.5L190.8,516.5z"/>
<path class="st26" d="M230.7,517.4c1.5,0,3.1-0.1,4.6-0.3c0.8-0.1,1.5-0.2,2.3-0.3c0.8-0.1,1.5-0.3,2.2-0.5c0.7-0.2,1.5-0.4,2.2-0.6
	c0.4-0.1,0.7-0.3,1.1-0.4c0.4-0.1,0.7-0.3,1.1-0.4c1.4-0.6,2.7-1.4,4-2.2c-1.1,1.1-2.4,2-3.8,2.7c-1.4,0.7-2.9,1.2-4.4,1.6
	c-1.5,0.4-3.1,0.6-4.6,0.7C233.8,517.6,232.2,517.6,230.7,517.4L230.7,517.4z"/>
<path class="st26" d="M191.6,533.1c2.9,0,5.9,0,8.8,0c1.5,0,2.9,0.1,4.4,0.1l4.4,0.1l4.4,0.2c1.5,0.1,2.9,0.1,4.4,0.2
	c2.9,0.1,5.9,0.3,8.8,0.5c-2.9,0-5.9,0-8.8,0c-1.5,0-2.9-0.1-4.4-0.1l-4.4-0.1l-4.4-0.2c-1.5-0.1-2.9-0.1-4.4-0.2
	C197.4,533.5,194.5,533.3,191.6,533.1z"/>
<path class="st26" d="M231.5,535.4c1.7-0.2,3.4-0.5,5.1-0.9c0.8-0.2,1.7-0.4,2.5-0.7c0.8-0.2,1.6-0.5,2.5-0.8c0.8-0.3,1.6-0.6,2.4-1
	c0.4-0.2,0.8-0.4,1.2-0.6c0.4-0.2,0.8-0.4,1.1-0.6c1.5-0.9,2.9-1.9,4.2-3c-1.2,1.3-2.5,2.5-4,3.4c-1.5,1-3.1,1.7-4.7,2.3
	c-1.6,0.6-3.4,1.1-5.1,1.4C235,535.3,233.3,535.5,231.5,535.4L231.5,535.4z"/>
<path class="st26" d="M232.5,568.9c-2.3,0-4.6,0-6.9-0.1c-1.1,0-2.3-0.1-3.4-0.1l-3.4-0.1l-3.4-0.2c-1.1-0.1-2.3-0.1-3.4-0.2
	c-2.3-0.1-4.6-0.3-6.9-0.5c2.3,0,4.6,0,6.9,0.1c1.1,0,2.3,0.1,3.4,0.1l3.4,0.1l3.4,0.2c1.1,0.1,2.3,0.1,3.4,0.2
	C227.9,568.5,230.2,568.7,232.5,568.9L232.5,568.9z"/>
<path class="st18" d="M191.6,439.1c-0.4,0.1-0.7,0.3-1,0.5l-0.2,0.2c-0.1,0.1-0.2,0.1-0.2,0.2c-0.2,0.1-0.3,0.2-0.5,0.4
	c-0.1,0.1-0.3,0.2-0.4,0.4l-0.4,0.4c-0.1,0.1-0.3,0.3-0.4,0.4c-0.1,0.1-0.3,0.3-0.4,0.5c-0.9,1.3-1.6,2.7-2.1,4.1
	c-0.1,0.4-0.2,0.7-0.3,1.1l-0.2,1.1c-0.1,0.4-0.1,0.8-0.2,1.1l-0.1,0.6l0,0.3c0,0.1,0,0.2,0,0.3c-0.1,0.8-0.4,1.6-0.7,2.3
	c-0.3,0.7-0.8,1.4-1.4,2c-0.6,0.6-1.3,1.1-2.1,1.4c-0.2,0.1-0.4,0.2-0.6,0.2l-0.6,0.2c-0.4,0.1-0.7,0.2-1.1,0.4
	c-1.4,0.5-2.8,1.3-4,2.2c-1.2,0.9-2.2,2.1-3,3.3c-0.8,1.3-1.3,2.7-1.5,4.2c-0.1,0.7-0.2,1.5-0.1,2.2c0.1,0.7,0.2,1.5,0.4,2.2
	c0.4,1.4,1.1,2.8,2,4.1c0.8,1.3,1.8,2.5,2.9,3.6c0.3,0.3,0.5,0.5,0.8,0.8c0.2,0.2,0.3,0.3,0.5,0.5c0.1,0.2,0.3,0.3,0.4,0.5
	c0.2,0.4,0.4,0.8,0.5,1.2c0,0.1,0,0.2,0.1,0.3c0,0.1,0,0.2,0,0.3l0,0.3c0,0.1,0,0.2,0,0.3c-0.1,0.9-0.5,1.7-1.1,2.3
	c-0.6,0.6-1.2,1.1-1.8,1.6c-1.3,0.9-2.6,1.8-4,2.6c-2.7,1.6-5.5,3.1-8.3,4.5c2.7-1.6,5.4-3.2,8-4.9c1.3-0.9,2.6-1.7,3.8-2.7
	c0.6-0.5,1.2-1,1.7-1.6c0.5-0.6,0.8-1.2,0.8-1.9c0-0.1,0-0.2,0-0.3l0-0.3c0-0.1,0-0.2,0-0.3c0-0.1,0-0.2-0.1-0.3
	c-0.1-0.3-0.2-0.7-0.4-1c-0.1-0.1-0.2-0.3-0.3-0.4c-0.1-0.1-0.2-0.3-0.4-0.4c-0.3-0.3-0.6-0.5-0.9-0.8c-1.1-1.1-2.2-2.3-3.1-3.7
	c-0.9-1.3-1.6-2.8-2.1-4.4c-0.2-0.8-0.4-1.6-0.5-2.4c0-0.2,0-0.4,0-0.6c0-0.2,0-0.4,0-0.6l0-0.6l0.1-0.6c0.2-1.6,0.8-3.2,1.7-4.6
	c0.9-1.4,2-2.6,3.3-3.6c1.3-1,2.7-1.8,4.2-2.3c0.4-0.1,0.8-0.3,1.2-0.4l0.3-0.1l0.3-0.1c0.1,0,0.2-0.1,0.3-0.1s0.2-0.1,0.3-0.1
	c0.7-0.3,1.3-0.6,1.8-1.2c1.1-1,1.7-2.4,2-3.9c0-0.1,0-0.2,0-0.3l0.1-0.3l0.1-0.6c0.1-0.4,0.1-0.8,0.2-1.2l0.3-1.2
	c0.1-0.4,0.3-0.8,0.4-1.1c0.6-1.5,1.3-2.9,2.3-4.2c0.1-0.2,0.3-0.3,0.4-0.4c0.1-0.1,0.3-0.3,0.4-0.4l0.4-0.4
	c0.1-0.1,0.3-0.2,0.5-0.4c0.2-0.1,0.3-0.2,0.5-0.3c0.1-0.1,0.2-0.1,0.2-0.2l0.3-0.1C190.8,439.4,191.2,439.2,191.6,439.1
	L191.6,439.1z"/>
<path class="st18" d="M217.2,446.7c1.1,0.2,2.2,0.6,3.3,1.1c1.1,0.5,2.1,1.1,3,1.8c1.9,1.3,3.6,3.1,4.9,5c0.3,0.5,0.7,1,0.9,1.5
	c0.3,0.5,0.6,1,0.8,1.5c0.1,0.3,0.2,0.5,0.4,0.8c0.1,0.3,0.3,0.5,0.3,0.8c0.2,0.5,0.4,1.1,0.6,1.6c0.7,2.2,1.2,4.5,1.4,6.8
	c0.1,0.6,0.1,1.2,0.1,1.7l0.1,0.9l0,0.9l0,0.9l0.1,0.9c0,0.6,0.1,1.1,0.1,1.7c0.2,2.3,0.6,4.5,1.1,6.7c0.5,2.2,1.3,4.4,2.4,6.4
	c0.5,1,1.2,1.9,2,2.7c0.4,0.4,0.8,0.8,1.2,1.1c0.2,0.2,0.5,0.3,0.7,0.4c0.1,0.1,0.2,0.1,0.4,0.2c0.1,0.1,0.3,0.1,0.4,0.1l0,0l0,0
	c0.4,0.2,0.7,0.5,1,0.7c0.3,0.3,0.6,0.6,0.9,0.9c0.5,0.7,0.9,1.4,1.1,2.2c0.2,0.8,0.2,1.7,0.1,2.5c-0.1,0.8-0.4,1.6-0.7,2.3
	c0.3-0.8,0.5-1.5,0.6-2.3c0.1-0.8,0-1.6-0.2-2.4c-0.2-0.8-0.6-1.5-1.1-2c-0.3-0.3-0.5-0.6-0.8-0.8c-0.3-0.2-0.6-0.5-1-0.6l0.1,0
	c-0.2,0-0.3-0.1-0.5-0.1c-0.1-0.1-0.3-0.1-0.4-0.2c-0.3-0.1-0.5-0.3-0.8-0.5c-0.5-0.3-1-0.7-1.4-1.1c-0.8-0.8-1.5-1.8-2.1-2.8
	c-0.6-1-1.1-2.1-1.5-3.2s-0.8-2.2-1.1-3.3c-0.1-0.3-0.1-0.6-0.2-0.8c-0.1-0.3-0.1-0.6-0.2-0.9c-0.1-0.6-0.2-1.1-0.3-1.7l-0.1-0.9
	l-0.1-0.9c0-0.3-0.1-0.6-0.1-0.9l-0.1-0.9c-0.1-0.6-0.1-1.2-0.2-1.7c0-0.3,0-0.6-0.1-0.9l0-0.9l0-0.9l-0.1-0.9
	c0-0.6-0.1-1.1-0.1-1.7c-0.2-2.3-0.6-4.5-1.3-6.7c-0.2-0.5-0.4-1.1-0.6-1.6c0-0.1-0.1-0.3-0.2-0.4l-0.2-0.4
	c-0.1-0.3-0.2-0.5-0.3-0.8c-0.2-0.5-0.5-1-0.8-1.5c-0.3-0.5-0.6-1-0.9-1.5c-0.6-0.9-1.3-1.9-2.1-2.7c-0.8-0.8-1.6-1.6-2.5-2.3
	c-0.9-0.7-1.9-1.3-2.9-1.9c-0.5-0.3-1-0.5-1.6-0.7C218.3,447,217.7,446.8,217.2,446.7L217.2,446.7z"/>
<path class="st27" d="M206.8,446.7c-0.7-1-1.7-1.9-2.7-2.6c-1-0.7-2.1-1.3-3.3-1.7c-0.6-0.2-1.2-0.3-1.8-0.4c-0.2,0-0.3,0-0.5,0
	c-0.2,0-0.3,0-0.5,0h-0.5l-0.5,0c-1.2,0.1-2.4,0.4-3.6,0.9l-0.2,0.1l-0.1,0c0,0-0.1,0-0.1,0c-0.1,0.1-0.3,0.1-0.4,0.2
	c-0.3,0.2-0.5,0.3-0.7,0.5c-0.5,0.4-0.9,0.8-1.3,1.3c-0.8,0.9-1.3,2-1.7,3.2c-0.3,1.2-0.5,2.4-0.5,3.6l0,0.5l0,0.5
	c0,0.3,0.1,0.6,0.1,0.9c0,0.4,0,0.7,0,1l0,0.5l0,0.5c-0.1,0.6-0.2,1.3-0.3,1.9c-0.1,0.3-0.1,0.6-0.3,0.9l-0.2,0.5l-0.2,0.5
	c-0.1,0.3-0.3,0.6-0.4,0.9c-0.2,0.3-0.3,0.6-0.5,0.8l-0.3,0.4c-0.1,0.1-0.2,0.3-0.3,0.4l-0.3,0.4l-0.2,0.2l-0.2,0.2
	c-0.9,0.9-1.7,1.8-2.3,2.8c-0.6,1-1.1,2.1-1.2,3.3c-0.1,0.6-0.1,1.2-0.1,1.8c0.1,0.6,0.2,1.2,0.3,1.7c0.3,1.1,0.9,2.2,1.5,3.3
	c0.7,1,1.4,2,2.2,2.9c0.8,0.9,1.7,1.8,2.6,2.6l0,0c0.3,0.2,0.5,0.4,0.7,0.6c0.2,0.2,0.4,0.4,0.6,0.7c0.4,0.4,0.8,0.9,1.1,1.4
	c0.3,0.5,0.6,1.1,0.9,1.6c0.1,0.1,0.1,0.3,0.2,0.4l0.1,0.5l0.1,0.2l0,0.2l0.1,0.5c0.1,0.6,0.1,1.3,0,1.9c0,0.3-0.1,0.6-0.2,0.9
	c0,0.2-0.1,0.3-0.1,0.4c-0.1,0.1-0.1,0.3-0.2,0.4c-0.5,1.1-1.3,2.2-2.3,2.9l-0.4,0.3l-0.4,0.2c-0.3,0.2-0.6,0.3-0.8,0.4
	c-0.6,0.3-1.2,0.4-1.8,0.5c-1.2,0.2-2.5,0.2-3.6,0.1c-2.3-0.3-4.6-0.5-6.9-0.2c-1.1,0.2-2.3,0.4-3.3,0.8c-1.1,0.4-2,1-2.8,1.8
	c-0.8,0.8-1.5,1.7-1.9,2.8c-0.5,1-0.7,2.2-0.9,3.3l-0.1,0.9c0,0.3,0,0.6,0,0.9c0,0.6,0.1,1.1,0.2,1.7c0.3,1.1,0.7,2.2,1.4,3.1
	c0.7,0.9,1.6,1.7,2.6,2.2c1,0.5,2.2,0.9,3.3,1.1c-1.2-0.1-2.3-0.4-3.4-0.9c-1.1-0.5-2-1.3-2.8-2.2c-0.7-0.9-1.2-2-1.6-3.2
	c-0.2-0.6-0.3-1.2-0.3-1.8c0-0.3,0-0.6,0-0.9c0-0.3,0.1-0.6,0.1-0.9c0.1-1.2,0.4-2.4,0.9-3.5c0.5-1.1,1.1-2.1,2-3
	c0.2-0.2,0.4-0.4,0.7-0.6c0.1-0.1,0.2-0.2,0.4-0.3l0.4-0.3c0.5-0.3,1-0.6,1.6-0.9c1.1-0.5,2.3-0.8,3.5-0.9c4.7-1,9.8,1.8,13.5-1.3
	c0.9-0.7,1.5-1.6,2-2.6c0.1-0.1,0.1-0.3,0.1-0.4c0-0.1,0.1-0.3,0.1-0.4c0.1-0.3,0.1-0.5,0.2-0.8c0.1-0.5,0.1-1.1,0-1.6
	c-0.3-2.1-1.8-4.1-3.5-5.5l0,0c-0.9-0.8-1.9-1.7-2.7-2.7c-0.9-0.9-1.7-1.9-2.3-3c-0.7-1.1-1.3-2.3-1.6-3.5c-0.2-0.6-0.3-1.3-0.4-1.9
	c0-0.7,0-1.3,0.1-2c0.2-1.3,0.7-2.6,1.4-3.7c0.7-1.1,1.5-2.1,2.4-3l0.2-0.2l0.2-0.2l0.3-0.3c0.1-0.1,0.2-0.2,0.3-0.3l0.3-0.4
	c0.2-0.3,0.3-0.5,0.5-0.8c0.1-0.3,0.3-0.5,0.4-0.8l0.2-0.4l0.1-0.4c0.1-0.3,0.2-0.6,0.3-0.9c0.1-0.6,0.2-1.2,0.3-1.8l0-0.5l0-0.5
	c0-0.3,0-0.6,0-0.9c0-0.3-0.1-0.6-0.1-0.9l0-0.5l0-0.5c0-1.3,0.2-2.6,0.6-3.8c0.4-1.2,1-2.4,1.9-3.4c0.4-0.5,0.9-0.9,1.4-1.3
	c0.3-0.2,0.5-0.4,0.8-0.6c0.1-0.1,0.3-0.2,0.4-0.2c0.1,0,0.1,0,0.1-0.1l0.1,0l0.2-0.1c0.2-0.1,0.3-0.1,0.5-0.2l0.5-0.1
	c0.3-0.1,0.6-0.2,0.9-0.2c0.3-0.1,0.6-0.1,0.9-0.2l0.5,0l0.2,0l0.2,0l0.5,0l0.5,0c0.2,0,0.3,0,0.5,0c0.2,0,0.3,0,0.5,0
	c0.6,0.1,1.3,0.2,1.9,0.4C203.3,443,205.4,444.6,206.8,446.7L206.8,446.7z"/>
<path class="st27" d="M221.9,451.2c0.4,0.2,0.8,0.6,1.1,1c0.3,0.4,0.5,0.8,0.7,1.3c0.4,0.9,0.6,1.9,0.7,2.9l0,0.4l0,0.4l0,0.7l0,1.5
	l0,0.7c0,0.2,0,0.5,0,0.7l0,0.4l0,0.4c0,0.2,0,0.5,0.1,0.7l0.1,0.7c0.1,0.2,0.1,0.5,0.2,0.7c0.1,0.4,0.3,0.9,0.5,1.3
	c0,0.1,0.1,0.2,0.1,0.3l0.2,0.3c0.1,0.2,0.2,0.4,0.4,0.6c0.1,0.2,0.3,0.4,0.4,0.5c0.2,0.2,0.3,0.3,0.5,0.5c0.7,0.6,1.4,1.2,2.2,1.8
	c0.8,0.6,1.5,1.3,2.2,2c2.7,2.9,4.8,6.4,5.9,10.1c0.3,0.9,0.5,1.9,0.7,2.9c0,0.2,0.1,0.5,0.1,0.7l0.1,0.4l0,0.4
	c0,0.2,0.1,0.5,0.1,0.7l0,0.7c0.1,2-0.1,3.9-0.6,5.8c0.2-1.9,0.3-3.9,0.1-5.8c-0.1-1-0.3-1.9-0.5-2.8c-0.2-0.9-0.5-1.9-0.8-2.8
	c-0.3-0.9-0.7-1.8-1.1-2.6c-0.4-0.9-0.9-1.7-1.4-2.5c-1-1.6-2.1-3.2-3.5-4.5c-0.6-0.7-1.3-1.4-2.1-1.9c-0.8-0.6-1.6-1.2-2.3-1.9
	c-0.2-0.2-0.3-0.4-0.5-0.6c-0.2-0.2-0.3-0.4-0.5-0.6c-0.1-0.2-0.3-0.4-0.4-0.7l-0.2-0.3c-0.1-0.1-0.1-0.2-0.2-0.3
	c-0.4-0.9-0.6-1.9-0.7-2.9c0-0.2,0-0.5-0.1-0.7l0-0.4l0-0.4c0-0.2,0-0.5,0-0.7l0-0.7l0.1-1.4l0-0.7l0-0.4l0-0.4
	c-0.1-1-0.2-1.9-0.5-2.8c-0.1-0.5-0.3-0.9-0.6-1.3C222.6,451.9,222.3,451.5,221.9,451.2L221.9,451.2z"/>
<path class="st27" d="M210.2,450.4c1.4-0.1,2.8,0.3,3.9,1.2c0.3,0.2,0.5,0.5,0.7,0.8c0.2,0.3,0.4,0.6,0.6,0.9c0.3,0.6,0.5,1.3,0.7,2
	l0.2,1c0.1,0.3,0.1,0.7,0.2,1c0.1,0.7,0.3,1.3,0.6,1.9c0.2,0.6,0.5,1.2,0.9,1.8c0.2,0.3,0.4,0.5,0.6,0.8c0.1,0.1,0.2,0.2,0.3,0.3
	c0.1,0.1,0.1,0.1,0.2,0.1c0.1,0,0.1,0.1,0.2,0.1l0,0l0,0c0.3,0.2,0.5,0.4,0.8,0.7c0.2,0.2,0.5,0.5,0.6,0.8c0.4,0.5,0.7,1.2,0.9,1.8
	c0.2,0.7,0.3,1.4,0.2,2c0,0.7-0.2,1.4-0.4,2c-0.2,0.6-0.5,1.2-0.9,1.8l-0.4,0.8c-0.1,0.1-0.1,0.3-0.2,0.4l-0.2,0.4
	c-0.5,1.1-0.8,2.3-0.8,3.5c-0.1,1.2,0.2,2.4,0.8,3.4c0.3,0.5,0.7,1,1.1,1.4c0.2,0.2,0.4,0.4,0.7,0.5l0.2,0.1l0.2,0.1l0.4,0.2
	c1.1,0.6,2.3,1.3,3.2,2.4c0.5,0.5,0.8,1.1,1.1,1.7c0.3,0.6,0.5,1.3,0.6,2c0.1,0.7,0.1,1.4,0,2c-0.1,0.7-0.2,1.3-0.4,2
	c-0.1,0.3-0.2,0.6-0.3,0.9l-0.3,0.9c-0.2,0.6-0.4,1.2-0.6,1.8c-0.4,1.2-0.7,2.4-0.8,3.7c-0.1,0.6-0.1,1.2,0.1,1.8
	c0.1,0.6,0.4,1.1,0.8,1.5c0.4,0.4,0.9,0.8,1.5,1c0.6,0.3,1.2,0.5,1.7,0.6c0.6,0.1,1.2,0.2,1.8,0.1c0.6-0.1,1.2-0.3,1.7-0.6
	c0.5-0.3,1-0.7,1.4-1.2c0.4-0.5,0.8-0.9,1.2-1.5c0.4-0.5,0.7-1.1,1-1.6c0.3-0.6,0.6-1.1,0.8-1.7c-0.2,0.6-0.4,1.2-0.7,1.8
	c-0.3,0.6-0.6,1.2-0.9,1.7c-0.7,1.1-1.5,2.1-2.6,2.9c-0.5,0.4-1.2,0.6-1.8,0.8c-0.7,0.1-1.4,0.1-2,0c-0.7-0.1-1.3-0.4-1.9-0.6
	c-0.6-0.3-1.2-0.6-1.7-1.1c-0.5-0.5-0.9-1.1-1-1.8c-0.2-0.7-0.2-1.4-0.1-2c0.1-0.7,0.2-1.3,0.3-1.9c0.1-0.6,0.3-1.3,0.5-1.9
	c0.2-0.6,0.4-1.2,0.6-1.8l0.3-0.9c0.1-0.3,0.2-0.6,0.3-0.9c0.3-1.2,0.4-2.4,0.3-3.6c-0.1-0.6-0.2-1.2-0.5-1.7c-0.3-0.5-0.6-1-1-1.5
	c-0.8-0.9-1.8-1.6-3-2.1l-0.4-0.2l-0.2-0.1l-0.2-0.1c-0.3-0.2-0.6-0.4-0.9-0.6c-0.5-0.5-0.9-1-1.3-1.6c-0.7-1.2-1-2.6-0.9-3.9
	c0-1.4,0.4-2.7,0.9-3.9l0.2-0.5c0.1-0.1,0.1-0.3,0.2-0.4l0.5-0.9c0.3-0.5,0.6-1.1,0.8-1.6c0.4-1.1,0.6-2.4,0.2-3.5
	c-0.2-0.6-0.4-1.1-0.8-1.6c-0.2-0.2-0.4-0.5-0.6-0.7c-0.2-0.2-0.4-0.4-0.6-0.6l0,0c-0.1-0.1-0.2-0.1-0.3-0.2
	c-0.1-0.1-0.1-0.1-0.2-0.2c-0.1-0.1-0.3-0.3-0.4-0.4c-0.2-0.3-0.4-0.6-0.6-0.9c-0.4-0.6-0.7-1.3-0.9-1.9c-0.2-0.7-0.4-1.4-0.5-2
	c-0.1-0.3-0.1-0.7-0.2-1l-0.1-1c-0.1-0.7-0.3-1.3-0.6-1.9c-0.1-0.3-0.3-0.6-0.5-0.9c-0.2-0.3-0.4-0.5-0.7-0.8
	C212.9,450.9,211.6,450.4,210.2,450.4L210.2,450.4z"/>
<path class="st18" d="M193.3,464.3c-0.1,0-0.2,0-0.3-0.1c-0.2-0.2-0.2-0.4-0.1-0.6c0,0,0.8-1,1.9-1.1c0.8,0,1.5,0.3,2.2,1.1
	c0.2,0.2,0.2,0.5,0,0.6c-0.2,0.2-0.4,0.2-0.6,0c-0.5-0.6-1.1-0.8-1.6-0.8c-0.8,0-1.3,0.8-1.4,0.8
	C193.6,464.2,193.5,464.3,193.3,464.3L193.3,464.3z"/>
<path class="st18" d="M196.9,464.4c-0.1,0-0.3-0.1-0.4-0.2c-0.5-0.5-1-0.8-1.5-0.8c-0.7,0-1.3,0.7-1.3,0.7c-0.2,0.2-0.5,0.3-0.7,0.1
	c-0.2-0.2-0.2-0.5-0.1-0.8c0,0,0.8-1.1,2-1.1c0.8,0,1.6,0.3,2.3,1.1c0.2,0.2,0.2,0.6,0,0.8C197.1,464.3,197,464.4,196.9,464.4
	C196.9,464.4,196.9,464.4,196.9,464.4L196.9,464.4z M195.1,463.2c0.5,0,1.1,0.3,1.6,0.9c0.1,0.1,0.1,0.1,0.2,0.1
	c0.1,0,0.2,0,0.2-0.1c0.1-0.1,0.1-0.4,0-0.5c-0.7-0.7-1.4-1.1-2.1-1c-1.1,0.1-1.8,1-1.9,1.1c-0.1,0.2-0.1,0.4,0,0.5
	c0.1,0.1,0.3,0.1,0.4,0C193.6,464,194.2,463.3,195.1,463.2C195,463.2,195.1,463.2,195.1,463.2L195.1,463.2z"/>
<path d="M193.6,467c-0.1,0-0.1,0-0.2-0.1c-0.1-0.1-0.2-0.3,0-0.5c0,0,0.6-0.8,1.5-0.8c0.6,0,1.1,0.2,1.7,0.8c0.1,0.1,0.1,0.4,0,0.5
	c-0.1,0.1-0.3,0.1-0.4,0c-0.4-0.4-0.8-0.6-1.2-0.6c-0.6,0-1,0.6-1,0.6C193.7,467,193.7,467,193.6,467L193.6,467z"/>
<path d="M205.8,467c-0.1,0-0.1,0-0.2-0.1c-0.1-0.1-0.2-0.3,0-0.5c0,0,0.6-0.8,1.5-0.8c0.6,0,1.1,0.2,1.7,0.8c0.1,0.1,0.1,0.4,0,0.5
	c-0.1,0.1-0.3,0.1-0.4,0c-0.4-0.4-0.8-0.6-1.2-0.6c-0.6,0-1,0.6-1,0.6C206,467,205.9,467,205.8,467L205.8,467z"/>
<path class="st18" d="M205.5,464.3c-0.1,0-0.2,0-0.3-0.1c-0.2-0.2-0.2-0.4-0.1-0.6c0,0,0.8-1,1.9-1.1c0.8,0,1.5,0.3,2.2,1.1
	c0.2,0.2,0.2,0.5,0,0.6c-0.2,0.2-0.4,0.2-0.6,0c-0.5-0.6-1.1-0.8-1.6-0.8c-0.8,0-1.3,0.8-1.4,0.8
	C205.7,464.2,205.6,464.3,205.5,464.3L205.5,464.3z"/>
<path class="st18" d="M209,464.4c-0.1,0-0.3-0.1-0.4-0.2c-0.5-0.5-1-0.8-1.5-0.8c-0.7,0-1.3,0.7-1.3,0.7c-0.2,0.2-0.5,0.3-0.7,0.1
	c-0.2-0.2-0.2-0.5-0.1-0.8c0,0,0.8-1.1,2-1.1c0.8,0,1.6,0.3,2.3,1.1c0.2,0.2,0.2,0.6,0,0.8C209.3,464.3,209.1,464.4,209,464.4
	C209,464.4,209,464.4,209,464.4L209,464.4z M207.2,463.2c0.5,0,1.1,0.3,1.6,0.9c0.1,0.1,0.1,0.1,0.2,0.1c0.1,0,0.2,0,0.2-0.1
	c0.1-0.1,0.1-0.4,0-0.5c-0.7-0.7-1.4-1.1-2.1-1c-1.1,0.1-1.8,1-1.9,1.1c-0.1,0.2-0.1,0.4,0,0.5c0.1,0.1,0.3,0.1,0.4,0
	C205.7,464,206.3,463.3,207.2,463.2C207.1,463.2,207.2,463.2,207.2,463.2L207.2,463.2z"/>
<path d="M194.5,470c0.7,0,1.2-0.5,1.2-1.2s-0.5-1.2-1.2-1.2c-0.7,0-1.2,0.5-1.2,1.2S193.8,470,194.5,470z"/>
<path d="M206.6,470c0.7,0,1.2-0.5,1.2-1.2s-0.5-1.2-1.2-1.2c-0.7,0-1.2,0.5-1.2,1.2S205.9,470,206.6,470z"/>
<path d="M198.7,476.8c-0.2,0-0.4-0.1-0.6-0.2c-0.6-0.5-0.3-1.6-0.2-1.7l2.1-8.3c0-0.1,0.1-0.2,0.2-0.1c0.1,0,0.2,0.1,0.1,0.2
	l-2.1,8.3c-0.1,0.3-0.2,1.1,0.1,1.3c0.3,0.2,0.9,0.1,1.8-0.4c0.1,0,0.2,0,0.2,0.1c0,0.1,0,0.2-0.1,0.2
	C199.7,476.6,199.1,476.8,198.7,476.8L198.7,476.8z"/>
<path d="M205.4,480.2c-0.7,0-1.3-0.3-1.3-0.3c-0.1,0-0.1-0.2-0.1-0.2c0-0.1,0.2-0.1,0.2-0.1c0,0,1.1,0.6,2,0.1
	c0.6-0.3,0.9-1.2,0.9-2.4c0-0.1,0.1-0.2,0.2-0.2c0.1,0,0.2,0.1,0.2,0.2c0,1.4-0.4,2.3-1.1,2.7C206,480.1,205.7,480.2,205.4,480.2z"
	/>
<path class="st23" d="M166.8,543.4c0,0-0.6,0.4-0.3,1.6c0.2,1.2,3.4,2.4,4.6,2.9c1.2,0.5,4.2,1,4.6-0.5s-3.6-2.9-3.6-2.9
	L166.8,543.4z"/>
<path class="st23" d="M173.7,548.4c-0.9,0-2-0.2-2.6-0.5c-1.9-0.7-4.5-1.8-4.7-2.9c-0.2-1.3,0.3-1.7,0.4-1.7l0,0l5.2,1.1
	c0.2,0.1,4.1,1.4,3.7,3c-0.1,0.4-0.3,0.6-0.6,0.8C174.8,548.3,174.3,548.4,173.7,548.4L173.7,548.4z M166.9,543.5
	c-0.1,0.1-0.4,0.5-0.3,1.5c0.2,1.2,3.5,2.4,4.5,2.8c1.1,0.4,3,0.7,3.9,0.2c0.3-0.2,0.5-0.4,0.5-0.7c0.3-1.4-3.5-2.7-3.6-2.8
	L166.9,543.5z"/>
<path class="st23" d="M165.4,539.3c0,0-1.1,0.2-1.1,1.3c0,0-0.1,1.6,1.6,2.4c1.7,0.9,6.8,2,6.8,2s1.6,0.4,2.1-1.1
	c0,0,0.5-1.6-2.1-2.4C170,540.6,165.4,539.3,165.4,539.3z"/>
<path class="st23" d="M173.2,545.1c-0.3,0-0.5,0-0.5-0.1c-0.2,0-5.2-1.1-6.9-2c-1.7-0.9-1.6-2.5-1.6-2.5c0.1-1.2,1.2-1.4,1.2-1.4
	l0,0l0,0c0,0,4.6,1.4,7.2,2.2c1,0.3,1.7,0.8,2.1,1.4c0.3,0.6,0.1,1.1,0.1,1.1C174.5,544.9,173.7,545.1,173.2,545.1L173.2,545.1z
	 M165.4,539.4c-0.1,0-1,0.2-1,1.2c0,0.1-0.1,1.5,1.5,2.4c1.7,0.8,6.8,1.9,6.8,2c0.1,0,1.5,0.4,1.9-1c0,0,0.1-0.4-0.1-1
	c-0.3-0.6-0.9-1-1.9-1.3C170.1,540.7,165.8,539.5,165.4,539.4z"/>
<path class="st23" d="M163,533.9c0,0-0.5,1.5,0,3c0.7,2,5.3,4.2,5.3,4.2s3.1,1.7,4.1,0.7c0,0,1.2-1.2-1.2-2.9
	C168.7,537.1,163,533.9,163,533.9z"/>
<path class="st23" d="M171.5,542.2c-1.3,0-3.1-1-3.2-1c-0.2-0.1-4.6-2.3-5.3-4.2c-0.6-1.5,0-3,0-3.1l0-0.1l0.1,0.1
	c0.1,0,5.7,3.2,8.2,5c1,0.7,1.5,1.4,1.5,2.1c0,0.6-0.3,1-0.3,1C172.2,542.1,171.9,542.2,171.5,542.2z M163.1,534
	c-0.1,0.4-0.4,1.6,0,2.9c0.7,1.9,5.2,4.1,5.2,4.1c0,0,3,1.7,4,0.7c0,0,0.3-0.3,0.3-0.8c0-0.6-0.5-1.3-1.4-1.9
	C168.9,537.3,163.9,534.5,163.1,534L163.1,534z"/>
<path class="st23" d="M163.2,528.3c0,0-1.3,0.4-1.5,2.2c-0.1,0.6,0.1,1.3,0.3,1.9c0.4,1,1.1,1.8,2,2.4l4,2.9c0,0,1.2,1,2.2,0.4
	c0.3-0.2,0.5-0.5,0.6-0.9c0.1-0.4,0-1.1-0.8-1.6c-0.8-0.6-3.2-2.4-4.9-3.7C163.9,531,163.3,529.7,163.2,528.3L163.2,528.3z"/>
<path class="st23" d="M169.4,538.3c-0.8,0-1.5-0.6-1.5-0.6l-4-2.9c-0.9-0.6-1.6-1.5-2-2.4c-0.3-0.7-0.4-1.4-0.4-1.9
	c0.2-1.8,1.5-2.3,1.6-2.3l0.1,0l0,0.1c0,1.4,0.7,2.6,1.8,3.4c1.8,1.4,4.2,3.2,4.9,3.7c0.8,0.6,0.9,1.3,0.8,1.7
	c-0.1,0.4-0.3,0.7-0.6,0.9C170,538.2,169.7,538.3,169.4,538.3z M163.1,528.4c-0.3,0.2-1.1,0.7-1.3,2.1c-0.1,0.5,0,1.2,0.3,1.8
	c0.4,0.9,1.1,1.7,1.9,2.4l4,2.9c0,0,1.2,0.9,2.1,0.4c0.3-0.2,0.5-0.5,0.5-0.8c0.1-0.4,0-1-0.7-1.5c-0.8-0.6-3.1-2.3-4.9-3.7
	C163.9,531,163.2,529.8,163.1,528.4L163.1,528.4z"/>
<path class="st28" d="M246.9,584.7c0,0,5.8,15.2-4.1,27.8c-5.7,7.2-14.6,11-23.8,10.4c-8.4-0.6-19.6-4.6-29.8-18.5L139.5,629
	c-0.7,0.3-1.4,0.3-2.1-0.1c-2.5-1.7-8.9-7-9.6-16.4c-0.1-0.8,0.3-1.6,1-2l63.7-42.8c0,0,13.1-9.4,21.9-5.3
	c8.8,4.1,15.1,16.3,15.1,16.3S240.5,580.7,246.9,584.7L246.9,584.7z"/>
<defs>
	
		<filter id="Adobe_OpacityMaskFilter_00000081639132657259507600000017300226463841449151_" filterUnits="userSpaceOnUse" x="186" y="584.7" width="64.1" height="46.6">
		<feColorMatrix  type="matrix" values="1 0 0 0 0  0 1 0 0 0  0 0 1 0 0  0 0 0 1 0"/>
	</filter>
</defs>
<mask maskUnits="userSpaceOnUse" x="186" y="584.7" width="64.1" height="46.6" id="mask1_7_797_00000023989980727739586670000003588206498123455674_">
	<path style="fill:#FFFFFF;filter:url(#Adobe_OpacityMaskFilter_00000081639132657259507600000017300226463841449151_);" d="
		M246.9,584.7c0,0,5.8,15.2-4.1,27.8c-5.7,7.2-14.6,11-23.8,10.4c-8.4-0.6-19.6-4.6-29.8-18.5L139.5,629c-0.7,0.3-1.4,0.3-2.1-0.1
		c-2.5-1.7-8.9-7-9.6-16.4c-0.1-0.8,0.3-1.6,1-2l63.7-42.8c0,0,13.1-9.4,21.9-5.3c8.8,4.1,15.1,16.3,15.1,16.3
		S240.5,580.7,246.9,584.7L246.9,584.7z"/>
</mask>
<g class="st30">
	<path class="st31" d="M208.9,594c0,0-18,9.5-22.9,11.9c0,0,12.1,26.7,40.2,25.4s26-41.1,20.7-46.6c0,0,3.4,33.3-22.5,31.2
		C204.2,614.3,205.7,596.8,208.9,594L208.9,594z"/>
</g>
<path class="st32" d="M189.2,604.4c1.9-1.1,3.9-2.2,5.8-3.2c2-1,3.9-2.1,5.9-3.1c2-1,3.9-2.1,5.8-3.1c1-0.5,1.9-1.1,2.8-1.7
	c0.9-0.6,1.9-1.2,2.6-2c-0.3,0.5-0.7,0.9-1.1,1.3c-0.2,0.2-0.4,0.4-0.6,0.6c-0.2,0.2-0.4,0.4-0.6,0.5c-0.2,0.2-0.4,0.3-0.7,0.5
	l-0.7,0.5c-0.5,0.3-0.9,0.6-1.4,0.9c-1.9,1.2-3.8,2.3-5.8,3.4c-2,1-4,2-6,2.9C193.3,602.8,191.3,603.6,189.2,604.4L189.2,604.4z"/>
<path class="st32" d="M205,596.4c0.3,0.1,0.6,0.2,0.9,0.2c0.2,0,0.3,0,0.5,0.1l0.5,0c0.6,0,1.2,0,1.8-0.2c0.3-0.1,0.6-0.1,0.9-0.2
	l0.4-0.1l0.2-0.1l0.2-0.1l0.9-0.3l0.9-0.3c0.1-0.1,0.3-0.1,0.4-0.2l0.4-0.2l0.8-0.4c0.5-0.3,1.1-0.6,1.6-0.9
	c0.3-0.2,0.5-0.3,0.8-0.5l0.4-0.2l0.2-0.1l0.2-0.1c0.5-0.3,1.1-0.7,1.7-0.9c-0.4,0.5-0.9,0.9-1.4,1.3c-0.5,0.4-1,0.8-1.5,1.2
	c-0.3,0.2-0.5,0.4-0.8,0.5c-0.3,0.2-0.5,0.3-0.8,0.5c-0.3,0.2-0.6,0.3-0.9,0.4c-0.3,0.1-0.6,0.3-0.9,0.4l-0.9,0.4
	c-0.3,0.1-0.6,0.2-0.9,0.3l-0.2,0.1l-0.2,0l-0.5,0.1c-0.3,0.1-0.7,0.1-1,0.1c-0.7,0-1.3,0-2-0.1l-0.5-0.1c-0.2-0.1-0.3-0.1-0.5-0.2
	C205.5,596.8,205.2,596.6,205,596.4L205,596.4z"/>
<path class="st32" d="M127.9,621.3l-0.2-0.1c-2.8-1.4-4.3-3.4-5-4.6c-0.5-0.9-0.8-2-0.7-3c0.1-1.3,0.7-2.9,2.9-3.6
	c1.5-0.5,2.9-0.3,4,0.5c1,0.7,1.6,1.9,1.8,3.2c0.5,5.8-2.5,7.3-2.7,7.4L127.9,621.3z M126.5,610.6c-0.4,0-0.9,0.1-1.3,0.2
	c-1.5,0.5-2.3,1.4-2.4,2.9c-0.1,0.9,0.2,1.7,0.6,2.5c0.6,1,1.9,2.9,4.4,4.1c0.6-0.4,2.4-2,2-6.5c-0.1-1.1-0.6-2-1.4-2.6
	C127.9,610.8,127.2,610.6,126.5,610.6L126.5,610.6z"/>
<path class="st32" d="M134.7,625.5c-4.9,0-7.1-4.2-7.2-4.4l-0.1-0.2l0.1-0.2c0.1-0.2,2-5,6.8-5.2c2.5-0.1,3.9,1,4.6,1.9
	c0.7,0.9,1,2.1,0.8,3.3c-0.2,1.4-0.9,4.7-4.8,4.7C134.8,625.5,134.7,625.5,134.7,625.5z M128.3,620.9c0.4,0.8,2.5,3.9,6.5,3.8
	c1.6,0,3.7-0.8,4-4c0.1-1-0.1-1.9-0.7-2.7c-0.8-1.1-2.1-1.7-3.9-1.6C130.5,616.5,128.7,620,128.3,620.9z"/>
<path class="st32" d="M123.4,638.1l-0.5-0.6c3.4-2.5,5.2-6,5.4-10.5c0.1-3.3-0.8-6-0.8-6c0,0-0.7-2.1-2.5-3.8
	c-2.4-2.4-5.4-3.2-9.2-2.5l-0.1-0.8c9.6-1.8,12.5,6.8,12.6,6.9c0,0.1,1,2.8,0.8,6.3C129,630.3,127.9,634.8,123.4,638.1L123.4,638.1z
	"/>
<path class="st32" d="M229.5,578.7c1,1.3,1.8,2.6,2.7,3.9c0.8,1.3,1.6,2.7,2.4,4s1.5,2.7,2.2,4.1c0.7,1.4,1.4,2.8,2,4.3
	c-1-1.3-1.8-2.6-2.7-3.9c-0.8-1.3-1.6-2.7-2.4-4c-0.8-1.4-1.5-2.7-2.2-4.1C230.8,581.6,230.1,580.1,229.5,578.7z"/>
<path class="st32" d="M155.7,604.1c-3.7,0.6-6.8,3.4-7.2,7.2c-0.3,2,0.1,4.5,2.2,7.2c5.2,6.8,26.9,13.5,37.5,6c0,0,7.5-6.3,3.4-11.3
	c0,0-2.2-2.9-8.5-1.5c-6.3,1.5-11.9-0.5-14.8-3.1C166.2,606.8,160.8,603.3,155.7,604.1L155.7,604.1z"/>
<defs>
	
		<filter id="Adobe_OpacityMaskFilter_00000181785284809735682840000003335737117200495506_" filterUnits="userSpaceOnUse" x="146.1" y="598.3" width="50.1" height="28">
		<feColorMatrix  type="matrix" values="1 0 0 0 0  0 1 0 0 0  0 0 1 0 0  0 0 0 1 0"/>
	</filter>
</defs>
<mask maskUnits="userSpaceOnUse" x="146.1" y="598.3" width="50.1" height="28" id="mask2_7_797_00000018922213670112581610000013128514037753433279_">
	<path style="fill:#FFFFFF;filter:url(#Adobe_OpacityMaskFilter_00000181785284809735682840000003335737117200495506_);" d="
		M155.7,604.1c-3.7,0.6-6.8,3.4-7.2,7.2c-0.3,2,0.1,4.5,2.2,7.2c5.2,6.8,26.9,13.5,37.5,6c0,0,7.5-6.3,3.4-11.3c0,0-2.2-2.9-8.5-1.5
		c-6.3,1.5-11.9-0.5-14.8-3.1C166.2,606.8,160.8,603.3,155.7,604.1L155.7,604.1z"/>
</mask>
<g class="st34">
	<path class="st13" d="M148.9,615.3c0,0-0.7-4,1.3-6.6c2-2.6,7.5-3.5,12.6,0c5.1,3.5,11.2,7,18.7,5.4c7.4-1.6,12.4,1.4,10.2,6.3
		l4.6-2.6l-8.8-19.6l-39.8,2l-1.4,13.8L148.9,615.3L148.9,615.3z"/>
	<path class="st17" d="M172.4,614.6c0.2,1.1,0.3,2.2,0.2,3.3c0,1.1-0.2,2.2-0.5,3.3c-0.2,0.5-0.4,1.1-0.6,1.6
		c-0.3,0.5-0.5,1-0.9,1.4c-0.3,0.5-0.7,0.9-1.1,1.2c-0.4,0.4-0.9,0.7-1.4,0.9c0.4-0.4,0.8-0.7,1.2-1.1c0.4-0.4,0.7-0.8,1-1.3
		c0.6-0.9,1-1.9,1.3-2.9c0.2-0.5,0.3-1,0.4-1.6c0.1-0.5,0.2-1.1,0.3-1.6C172.3,616.7,172.4,615.7,172.4,614.6L172.4,614.6z"/>
	<path class="st17" d="M174,615.3c0.3,0.9,0.4,1.9,0.5,2.9c0,1,0,2-0.2,3c-0.1,0.5-0.2,1-0.4,1.5c-0.2,0.5-0.4,0.9-0.6,1.4
		c-0.2,0.4-0.5,0.9-0.9,1.2c-0.3,0.4-0.7,0.7-1.1,1c0.3-0.4,0.6-0.8,0.9-1.2c0.3-0.4,0.5-0.8,0.7-1.3c0.4-0.9,0.7-1.8,0.8-2.7
		c0.1-0.5,0.2-0.9,0.2-1.4c0.1-0.5,0.1-1,0.1-1.4C174,617.3,174,616.3,174,615.3L174,615.3z"/>
</g>
<path class="st13" d="M519.7,622.7c0,0,5.1,4.7,19.2,0.8c0,0,17.8-7.3,20.9,6.8c0,0,2.9,13.4-23.3,15.1c-26.2,1.7-34.2-16-34.2-16
	L519.7,622.7L519.7,622.7z"/>
<defs>
	
		<filter id="Adobe_OpacityMaskFilter_00000063616524010404663520000017695287139092589196_" filterUnits="userSpaceOnUse" x="508.9" y="615.4" width="58.6" height="38.1">
		<feColorMatrix  type="matrix" values="1 0 0 0 0  0 1 0 0 0  0 0 1 0 0  0 0 0 1 0"/>
	</filter>
</defs>
<mask maskUnits="userSpaceOnUse" x="508.9" y="615.4" width="58.6" height="38.1" id="mask3_7_797_00000161612161069675019850000005943017410720710063_">
	<path style="fill:#FFFFFF;filter:url(#Adobe_OpacityMaskFilter_00000063616524010404663520000017695287139092589196_);" d="
		M519.7,622.7c0,0,5.1,4.7,19.2,0.8c0,0,17.8-7.3,20.9,6.8c0,0,2.9,13.4-23.3,15.1c-26.2,1.7-34.2-16-34.2-16L519.7,622.7
		L519.7,622.7z"/>
</mask>
<g class="st36">
	<path class="st16" d="M538,623.8c0,0,14.7-3.9,17.4,5.3c2.7,9.2-12.2,16.8-25.4,16.4c-13.2-0.4-21.1-6.8-21.1-6.8l15.6,14.9
		l29.3-5.5l13.7-21.1l-23.2-11.5L538,623.8L538,623.8z"/>
</g>
<path class="st6" d="M530.1,632.2c-5.3,0-12.9-1-20.3-5.3l0.4-0.7c14.6,8.6,29.9,4,30.1,4l0.2,0.8c-0.2,0-4,1.2-9.7,1.3
	C530.5,632.2,530.3,632.2,530.1,632.2L530.1,632.2z"/>
<path class="st17" d="M397.5,558.6c0,0,37.4-26.9,53-31.9c15.6-5,20.4,9.7,20.4,9.7l19.8,68.6l-34.5-17.6l-7.8-19.5c0,0-1-3.2-0.2-6
	c0,0-0.9-1.7-1.8,2.9c0,0-0.2,1.5-1.7,3.1c-1.4,1.5-13.6,12.6-13.6,12.6l-36,8.6l-0.9-26.2L397.5,558.6L397.5,558.6z"/>
<path class="st32" d="M418.2,583.7c2.1-2.4,4.3-4.6,6.5-6.9c1.1-1.1,2.2-2.2,3.3-3.3c1.1-1.1,2.3-2.2,3.4-3.3
	c1.1-1.1,2.3-2.2,3.5-3.2c1.2-1.1,2.3-2.1,3.5-3.1c1.2-1,2.4-2,3.6-3c1.2-1,2.5-1.9,3.8-2.8c-1.2,1-2.3,2.1-3.5,3.2
	c-0.6,0.5-1.1,1.1-1.7,1.6l-1.7,1.6c-0.6,0.5-1.1,1.1-1.7,1.6l-1.7,1.6l-3.4,3.2l-3.4,3.2c-1.2,1.1-2.3,2.1-3.5,3.2
	C422.9,579.5,420.6,581.6,418.2,583.7L418.2,583.7z"/>
<path class="st32" d="M453.2,558c1.1,2.7,2.1,5.5,3.1,8.3c0.5,1.4,1,2.8,1.4,4.2l1.4,4.2l1.3,4.2c0.4,1.4,0.9,2.8,1.3,4.2
	c0.8,2.8,1.6,5.6,2.3,8.5c-1.1-2.7-2.1-5.5-3.1-8.3c-0.5-1.4-0.9-2.8-1.4-4.2l-1.4-4.2l-1.3-4.2c-0.4-1.4-0.9-2.8-1.3-4.2
	C454.7,563.7,453.9,560.9,453.2,558L453.2,558z"/>
<path class="st18" d="M373.2,490.5l-24,12c0,0-6.1,3.6-7.8,12.7c0,0-5.9,31.7-5.8,42.5c0.2,10.8,3.3,32.2,3.3,32.2
	s2.3,12.7,11.5,14.1l48.4-26.3l-1.2-19.2L401,543l1.1-11l19.1,12.4c0,0,7,5.3,16.4,3c9.5-2.3,45.6-15.2,45.6-15.2s6.8-2.6,5.7-11.6
	l-2.3-5.9l-53.3,9.6c-1.1,0.2-2.2-0.1-3-0.9L410,504.6c-2.5-2.4-5.5-4.2-8.7-5.5l-11.9-4.8L373.2,490.5L373.2,490.5z"/>
<defs>
	
		<filter id="Adobe_OpacityMaskFilter_00000098204399799566203660000001985758745289899670_" filterUnits="userSpaceOnUse" x="345.1" y="511.6" width="150.5" height="62.3">
		<feColorMatrix  type="matrix" values="1 0 0 0 0  0 1 0 0 0  0 0 1 0 0  0 0 0 1 0"/>
	</filter>
</defs>
<mask maskUnits="userSpaceOnUse" x="345.1" y="511.6" width="150.5" height="62.3" id="mask4_7_797_00000101093039346881988600000010842493935787790010_">
	<path style="fill:#FFFFFF;filter:url(#Adobe_OpacityMaskFilter_00000098204399799566203660000001985758745289899670_);" d="
		M373.2,490.5l-24,12c0,0-6.1,3.6-7.8,12.7c0,0-5.9,31.7-5.8,42.5c0.2,10.8,3.3,32.2,3.3,32.2s2.3,12.7,11.5,14.1l48.4-26.3
		l-1.2-19.2L401,543l1.1-11l19.1,12.4c0,0,7,5.3,16.4,3c9.5-2.3,45.6-15.2,45.6-15.2s6.8-2.6,5.7-11.6l-2.3-5.9l-53.3,9.6
		c-1.1,0.2-2.2-0.1-3-0.9L410,504.6c-2.5-2.4-5.5-4.2-8.7-5.5l-11.9-4.8L373.2,490.5L373.2,490.5z"/>
</mask>
<g class="st38">
	<path class="st39" d="M402.1,532l0.8-9.1c0,0,13.9,19.8,28.5,20.9c14.7,1.1,51.8-13.2,54.7-17.3c2.9-4.2,0.5-11.8,0.5-11.8l9,6.5
		l-4.5,17.5L431.4,555l-27-16.7L402.1,532L402.1,532z"/>
	<path class="st39" d="M350.2,511.6c0,0-6.7,4.4-4.7,15c1,5.1,3.7,9.8,7.6,13.3l32.4,28.8c1.9,1.7,4,3,6.3,4c2.1,0.9,4.5,1.5,6.6,1
		l6-1l-3.1-10.5L350.2,511.6L350.2,511.6z"/>
</g>
<path d="M478.1,535.3l-16.4,1.4l4.3-32.5c0.1-0.4,0.4-0.8,0.8-0.8l16.5-1.4l-4.3,32.5C479,534.9,478.6,535.2,478.1,535.3
	L478.1,535.3z"/>
<path d="M461.7,536.8L461.7,536.8l4.3-32.6c0.1-0.5,0.4-0.8,0.9-0.9l16.5-1.5l0,0.1l-4.3,32.5c-0.1,0.5-0.5,0.9-1,0.9L461.7,536.8
	L461.7,536.8z M483.3,502l-16.4,1.4c-0.4,0-0.7,0.3-0.8,0.8l-4.3,32.5l16.3-1.4c0.5,0,0.8-0.4,0.9-0.9L483.3,502L483.3,502z"/>
<path class="st21" d="M483.4,501.9l-1-0.6c-0.2-0.1-0.5-0.2-0.7-0.2l-16.3,1.2c-0.5,0-0.8,0.4-0.9,0.8l-4.1,31.9
	c0,0.3,0.1,0.6,0.3,0.8l1,0.8l4.3-32.6c0.1-0.4,0.4-0.7,0.8-0.8L483.4,501.9z"/>
<path class="st21" d="M461.8,536.8l-1.1-0.8c-0.2-0.2-0.4-0.5-0.3-0.8l4.1-31.9c0.1-0.5,0.4-0.8,0.9-0.9l16.3-1.2
	c0.3,0,0.5,0,0.7,0.2l1.1,0.7l-16.7,1.5c-0.4,0-0.7,0.3-0.7,0.7L461.8,536.8L461.8,536.8z M481.8,501.3
	C481.8,501.3,481.7,501.3,481.8,501.3l-16.4,1.2c-0.4,0-0.8,0.4-0.8,0.8l-4.1,31.9c0,0.3,0.1,0.6,0.3,0.7l0.9,0.7l4.3-32.5
	c0.1-0.4,0.4-0.8,0.8-0.8l16.4-1.4l-0.8-0.5C482.2,501.3,482,501.3,481.8,501.3L481.8,501.3z"/>
<path class="st22" d="M476.1,506.7c0.2-0.8-0.3-1.6-1.1-1.8c-0.8-0.2-1.6,0.3-1.8,1.1c-0.2,0.8,0.3,1.6,1.1,1.8
	C475.1,508,475.9,507.5,476.1,506.7z"/>
<path class="st22" d="M474.7,507.9c-0.8,0-1.5-0.7-1.5-1.5c0-0.8,0.7-1.5,1.5-1.5c0.8,0,1.5,0.7,1.5,1.5
	C476.2,507.2,475.5,507.9,474.7,507.9z M474.7,505c-0.8,0-1.4,0.6-1.4,1.4c0,0.8,0.6,1.4,1.4,1.4c0.8,0,1.4-0.6,1.4-1.4
	C476.1,505.6,475.5,505,474.7,505z"/>
<path class="st40" d="M430.7,526.8c0,0-5,1.1-6.3,5.7c-1.3,4.6,2.4,4.5,2.4,4.5s2.8,0.3,2.7-3.5
	C429.5,529.7,429.6,527.9,430.7,526.8L430.7,526.8z"/>
<path class="st39" d="M430,524.7c-0.9,0.2-1.8,0.4-2.7,0.7c-0.9,0.3-1.7,0.6-2.5,1c-0.4,0.2-0.8,0.4-1.1,0.7c-0.4,0.3-0.7,0.5-1,0.8
	c-0.2,0.1-0.3,0.3-0.5,0.5c-0.1,0.2-0.3,0.3-0.4,0.5c-0.3,0.3-0.5,0.7-0.8,1.1c0.2-0.9,0.6-1.8,1.3-2.5c0.3-0.4,0.7-0.7,1-1
	c0.2-0.2,0.4-0.3,0.6-0.4c0.2-0.1,0.4-0.3,0.6-0.4c0.9-0.5,1.8-0.8,2.7-0.9C428.1,524.6,429.1,524.5,430,524.7L430,524.7z"/>
<path class="st39" d="M431.2,526.5c-0.6,0.6-1.2,1.2-1.7,1.9c-0.1,0.2-0.3,0.3-0.4,0.5c-0.1,0.2-0.2,0.3-0.4,0.5l-0.3,0.5
	c-0.1,0.2-0.2,0.4-0.3,0.6c-0.4,0.7-0.7,1.5-1,2.3c-0.2,0.4-0.2,0.8-0.4,1.2c-0.1,0.2-0.1,0.4-0.1,0.6c0,0.2-0.1,0.4-0.2,0.6
	c0-0.2,0-0.4-0.1-0.7c0-0.2,0-0.4,0-0.7l0-0.7c0-0.1,0-0.2,0-0.3l0.1-0.3c0.2-0.9,0.5-1.8,0.9-2.5c0.1-0.2,0.2-0.4,0.3-0.6
	c0.1-0.2,0.3-0.4,0.4-0.6c0.1-0.2,0.3-0.4,0.4-0.5c0.1-0.2,0.3-0.3,0.5-0.5C429.6,527.4,430.3,526.8,431.2,526.5z"/>
<path class="st28" d="M350.4,604.1c0,0,8.7-20.5,25-23.8c16.3-3.3,48.8-8.1,48.8-8.1s12.4-1.7,20.7,2.9c7.4,4,61.8,35.8,73.6,42.7
	c1.4,0.8,2.1,2.4,1.7,4c-1,4.6-3.9,14-10.7,18.2c-1.1,0.7-2.6,0.7-3.7,0.1l-69.8-37.9c-0.8-0.4-1.7-0.4-2.4,0
	c-5.8,2.9-30.7,15.1-47.1,19.5c-5.3,1.4-10.9,1-16-1.1C364.9,618.2,357.8,613.5,350.4,604.1L350.4,604.1z"/>
<path class="st23" d="M441.2,528.4c0,0,4-1.8,5.3-3.7c1.2-1.9,6.7-9.6,6.7-9.6s1.1-1.3,2.7-2.2s8-4.1,8-4.1l-0.2,1.7
	c0,0.6,0.1,1,0.6,0.8c1.8-0.7,5.4-2,6.8-1.9c1.9,0.1,6.8,1.2,6.8,1.2s1.6,0.3,1.3,1.9c0,0-0.3,0.9-1,1l1.7,0.6c0,0,1.2,0.5,1,2.1
	c-0.3,1.6-2.2,1.1-2.2,1.1s1.1,0.2,1,1.9c-0.1,1.7-2.4,1.2-2.4,1.2s-5.5-0.8-7.9,0c-2.4,0.8-5.3,2.7-5.3,2.7s-0.8,0.5-0.3,1.2
	c0.4,0.7,2.6-0.1,2.6-0.1l5.6-1.4c0,0,2.5-0.8,3.2,0.3c0.8,1.1-1.2,2.4-2.3,2.9c-1.1,0.5-8,2.4-8,2.4s-2.4,0.5-3.4,2.5
	c-1,2-1.7,3.2-1.7,3.2s-1,2.1-4.6,2.9c-3.6,0.8-7.4,2.3-7.4,2.3L441.2,528.4L441.2,528.4z"/>
<path class="st23" d="M447.4,539.4L447.4,539.4l-6.4-11.1l0.1,0c0,0,4-1.8,5.2-3.7c1.2-1.9,6.7-9.5,6.7-9.6c0,0,1.2-1.4,2.7-2.2
	c1.5-0.8,7.9-4,8-4.1l0.2-0.1l-0.2,1.9c0,0.3,0,0.6,0.1,0.7c0.1,0,0.2,0,0.3,0c2-0.8,5.4-2,6.8-1.9c1.8,0.1,6.8,1.2,6.8,1.2
	c0,0,1.7,0.3,1.4,2l0,0c0,0-0.3,0.7-0.8,1l1.4,0.5c0,0,1.3,0.5,1,2.2c-0.1,0.4-0.3,0.8-0.6,1c-0.4,0.2-0.8,0.3-1.2,0.3
	c0.3,0.3,0.6,0.8,0.5,1.8c0,0.5-0.2,0.8-0.5,1c-0.7,0.5-1.9,0.3-2,0.3c0,0-5.5-0.7-7.9,0c-2.4,0.7-5.3,2.7-5.3,2.7
	c0,0-0.7,0.5-0.3,1.1c0.3,0.5,1.9,0,2.5-0.2l5.6-1.4c0.1,0,2.6-0.8,3.3,0.3c0.2,0.3,0.2,0.6,0.1,0.9c-0.3,1-1.8,1.8-2.5,2.2
	c-1.1,0.5-7.7,2.3-8,2.4c0,0-2.4,0.5-3.3,2.5c-1,2-1.7,3.2-1.7,3.2c0,0.1-1.1,2.1-4.7,2.9C451.4,537.9,447.6,539.4,447.4,539.4
	L447.4,539.4L447.4,539.4z M441.3,528.4l6.2,10.7c0.6-0.2,4.1-1.5,7.4-2.3c3.5-0.8,4.5-2.8,4.5-2.8c0,0,0.7-1.3,1.7-3.2
	c1-2,3.3-2.5,3.4-2.6c0.1,0,6.9-1.9,8-2.4c0.8-0.4,2.2-1.2,2.4-2c0.1-0.3,0-0.5-0.1-0.7c-0.7-1-3.1-0.2-3.1-0.2l-5.6,1.4
	c-0.2,0.1-2.3,0.8-2.7,0.1c-0.4-0.6,0.1-1.2,0.4-1.4c0,0,2.9-1.9,5.3-2.7c2.4-0.8,7.7,0,8,0c0,0,1.2,0.2,1.8-0.3
	c0.3-0.2,0.4-0.5,0.5-0.9c0.1-1.5-0.7-1.8-0.9-1.8c0,0,0,0,0,0l0-0.2c0,0,0,0,0,0c0.1,0,1,0.2,1.6-0.2c0.3-0.2,0.5-0.5,0.5-0.8
	c0.3-1.5-0.9-1.9-0.9-2l-2.1-0.7l0.4-0.1c0.6-0.1,0.9-0.9,1-1c0.2-1.5-1.2-1.8-1.2-1.8c-0.1,0-4.9-1.1-6.8-1.2
	c-1.4-0.1-5.2,1.3-6.7,1.9c-0.2,0.1-0.4,0.1-0.5,0c-0.2-0.1-0.2-0.5-0.2-0.9l0.2-1.5c-1,0.5-6.4,3.2-7.8,4c-1.5,0.8-2.6,2.1-2.7,2.1
	c0,0.1-5.5,7.7-6.7,9.6C445.4,526.5,442,528.1,441.3,528.4L441.3,528.4z"/>
<path class="st24" d="M478.4,517.6c0,0-3.7-1.2-5.4-1.2c-1.7,0-4.1,0.8-4.1,0.8l-0.2-0.6c0.1,0,2.5-0.8,4.3-0.8
	c1.8,0,5.5,1.2,5.6,1.3L478.4,517.6L478.4,517.6z"/>
<path class="st24" d="M465.5,514.5l-0.2-0.5c0,0,0.8-0.4,3.9-1.5c3.2-1.1,8.8,0.7,9,0.8l-0.2,0.6c-0.1,0-5.7-1.8-8.6-0.8
	C466.3,514.2,465.5,514.5,465.5,514.5L465.5,514.5z"/>
<path class="st27" d="M362.9,523.5c3.2,0.1,6.4,0.3,9.6,0.6c1.6,0.1,3.2,0.3,4.8,0.4l4.8,0.5l4.8,0.5c1.6,0.2,3.2,0.4,4.8,0.6
	c3.2,0.4,6.4,0.8,9.6,1.4c-3.2-0.1-6.4-0.3-9.6-0.6c-1.6-0.1-3.2-0.3-4.8-0.4l-4.8-0.5l-4.8-0.5c-1.6-0.2-3.2-0.4-4.8-0.6
	C369.3,524.4,366.1,524,362.9,523.5z"/>
<path class="st24" d="M445.5,525.7c0,0,5.2,5.2,5.5,12.3l-3.5,1.2l-6.3-10.9C441.2,528.4,444.2,527.3,445.5,525.7z"/>
<path class="st24" d="M447.4,539.4L447.4,539.4l-6.4-11.1l0.1,0c0,0,3-1.1,4.3-2.6l0.1-0.1l0.1,0.1c0.1,0.1,5.2,5.3,5.5,12.4v0.1
	L447.4,539.4L447.4,539.4z M441.3,528.5l6.2,10.7l3.3-1.2c-0.3-6.5-4.7-11.5-5.4-12.1C444.3,527.3,441.9,528.2,441.3,528.5z"/>
<path class="st27" d="M368.2,534c2.6,0,5.2,0.1,7.8,0.2c1.3,0.1,2.6,0.1,3.9,0.2l3.9,0.3l3.9,0.3c1.3,0.1,2.6,0.2,3.9,0.4
	c2.6,0.3,5.2,0.6,7.7,1c-2.6,0-5.2-0.1-7.8-0.2c-1.3-0.1-2.6-0.1-3.9-0.2l-3.9-0.3l-3.9-0.3c-1.3-0.1-2.6-0.2-3.9-0.4
	C373.3,534.7,370.8,534.4,368.2,534L368.2,534z"/>
<path class="st41" d="M371.5,464.2c0-0.1-3.7-10.5-0.7-16.6c0-0.1,2.7-5.3,9-4.1c0.6,0.1,1.2-0.2,1.4-0.8c0.7-1.7,2.3-4.6,5.4-4.7
	c4.3-0.1,8.4,4,8.5,4c0,0,4.2,4.2,7.2,1.8c1.2-1,2.3-1.4,3.2-1.2c0.5,0.1,1,0.4,1.2,0.8c0,0,1,1.2-0.1,2.8c-0.1,0.1-0.1,0.2,0,0.3
	c0.1,0.1,0.2,0.1,0.2,0.1c1.1-0.2,3.1-0.2,3.7,2.2c0.1,0.6,0.1,1.2,0,1.8c-0.2,0.9-0.7,2-2.3,2.4c-0.1,0-0.3,0.1-0.3,0.3
	c0,0.1,0,0.3,0.1,0.4c0.5,0.7,1,1.8,0.5,3.3c-0.9,2.5-4,3.2-4.2,3.2l-23,12h-4.6c0,0-4.3-5.7-5.4-7.8
	C371.5,464.4,371.5,464.2,371.5,464.2z"/>
<path class="st32" d="M522.1,631.9l-0.2-0.1c-0.2,0-3.8-1.1-4.4-7.7c-0.1-1.5,0.3-2.9,1.3-3.9c1.1-1.1,2.6-1.6,4.3-1.4
	c2.6,0.3,3.6,2.1,3.9,3.4c0.3,1.1,0.2,2.3-0.2,3.4c-0.5,1.4-1.8,4-4.6,6L522.1,631.9z M522.3,619.7c-1.2,0-2.1,0.4-2.9,1.2
	c-0.8,0.9-1.2,2-1.1,3.3c0.5,5.2,2.9,6.6,3.6,6.9c2.5-1.9,3.7-4.3,4.2-5.5c0.4-1,0.4-2,0.2-3c-0.4-1.6-1.5-2.6-3.3-2.8
	C522.8,619.7,522.5,619.7,522.3,619.7L522.3,619.7z"/>
<path class="st32" d="M514.1,638c-3.5,0-4.8-3-5.2-4.4c-0.4-1.3-0.3-2.6,0.3-3.8c0.6-1.2,1.8-2.6,4.7-3c5.3-0.7,8.4,4.2,8.5,4.4
	l0.1,0.2l0,0.2c0,0.1-1.7,5.4-7.3,6.3C514.8,638,514.4,638,514.1,638L514.1,638z M514.9,627.6c-0.3,0-0.6,0-0.9,0.1
	c-2,0.3-3.3,1.1-4.1,2.6c-0.5,1-0.6,2.1-0.2,3.2c1.1,3.6,3.5,4,5.4,3.7c4.6-0.7,6.2-4.7,6.6-5.6
	C521.1,630.8,518.6,627.6,514.9,627.6z"/>
<path class="st32" d="M530.4,649.8c-5.7-2.8-7.8-7.6-8.5-11.2c-0.8-3.9-0.3-7-0.3-7.2c0-0.1,0.4-2.6,2.1-5.1c1.6-2.3,4.7-5.1,10.5-5
	l0,0.8c-0.1,0-0.1,0-0.2,0c-4.3,0-7.5,1.6-9.6,4.7c-1.6,2.4-2,4.7-2,4.8c0,0-0.5,3.2,0.3,6.9c1.1,4.9,3.8,8.5,8.1,10.6L530.4,649.8
	L530.4,649.8z"/>
<path class="st23" d="M403.4,459.5c0.6,0,1.1,0.4,1.1,1v20.8c0,0-0.3,10.9-11.4,10.9l-0.3,3.3c0,0-0.7,10.5-11.3,10.5
	c0,0-10.1-0.6-8.4-14.7l2.3-18.8c0.1-0.6-0.4-1.1-1-1.1c-1.6-0.1-4.3-0.6-4.6-3.6c-0.1-1.1,0.2-2.2,0.9-3.1c0.5-0.6,1.3-1.3,2.6-1.3
	c1-0.1,1.9,0.2,2.7,0.8c0.7,0.6,1.5,1.6,1.2,3.4c-0.5,3.3,2.2,3.4,3,1.3c0.8-2.1,1.6-2.4,1.6-2.4s1.5-0.8,1.1-3.6
	c-0.4-2.9-1.1-6.9-1.1-6.9s-0.5-3.5,2.5-3.2c0.4,0.1,0.9-0.2,1-0.6c0.3-0.9,1.1-2.1,2.4-2c2.1,0.2,3.7,3,3.7,3
	S395.8,460.1,403.4,459.5z"/>
<path class="st23" d="M381.5,506.1c0,0-3.6-0.3-6.1-3.3c-2.2-2.6-3-6.5-2.4-11.5l2.3-18.8c0-0.3,0-0.5-0.2-0.7
	c-0.2-0.2-0.4-0.3-0.7-0.3c-1.6-0.1-4.4-0.6-4.7-3.7c-0.1-1.2,0.2-2.3,0.9-3.2c0.7-0.8,1.6-1.3,2.6-1.4c1-0.1,2,0.2,2.8,0.8
	c0.7,0.6,1.5,1.6,1.2,3.4c-0.2,1.6,0.3,2.4,0.9,2.5c0.7,0.2,1.5-0.4,1.9-1.3c0.8-2.1,1.6-2.4,1.6-2.5c0,0,1.4-0.8,1-3.5
	c-0.4-2.9-1.1-6.8-1.1-6.9c0-0.1-0.3-1.8,0.7-2.8c0.4-0.5,1.1-0.6,1.9-0.5c0.4,0,0.8-0.2,0.9-0.5c0.3-0.8,1.1-2.2,2.5-2.1
	c2.1,0.2,3.7,3,3.8,3.1c0,0.1,4.5,6.9,11.9,6.2c0.3,0,0.6,0.1,0.8,0.3c0.2,0.2,0.4,0.5,0.4,0.8v20.8c0,0-0.1,2.8-1.5,5.5
	c-1.3,2.5-4.1,5.5-9.9,5.5l-0.3,3.2c0,0-0.2,2.7-1.7,5.3C389.8,503.2,387,506.1,381.5,506.1L381.5,506.1z M373.5,463.5
	c-0.1,0-0.2,0-0.3,0c-1,0.1-1.9,0.5-2.5,1.3c-0.7,0.8-1,1.9-0.9,3c0.2,2.9,2.9,3.4,4.5,3.5c0.3,0,0.6,0.2,0.8,0.4
	c0.2,0.2,0.3,0.5,0.3,0.9l-2.3,18.8c-0.6,4.9,0.2,8.7,2.3,11.3c2.5,3,5.9,3.2,6,3.2c5.4,0,8.2-2.8,9.5-5.2c1.5-2.6,1.7-5.2,1.7-5.2
	l0.3-3.4h0.1c3.1,0,7.4-0.9,9.8-5.4c1.4-2.7,1.5-5.4,1.5-5.4v-20.8c0-0.3-0.1-0.5-0.3-0.7c-0.2-0.2-0.4-0.3-0.7-0.2
	c-7.5,0.6-12-6.3-12-6.3c0,0-1.7-2.8-3.6-3c-1.3-0.1-2,1-2.3,1.9c-0.2,0.5-0.6,0.7-1.1,0.7c-0.8-0.1-1.4,0.1-1.8,0.5
	c-0.8,0.9-0.6,2.6-0.6,2.6c0,0,0.7,4,1.1,6.9c0.4,2.9-1.1,3.7-1.2,3.8c0,0-0.7,0.4-1.5,2.4c-0.4,1-1.3,1.6-2.2,1.4
	c-0.7-0.2-1.3-1-1.1-2.8c0.3-1.7-0.5-2.7-1.2-3.3C375.2,463.8,374.4,463.5,373.5,463.5L373.5,463.5z"/>
<path class="st42" d="M382.6,446.6c0.4-1.1,1-2.2,1.8-3.1c0.4-0.4,0.9-0.8,1.5-1.1c0.6-0.3,1.2-0.5,1.9-0.5c0.6,0,1.3,0.1,1.9,0.3
	c0.6,0.2,1.2,0.4,1.7,0.7c1.1,0.6,2,1.4,2.9,2.2c0.9,0.8,1.7,1.7,2.4,2.6c0.7,0.8,1.6,1.6,2.5,2.2c0.9,0.6,2,0.9,3.1,1
	c0.6,0,1.1-0.1,1.7-0.2c0.5-0.2,1.1-0.4,1.6-0.7c-0.4,0.4-0.9,0.7-1.5,1c-0.5,0.3-1.1,0.4-1.8,0.5c-1.2,0.1-2.5-0.2-3.6-0.7
	c-0.6-0.3-1.1-0.6-1.6-1c-0.5-0.4-0.9-0.8-1.4-1.2l-0.6-0.7c-0.2-0.2-0.4-0.4-0.6-0.6c-0.4-0.4-0.8-0.8-1.2-1.2
	c-0.4-0.4-0.8-0.8-1.3-1.1c-0.2-0.2-0.4-0.3-0.7-0.5c-0.2-0.2-0.5-0.3-0.7-0.5c-0.5-0.3-1-0.5-1.5-0.7l-0.4-0.1
	c-0.1,0-0.3-0.1-0.4-0.1c-0.3-0.1-0.5-0.1-0.8-0.1c-0.5,0-1,0.1-1.5,0.3c-0.5,0.2-1,0.5-1.4,0.8C384,444.7,383.2,445.6,382.6,446.6
	L382.6,446.6z"/>
<path class="st42" d="M381.7,447.2c-1.3,0.2-2.6,0.6-3.5,1.4c-0.9,0.8-1.5,1.9-1.7,3.1c-0.1,0.3-0.1,0.6-0.1,0.9l-0.1,1
	c-0.1,0.7-0.1,1.3-0.2,2c-0.1,0.7-0.1,1.3-0.1,2c0,0.3,0,0.7,0,1c0,0.2,0,0.3,0.1,0.5c0,0.2,0.1,0.3,0.1,0.5
	c-0.2-0.3-0.4-0.6-0.5-0.9c-0.1-0.3-0.2-0.7-0.3-1c-0.2-0.7-0.2-1.3-0.3-2c0-0.7,0-1.4,0-2c0-0.3,0-0.7,0.1-1c0-0.3,0.1-0.7,0.1-1.1
	c0.1-0.7,0.4-1.4,0.8-2c0.4-0.6,0.9-1.2,1.5-1.6C378.9,447.1,380.4,446.9,381.7,447.2L381.7,447.2z"/>
<path class="st42" d="M380.9,444c-0.6-1.4-0.9-3-0.7-4.6c0.1-0.4,0.2-0.8,0.3-1.2c0.1-0.4,0.3-0.8,0.5-1.1c0.4-0.7,1-1.3,1.6-1.8
	c0.2-0.1,0.3-0.2,0.5-0.4c0.2-0.1,0.4-0.2,0.6-0.3c0.4-0.2,0.8-0.3,1.1-0.5c0.8-0.2,1.6-0.4,2.5-0.3c0.4,0,0.8,0.1,1.2,0.2
	c0.2,0,0.4,0.1,0.6,0.2c0.2,0.1,0.4,0.1,0.6,0.2c0.8,0.3,1.5,0.8,2.1,1.3c0.6,0.5,1.2,1.1,1.6,1.8l0.7,0.9c0.2,0.3,0.4,0.6,0.7,0.9
	c0.5,0.6,1,1.1,1.5,1.6l0.4,0.4c0.1,0.1,0.3,0.2,0.4,0.3l0.2,0.2c0.1,0,0.2,0.1,0.2,0.1l0.2,0.1l0.1,0.1c0,0,0.1,0,0.1,0.1
	c0.6,0.3,1.3,0.4,2,0.3c0.3-0.1,0.6-0.2,0.9-0.4c0.1-0.1,0.2-0.2,0.3-0.3c0.1-0.1,0.1-0.3,0.1-0.4c0-0.2-0.1-0.3-0.1-0.4
	c-0.1-0.1-0.2-0.3-0.3-0.4c-0.2-0.2-0.6-0.2-0.9-0.1c-0.2,0-0.3,0.1-0.5,0.2c-0.1,0.1-0.2,0.2-0.3,0.4c0,0.2,0,0.3,0.1,0.5
	c0.1,0.2,0.2,0.3,0.4,0.3c-0.2,0-0.4-0.1-0.5-0.2c-0.1-0.2-0.2-0.4-0.2-0.6c0-0.2,0.1-0.4,0.3-0.6c0.2-0.1,0.3-0.3,0.5-0.3l0.1-0.1
	c0.1,0,0.1,0,0.2,0c0.1,0,0.2,0,0.3,0c0.2,0,0.5,0.1,0.6,0.2c0.2,0.1,0.4,0.3,0.5,0.5c0.1,0.2,0.2,0.4,0.3,0.6c0,0.2,0,0.5,0,0.7
	c-0.1,0.2-0.2,0.5-0.4,0.6c-0.3,0.3-0.7,0.5-1.1,0.7c-0.8,0.3-1.8,0.2-2.5-0.1c0,0-0.1,0-0.1-0.1l-0.1-0.1l-0.3-0.1
	c-0.1,0-0.2-0.1-0.3-0.1l-0.3-0.2c-0.2-0.1-0.3-0.2-0.5-0.3l-0.5-0.4c-0.6-0.5-1.2-1.1-1.7-1.7l-0.2-0.2c-0.1-0.1-0.1-0.2-0.2-0.2
	l-0.4-0.5l-0.7-0.9c-0.5-0.6-0.9-1.1-1.5-1.6c-0.5-0.5-1.1-0.9-1.8-1.2c-0.6-0.3-1.3-0.5-2-0.5c-0.7-0.1-1.4,0-2.1,0.2
	c-0.3,0.1-0.7,0.2-1,0.4c-0.2,0.1-0.3,0.1-0.5,0.2c-0.1,0.1-0.3,0.2-0.4,0.3c-1.2,0.8-2,2.1-2.4,3.5
	C380.5,440.9,380.5,442.5,380.9,444L380.9,444z"/>
<path class="st42" d="M380.7,444.2c-0.6-0.9-1.4-1.5-2.3-1.8c-0.9-0.4-1.9-0.5-2.9-0.5c-0.2,0-0.5,0-0.7,0c-0.2,0-0.5,0-0.7,0.1
	c-0.5,0.1-0.9,0.2-1.4,0.4c-0.4,0.2-0.8,0.5-1.2,0.8c-0.3,0.3-0.6,0.7-0.9,1.1c-0.5,0.8-0.7,1.8-0.7,2.7c0,0.2,0,0.5,0,0.7l0,0.4
	c0,0.1,0,0.3,0,0.4c0,0.5-0.1,1.1-0.3,1.6c-0.1,0.3-0.4,0.5-0.7,0.7c-0.2,0.1-0.3,0.1-0.5,0.1c-0.2,0-0.3,0-0.5-0.1
	c-0.3-0.1-0.6-0.3-0.7-0.6c-0.2-0.3-0.2-0.6-0.2-0.9c0-0.3,0.1-0.6,0.3-0.8c0.2-0.2,0.5-0.4,0.8-0.3c0.1,0,0.3,0.1,0.4,0.2
	c0.1,0.1,0.2,0.2,0.2,0.4c0,0.3,0,0.5-0.1,0.8c0-0.3,0-0.5-0.1-0.7c0-0.1-0.1-0.2-0.2-0.3c-0.1-0.1-0.2-0.1-0.3-0.1
	c-0.2,0-0.4,0.1-0.5,0.3c-0.1,0.2-0.2,0.4-0.2,0.6c0,0.4,0.3,0.8,0.7,0.9c0.1,0,0.2,0,0.3,0c0.1,0,0.2,0,0.3-0.1
	c0.2-0.1,0.3-0.2,0.4-0.4c0.2-0.4,0.2-0.9,0.2-1.3c0-0.1,0-0.2,0-0.4l0-0.4c0-0.3,0-0.5,0-0.8c0-1.1,0.2-2.2,0.8-3.1
	c0.6-0.9,1.4-1.7,2.4-2.2c0.5-0.2,1-0.4,1.6-0.4c0.3,0,0.5,0,0.8-0.1c0.3,0,0.5,0,0.8,0c1,0,2.1,0.3,3,0.8c0.5,0.3,0.9,0.6,1.3,0.9
	C380.2,443.3,380.5,443.7,380.7,444.2L380.7,444.2z"/>
<path class="st24" d="M393.1,492.2c0,0-7.5-0.6-10.3-4.8c0,0,0,8,10,8.7L393.1,492.2z"/>
<path class="st24" d="M392.8,496.3L392.8,496.3c-10.1-0.8-10.2-8.8-10.2-8.8v-0.3l0.2,0.3c2.8,4.2,10.2,4.8,10.3,4.8l0.1,0
	L392.8,496.3L392.8,496.3z M382.9,487.8c0.1,0.7,0.3,2.2,1.2,3.7c2,3.4,5.7,4.4,8.6,4.6l0.3-3.7
	C392.1,492.2,385.6,491.5,382.9,487.8L382.9,487.8z"/>
<path class="st24" d="M375.3,469.7c-0.4,0.7-1.5,0.8-2.4,0.2c-0.9-0.5-1.4-1.5-1-2.2c0.4-0.7,1.5-0.8,2.4-0.2
	C375.2,468.1,375.6,469,375.3,469.7z"/>
<path class="st24" d="M374.1,470.4c-0.4,0-0.9-0.1-1.3-0.4c-1-0.6-1.5-1.6-1.1-2.3s1.5-0.8,2.5-0.2c0.5,0.3,0.9,0.7,1.1,1.1
	c0.2,0.4,0.2,0.9,0,1.2C375.1,470.2,374.6,470.4,374.1,470.4z M373,467.3c-0.5,0-0.9,0.2-1.1,0.5c-0.4,0.6,0.1,1.5,1,2
	c0.9,0.5,1.9,0.4,2.3-0.2c0.2-0.3,0.2-0.7,0-1c-0.2-0.4-0.5-0.8-1-1C373.8,467.4,373.4,467.3,373,467.3z"/>
<path class="st41" d="M390.6,463.2c-0.2,0-0.3-0.1-0.5-0.2c-0.7-0.6-1.3-0.9-2-0.9c-1,0.1-1.6,0.8-1.6,0.8c-0.2,0.3-0.7,0.3-0.9,0.1
	c-0.3-0.2-0.3-0.7-0.1-0.9c0,0,1-1.2,2.5-1.3c1-0.1,2,0.3,3,1.2c0.3,0.2,0.3,0.7,0,0.9C390.9,463.1,390.8,463.2,390.6,463.2
	L390.6,463.2z"/>
<path class="st41" d="M390.6,463.3c-0.2,0-0.4-0.1-0.5-0.2c-0.6-0.6-1.3-0.9-1.9-0.8c-0.9,0-1.5,0.8-1.6,0.8
	c-0.3,0.3-0.8,0.4-1.1,0.1c-0.3-0.3-0.4-0.8-0.1-1.1c0-0.1,1-1.2,2.6-1.3c1.1-0.1,2.1,0.4,3,1.2c0.3,0.3,0.3,0.8,0,1.1
	C391,463.2,390.8,463.3,390.6,463.3L390.6,463.3z M388.3,462c0.6,0,1.3,0.3,1.9,0.9c0.2,0.2,0.6,0.2,0.8,0c0.1-0.1,0.2-0.3,0.2-0.4
	c0-0.2-0.1-0.3-0.2-0.4c-0.9-0.8-1.9-1.2-2.9-1.2c-1.5,0.1-2.4,1.2-2.5,1.2c-0.2,0.2-0.2,0.6,0.1,0.8c0.2,0.2,0.6,0.2,0.8-0.1
	c0,0,0.7-0.8,1.7-0.8C388.2,462,388.2,462,388.3,462L388.3,462z"/>
<path d="M390.4,466.6c-0.1,0-0.2,0-0.3-0.1c-0.4-0.4-0.9-0.6-1.3-0.6c-0.6,0-1.1,0.5-1.1,0.5c-0.2,0.2-0.5,0.2-0.6,0
	c-0.2-0.2-0.2-0.4,0-0.6c0,0,0.7-0.8,1.7-0.9c0.7,0,1.4,0.2,2,0.8c0.2,0.2,0.2,0.5,0,0.6C390.7,466.6,390.6,466.6,390.4,466.6z"/>
<path d="M402.4,466.6c-0.1,0-0.2,0-0.3-0.1c-0.4-0.4-0.8-0.6-1.1-0.6c-0.6,0-0.9,0.5-0.9,0.5c-0.1,0.2-0.4,0.2-0.6,0
	c-0.2-0.2-0.2-0.4,0-0.6c0,0,0.6-0.8,1.5-0.9c0.6,0,1.2,0.2,1.7,0.8c0.2,0.2,0.2,0.5,0,0.6C402.6,466.6,402.5,466.6,402.4,466.6z"/>
<path class="st41" d="M402.6,463.2c-0.1,0-0.3-0.1-0.4-0.2c-0.6-0.6-1.1-0.9-1.7-0.9c-0.8,0.1-1.4,0.8-1.4,0.8
	c-0.2,0.3-0.6,0.3-0.8,0.1c-0.2-0.2-0.3-0.7-0.1-0.9c0,0,0.9-1.2,2.2-1.3c0.9-0.1,1.7,0.3,2.5,1.2c0.2,0.2,0.2,0.7,0,0.9
	C402.9,463.1,402.8,463.2,402.6,463.2L402.6,463.2z"/>
<path class="st41" d="M402.6,463.3c-0.2,0-0.3-0.1-0.5-0.2c-0.5-0.6-1.1-0.9-1.6-0.8c-0.8,0-1.3,0.8-1.3,0.8
	c-0.1,0.2-0.3,0.3-0.5,0.3c-0.2,0-0.4-0.1-0.5-0.2c-0.3-0.3-0.3-0.7-0.1-1.1c0,0,0.9-1.2,2.2-1.3c0.9-0.1,1.8,0.4,2.6,1.2
	c0.3,0.3,0.3,0.8,0,1.1C403,463.2,402.8,463.3,402.6,463.3L402.6,463.3z M400.6,462c0.5,0,1.1,0.3,1.7,0.9c0.2,0.2,0.5,0.2,0.7,0
	c0.2-0.2,0.2-0.6,0-0.8c-0.8-0.8-1.6-1.2-2.4-1.2c-1.3,0.1-2.1,1.2-2.1,1.2c-0.2,0.2-0.2,0.6,0.1,0.8c0.1,0.1,0.2,0.1,0.3,0.1
	c0.1,0,0.2-0.1,0.3-0.2C399.1,462.9,399.7,462.1,400.6,462C400.6,462,400.6,462,400.6,462L400.6,462z"/>
<path d="M390.5,469.8c0.6-0.6,0.6-1.5,0-2.1c-0.6-0.6-1.5-0.6-2.1,0c-0.6,0.6-0.6,1.5,0,2.1C388.9,470.4,389.9,470.4,390.5,469.8z"
	/>
<path d="M403.3,469c0.2-0.8-0.3-1.6-1.1-1.8c-0.8-0.2-1.6,0.3-1.8,1.1c-0.2,0.8,0.3,1.6,1.1,1.8C402.3,470.3,403.1,469.8,403.3,469z
	"/>
<path d="M397.4,479.9c-0.5,0-1.3-0.3-2.2-0.9c-0.1-0.1-0.1-0.2-0.1-0.3c0.1-0.1,0.2-0.1,0.3-0.1c1.6,1,2.2,0.8,2.4,0.7
	c0.4-0.3,0.2-1.2,0.2-1.5l-2.9-11.6c0-0.1,0-0.2,0.2-0.2c0.1,0,0.2,0,0.2,0.1l2.9,11.6c0,0.1,0.4,1.4-0.3,1.9
	C397.9,479.8,397.7,479.9,397.4,479.9z"/>
<path d="M392.7,482c-1,0-1.7-0.3-2.2-0.8c-1-1.2-0.5-3.1-0.5-3.2c0-0.1,0.1-0.2,0.3-0.1c0.1,0,0.2,0.1,0.1,0.3c0,0-0.5,1.8,0.4,2.8
	c0.6,0.6,1.5,0.8,2.9,0.6c0.1,0,0.2,0.1,0.2,0.2s-0.1,0.2-0.2,0.2C393.4,482,393,482,392.7,482L392.7,482z"/>
<path class="st18" d="M366.3,510.6c-8.6-5.4-19.9-0.1-21.1,10c-0.4,3.4,0.4,7.4,4.1,11.4c9.9,11,37.8,32.8,37.8,32.8
	s10.4,8.1,20.1,2.8c11-6,36.1-21.8,42.2-25.6c0.8-0.5,1.2-1.5,0.9-2.5c-0.8-2.9-3.2-9.1-8.8-12.8c-0.9-0.6-2-0.7-3-0.2l-36.2,15.9
	c-0.8,0.4-1.7,0.2-2.4-0.4l-30.2-28.7C369.8,513.2,368.5,511.9,366.3,510.6z"/>
<path class="st39" d="M407.2,502.3c-0.4,0.7-0.8,1.3-1.1,2c-0.3,0.7-0.6,1.4-0.9,2.1l-0.2,0.5c0,0.1-0.1,0.2-0.1,0.3
	c0,0.1,0,0.2-0.1,0.3l-0.2,0.5c0,0.2-0.1,0.4-0.1,0.5l-0.1,0.3l-0.1,0.3c0,0.2-0.1,0.4-0.1,0.6c-0.1,0.4-0.2,0.8-0.3,1.1
	c-0.1-0.2-0.1-0.4-0.1-0.6c0-0.2-0.1-0.4-0.1-0.6c0-0.2,0-0.4,0-0.6v-0.3l0-0.3c0-0.2,0-0.4,0.1-0.6c0-0.2,0.1-0.4,0.1-0.6
	c0.1-0.4,0.2-0.8,0.3-1.2c0.3-0.8,0.7-1.5,1.1-2.1C405.9,503.2,406.5,502.7,407.2,502.3L407.2,502.3z"/>
<path class="st39" d="M350.4,539.3c-0.5,4.1-1,8.1-1.3,12.2c-0.1,2-0.3,4.1-0.3,6.1c0,0.5,0,1,0,1.5c0,0.5,0,1,0,1.5l0,1.5l0.1,1.5
	c0.1,2,0.2,4.1,0.4,6.1l0.4,6.1c0.3,4.1,0.5,8.2,0.7,12.3c-0.6-4.1-1.1-8.1-1.5-12.2c-0.2-2-0.4-4.1-0.5-6.1c-0.2-2-0.3-4.1-0.4-6.1
	c-0.1-2-0.1-4.1-0.1-6.2c0.1-2.1,0.2-4.1,0.4-6.1c0.2-2,0.5-4.1,0.8-6.1C349.5,543.3,349.9,541.3,350.4,539.3L350.4,539.3z"/>
<path class="st39" d="M398.8,544.2c-0.9,0.2-1.8,0.4-2.7,0.7c-0.9,0.3-1.7,0.6-2.5,1c-0.4,0.2-0.8,0.4-1.1,0.7
	c-0.4,0.2-0.7,0.5-1,0.8c-0.7,0.6-1.2,1.3-1.8,2.1c0.1-0.5,0.2-0.9,0.4-1.4c0.1-0.2,0.2-0.4,0.3-0.6c0.1-0.2,0.3-0.4,0.4-0.6
	c0.3-0.4,0.7-0.7,1-1c0.2-0.2,0.4-0.3,0.6-0.4c0.2-0.1,0.4-0.3,0.6-0.4c0.9-0.5,1.8-0.8,2.7-0.9C396.9,544,397.8,544,398.8,544.2
	L398.8,544.2z"/>
<path class="st39" d="M399.9,546c-0.6,0.6-1.2,1.3-1.7,2c-0.1,0.2-0.3,0.3-0.4,0.5c-0.1,0.2-0.2,0.3-0.4,0.5
	c-0.2,0.4-0.4,0.7-0.6,1.1c-0.4,0.7-0.7,1.5-1,2.3c-0.2,0.4-0.3,0.8-0.4,1.2c-0.1,0.4-0.2,0.8-0.3,1.3c0-0.2-0.1-0.4-0.1-0.7
	c0-0.2-0.1-0.5,0-0.7c0-0.4,0-0.9,0.1-1.4c0.1-0.9,0.5-1.8,0.9-2.6c0.1-0.2,0.2-0.4,0.3-0.6c0.1-0.2,0.3-0.4,0.4-0.6
	c0.1-0.2,0.3-0.4,0.4-0.5c0.2-0.2,0.3-0.3,0.5-0.5C398.3,546.8,399.1,546.3,399.9,546z"/>
<path class="st40" d="M399.5,546.3c0,0-5,1.1-6.3,5.7c-1.3,4.6,2.4,4.5,2.4,4.5s2.8,0.3,2.7-3.5
	C398.2,549.3,398.4,547.4,399.5,546.3L399.5,546.3z"/>
<path class="st43" d="M435.5,598.9c0,0,3.8-3,3.1-7.4c-0.7-4.4-3.8-2.9-3.8-2.9s-2.5,0.9-0.9,4.1
	C435.4,595.9,435.9,597.5,435.5,598.9z"/>
<path class="st31" d="M436.9,600.4c0.7-0.5,1.4-1.1,2-1.6c0.6-0.6,1.2-1.2,1.7-1.8c0.2-0.3,0.5-0.7,0.7-1c0.2-0.4,0.4-0.7,0.5-1.1
	c0.1-0.2,0.1-0.4,0.2-0.6c0.1-0.2,0.1-0.4,0.2-0.6c0.1-0.4,0.2-0.8,0.2-1.3c0.2,0.9,0.2,1.8,0,2.7c-0.1,0.4-0.3,0.9-0.5,1.3
	c-0.1,0.2-0.2,0.4-0.3,0.6c-0.1,0.2-0.2,0.4-0.4,0.6c-0.5,0.7-1.2,1.3-1.9,1.9C438.5,599.7,437.8,600.2,436.9,600.4L436.9,600.4z"/>
<path class="st31" d="M435.2,599.3c0.3-0.8,0.5-1.5,0.7-2.3c0-0.2,0.1-0.4,0.1-0.6c0-0.2,0.1-0.4,0.1-0.6c0-0.4,0.1-0.8,0.1-1.2
	c0-0.8,0-1.6-0.1-2.4c0-0.4-0.1-0.8-0.2-1.2c0-0.2-0.1-0.4-0.1-0.6c0-0.2-0.1-0.4-0.1-0.6c0.1,0.2,0.2,0.4,0.3,0.5
	c0.1,0.2,0.2,0.4,0.3,0.6l0.2,0.6c0,0.1,0.1,0.2,0.1,0.3l0.1,0.3c0.2,0.8,0.3,1.7,0.3,2.5c0,0.2,0,0.4-0.1,0.6
	c0,0.2-0.1,0.4-0.1,0.6c-0.1,0.2-0.1,0.4-0.2,0.6c-0.1,0.2-0.1,0.4-0.2,0.6C436.2,598,435.8,598.7,435.2,599.3L435.2,599.3z"/>
<path class="st44" d="M448.1,559.5c0,0,3.3-3.8,1.6-8.2c-1.7-4.5-4.5-2.3-4.5-2.3s-2.4,1.4-0.1,4.4
	C447.3,556.4,448.3,558,448.1,559.5L448.1,559.5z"/>
<path class="st32" d="M449.8,560.9c0.6-0.7,1.2-1.4,1.7-2.1c0.5-0.7,1-1.5,1.3-2.2c0.4-0.8,0.6-1.6,0.8-2.4c0.2-0.8,0.2-1.7,0.2-2.7
	c0.4,0.8,0.6,1.8,0.6,2.7c0,1-0.3,1.9-0.7,2.8c-0.4,0.9-1,1.6-1.6,2.3C451.5,559.9,450.7,560.5,449.8,560.9z"/>
<path class="st32" d="M448.3,560.2l-0.9-0.4c0,0,1.9-4.8-1.3-9.5l0.8-0.6C450.5,555,448.4,560,448.3,560.2L448.3,560.2z"/>
<path class="st23" d="M488.2,511v-7.2c0-0.8-0.2-1.6-0.6-2.3l-3-6.1c0,0-0.8-1.7-2.3-1.3c-1.5,0.4-1,2.4-1,2.4l2,5
	c0.3,0.7,0.4,1.4,0.4,2.1v4.2L488.2,511L488.2,511z"/>
<path class="st23" d="M488.3,511.2l-4.7-3.4v-4.2c0-0.7-0.1-1.4-0.4-2l-2-5c0-0.1-0.3-1.1,0.1-1.9c0.2-0.3,0.5-0.6,0.9-0.7
	c1.6-0.4,2.5,1.3,2.5,1.4l3,6c0.4,0.7,0.6,1.6,0.6,2.4L488.3,511.2L488.3,511.2z M483.8,507.7l4.3,3.1v-7c0-0.8-0.2-1.6-0.5-2.3
	l-3-6.1c0-0.1-0.8-1.6-2.2-1.3c-0.3,0.1-0.6,0.3-0.8,0.6c-0.4,0.7-0.1,1.7-0.1,1.7l2,5c0.3,0.7,0.4,1.4,0.4,2.1V507.7L483.8,507.7z"
	/>
<path class="st23" d="M479.7,529.6c0,0,5.4-1.3,7.6-6.1c1.5-3.2,2.4-4.9,2.7-5.7c0.4-0.8,0.6-1.7,0.6-2.7c0-0.6-0.1-1.2-0.3-1.8
	c-0.8-2-2.1-4.4-4.5-5.9c-2.3-1.5-4.3-2.3-4.3-2.3s-1.1-0.8-3.8,0.6c-2.7,1.4-9,4.4-9,4.4s-3.2,1.6-3.1,3.2c0.1,1.5,2.1,0.9,2.1,0.9
	s-2.7,1.1-2.4,3c0,0,0.1,1.2,2.1,0.8c0,0-1.7,0.8-1.4,2.4c0.3,1.7,3.7,0.1,3.7,0.1s7-2.3,8.7-1.6c0.1,0,0.1,0,0.2,0.1
	c1.4,0.6,2.1,2.1,1.9,3.6L479.7,529.6L479.7,529.6z"/>
<path class="st23" d="M479.5,529.7l0.9-7c0.2-1.5-0.6-2.9-1.9-3.5c0,0-0.1,0-0.1-0.1c-1.6-0.7-8.5,1.6-8.6,1.6c-0.1,0-2.4,1-3.4,0.5
	c-0.3-0.1-0.4-0.4-0.5-0.7c-0.2-1.2,0.6-1.9,1-2.3c-0.6,0-1.1,0-1.4-0.3c-0.4-0.3-0.4-0.6-0.4-0.7c-0.2-1.4,1.1-2.3,1.9-2.8
	c-0.4,0-0.8,0-1.1-0.2c-0.3-0.2-0.4-0.5-0.4-0.9c-0.1-1.6,3-3.2,3.2-3.3c0.1,0,6.3-3,9-4.4c2.6-1.4,3.7-0.7,3.9-0.6
	c0.2,0.1,2,0.8,4.3,2.3c2.5,1.6,3.8,4.1,4.5,6c0.2,0.6,0.3,1.2,0.3,1.8c0,0.9-0.2,1.8-0.6,2.7c-0.4,0.7-1.2,2.5-2.7,5.7
	c-2.3,4.7-7.7,6.1-7.7,6.1L479.5,529.7L479.5,529.7z M477.6,518.8c0.4,0,0.7,0,0.9,0.1c0.1,0,0.1,0,0.2,0.1c1.4,0.6,2.2,2.1,2,3.7
	l-0.9,6.7c0.9-0.3,5.4-1.8,7.4-6c1.6-3.2,2.4-5,2.7-5.7c0.4-0.8,0.6-1.7,0.6-2.6c0-0.6-0.1-1.2-0.3-1.8c-0.7-1.8-2-4.3-4.4-5.9
	c-2.3-1.5-4.2-2.3-4.3-2.3l0,0c0,0-1.1-0.8-3.7,0.6c-2.7,1.4-8.9,4.4-9,4.4c0,0-3.1,1.6-3,3.1c0,0.3,0.1,0.6,0.3,0.7
	c0.6,0.4,1.6,0.1,1.6,0.1l0.1,0.2c0,0-2.6,1.1-2.4,2.9c0,0,0,0.3,0.3,0.5c0.4,0.3,0.9,0.3,1.7,0.2l0.7-0.1l-0.7,0.3
	c-0.1,0-1.6,0.8-1.3,2.3c0,0.3,0.2,0.4,0.4,0.5c0.9,0.5,3.2-0.5,3.2-0.5C470,520.5,475.1,518.8,477.6,518.8L477.6,518.8z"/>
<path class="st24" d="M467.8,514.4l-0.2-0.4l10.4-4.6c0.9-0.4,1.9-0.4,2.9-0.1l2.5,0.8l-0.1,0.4l-2.5-0.8c-0.9-0.3-1.8-0.2-2.6,0.1
	L467.8,514.4L467.8,514.4z"/>
<path class="st24" d="M467.5,518.3l-0.1-0.4l10.4-3.8c0.8-0.3,1.6-0.3,2.4-0.1l2.5,0.7l-0.1,0.4l-2.5-0.7c-0.7-0.2-1.5-0.2-2.2,0.1
	L467.5,518.3L467.5,518.3z"/>
<path class="st31" d="M366.8,589c0.2,0.4,0.3,0.8,0.5,1.2c0.1,0.4,0.2,0.8,0.3,1.3c0.2,0.9,0.3,1.8,0.3,2.6c0.1,1.8-0.2,3.6-0.8,5.3
	c-0.3,0.9-0.7,1.7-1.1,2.5c-0.1,0.2-0.2,0.4-0.4,0.6c-0.1,0.2-0.3,0.4-0.4,0.6c-0.1,0.2-0.3,0.4-0.4,0.5l-0.5,0.5
	c-1.2,1.3-2.8,2.3-4.4,3c1.3-1.1,2.6-2.3,3.6-3.7c0.5-0.7,0.9-1.4,1.3-2.1c0.1-0.2,0.2-0.4,0.3-0.6c0.1-0.2,0.2-0.4,0.2-0.6l0.1-0.3
	l0.1-0.3c0.1-0.2,0.2-0.4,0.2-0.6c0.5-1.6,0.8-3.2,1-4.9C366.9,592.5,366.9,590.8,366.8,589L366.8,589z"/>
<path class="st31" d="M365,602.3c2.4,1.7,4.9,3.3,7.4,4.7c1.3,0.7,2.6,1.4,3.9,2c0.7,0.3,1.3,0.6,2,0.8c0.7,0.2,1.4,0.4,2,0.5
	c0.2,0,0.3,0,0.5,0c0.1,0,0.2,0,0.2,0c0.1,0,0.2,0,0.2,0c0.3,0,0.7-0.1,1-0.1c0.7-0.1,1.4-0.3,2.1-0.5c1.4-0.4,2.8-0.8,4.2-1.2
	c2.8-0.8,5.6-1.7,8.4-2.7c2.8-0.9,5.6-1.8,8.3-2.8l8.3-2.8c5.6-1.9,11.1-3.7,16.7-5.5c-5.4,2.3-10.9,4.5-16.4,6.5
	c-1.4,0.5-2.7,1-4.1,1.5l-4.1,1.5c-2.8,1-5.5,1.9-8.3,2.9c-2.8,0.9-5.6,1.8-8.4,2.6c-1.4,0.4-2.8,0.8-4.3,1.1
	c-0.7,0.2-1.5,0.3-2.2,0.4c-0.4,0.1-0.8,0.1-1.2,0.1c-0.1,0-0.2,0-0.3,0c-0.1,0-0.2,0-0.3,0c-0.2,0-0.4,0-0.6-0.1
	c-0.8-0.1-1.5-0.4-2.2-0.6c-0.7-0.3-1.4-0.6-2.1-0.9c-1.3-0.7-2.6-1.4-3.9-2.2C369.6,606,367.2,604.3,365,602.3L365,602.3z"/>
<path class="st31" d="M442.9,597.9c5.2,2.5,10.4,5.1,15.6,7.8c2.6,1.3,5.1,2.7,7.7,4l7.7,4.1l7.6,4.2c2.5,1.4,5.1,2.8,7.6,4.2
	c5.1,2.9,10.1,5.7,15.1,8.8c-5.2-2.5-10.4-5.1-15.6-7.8c-2.6-1.3-5.1-2.7-7.7-4l-7.7-4.1l-7.6-4.2c-2.5-1.4-5.1-2.8-7.6-4.2
	C452.9,603.8,447.9,600.9,442.9,597.9L442.9,597.9z"/>
<path class="st39" d="M347.6,514.3c0.3-0.5,0.6-0.9,0.9-1.3c0.3-0.4,0.7-0.8,1.1-1.2c0.8-0.8,1.6-1.4,2.5-2c0.9-0.6,1.9-1,3-1.4
	c1.1-0.3,2.2-0.5,3.3-0.5c1.1,0,2.2,0.1,3.3,0.3c1.1,0.3,2.1,0.6,3.1,1.1c1.9,1,3.6,2.3,5,3.9c-1.8-1.1-3.6-2.2-5.5-2.9
	c-0.5-0.2-1-0.3-1.4-0.5c-0.1,0-0.2-0.1-0.4-0.1l-0.4-0.1c-0.2-0.1-0.5-0.1-0.7-0.2c-0.2,0-0.5-0.1-0.7-0.1l-0.7-0.1
	c-0.2,0-0.5,0-0.7,0c-0.1,0-0.2,0-0.4,0l-0.4,0c-2,0.1-3.9,0.6-5.7,1.5c-0.9,0.4-1.8,1-2.6,1.6C349.2,512.9,348.4,513.5,347.6,514.3
	L347.6,514.3z"/>
<path class="st39" d="M379.6,522.6l5.2,4.8l5.2,4.8l10.3,9.6l0,0.1c0,0,0,0.1,0.1,0.1c0,0,0.1,0.1,0.1,0.1c0.1,0.1,0.1,0.1,0.2,0.1
	c0.2,0.1,0.3,0.1,0.5,0.2c0.4,0,0.7,0,1.1-0.2l2.4-1.1l4.8-2.2l9.6-4.3l9.6-4.3l9.6-4.3l-0.1,0l0.1,0l0.1,0c0,0,0.1,0,0.1-0.1
	c0.1,0,0.1-0.1,0.2-0.1c0.2-0.1,0.3-0.1,0.5-0.1c0.3-0.1,0.6-0.1,1-0.1c0.3,0,0.6,0.1,0.9,0.2c0.2,0.1,0.3,0.1,0.4,0.2
	c0.1,0.1,0.3,0.2,0.4,0.2l-0.1,0c0.2,0.1,0.3,0.2,0.5,0.3c0.2,0.1,0.3,0.2,0.5,0.3c0.3,0.2,0.6,0.4,0.9,0.7c0.6,0.5,1.1,1,1.6,1.5
	c1,1.1,1.9,2.2,2.7,3.5l0.3,0.5l0.1,0.2l0.1,0.2l0.5,1c0.2,0.3,0.3,0.7,0.5,1c0.2,0.3,0.3,0.7,0.4,1l0.4,1c0.1,0.2,0.1,0.3,0.2,0.5
	l0.2,0.5l0.2,0.5l0.1,0.3l0,0.1l0,0.1l0,0.1c0.1,0.2,0.1,0.5,0.1,0.7c0,0.2,0,0.5-0.1,0.7c-0.1,0.5-0.3,0.9-0.7,1.2
	c-0.2,0.2-0.3,0.3-0.5,0.4c0,0-0.1,0.1-0.1,0.1l-0.1,0.1l-0.2,0.1l-1.8,1.1l-3.6,2.2l-7.2,4.5c-4.8,3-9.7,5.9-14.5,8.9
	c-2.4,1.5-4.9,2.9-7.3,4.4l-1.8,1.1l-1.8,1.1c-1.2,0.7-2.5,1.4-3.8,2.1l0.1,0c-0.1,0.1-0.2,0.1-0.3,0.2c-0.1,0.1-0.2,0.1-0.3,0.1
	c-0.2,0.1-0.4,0.2-0.5,0.3c-0.4,0.2-0.7,0.3-1.1,0.4c-0.7,0.3-1.5,0.5-2.2,0.6c-0.8,0.1-1.5,0.2-2.3,0.3c-0.8,0-1.5,0-2.3,0
	c-1.5-0.1-3.1-0.5-4.5-0.9c-1.5-0.5-2.9-1.1-4.2-1.9c-0.3-0.2-0.7-0.4-1-0.6l-1-0.6l-0.9-0.7c-0.2-0.1-0.3-0.2-0.4-0.3l-0.4-0.4
	l-3.5-2.8l-6.9-5.7l-3.5-2.9c-1.1-1-2.3-1.9-3.4-2.9c-2.3-2-4.5-3.9-6.7-5.9c-2.2-2-4.4-4-6.6-6.1c-1.1-1-2.2-2.1-3.2-3.1l-0.8-0.8
	c-0.3-0.3-0.5-0.5-0.8-0.8c-0.5-0.5-1-1.1-1.5-1.7c0.5,0.6,1,1.1,1.5,1.6c0.3,0.3,0.5,0.5,0.8,0.8l0.8,0.8c0.5,0.5,1.1,1,1.6,1.5
	c0.5,0.5,1.1,1,1.6,1.5c2.2,2,4.5,4,6.7,5.9c2.3,1.9,4.6,3.8,6.9,5.7c1.1,1,2.3,1.9,3.5,2.8l3.5,2.8l7,5.6l3.5,2.8l0.4,0.3
	c0.1,0.1,0.3,0.2,0.4,0.3l0.9,0.6l0.9,0.6c0.3,0.2,0.6,0.4,1,0.5c1.3,0.7,2.6,1.3,4,1.7c1.4,0.4,2.8,0.7,4.2,0.8
	c0.7,0,1.4,0.1,2.2,0c0.7,0,1.4-0.1,2.1-0.3c0.7-0.1,1.4-0.3,2.1-0.6c0.3-0.1,0.7-0.3,1-0.4c0.2-0.1,0.3-0.2,0.5-0.2
	c0.1,0,0.2-0.1,0.2-0.1c0.1,0,0.2-0.1,0.2-0.1l0,0l0,0c1.2-0.6,2.4-1.4,3.7-2.1l1.8-1.1l1.8-1.1l7.3-4.4c4.8-3,9.7-5.9,14.5-8.9
	l7.2-4.5l3.6-2.2l1.8-1.1l0.2-0.1l0.1-0.1c0,0,0.1,0,0.1-0.1c0.1-0.1,0.2-0.2,0.3-0.2c0.2-0.2,0.3-0.4,0.3-0.6c0.1-0.2,0-0.5,0-0.7
	l-0.3-1l-0.2-0.5c-0.1-0.2-0.1-0.3-0.2-0.5l-0.4-1c-0.1-0.3-0.3-0.6-0.4-0.9c-0.1-0.3-0.3-0.6-0.4-0.9l-0.5-0.9l-0.1-0.2l-0.1-0.2
	l-0.3-0.4c-0.7-1.2-1.6-2.3-2.5-3.3c-0.5-0.5-1-1-1.5-1.4c-0.3-0.2-0.5-0.4-0.8-0.6c-0.1-0.1-0.3-0.2-0.4-0.3
	c-0.1-0.1-0.3-0.2-0.4-0.3l-0.1,0c-0.1-0.1-0.2-0.1-0.3-0.2c-0.1,0-0.2-0.1-0.3-0.1c-0.2-0.1-0.4-0.1-0.6-0.1c-0.2,0-0.4,0-0.6,0
	c-0.1,0-0.2,0-0.3,0.1c0,0-0.1,0-0.1,0.1c0,0-0.1,0-0.1,0l-0.1,0l-9.7,4.2l-9.7,4.2l-9.7,4.2l-4.8,2.1l-2.4,1
	c-0.4,0.2-1,0.3-1.5,0.2c-0.3,0-0.5-0.1-0.8-0.3c-0.1-0.1-0.2-0.1-0.3-0.2c0,0-0.1-0.1-0.1-0.1c0,0-0.1-0.1-0.1-0.2l0,0.1l-10.1-9.8
	l-5-4.9L379.6,522.6L379.6,522.6z"/>
<path class="st45" d="M225.3,250.4H75.4l-5.1,50.7c-0.4,4.1,2.8,7.6,6.9,7.6h119.5c2.8,0,5.5,1.4,7,3.8l9.4,14.4
	c0.4,0.6,1.4,0.4,1.5-0.4l1.5-14.7c0.2-1.8,1.7-3.1,3.4-3.1h1.3c3.5,0,6.5-2.7,6.9-6.2l4.5-44.5
	C232.6,253.9,229.4,250.4,225.3,250.4z"/>
<path class="st12" d="M219.3,245.8H79.9c-4.6,0-8.5,3.5-9,8.1l-4,40.2c-0.5,5.3,3.6,9.9,9,9.9h118c2.3,0,4.5,1.2,5.8,3.1l10.1,15.5
	c0.3,0.5,1.1,0.3,1.2-0.3l1.6-15.8c0.1-1.4,1.3-2.5,2.8-2.5c4.6,0,8.5-3.5,9-8.1l4-40.2C228.8,250.5,224.6,245.9,219.3,245.8
	L219.3,245.8z"/>
<path class="st12" d="M210.3,323.1c-0.2,0-0.5-0.1-0.6-0.3l-10.1-15.5c-1.3-1.9-3.4-3.1-5.7-3.1h-118c-2.6,0-5-1.1-6.8-3
	s-2.6-4.5-2.3-7l4-40.2c0.5-4.7,4.4-8.2,9.1-8.2h139.4c2.6,0,5,1.1,6.8,3c1.7,1.9,2.6,4.5,2.3,7l-4,40.2c-0.5,4.7-4.4,8.2-9.1,8.2
	c-1.4,0-2.5,1-2.7,2.4l-1.6,15.8c0,0.3-0.3,0.6-0.6,0.6C210.4,323.1,210.3,323.1,210.3,323.1L210.3,323.1z M79.9,245.9
	c-4.6,0-8.4,3.5-8.9,8l-4,40.2c-0.3,2.5,0.6,5,2.3,6.9c1.7,1.9,4.1,2.9,6.6,2.9h118c2.4,0,4.6,1.2,5.9,3.2l10.1,15.5
	c0.2,0.2,0.4,0.3,0.6,0.2c0.2,0,0.4-0.2,0.4-0.5l1.6-15.8c0.1-1.5,1.4-2.6,2.9-2.6c4.6,0,8.4-3.5,8.9-8l4-40.2
	c0.2-2.5-0.6-5-2.3-6.9c-1.7-1.9-4.1-2.9-6.6-2.9H79.9z"/>
<path class="st2" d="M84.7,258.9c5.2-0.1,10.4-0.1,15.6-0.2l15.6-0.1c5.2,0,10.4,0,15.6,0l15.6,0l15.6,0c5.2,0,10.4,0,15.6,0
	l15.6,0.1c5.2,0.1,10.4,0.1,15.6,0.2c-5.2,0.1-10.4,0.1-15.6,0.2l-15.6,0.1c-5.2,0-10.4,0-15.6,0l-15.6,0l-15.6,0
	c-5.2,0-10.4,0-15.6,0l-15.6-0.1C95.1,259,89.9,259,84.7,258.9L84.7,258.9z"/>
<path class="st2" d="M85.9,269.7c5.1-0.1,10.2-0.1,15.3-0.2l15.3-0.1c5.1,0,10.2,0,15.3,0l15.3,0l15.3,0c5.1,0,10.2,0,15.3,0
	l15.3,0.1c5.1,0.1,10.2,0.1,15.3,0.2c-5.1,0.1-10.2,0.1-15.3,0.2l-15.3,0.1c-5.1,0-10.2,0-15.3,0l-15.3,0l-15.3,0
	c-5.1,0-10.2,0-15.3,0l-15.3-0.1C96.1,269.8,91,269.8,85.9,269.7L85.9,269.7z"/>
<path class="st2" d="M84.7,280.5c5.1-0.1,10.1-0.1,15.2-0.2l15.2-0.1c5.1,0,10.1,0,15.2,0l15.2,0l15.2,0c5.1,0,10.1,0,15.2,0
	l15.2,0.1c5.1,0.1,10.1,0.1,15.2,0.2c-5.1,0.1-10.1,0.1-15.2,0.2l-15.2,0.1c-5.1,0-10.1,0-15.2,0l-15.2,0l-15.2,0
	c-5.1,0-10.1,0-15.2,0l-15.2-0.1C94.8,280.6,89.8,280.6,84.7,280.5L84.7,280.5z"/>
<path class="st2" d="M78.7,291.3c5.2-0.1,10.5-0.1,15.7-0.2l15.7-0.1c5.2,0,10.5,0,15.7,0l15.7,0l15.7,0c5.2,0,10.5,0,15.7,0
	l15.7,0.1c5.2,0.1,10.5,0.1,15.7,0.2c-5.2,0.1-10.5,0.1-15.7,0.2l-15.7,0.1c-5.2,0-10.5,0-15.7,0l-15.7,0l-15.7,0
	c-5.2,0-10.5,0-15.7,0l-15.7-0.1C89.2,291.4,84,291.4,78.7,291.3L78.7,291.3z"/>
<path class="st45" d="M594.9,389.2H459.6c-3.1,0-5.7,2.3-6,5.4l-4.1,40.4c-0.4,3.6,2.4,6.6,6,6.6h4.2c0.6,0,1,0.5,0.9,1l-0.8,8
	c-0.1,0.9,1,1.4,1.6,0.8l9.4-9.5c0.2-0.2,0.4-0.3,0.7-0.3h113.7c3.1,0,5.7-2.3,6-5.4l4.6-46C595.9,389.6,595.5,389.2,594.9,389.2
	L594.9,389.2z"/>
<path class="st7" d="M591.3,386.2H462.9c-3.4,0-6.3,2.6-6.6,6l-3.9,39.2c-0.4,3.9,2.7,7.3,6.6,7.3h2.4c1.1,0,2,1,1.9,2.1l-0.8,7.6
	c-0.1,0.7,0.8,1.1,1.3,0.6l8.5-8.7c1-1,2.3-1.6,3.7-1.6h111.3c3.4,0,6.3-2.6,6.6-6l3.9-39.2C598.3,389.6,595.3,386.2,591.3,386.2
	L591.3,386.2z"/>
<path class="st9" d="M471.7,397c4.6-0.1,9.2-0.1,13.8-0.1l13.8-0.1c4.6,0,9.2,0,13.8,0l13.8,0l13.8,0c4.6,0,9.2,0,13.8,0l13.8,0.1
	c4.6,0,9.2,0.1,13.8,0.1c-4.6,0.1-9.2,0.1-13.8,0.1l-13.8,0.1c-4.6,0-9.2,0-13.8,0l-13.8,0l-13.8,0c-4.6,0-9.2,0-13.8,0l-13.8-0.1
	C480.9,397.1,476.3,397,471.7,397z"/>
<path class="st9" d="M469,406.8c4.6-0.1,9.1-0.1,13.7-0.1l13.7-0.1c4.6,0,9.1,0,13.7,0l13.7,0l13.7,0c4.6,0,9.1,0,13.7,0l13.7,0.1
	c4.6,0.1,9.1,0.1,13.7,0.1c-4.6,0.1-9.1,0.1-13.7,0.1l-13.7,0.1c-4.6,0-9.1,0-13.7,0l-13.7,0l-13.7,0c-4.6,0-9.1,0-13.7,0l-13.7-0.1
	C478.1,406.9,473.5,406.9,469,406.8z"/>
<path class="st9" d="M467.8,416.7c4.5-0.1,9-0.1,13.6-0.1l13.6-0.1c4.5,0,9,0,13.6,0l13.6,0l13.6,0c4.5,0,9,0,13.6,0l13.6,0.1
	c4.5,0,9,0.1,13.6,0.1c-4.5,0.1-9,0.1-13.6,0.1l-13.6,0.1c-4.5,0-9,0-13.6,0l-13.6,0l-13.6,0c-4.5,0-9,0-13.6,0l-13.6-0.1
	C476.9,416.8,472.4,416.8,467.8,416.7z"/>
<path class="st9" d="M467.5,426.6c4.5-0.1,9.1-0.1,13.6-0.1l13.6-0.1c4.5,0,9.1,0,13.6,0l13.6,0l13.6,0c4.5,0,9.1,0,13.6,0l13.6,0.1
	c4.5,0,9.1,0.1,13.6,0.1c-4.5,0.1-9.1,0.1-13.6,0.1l-13.6,0.1c-4.5,0-9.1,0-13.6,0l-13.6,0l-13.6,0c-4.5,0-9.1,0-13.6,0l-13.6-0.1
	C476.5,426.7,472,426.7,467.5,426.6z"/>
<path class="st46" d="M537.9,294.9h-95.3c-1.8,0-3.4,1.4-3.6,3.2l-3,29.6c-0.2,2.1,1.4,3.9,3.6,3.9h2.7c0.9,0,1.6,0.8,1.5,1.7
	l-0.5,4.6c-0.1,0.6,0.7,1,1.2,0.5l6.5-6.6c0.1-0.1,0.3-0.2,0.5-0.2h80.2c1.8,0,3.4-1.4,3.6-3.2l3.3-32.7
	C538.7,295.2,538.4,294.9,537.9,294.9L537.9,294.9z"/>
<path class="st9" d="M535.5,292.8h-89.9c-2.4,0-4.4,1.8-4.6,4.2l-2.7,27.4c-0.3,2.7,1.9,5.1,4.6,5.1h1.5c0.9,0,1.6,0.8,1.5,1.7
	l-0.6,5.8c0,0.2,0.3,0.4,0.4,0.2l7.1-7.3c0.3-0.3,0.7-0.5,1.1-0.5h78.8c2.4,0,4.4-1.8,4.6-4.2l2.7-27.4
	C540.4,295.2,538.2,292.8,535.5,292.8L535.5,292.8z"/>
<path class="st47" d="M451.7,300.3c3.2,0,6.5-0.1,9.7-0.1l9.7-0.1c6.5,0,12.9,0,19.4,0l19.4,0l9.7,0.1c3.2,0,6.5,0.1,9.7,0.1
	c-3.2,0-6.5,0.1-9.7,0.1l-9.7,0.1l-19.4,0c-6.5,0-12.9,0-19.4,0l-9.7-0.1C458.2,300.4,454.9,300.4,451.7,300.3L451.7,300.3z"/>
<path class="st47" d="M449.8,307.2c3.2-0.1,6.4-0.1,9.6-0.1l9.6-0.1c6.4,0,12.8,0,19.1,0l19.1,0l9.6,0.1c3.2,0,6.4,0.1,9.6,0.1
	c-3.2,0.1-6.4,0.1-9.6,0.1l-9.6,0.1l-19.1,0.1c-6.4,0-12.8,0-19.1-0.1l-9.6-0.1C456.2,307.3,453,307.3,449.8,307.2L449.8,307.2z"/>
<path class="st47" d="M449,314.2c3.2-0.1,6.3-0.1,9.5-0.1l9.5-0.1c6.3,0,12.7,0,19,0l19,0l9.5,0.1c3.2,0,6.3,0.1,9.5,0.1
	c-3.2,0.1-6.3,0.1-9.5,0.1l-9.5,0.1l-19,0c-6.3,0-12.7,0-19,0l-9.5-0.1C455.3,314.2,452.2,314.2,449,314.2L449,314.2z"/>
<path class="st47" d="M448.8,321.1c3.2,0,6.3-0.1,9.5-0.1l9.5-0.1c6.3,0,12.7,0,19-0.1l19,0.1l9.5,0.1c3.2,0,6.3,0.1,9.5,0.1
	c-3.2,0.1-6.3,0.1-9.5,0.1l-9.5,0.1l-19,0c-6.3,0-12.7,0-19,0l-9.5-0.1C455.1,321.2,451.9,321.1,448.8,321.1L448.8,321.1z"/>
<path class="st46" d="M148.9,444.8H40.5c-0.2,0-0.4,0.1-0.4,0.3l-3.7,37c-0.2,2.5,1.7,4.6,4.2,4.6h88.8c0.1,0,0.3,0.1,0.3,0.2
	l9,13.8c0.2,0.3,0.7,0.2,0.7-0.2l1.2-12c0.1-1.1,1-1.9,2.1-1.9h2.8c2.2,0,4-1.6,4.2-3.8l3.4-33.5C153.4,447,151.4,444.8,148.9,444.8
	L148.9,444.8z"/>
<path class="st9" d="M146.1,441.4h-104c-2.4,0-4.4,1.8-4.7,4.2l-3.3,32.5c-0.3,2.8,1.9,5.2,4.7,5.2h85.9c1.6,0,3.1,0.8,4,2.2
	l7.4,11.4c0.3,0.4,1,0.3,1-0.2l1.1-11.4c0.1-1.1,1-1.9,2.1-1.9h2.4c2.4,0,4.4-1.8,4.7-4.2l3.3-32.5
	C151.1,443.8,148.9,441.4,146.1,441.4L146.1,441.4z"/>
<path class="st47" d="M50,450.3c3.6-0.1,7.2-0.1,10.9-0.1l10.9-0.1c3.6,0,7.2,0,10.9,0l10.9,0l10.9,0c3.6,0,7.2,0,10.9,0l10.9,0.1
	c3.6,0,7.2,0.1,10.9,0.1c-3.6,0.1-7.2,0.1-10.9,0.1l-10.9,0.1c-3.6,0-7.2,0-10.9,0l-10.9,0l-10.9,0c-3.6,0-7.2,0-10.9,0l-10.9-0.1
	C57.2,450.4,53.6,450.3,50,450.3z"/>
<path class="st47" d="M47.9,458c3.6-0.1,7.1-0.1,10.7-0.1l10.7-0.1c3.6,0,7.1,0,10.7,0l10.7,0l10.7,0c3.6,0,7.1,0,10.7,0l10.7,0.1
	c3.6,0,7.1,0.1,10.7,0.1c-3.6,0.1-7.1,0.1-10.7,0.1l-10.7,0.1c-3.6,0-7.1,0-10.7,0l-10.7,0l-10.7,0c-3.6,0-7.1,0-10.7,0l-10.7-0.1
	C55,458.1,51.4,458.1,47.9,458z"/>
<path class="st47" d="M47,465.8c3.5-0.1,7.1-0.1,10.6-0.1l10.6-0.1c3.5,0,7.1,0,10.6,0l10.6,0l10.6,0c3.5,0,7.1,0,10.6,0l10.6,0.1
	c3.5,0,7.1,0.1,10.6,0.1c-3.5,0.1-7.1,0.1-10.6,0.1l-10.6,0.1c-3.5,0-7.1,0-10.6,0l-10.6,0l-10.6,0c-3.5,0-7.1,0-10.6,0l-10.6-0.1
	C54.1,465.9,50.5,465.8,47,465.8z"/>
<path class="st47" d="M46.7,473.5c3.6-0.1,7.1-0.1,10.7-0.1l10.7-0.1c3.6,0,7.1,0,10.7,0l10.7,0l10.7,0c3.6,0,7.1,0,10.7,0l10.7,0.1
	c3.6,0,7.1,0.1,10.7,0.1c-3.6,0.1-7.1,0.1-10.7,0.1l-10.7,0.1c-3.6,0-7.1,0-10.7,0l-10.7,0l-10.7,0c-3.6,0-7.1,0-10.7,0l-10.7-0.1
	C53.8,473.6,50.2,473.6,46.7,473.5z"/>
<path class="st46" d="M593.3,176.1H375.3c-4.3,0-7.9,3.3-8.4,7.6l-6.7,67.1c-0.5,4.9,3.4,9.2,8.4,9.2h3.2c1.7,0,3,1.5,2.8,3.1
	l-1.6,16.5c-0.1,1,1.1,1.6,1.8,0.9l19.8-20.1c0.2-0.2,0.5-0.3,0.8-0.3h183.2c4.3,0,7.9-3.3,8.4-7.6l7.5-75.1
	C594.5,176.6,594,176.1,593.3,176.1L593.3,176.1z"/>
<path class="st48" d="M589,171.4H380.1c-4.6,0-8.4,3.5-8.9,8l-6.6,66c-0.5,5.3,3.6,9.8,8.9,9.8h2.1c2,0,3.5,1.7,3.3,3.7l-1.6,16.6
	c-0.1,0.8,0.9,1.2,1.5,0.7l16.5-16.8c2.6-2.6,6.1-4.1,9.8-4.1h177.4c4.6,0,8.4-3.5,8.9-8l6.6-66C598.4,176,594.3,171.4,589,171.4z"
	/>
<path class="st9" d="M573.2,188.4l-11.2,0.1l-11.2,0.1l-22.4,0.1c-7.5,0-14.9,0-22.4,0.1l-22.4,0l-22.4,0l-11.2,0l-5.6,0l-5.6,0
	l-22.4-0.1l-11.2-0.1l-11.2-0.1l11.2-0.1l11.2-0.1l22.4-0.1l5.6,0l5.6,0l11.2,0l22.4,0l22.4,0c7.5,0,14.9,0,22.4,0.1l22.4,0.1
	l11.2,0.1L573.2,188.4L573.2,188.4z"/>
<path class="st9" d="M571.4,204l-11.4,0.1l-11.4,0.1l-22.8,0.1c-7.6,0-15.2,0-22.8,0.1l-22.8,0l-22.8,0l-11.4,0l-5.7,0l-5.7,0
	l-22.8-0.1l-11.4-0.1l-11.4-0.1l11.4-0.1l11.4-0.1l22.8-0.1l5.7,0l5.7,0l11.4,0l22.8,0l22.8,0c7.6,0,15.2,0,22.8,0.1l22.8,0.1
	l11.4,0.1L571.4,204L571.4,204z"/>
<path class="st9" d="M571.4,219.7l-11.4,0.1l-11.4,0.1l-22.8,0.1c-7.6,0-15.2,0-22.8,0.1l-22.8,0l-22.8,0l-11.4,0l-5.7,0l-5.7,0
	l-22.8-0.1l-11.4-0.1l-11.4-0.1l11.4-0.1l11.4-0.1l22.8-0.1l5.7,0l5.7,0l11.4,0l22.8,0l22.8,0c7.6,0,15.2,0,22.8,0.1l22.8,0.1
	l11.4,0.1L571.4,219.7L571.4,219.7z"/>
<path class="st9" d="M566.7,235.3l-11.1,0.1l-11.1,0.1l-22.2,0.1c-7.4,0-14.8,0-22.2,0.1l-22.2,0l-22.2,0l-11.1,0l-5.6,0l-5.6,0
	l-22.2-0.1l-11.1-0.1l-11.1-0.1l11.1-0.1l11.1-0.1l22.2-0.1l5.6,0l5.6,0l11.1,0l22.2,0l22.2,0c7.4,0,14.8,0,22.2,0.1l22.2,0.1
	l11.1,0.1L566.7,235.3L566.7,235.3z"/>
<path class="st17" d="M110.3,416.1c3,0,5.4-2.4,5.4-5.4c0-3-2.4-5.4-5.4-5.4c-3,0-5.4,2.4-5.4,5.4
	C104.9,413.6,107.3,416.1,110.3,416.1z"/>
<path class="st17" d="M571.8,352.1c0.5-3-1.5-5.8-4.5-6.2c-3-0.5-5.8,1.5-6.2,4.5c-0.5,3,1.5,5.8,4.5,6.2
	C568.6,357.1,571.4,355.1,571.8,352.1z"/>
<path class="st17" d="M490.6,477.4c3,0,5.4-2.4,5.4-5.4s-2.4-5.4-5.4-5.4c-3,0-5.4,2.4-5.4,5.4S487.6,477.4,490.6,477.4z"/>
<path class="st17" d="M515.2,495.7c1.5,0,2.7-1.2,2.7-2.7s-1.2-2.7-2.7-2.7c-1.5,0-2.7,1.2-2.7,2.7S513.7,495.7,515.2,495.7z"/>
<path class="st17" d="M72.2,377.5c1.1-1.1,1.1-2.8,0-3.8c-1.1-1.1-2.8-1.1-3.8,0c-1.1,1.1-1.1,2.8,0,3.8
	C69.4,378.6,71.1,378.6,72.2,377.5z"/>
<path class="st17" d="M614.5,307.8c1.5,0,2.7-1.2,2.7-2.7s-1.2-2.7-2.7-2.7c-1.5,0-2.7,1.2-2.7,2.7S613,307.8,614.5,307.8z"/>
<path class="st0" d="M307.5,172c0.3-1.5-0.6-2.9-2-3.3c-1.5-0.3-2.9,0.6-3.3,2s0.6,2.9,2,3.3C305.7,174.4,307.1,173.5,307.5,172z"/>
<path class="st1" d="M255,310.7l-3.7-25l9.9,3.2l-3.1,21.9L255,310.7z"/>
<path class="st1" d="M240.3,301.2c0,0,7.2-5.2,7.5-5.2c0.3,0,5.5,14.7,5.5,14.7l-3.1,2.3L240.3,301.2L240.3,301.2z"/>
<path class="st1" d="M231.7,300.3l-3.6,8.9l18.9,10.2l1.6-4.2L231.7,300.3z"/>
<path class="st0" d="M349.1,402.2c0,0-10.6,5.8-17.1,4.1l4-5.2c0,0,8.4-1.1,12.9-4.4l2.2,2.9L349.1,402.2z"/>
<path class="st1" d="M363.6,391.7c0,0,3.7-4.6,5.5-7.1c0.3-0.4,0.7-0.6,1.2-0.6c2,0.2,7.9,0.3,11.6-4.9l2.3-3.3
	c0.9-1.2,0.7-2.8-0.4-3.5c-1.1-0.8-2.8-0.4-3.8,0.8l-2.2,2.9c0,0-3.6,4.5-7.5,2.6c-3.9-1.9-2.5-5.8-1.8-7.4c0.1-0.3,0.3-0.7,0.5-1
	c0.7-1.4,0.3-3-1-3.6c-1.4-0.7-3.3,0.1-4.1,1.7c-1.6,3.3-3.2,8.8,0.7,12.7c0.4,0.4,0.4,1,0,1.4l-3.5,4.6L363.6,391.7L363.6,391.7z"
	/>
<path class="st49" d="M365.1,393.1c-2.2,2.6-7.1,8.2-12.4,11.8c-1.7,1.1-3.7,0.4-4.1-1.4l-1.5-8.1c-0.2-1.2,0.5-2.6,1.7-3.2
	c2.4-1.3,6.4-3.7,9.8-6.6c1.2-1.1,3-1,3.8,0.2l3,4.6C365.9,391.1,365.8,392.2,365.1,393.1L365.1,393.1z"/>
<path class="st49" d="M338.2,405.8c1-4.2-0.4-8.1-3.1-8.8c-2.7-0.7-5.7,2.2-6.8,6.4c-1,4.2,0.4,8.1,3.1,8.8
	C334.2,412.9,337.2,410,338.2,405.8z"/>
<path class="st0" d="M238.8,406.8c0,0,10.6-5.8,17.1-4.1l-4,5.2c0,0-8.4,1.1-12.9,4.4l-2.2-2.9L238.8,406.8z"/>
<path class="st1" d="M224.3,417.3c0,0-3.7,4.6-5.5,7.1c-0.3,0.4-0.7,0.6-1.2,0.6c-2-0.2-7.9-0.3-11.6,4.9l-2.3,3.3
	c-0.9,1.2-0.7,2.8,0.4,3.5c1.1,0.8,2.8,0.4,3.8-0.8l2.2-2.9c0,0,3.6-4.5,7.5-2.6c3.9,1.9,2.5,5.8,1.8,7.4c-0.1,0.3-0.3,0.7-0.5,1
	c-0.7,1.4-0.3,3,1,3.6c1.4,0.7,3.3-0.1,4.1-1.7c1.6-3.3,3.2-8.8-0.7-12.7c-0.4-0.4-0.4-1,0-1.4l3.5-4.6L224.3,417.3L224.3,417.3z"/>
<path class="st49" d="M222.8,415.9c2.2-2.6,7.1-8.2,12.4-11.8c1.7-1.1,3.7-0.4,4.1,1.4l1.5,8.1c0.2,1.2-0.5,2.6-1.7,3.2
	c-2.4,1.3-6.4,3.7-9.8,6.6c-1.2,1.1-3,1-3.8-0.2l-3-4.6C221.9,417.9,222,416.8,222.8,415.9L222.8,415.9z"/>
<path class="st49" d="M259.4,405.5c1-4.2-0.4-8.1-3.1-8.8c-2.7-0.7-5.7,2.2-6.8,6.4c-1,4.2,0.4,8.1,3.1,8.8
	C255.4,412.6,258.4,409.7,259.4,405.5z"/>
<path class="st49" d="M319.2,334.8c8.8-8.4,10-21.4,2.7-29.1c-7.3-7.7-20.4-7.1-29.3,1.3c-8.8,8.4-10,21.4-2.7,29.1
	C297.3,343.7,310.4,343.2,319.2,334.8z"/>
<path class="st49" d="M286.2,464.6c-11.1,0-18.7-6.6-23.9-14.3c-7.1-10.7-9.7-24.1-7.8-37.8l5.5-40.1c3-21.5,80.8-21.5,77.8,0
	l-5.5,40.1c-1.9,13.7-8.2,27.1-18.2,37.8C306.7,458,297.3,464.6,286.2,464.6z"/>
<path class="st49" d="M369.3,359.3c4.5-4.3,5.1-10.9,1.4-14.8c-3.7-3.9-10.3-3.6-14.8,0.7c-4.5,4.3-5.1,10.9-1.4,14.8
	C358.2,363.9,364.8,363.6,369.3,359.3z"/>
<path class="st49" d="M387.3,355.9c2.3-2.2,2.6-5.6,0.7-7.6c-1.9-2-5.3-1.9-7.6,0.3c-2.3,2.2-2.6,5.6-0.7,7.6
	C381.6,358.3,385,358.1,387.3,355.9z"/>
<path class="st49" d="M222.9,355.9c2.3-2.2,2.6-5.6,0.7-7.6c-1.9-2-5.3-1.9-7.6,0.3c-2.3,2.2-2.6,5.6-0.7,7.6
	C217.2,358.2,220.6,358.1,222.9,355.9z"/>
<path class="st49" d="M247.4,359.3c4.5-4.3,5.1-10.9,1.4-14.8c-3.7-3.9-10.3-3.6-14.8,0.7c-4.5,4.3-5.1,10.9-1.4,14.8
	C236.3,363.9,242.9,363.6,247.4,359.3z"/>
<path class="st49" d="M315,394.1h-38.3c-23.1,0-39.2-18.7-36-41.9c3.2-23.1,24.5-41.9,47.5-41.9h38.3c23.1,0,39.2,18.7,36,41.9
	C359.4,375.4,338.1,394.1,315,394.1z"/>
<path class="st50" d="M313.2,376.3h-29.8c-13.3,0-22.5-10.8-20.7-24.1c1.8-13.3,14.1-24.1,27.3-24.1h29.8
	c13.3,0,22.5,10.8,20.7,24.1C338.7,365.5,326.5,376.3,313.2,376.3z"/>
<path class="st51" d="M230.3,352.2h-5.4"/>
<path class="st51" d="M378.5,352.2H373"/>
<path class="st1" d="M320.8,413.1c1.7-1.6,2-4.2,0.5-5.7c-1.4-1.5-4-1.4-5.7,0.3c-1.7,1.6-2,4.2-0.5,5.7
	C316.5,414.8,319.1,414.7,320.8,413.1z"/>
<path class="st49" d="M324.7,435.4c-2.5,4.7-5.7,9.2-9.3,13.3c-7.7,1.8-16.8,2.9-26.5,2.9c-10.7,0-20.4-1.3-27.9-3.5
	c-2.5-4.2-4.3-8.8-5.5-13.6c7.9,3.7,20.5,6,34.9,6C303.6,440.5,315.9,438.5,324.7,435.4z"/>
<path class="st50" d="M293.5,450.5c3.2-3.1,3.7-7.9,1-10.7c-2.7-2.8-7.5-2.6-10.7,0.5c-3.2,3.1-3.7,7.9-1,10.7
	C285.5,453.8,290.3,453.6,293.5,450.5z"/>
<path class="st1" d="M289,349.7c-0.2,0.1-0.3,0.2-0.5,0.2c-0.1,0-0.2,0-0.3-0.1c-1.9-1-5.7-2.3-10.2-0.6c-0.1,0-0.2,0.1-0.3,0.1
	c-0.2,0-0.4-0.1-0.5-0.3c-0.2-0.3-0.2-0.6,0-0.9c1.1-1.6,3-3.5,5.6-3.8c3.5-0.4,6.1,1.5,6.5,4.6C289.4,349.2,289.3,349.5,289,349.7
	L289,349.7z"/>
<path class="st1" d="M326.8,349.8c-0.2,0.1-0.3,0.2-0.5,0.2c-0.1,0-0.2,0-0.3-0.1c-1.9-1-5.7-2.3-10.2-0.6c-0.1,0-0.2,0.1-0.3,0.1
	c-0.2,0-0.4-0.1-0.5-0.3c-0.2-0.2-0.2-0.6,0-0.9c1.1-1.6,3-3.5,5.6-3.8c3.5-0.4,6.1,1.5,6.5,4.6C327.2,349.3,327,349.6,326.8,349.8
	L326.8,349.8z"/>
<path class="st1" d="M310.1,357.4c-2.6,6.1-6.8,7.3-9.9,7.3h0c-3.1,0-7-1.3-7.8-7.4c-0.1-0.7,0.2-1.4,0.8-1.9c0.6-0.5,1.4-0.6,2-0.3
	c1.6,0.7,3.7,1.4,6.3,1.4c1.9,0,4.1-0.4,6.5-1.4c0.7-0.3,1.4-0.2,1.9,0.3C310.3,356,310.4,356.7,310.1,357.4L310.1,357.4z"/>
</svg>
