<svg xmlns="http://www.w3.org/2000/svg" width="256" height="159" viewBox="0 0 256 159" fill="none">
<path d="M244.212 136.832V139.427C244.212 141.662 243.626 143.537 242.452 145.07C241.278 146.591 239.529 147.351 237.193 147.351C236.473 147.351 235.636 147.224 234.671 146.974C233.707 146.719 232.841 146.289 232.08 145.679C231.313 145.076 230.656 144.263 230.092 143.247C229.535 142.231 229.256 140.96 229.256 139.433V85.147H242.533V75.5392H229.256V58.1522C226.432 62.7848 222.614 66.7499 218.117 69.757V75.5392H213.073V85.147H218.117V139.433C218.117 142.481 218.674 145.203 219.796 147.589C220.917 149.975 222.387 151.99 224.218 153.609C226.048 155.241 228.111 156.46 230.406 157.267C232.69 158.08 235.061 158.486 237.501 158.486C240.151 158.486 242.562 158.004 244.753 157.04C246.938 156.077 248.82 154.724 250.401 152.994C251.981 151.27 253.196 149.232 254.062 146.898C254.927 144.559 255.357 142.068 255.357 139.427V136.832H244.218H244.212Z" fill="#3366FF"/>
<path d="M132.281 74.767C135.535 74.767 138.411 75.3766 140.904 76.5957C143.397 77.8148 145.535 79.4926 147.313 81.629C149.091 83.7653 150.439 86.2268 151.357 89.025C152.275 91.8232 152.729 94.8477 152.729 98.0987V135.305C152.729 138.457 152.119 141.459 150.898 144.303C149.678 147.148 148.022 149.615 145.936 151.699C143.85 153.784 141.409 155.438 138.609 156.657C135.808 157.876 132.781 158.486 129.527 158.486C126.273 158.486 123.367 157.876 120.52 156.657C117.673 155.438 115.203 153.784 113.117 151.699C111.031 149.615 109.375 147.154 108.155 144.303C106.935 141.459 106.324 138.457 106.324 135.305V45.6416H117.469V81.478C119.201 79.4462 121.31 77.8207 123.803 76.5957C126.296 75.3766 129.12 74.767 132.275 74.767H132.281ZM141.59 98.0987C141.59 94.7432 140.416 91.8986 138.08 89.5591C135.738 87.2195 132.891 86.0526 129.532 86.0526C126.174 86.0526 123.449 87.2253 121.06 89.5591C118.666 91.8986 117.475 94.7432 117.475 98.0987V135.305C117.475 138.562 118.672 141.383 121.06 143.769C123.449 146.161 126.273 147.351 129.532 147.351C132.792 147.351 135.738 146.155 138.08 143.769C140.422 141.383 141.59 138.562 141.59 135.305V98.0987Z" fill="#3366FF"/>
<path d="M183.212 74.7671C186.466 74.7671 189.493 75.3766 192.294 76.5958C195.089 77.8149 197.535 79.4694 199.621 81.5535C201.707 83.6377 203.363 86.0759 204.583 88.8741C205.804 91.6723 206.414 94.6968 206.414 97.9478V135.311C206.414 138.463 205.804 141.465 204.583 144.309C203.363 147.154 201.707 149.621 199.621 151.705C197.535 153.789 195.095 155.444 192.294 156.663C189.493 157.882 186.466 158.492 183.212 158.492C179.958 158.492 177.052 157.882 174.205 156.663C171.358 155.444 168.888 153.789 166.802 151.705C164.716 149.621 163.066 147.16 161.84 144.309C160.62 141.465 160.009 138.463 160.009 135.311V97.9478C160.009 94.6968 160.62 91.6723 161.84 88.8741C163.06 86.0817 164.716 83.6377 166.802 81.5535C168.888 79.4694 171.358 77.8149 174.205 76.5958C177.052 75.3766 180.056 74.7671 183.212 74.7671ZM195.269 97.9478C195.269 94.6968 194.101 91.8754 191.759 89.4836C189.417 87.0976 186.57 85.9017 183.212 85.9017C179.853 85.9017 177.128 87.0976 174.74 89.4836C172.346 91.8754 171.154 94.6968 171.154 97.9478V135.311C171.154 138.568 172.351 141.389 174.74 143.775C177.128 146.167 179.952 147.357 183.212 147.357C186.471 147.357 189.417 146.161 191.759 143.775C194.101 141.389 195.269 138.568 195.269 135.311V97.9478Z" fill="#3366FF"/>
<path d="M88.0728 84.0788V73.7105C88.0728 70.4595 86.9514 67.7135 84.7143 65.4785C82.4771 63.2434 79.7287 62.123 76.4747 62.123C73.2207 62.123 70.4431 63.2434 68.1537 65.4785C65.8643 67.7135 64.7196 70.4595 64.7196 73.7105V134.4C64.7196 137.656 65.8643 140.396 68.1537 142.632C70.4431 144.867 73.2149 145.987 76.4747 145.987C79.7345 145.987 82.4771 144.867 84.7143 142.632C86.9514 140.396 88.0728 137.651 88.0728 134.4V124.031H100.13V134.4C100.13 137.656 99.4909 140.704 98.2242 143.549C96.9516 146.393 95.2491 148.884 93.1107 151.02C90.9724 153.157 88.4796 154.858 85.6324 156.129C82.7851 157.4 79.7287 158.033 76.4747 158.033C73.2207 158.033 70.141 157.395 67.2415 156.129C64.3419 154.858 61.8201 153.157 59.6875 151.02C57.5492 148.884 55.8699 146.393 54.6496 143.549C53.4294 140.704 52.8193 137.656 52.8193 134.4V73.7105C52.8193 70.4595 53.4294 67.4059 54.6496 64.5612C55.8699 61.7166 57.5492 59.2261 59.6875 57.0898C61.8259 54.9534 64.3419 53.2524 67.2415 51.9811C70.141 50.7097 73.2207 50.0769 76.4747 50.0769C79.7287 50.0769 82.7851 50.7155 85.6324 51.9811C88.4796 53.2524 90.9724 54.9534 93.1107 57.0898C95.2491 59.2261 96.9516 61.7166 98.2242 64.5612C99.4967 67.4059 100.13 70.4595 100.13 73.7105V84.0788H88.0728Z" fill="#0C39A8"/>
<path d="M11.1391 118.876V134.707C11.1391 138.167 12.2315 141.064 14.4222 143.398C16.607 145.737 19.3322 146.904 22.5862 146.904C25.8402 146.904 28.5654 145.737 30.7503 143.398C32.9351 141.058 34.0333 138.161 34.0333 134.707V131.81H45.1783V134.707C45.1783 137.964 44.5914 141.012 43.4234 143.856C42.2497 146.701 40.6517 149.168 38.618 151.253C36.5784 153.337 34.1902 154.991 31.4417 156.21C28.6933 157.429 25.7414 158.039 22.5862 158.039C19.431 158.039 16.4792 157.429 13.7365 156.21C10.988 154.991 8.59984 153.337 6.56028 151.253C4.52653 149.168 2.92278 146.707 1.75483 143.856C0.581065 141.012 0 137.958 0 134.707V73.548C0 70.297 0.610121 67.2724 1.83037 64.4742C3.05062 61.6818 4.7299 59.2146 6.86824 57.0782C9.00659 54.9418 11.4994 53.2641 14.3466 52.045C17.1939 50.8258 20.198 50.2163 23.3532 50.2163C26.5085 50.2163 29.6346 50.8258 32.4354 52.045C35.2303 53.2641 37.6999 54.9418 39.8382 57.0782C41.9766 59.2146 43.6558 61.6818 44.8761 64.4742C46.0963 67.2724 46.7065 70.297 46.7065 73.548V89.7507C46.7065 93.2107 45.8116 97.048 44.0336 99.9449C42.2497 102.842 39.8382 105.054 36.7818 106.58L11.1391 118.876ZM11.1391 106.371L31.7439 96.6648C34.289 95.347 35.5615 92.5953 35.5615 89.7449V73.5422C35.5615 70.1867 34.3645 67.3188 31.9763 64.927C29.5823 62.541 26.7118 61.3451 23.3532 61.3451C19.9947 61.3451 17.1183 62.541 14.7301 64.927C12.3419 67.313 11.1449 70.1867 11.1449 73.5422V106.371H11.1391Z" fill="#0C39A8"/>
<path d="M183.211 28.8816C175.791 28.8816 169.76 22.8499 169.76 15.4422C169.76 8.03462 175.797 2.00287 183.211 2.00287C190.626 2.00287 196.663 8.03462 196.663 15.4422C196.663 22.8499 190.626 28.8816 183.211 28.8816Z" fill="white"/>
<path d="M183.212 3.99408C189.528 3.99408 194.664 9.126 194.664 15.4364C194.664 21.7468 189.528 26.8787 183.212 26.8787C176.895 26.8787 171.759 21.7468 171.759 15.4364C171.759 9.126 176.895 3.99408 183.212 3.99408ZM183.212 0C174.676 0 167.761 6.90836 167.761 15.4364C167.761 23.9645 174.676 30.8728 183.212 30.8728C191.747 30.8728 198.662 23.9645 198.662 15.4364C198.662 6.90836 191.747 0 183.212 0Z" fill="#3366FF"/>
<path d="M228.965 44.7825C225.752 44.7825 223.137 42.17 223.137 38.9597C223.137 35.7493 225.752 33.1369 228.965 33.1369C232.178 33.1369 234.793 35.7493 234.793 38.9597C234.793 42.17 232.178 44.7825 228.965 44.7825Z" fill="white"/>
<path d="M228.965 35.134C231.074 35.134 232.794 36.8524 232.794 38.9597C232.794 41.0671 231.074 42.7854 228.965 42.7854C226.856 42.7854 225.136 41.0671 225.136 38.9597C225.136 36.8524 226.856 35.134 228.965 35.134ZM228.965 31.1399C224.642 31.1399 221.138 34.6405 221.138 38.9597C221.138 43.2789 224.642 46.7795 228.965 46.7795C233.288 46.7795 236.792 43.2789 236.792 38.9597C236.792 34.6405 233.288 31.1399 228.965 31.1399Z" fill="#3366FF"/>
<path d="M244.916 40.9974C243.788 40.9974 242.876 40.0859 242.876 38.9597C242.876 37.8334 243.788 36.922 244.916 36.922C246.043 36.922 246.955 37.8334 246.955 38.9597C246.955 40.0859 246.043 40.9974 244.916 40.9974Z" fill="white"/>
<path d="M244.916 38.9191C244.916 38.9191 244.956 38.9365 244.956 38.9597C244.956 38.9829 244.939 39.0003 244.916 39.0003C244.892 39.0003 244.875 38.9829 244.875 38.9597C244.875 38.9365 244.892 38.9191 244.916 38.9191ZM244.916 34.925C242.684 34.925 240.877 36.7304 240.877 38.9597C240.877 41.189 242.684 42.9944 244.916 42.9944C247.147 42.9944 248.954 41.189 248.954 38.9597C248.954 36.7304 247.147 34.925 244.916 34.925Z" fill="#3366FF"/>
<path d="M121.508 40.9974C120.38 40.9974 119.468 40.0859 119.468 38.9597C119.468 37.8334 120.38 36.922 121.508 36.922C122.635 36.922 123.547 37.8334 123.547 38.9597C123.547 40.0859 122.635 40.9974 121.508 40.9974Z" fill="white"/>
<path d="M121.508 38.9191C121.508 38.9191 121.548 38.9365 121.548 38.9597C121.548 38.9829 121.531 39.0003 121.508 39.0003C121.484 39.0003 121.467 38.9829 121.467 38.9597C121.467 38.9365 121.484 38.9191 121.508 38.9191ZM121.508 34.925C119.276 34.925 117.469 36.7304 117.469 38.9597C117.469 41.189 119.276 42.9944 121.508 42.9944C123.739 42.9944 125.546 41.189 125.546 38.9597C125.546 36.7304 123.739 34.925 121.508 34.925Z" fill="#3366FF"/>
<path d="M137.458 44.7825C134.245 44.7825 131.63 42.17 131.63 38.9597C131.63 35.7493 134.245 33.1369 137.458 33.1369C140.671 33.1369 143.286 35.7493 143.286 38.9597C143.286 42.17 140.671 44.7825 137.458 44.7825Z" fill="white"/>
<path d="M137.458 35.134C139.567 35.134 141.287 36.8524 141.287 38.9597C141.287 41.0671 139.567 42.7854 137.458 42.7854C135.349 42.7854 133.629 41.0671 133.629 38.9597C133.629 36.8524 135.349 35.134 137.458 35.134ZM137.458 31.1399C133.135 31.1399 129.631 34.6405 129.631 38.9597C129.631 43.2789 133.135 46.7795 137.458 46.7795C141.781 46.7795 145.285 43.2789 145.285 38.9597C145.285 34.6405 141.781 31.1399 137.458 31.1399Z" fill="#3366FF"/>
<path d="M168.824 68.3057C152.63 68.3057 139.457 55.145 139.457 38.9655C139.457 22.786 152.63 9.62531 168.824 9.62531H197.599C213.793 9.62531 226.966 22.786 226.966 38.9655C226.966 55.145 213.793 68.3057 197.599 68.3057H168.824Z" fill="white"/>
<path d="M197.599 11.6165C212.689 11.6165 224.967 23.8832 224.967 38.9655C224.967 54.0478 212.689 66.3145 197.599 66.3145H168.824C153.734 66.3145 141.456 54.0478 141.456 38.9655C141.456 23.8832 153.734 11.6165 168.824 11.6165H197.599ZM197.599 7.62244H168.824C151.503 7.62244 137.458 21.654 137.458 38.9597C137.458 56.2654 151.503 70.2969 168.824 70.2969H197.599C214.921 70.2969 228.965 56.2654 228.965 38.9597C228.965 21.654 214.921 7.62244 197.599 7.62244Z" fill="#3366FF"/>
<path d="M172.032 54.965C163.2 54.965 156.012 47.7838 156.012 38.9597C156.012 30.1356 163.2 22.9543 172.032 22.9543H194.392C203.224 22.9543 210.412 30.1356 210.412 38.9597C210.412 47.7838 203.224 54.965 194.392 54.965H172.032Z" fill="white"/>
<path d="M194.391 24.9514C202.125 24.9514 208.413 31.2386 208.413 38.9597C208.413 46.6808 202.12 52.968 194.391 52.968H172.032C164.298 52.968 158.011 46.6808 158.011 38.9597C158.011 31.2386 164.304 24.9514 172.032 24.9514H194.391ZM194.391 20.9573H172.032C162.078 20.9573 154.013 29.0152 154.013 38.9597C154.013 48.9043 162.078 56.9621 172.032 56.9621H194.391C204.345 56.9621 212.41 48.9043 212.41 38.9597C212.41 29.0152 204.345 20.9573 194.391 20.9573Z" fill="#3366FF"/>
<path d="M129.631 38.9597H125.546" stroke="#3366FF" stroke-miterlimit="10" stroke-linecap="round"/>
<path d="M240.877 38.9597H236.792" stroke="#3366FF" stroke-miterlimit="10" stroke-linecap="round"/>
<g style="mix-blend-mode:multiply" opacity="0.4">
<path d="M228.965 38.9597C228.965 41.6359 228.628 44.2367 227.995 46.7156C227.844 47.3078 227.681 47.8883 227.495 48.463C227.431 48.672 227.361 48.8868 227.286 49.09C227.082 49.688 226.862 50.2685 226.623 50.849C226.565 50.9942 226.507 51.1451 226.437 51.2902C226.397 51.3947 226.35 51.4992 226.298 51.6037C226.24 51.7372 226.182 51.8708 226.118 52.0101C226.019 52.2307 225.915 52.4455 225.81 52.6661C225.734 52.8228 225.659 52.9796 225.577 53.1305C225.543 53.1886 225.514 53.2524 225.485 53.3105C225.386 53.5021 225.281 53.6994 225.177 53.891C225.06 54.1174 224.932 54.3322 224.81 54.5528C224.683 54.7734 224.555 54.9882 224.427 55.203C224.293 55.4178 224.165 55.6326 224.026 55.8416C223.869 56.0912 223.701 56.3409 223.538 56.5847C223.422 56.7531 223.305 56.9214 223.183 57.0898C223.149 57.1362 223.12 57.1826 223.079 57.2291C222.875 57.5136 222.666 57.7922 222.451 58.0709C222.393 58.1463 222.341 58.216 222.277 58.2973C222.12 58.4947 221.963 58.692 221.806 58.8836C221.644 59.0752 221.481 59.2668 221.318 59.4584C221.156 59.6499 220.987 59.8357 220.819 60.0215C220.662 60.1898 220.511 60.3582 220.348 60.5265C220.33 60.5439 220.307 60.5672 220.29 60.5904C220.144 60.7413 219.999 60.8923 219.848 61.0432C219.813 61.078 219.778 61.1187 219.738 61.1535C219.592 61.2986 219.447 61.438 219.302 61.5773C219.261 61.6179 219.221 61.6586 219.18 61.6934C219.069 61.7979 218.965 61.9024 218.854 62.0011C218.709 62.1404 218.552 62.2739 218.401 62.4075C218.39 62.4249 218.372 62.4365 218.361 62.4481C218.221 62.5758 218.076 62.6977 217.931 62.8196C217.838 62.9067 217.739 62.9822 217.646 63.0577C217.46 63.2144 217.274 63.3653 217.088 63.5163C216.896 63.6672 216.705 63.8182 216.513 63.9575C216.304 64.12 216.089 64.271 215.874 64.4277C215.868 64.4277 215.862 64.4335 215.856 64.4393C215.42 64.7528 214.973 65.0547 214.52 65.345C214.52 65.345 214.52 65.345 214.514 65.3508C213.834 65.7862 213.137 66.1925 212.422 66.5757C208.012 68.9443 202.968 70.2853 197.611 70.2853H183.223V56.9504H194.403C199.383 56.9504 203.886 54.936 207.146 51.6792C210.406 48.4224 212.422 43.9174 212.422 38.9481C212.422 29.0035 204.357 20.9457 194.403 20.9457H183.223V7.61081H197.611C197.866 7.61081 198.122 7.61081 198.378 7.62242C198.593 7.62242 198.808 7.63403 199.023 7.64564C199.179 7.65145 199.336 7.65725 199.487 7.66886C199.633 7.67467 199.778 7.68628 199.917 7.69789C199.97 7.69789 200.022 7.7037 200.074 7.7095C200.26 7.72111 200.44 7.73853 200.626 7.75594C200.719 7.76175 200.818 7.77336 200.917 7.78497C201.451 7.83722 201.98 7.91269 202.509 7.99396C202.712 8.02299 202.922 8.05782 203.125 8.09846C203.166 8.10426 203.206 8.11007 203.247 8.12168C203.415 8.15071 203.59 8.18554 203.758 8.21457C203.921 8.2494 204.084 8.27842 204.246 8.31906C204.275 8.32487 204.299 8.33067 204.316 8.33648C204.479 8.37131 204.641 8.40614 204.804 8.44678C205.019 8.49903 205.234 8.55127 205.443 8.60352C205.612 8.64416 205.78 8.6906 205.943 8.73705C206.234 8.81832 206.524 8.8996 206.809 8.98668C207.001 9.04473 207.192 9.10278 207.384 9.17245C207.402 9.17245 207.425 9.18406 207.442 9.18986C207.634 9.25372 207.82 9.31758 208.012 9.38144C208.174 9.43949 208.343 9.49755 208.506 9.56141C208.686 9.62526 208.86 9.69493 209.034 9.76459C209.069 9.7762 209.098 9.78781 209.127 9.79942C209.354 9.8865 209.586 9.97939 209.813 10.0781C210.022 10.1652 210.237 10.258 210.446 10.3567C210.644 10.4438 210.836 10.5367 211.033 10.6238C211.208 10.7051 211.382 10.7921 211.556 10.8792C211.591 10.8966 211.626 10.9141 211.661 10.9257C211.789 10.9895 211.917 11.0592 212.044 11.123C212.172 11.1869 212.3 11.2566 212.428 11.332C212.695 11.4714 212.957 11.6165 213.218 11.7674C213.381 11.8603 213.543 11.9532 213.706 12.0519C214.154 12.3189 214.589 12.5976 215.025 12.8879C215.165 12.9808 215.304 13.0736 215.444 13.1723C215.455 13.1781 215.473 13.1897 215.478 13.2014C215.647 13.3175 215.815 13.4394 215.984 13.5613C216.152 13.689 216.327 13.8109 216.495 13.9386C216.867 14.2173 217.227 14.5076 217.588 14.8036C217.756 14.9372 217.919 15.0765 218.082 15.2216C218.593 15.657 219.087 16.1156 219.563 16.5859C219.656 16.6788 219.755 16.7716 219.848 16.8645C220.226 17.2419 220.586 17.625 220.941 18.0198C221.057 18.1475 221.173 18.2752 221.283 18.4029C221.411 18.5423 221.527 18.6874 221.649 18.8325C221.754 18.9486 221.853 19.0706 221.952 19.1983C222.062 19.3376 222.178 19.4769 222.283 19.6163C222.37 19.7266 222.457 19.8369 222.538 19.9472C222.614 20.0401 222.684 20.1329 222.753 20.2316C222.881 20.4 223.009 20.5741 223.131 20.7483C223.236 20.8934 223.34 21.0386 223.439 21.1895C223.788 21.6888 224.119 22.2054 224.439 22.7279C224.566 22.9369 224.694 23.1517 224.816 23.3607C224.828 23.3897 224.845 23.413 224.857 23.4304C224.967 23.622 225.078 23.8193 225.182 24.0167C225.287 24.2025 225.386 24.3941 225.485 24.5856C225.577 24.7656 225.67 24.9456 225.758 25.1255C225.839 25.2823 225.915 25.4448 225.99 25.6074C226.025 25.677 226.06 25.7525 226.095 25.8338C226.153 25.9557 226.211 26.0776 226.263 26.2053C226.298 26.275 226.327 26.3447 226.356 26.4143C226.426 26.5711 226.49 26.722 226.559 26.8788C226.809 27.4767 227.042 28.0805 227.251 28.6958C227.315 28.8758 227.379 29.0558 227.431 29.2357C227.449 29.2938 227.472 29.3518 227.489 29.4099C227.53 29.5376 227.571 29.6653 227.611 29.793C227.646 29.9033 227.681 30.0194 227.716 30.1355C227.751 30.2517 227.786 30.3678 227.82 30.4897C227.884 30.7219 227.948 30.9541 228.006 31.1921C228.64 33.671 228.977 36.2718 228.977 38.9481L228.965 38.9597Z" fill="white"/>
</g>
<path d="M172.41 45.6417C176.103 45.6417 179.098 42.6501 179.098 38.9597C179.098 35.2694 176.103 32.2778 172.41 32.2778C168.716 32.2778 165.721 35.2694 165.721 38.9597C165.721 42.6501 168.716 45.6417 172.41 45.6417Z" fill="#3366FF"/>
<path d="M193.537 45.6417C197.231 45.6417 200.225 42.6501 200.225 38.9597C200.225 35.2694 197.231 32.2778 193.537 32.2778C189.843 32.2778 186.849 35.2694 186.849 38.9597C186.849 42.6501 189.843 45.6417 193.537 45.6417Z" fill="#3366FF"/>
<path d="M183.212 85.4141C185.001 85.4141 186.582 85.7218 188.029 86.3546C189.609 87.0454 190.934 87.9394 192.079 89.0773C193.229 90.2267 194.124 91.5561 194.81 93.1294C195.443 94.5807 195.751 96.1598 195.751 97.9478V135.311C195.751 137.024 195.431 138.591 194.781 140.118C194.095 141.72 193.212 143.05 192.079 144.176C190.934 145.319 189.603 146.213 188.023 146.904C186.57 147.537 184.99 147.845 183.2 147.845C181.41 147.845 179.917 147.525 178.389 146.875C176.779 146.19 175.454 145.308 174.321 144.176C173.194 143.05 172.311 141.726 171.625 140.118C170.974 138.597 170.655 137.024 170.655 135.317V97.9536C170.655 96.1656 170.963 94.5923 171.596 93.141C172.287 91.5619 173.182 90.2325 174.327 89.0889C175.454 87.9626 176.785 87.0802 178.394 86.3894C179.911 85.7392 181.486 85.4199 183.2 85.4199M183.2 74.7729C180.045 74.7729 177.041 75.3825 174.193 76.6016C171.346 77.8207 168.877 79.4752 166.791 81.5593C164.704 83.6435 163.054 86.0817 161.828 88.8799C160.608 91.6781 159.998 94.7026 159.998 97.9536V135.317C159.998 138.469 160.608 141.471 161.828 144.315C163.048 147.16 164.704 149.627 166.791 151.711C168.877 153.795 171.346 155.45 174.193 156.669C177.041 157.888 180.045 158.498 183.2 158.498C186.355 158.498 189.481 157.888 192.282 156.669C195.077 155.45 197.523 153.795 199.609 151.711C201.695 149.627 203.351 147.166 204.572 144.315C205.792 141.471 206.402 138.469 206.402 135.317V97.9536C206.402 94.7026 205.792 91.6781 204.572 88.8799C203.351 86.0875 201.695 83.6435 199.609 81.5593C197.523 79.4752 195.083 77.8207 192.282 76.6016C189.481 75.3825 186.454 74.7729 183.2 74.7729Z" fill="#3366FF"/>
</svg>