<svg width="489" height="461" viewBox="0 0 489 461" fill="none" xmlns="http://www.w3.org/2000/svg">
<path d="M67.8118 391.482L56.4556 383.673C56.4556 383.673 49.8962 393.202 39.8755 386.557C34.6728 383.107 34.3202 377.904 35.0146 374.571C35.8159 370.704 38.5508 367.552 42.151 365.928C46.264 364.08 52.4708 364.091 59.1905 370.704L76.8069 345.107L65.579 337.383L55.2591 352.382C55.2591 352.382 36.7133 345.62 24.7802 362.969C13.36 379.571 25.5922 393.672 31.97 398.052C36.8415 401.407 54.2549 411.652 67.8224 391.472L67.8118 391.482Z" fill="#EBEBEB"/>
<path d="M69.0724 332.02L80.4609 339.856L87.7821 329.216L76.3936 321.38L69.0724 332.02Z" fill="#EBEBEB"/>
<path d="M116.217 422.88L122.242 421.288C122.242 421.288 120.907 416.224 126.142 414.75C128.866 413.981 130.746 415.402 131.686 416.62C132.776 418.041 133.054 419.899 132.541 421.619C131.964 423.574 130.126 425.7 125.875 426.053L129.464 439.642L135.425 438.071L133.321 430.112C133.321 430.112 141.109 425.743 138.684 416.534C136.355 407.721 127.915 407.753 124.528 408.65C121.943 409.334 113.29 412.282 116.206 422.891L116.217 422.88Z" fill="#EBEBEB"/>
<path d="M136.277 440.833L130.224 442.431L131.715 448.081L137.768 446.484L136.277 440.833Z" fill="#EBEBEB"/>
<path d="M216.361 42.2193C219.449 40.3498 222.739 38.9396 226.126 37.9781L228.134 28.3099L244.469 28.0215L246.819 37.6149C250.238 38.4589 253.581 39.7622 256.733 41.5142L264.991 36.0979L276.742 47.4434L271.625 55.883C273.495 58.9704 274.905 62.2608 275.866 65.658L285.535 67.6665L285.823 84.0009L276.23 86.3512C275.386 89.7698 274.082 93.1136 272.33 96.2651L277.736 104.523L266.39 116.275L257.951 111.157C254.863 113.027 251.573 114.437 248.186 115.399L246.178 125.067L229.844 125.355L227.493 115.762C224.075 114.918 220.731 113.614 217.579 111.862L209.321 117.279L197.57 105.933L202.687 97.4937C200.818 94.4062 199.407 91.1159 198.446 87.7293L188.778 85.7209L188.489 69.3864L198.083 67.0361C198.927 63.6176 200.23 60.2738 201.982 57.1222L196.566 48.8642L207.911 37.1128L216.351 42.23L216.361 42.2193ZM225.068 63.9808C218.349 70.9462 218.541 82.0352 225.506 88.7656C232.472 95.4852 243.561 95.2929 250.291 88.3276C257.011 81.3622 256.818 70.2731 249.853 63.5428C242.888 56.8231 231.799 57.0154 225.068 63.9808Z" fill="#F5F5F5"/>
<path d="M147.957 8.17257C149.741 7.09358 151.632 6.28166 153.587 5.72614L154.74 0.160246L164.152 0L165.509 5.52316C167.485 6.0039 169.398 6.7624 171.214 7.76661L175.968 4.64715L182.741 11.1852L179.792 16.046C180.871 17.8301 181.683 19.721 182.239 21.676L187.805 22.8298L187.965 32.2416L182.442 33.5983C181.961 35.5747 181.202 37.487 180.198 39.3031L183.318 44.0571L176.78 50.8302L171.919 47.8816C170.135 48.9606 168.244 49.7725 166.289 50.3281L165.135 55.894L155.723 56.0542L154.367 50.5311C152.39 50.0503 150.478 49.2918 148.662 48.2876L143.908 51.4071L137.135 44.869L140.083 40.0082C139.004 38.2241 138.192 36.3332 137.637 34.3782L132.071 33.2244L131.911 23.8126L137.434 22.4559C137.915 20.4795 138.673 18.5672 139.677 16.7511L136.558 11.9971L143.096 5.22403L147.957 8.17257ZM152.967 20.7038C149.1 24.71 149.207 31.1092 153.213 34.9765C157.219 38.8437 163.618 38.7369 167.485 34.7308C171.353 30.7246 171.246 24.3254 167.24 20.4581C163.233 16.5908 156.834 16.6977 152.967 20.7038Z" fill="#EBEBEB"/>
<path d="M448.258 182.852C450.042 181.773 451.933 180.961 453.888 180.405L455.042 174.84L464.453 174.679L465.81 180.202C467.787 180.683 469.699 181.431 471.515 182.446L476.269 179.326L483.042 185.865L480.094 190.725C481.173 192.509 481.984 194.4 482.54 196.355L488.106 197.509L488.266 206.921L482.743 208.278C482.262 210.254 481.514 212.166 480.499 213.982L483.619 218.736L477.081 225.509L472.22 222.561C470.436 223.64 468.545 224.452 466.59 225.007L465.426 230.573L456.014 230.734L454.657 225.21C452.681 224.73 450.768 223.971 448.952 222.967L444.198 226.086L437.425 219.548L440.374 214.688C439.295 212.903 438.483 211.013 437.927 209.058L432.361 207.904L432.201 198.492L437.724 197.135C438.205 195.159 438.964 193.247 439.968 191.43L436.848 186.676L443.386 179.903L448.247 182.852H448.258ZM453.279 195.394C449.412 199.4 449.518 205.799 453.525 209.666C457.531 213.534 463.93 213.427 467.797 209.421C471.665 205.415 471.558 199.015 467.552 195.148C463.545 191.281 457.146 191.388 453.279 195.394Z" fill="#EBEBEB"/>
<path d="M424.317 460.484L272.596 460.399C254.349 460.399 239.564 445.592 239.564 427.345L239.639 46.9841C239.639 28.7267 254.446 13.9306 272.703 13.9413L424.424 14.0268C442.671 14.0374 457.456 28.8335 457.456 47.0803L457.382 427.441C457.382 445.699 442.575 460.495 424.317 460.484Z" fill="#3366FF"/>
<path d="M424.274 27.4769L394.864 27.4555C390.922 27.4555 387.717 30.7993 387.717 34.923V40.2539C387.717 44.3775 384.512 47.7213 380.57 47.7213L323.234 47.6893C319.291 47.6893 316.087 44.3455 316.097 40.2218V34.8909C316.097 30.7673 312.903 27.4235 308.961 27.4235H298.62L272.873 27.4021C260.086 27.4021 249.712 37.754 249.712 50.5417L249.638 421.801C249.638 434.578 259.99 444.94 272.767 444.951L424.178 445.036C436.966 445.036 447.328 434.684 447.339 421.897L447.414 50.6378C447.414 37.8609 437.062 27.4982 424.285 27.4876L424.274 27.4769Z" fill="white"/>
<path d="M447.393 105.517V50.2106C447.169 37.6259 436.913 27.4983 424.275 27.4876L394.865 27.4663C390.923 27.4663 387.718 30.8101 387.718 34.9337V40.2646C387.718 44.3883 384.513 47.7321 380.571 47.7321L323.234 47.7C319.292 47.7 316.087 44.3562 316.098 40.2326V34.9017C316.098 30.778 312.904 27.4342 308.962 27.4342H298.621L272.874 27.4128C260.087 27.4128 249.713 37.7648 249.713 50.5524V105.699H447.404V105.538L447.393 105.517Z" fill="#EBEBEB"/>
<path d="M290.011 180.523C303.244 180.523 313.973 169.819 313.973 156.614C313.973 143.41 303.244 132.706 290.011 132.706C276.777 132.706 266.048 143.41 266.048 156.614C266.048 169.819 276.777 180.523 290.011 180.523Z" fill="#E0E0E0"/>
<path d="M278.826 162.597L285.097 162.063L300.416 164.648L302.222 176.175L301.965 177.521C294.562 181.634 286.272 181.527 279.253 178.045L278.815 162.608" fill="#455A64"/>
<path d="M297.148 164.466C297.148 164.466 301.977 163.515 305.096 167.959C307.008 170.684 307.949 172.489 307.949 172.489C305.459 175.203 303.43 177.264 299.958 178.461L297.148 164.466Z" fill="#455A64"/>
<path d="M278.825 162.597C278.825 162.597 274.68 163.099 273.067 166.635C271.454 170.171 271.091 171.282 271.091 171.282C273.238 173.857 275.962 176.912 279.306 178.055C279.306 178.055 280.065 169.156 280.171 166.635C280.278 163.879 280.396 162.511 278.825 162.597Z" fill="#455A64"/>
<path d="M282.618 139.949C284.862 137.214 287.864 135.643 291.4 135.59C293.398 135.558 294.22 135.974 295.652 136.359C297.083 136.744 298.387 137.513 299.241 138.731C300.256 140.173 301.111 141.786 301.303 143.538C301.506 145.344 301.698 147.149 301.559 148.954C301.421 150.76 300.929 152.576 299.861 154.05L295.256 154.852C292.714 154.937 290.129 155.022 287.65 154.446C285.172 153.869 282.768 152.533 281.432 150.365C279.584 147.352 280.353 142.683 282.597 139.959L282.618 139.949Z" fill="#263238"/>
<path d="M278.152 153.292C278.27 152.256 278.815 151.241 279.712 150.707C280.609 150.172 281.87 150.226 282.618 150.963L283.344 151.828C284.477 152.309 285.193 153.602 285.054 154.82C284.915 156.037 283.975 157.116 282.799 157.48C281.624 157.843 280.268 157.49 279.37 156.657C278.473 155.813 278.024 154.531 278.163 153.303L278.152 153.292Z" fill="#263238"/>
<path d="M279.071 156.39C279.071 156.39 278.783 156.08 278.826 155.471C278.868 154.884 279.296 154.114 279.883 153.409C280.482 152.704 281.187 152.213 281.732 151.935C282.276 151.647 282.64 151.54 282.629 151.508C282.629 151.486 282.234 151.54 281.657 151.796C281.08 152.042 280.332 152.533 279.712 153.271C279.403 153.634 279.146 154.029 278.965 154.403C278.783 154.777 278.666 155.151 278.666 155.482C278.666 155.813 278.772 156.059 278.869 156.208C278.975 156.358 279.061 156.411 279.071 156.401V156.39Z" fill="#455A64"/>
<path d="M295.234 163.644C295.234 163.644 295.213 159.37 295.213 159.381C295.213 159.381 298.974 158.965 300.01 154.168C300.523 151.775 300.619 147.822 300.597 144.585C300.576 141.669 298.087 137.694 294.476 137.684L292.874 137.502L286.731 139.938C285.844 139.981 285.139 140.696 285.107 141.583L284.925 162.105L287.735 166.047C290.064 169.316 295.224 167.682 295.245 163.665L295.234 163.644Z" fill="#FFBE9D"/>
<path d="M292.776 153.036C292.808 152.779 292.947 152.555 293.129 152.405C293.492 152.095 294.016 152.063 294.4 152.33C294.785 152.598 295.009 153.142 294.934 153.644C294.721 153.944 294.39 154.136 294.026 154.168C293.973 154.168 293.909 154.168 293.855 154.168C293.578 154.168 293.3 154.072 293.086 153.858C292.873 153.655 292.744 153.335 292.787 153.014L292.776 153.036Z" fill="#EB996E"/>
<path d="M298.374 147.918C298.374 148.249 298.086 148.516 297.744 148.516C297.402 148.516 297.124 148.249 297.135 147.918C297.135 147.587 297.424 147.32 297.765 147.32C298.107 147.32 298.385 147.587 298.374 147.918Z" fill="#263238"/>
<path d="M299.389 146.369C299.304 146.444 298.855 146.07 298.182 146.038C297.509 145.995 297.007 146.316 296.932 146.22C296.9 146.177 296.986 146.038 297.21 145.899C297.434 145.76 297.798 145.621 298.214 145.653C298.631 145.675 298.973 145.856 299.165 146.017C299.357 146.188 299.421 146.337 299.389 146.369Z" fill="#263238"/>
<path d="M295.181 151.444C295.181 151.444 295.597 151.358 296.281 151.305C296.452 151.305 296.612 151.273 296.655 151.155C296.698 151.038 296.644 150.845 296.57 150.642C296.431 150.215 296.292 149.777 296.132 149.318C295.533 147.427 295.106 145.878 295.181 145.856C295.256 145.835 295.811 147.341 296.409 149.232C296.548 149.702 296.687 150.14 296.826 150.568C296.879 150.771 296.976 150.995 296.879 151.241C296.826 151.369 296.698 151.454 296.58 151.476C296.474 151.508 296.377 151.497 296.292 151.497C295.608 151.497 295.192 151.476 295.192 151.433L295.181 151.444Z" fill="#263238"/>
<path d="M295.202 159.381C295.202 159.381 291.923 159.413 288.792 157.298C288.792 157.298 290.342 160.748 295.224 160.567L295.202 159.392V159.381Z" fill="#EB996E"/>
<path d="M293.183 151.796C293.29 151.796 293.258 152.523 293.845 153.067C294.433 153.623 295.223 153.58 295.223 153.676C295.223 153.719 295.042 153.804 294.71 153.794C294.39 153.794 293.931 153.655 293.567 153.324C293.204 152.982 293.065 152.555 293.055 152.255C293.044 151.946 293.129 151.775 293.183 151.785V151.796Z" fill="#263238"/>
<path d="M299.262 143.848C299.145 144.008 298.632 143.869 298.034 143.88C297.435 143.88 296.923 144.03 296.805 143.88C296.752 143.805 296.827 143.645 297.04 143.495C297.254 143.346 297.617 143.207 298.034 143.207C298.45 143.207 298.814 143.324 299.027 143.474C299.252 143.624 299.326 143.773 299.273 143.848H299.262Z" fill="#263238"/>
<path d="M291.025 147.875C291.003 148.207 291.27 148.484 291.612 148.516C291.954 148.538 292.243 148.292 292.264 147.972C292.285 147.64 292.018 147.363 291.676 147.331C291.334 147.309 291.035 147.555 291.025 147.875Z" fill="#263238"/>
<path d="M290.202 146.134C290.277 146.22 290.758 145.878 291.431 145.888C292.104 145.888 292.584 146.241 292.659 146.166C292.691 146.134 292.616 145.985 292.403 145.824C292.189 145.664 291.837 145.504 291.42 145.504C291.003 145.504 290.651 145.643 290.448 145.803C290.234 145.953 290.17 146.102 290.202 146.145V146.134Z" fill="#263238"/>
<path d="M289.819 144.692C289.947 144.841 290.47 144.692 291.09 144.692C291.71 144.67 292.233 144.809 292.361 144.66C292.415 144.585 292.34 144.425 292.105 144.286C291.881 144.136 291.507 144.019 291.079 144.019C290.652 144.019 290.278 144.158 290.064 144.307C289.84 144.457 289.765 144.617 289.819 144.692Z" fill="#263238"/>
<path d="M285.93 149.713C285.952 149.35 285.578 148.474 285.225 148.399C284.274 148.196 282.554 148.185 282.405 150.6C282.202 153.901 285.567 153.42 285.578 153.334C285.578 153.26 285.866 150.963 285.93 149.713Z" fill="#FFBE9D"/>
<path d="M284.744 152.063C284.744 152.063 284.68 152.095 284.584 152.138C284.488 152.17 284.317 152.191 284.157 152.117C283.815 151.967 283.559 151.39 283.58 150.803C283.58 150.503 283.665 150.215 283.794 149.991C283.911 149.756 284.071 149.595 284.253 149.574C284.435 149.542 284.552 149.659 284.584 149.756C284.627 149.852 284.595 149.916 284.616 149.926C284.616 149.926 284.691 149.873 284.67 149.734C284.67 149.67 284.627 149.585 284.552 149.521C284.477 149.456 284.36 149.414 284.242 149.414C283.986 149.414 283.74 149.638 283.612 149.884C283.462 150.14 283.366 150.45 283.356 150.792C283.334 151.454 283.633 152.106 284.114 152.266C284.338 152.341 284.541 152.287 284.648 152.213C284.755 152.138 284.776 152.063 284.766 152.063H284.744Z" fill="#EB996E"/>
<path d="M285.084 148.409L285.928 149.275C289.561 145.803 296.654 137.117 296.259 137.641C296.259 137.641 293.77 136.615 291.067 137.074C288.364 137.534 283.247 138.88 283.322 142.063C283.396 145.236 285.084 148.409 285.084 148.409Z" fill="#263238"/>
<path d="M280.277 147.683C280.277 147.683 280.288 147.619 280.331 147.491C280.373 147.363 280.438 147.192 280.555 146.967C280.79 146.529 281.228 145.942 281.933 145.418C282.638 144.873 283.61 144.435 284.721 144.083C285.833 143.72 287.072 143.442 288.3 142.918C289.529 142.416 290.629 141.765 291.569 141.092C292.499 140.418 293.279 139.713 293.877 139.083C294.475 138.453 294.913 137.897 295.212 137.502C295.351 137.32 295.458 137.16 295.543 137.043C295.618 136.936 295.661 136.882 295.672 136.893C295.672 136.893 295.64 136.957 295.575 137.064C295.511 137.171 295.405 137.342 295.266 137.534C294.988 137.94 294.561 138.506 293.962 139.158C293.364 139.81 292.595 140.525 291.655 141.22C290.715 141.903 289.604 142.566 288.354 143.079C287.114 143.613 285.854 143.891 284.754 144.232C283.653 144.574 282.692 144.991 281.997 145.514C281.292 146.027 280.843 146.583 280.598 146.999C280.352 147.416 280.277 147.683 280.267 147.683H280.277Z" fill="#455A64"/>
<path d="M281.239 148.196C281.239 148.196 281.207 147.929 281.367 147.47C281.517 147.021 281.912 146.412 282.607 145.91C283.301 145.397 284.284 145.077 285.373 144.831C286.463 144.596 287.638 144.286 288.803 143.741C289.967 143.207 291.003 142.555 291.858 141.861C292.723 141.167 293.418 140.451 293.952 139.799C294.497 139.158 294.86 138.581 295.116 138.197C295.234 138.004 295.319 137.855 295.394 137.737C295.458 137.63 295.501 137.577 295.501 137.577C295.501 137.577 295.48 137.641 295.426 137.748C295.362 137.876 295.277 138.036 295.17 138.229C294.924 138.635 294.572 139.222 294.037 139.874C293.503 140.536 292.809 141.273 291.944 141.978C291.078 142.694 290.031 143.357 288.856 143.891C287.681 144.436 286.474 144.745 285.384 144.98C284.305 145.215 283.333 145.515 282.66 146.006C281.976 146.476 281.581 147.053 281.41 147.491C281.228 147.918 281.239 148.196 281.218 148.185L281.239 148.196Z" fill="#455A64"/>
<path d="M279.305 178.044C279.241 178.044 279.198 176.634 279.198 174.882C279.198 173.13 279.252 171.72 279.305 171.72C279.358 171.72 279.412 173.13 279.412 174.882C279.412 176.634 279.358 178.044 279.305 178.044Z" fill="#263238"/>
<path d="M301.986 177.606C301.986 177.606 301.986 177.179 302.018 176.485C302.05 175.801 302.092 174.839 301.921 173.803C301.751 172.767 301.398 171.88 301.152 171.228C300.896 170.588 300.736 170.182 300.768 170.171C300.789 170.16 301.003 170.534 301.302 171.164C301.59 171.795 301.964 172.703 302.146 173.76C302.317 174.818 302.253 175.79 302.178 176.485C302.103 177.179 302.007 177.596 301.986 177.596V177.606Z" fill="#263238"/>
<path d="M417.288 186.976H335.626C331.566 186.976 328.287 183.685 328.287 179.636V145.343L319.281 137.353H417.288C421.347 137.353 424.627 140.643 424.627 144.692V179.636C424.627 183.696 421.336 186.976 417.288 186.976Z" fill="#EBEBEB"/>
<path d="M411.69 192.531C411.69 192.68 407.79 192.808 402.983 192.808C398.176 192.808 394.266 192.68 394.266 192.531C394.266 192.381 398.165 192.253 402.983 192.253C407.801 192.253 411.69 192.381 411.69 192.531Z" fill="#E0E0E0"/>
<path d="M415.301 193.214C415.204 193.204 415.162 193.182 415.108 193.129L413.42 191.366C413.314 191.259 413.324 191.088 413.42 190.992C413.527 190.896 413.698 190.896 413.794 190.992L415.29 192.563L418.57 189.229C418.676 189.123 418.847 189.123 418.944 189.229C419.05 189.336 419.05 189.496 418.944 189.603L415.472 193.129C415.472 193.129 415.354 193.204 415.279 193.204L415.301 193.214Z" fill="#FF725E"/>
<path d="M417.704 193.161H417.384C417.234 193.15 417.116 193.022 417.127 192.883C417.127 192.734 417.277 192.627 417.405 192.627H417.597L420.984 189.187C421.091 189.08 421.261 189.08 421.358 189.187C421.464 189.294 421.464 189.454 421.358 189.561L417.886 193.086C417.886 193.086 417.768 193.161 417.693 193.161H417.704Z" fill="#FF725E"/>
<path d="M411.69 326.785C411.69 326.935 407.79 327.063 402.983 327.063C398.176 327.063 394.266 326.935 394.266 326.785C394.266 326.635 398.165 326.507 402.983 326.507C407.801 326.507 411.69 326.635 411.69 326.785Z" fill="#E0E0E0"/>
<path d="M415.301 327.469C415.226 327.469 415.162 327.437 415.108 327.383L413.42 325.621C413.314 325.514 413.324 325.343 413.42 325.247C413.527 325.151 413.698 325.151 413.794 325.247L415.29 326.807L418.57 323.473C418.676 323.367 418.847 323.367 418.944 323.473C419.05 323.58 419.05 323.751 418.944 323.847L415.472 327.373C415.472 327.373 415.354 327.458 415.279 327.458L415.301 327.469Z" fill="#FF725E"/>
<path d="M417.704 327.415H417.384C417.234 327.405 417.116 327.277 417.127 327.138C417.127 326.988 417.245 326.849 417.405 326.881H417.597L420.984 323.441C421.091 323.334 421.261 323.334 421.358 323.441C421.464 323.548 421.464 323.719 421.358 323.815L417.886 327.341C417.886 327.341 417.768 327.426 417.693 327.426L417.704 327.415Z" fill="#FF725E"/>
<path d="M416.241 147.17C416.241 147.32 398.411 147.448 376.425 147.448C354.439 147.448 336.598 147.32 336.598 147.17C336.598 147.021 354.428 146.892 376.425 146.892C398.421 146.892 416.241 147.021 416.241 147.17Z" fill="white"/>
<path d="M416.241 153.025C416.241 153.174 398.411 153.303 376.425 153.303C354.439 153.303 336.598 153.174 336.598 153.025C336.598 152.875 354.428 152.747 376.425 152.747C398.421 152.747 416.241 152.875 416.241 153.025Z" fill="white"/>
<path d="M416.241 158.868C416.241 159.018 398.411 159.146 376.425 159.146C354.439 159.146 336.598 159.018 336.598 158.868C336.598 158.719 354.428 158.59 376.425 158.59C398.421 158.59 416.241 158.719 416.241 158.868Z" fill="white"/>
<path d="M290.011 329.627C303.244 329.627 313.973 318.923 313.973 305.718C313.973 292.514 303.244 281.809 290.011 281.809C276.777 281.809 266.048 292.514 266.048 305.718C266.048 318.923 276.777 329.627 290.011 329.627Z" fill="#E0E0E0"/>
<path d="M278.826 311.701L285.097 311.167L300.416 313.752L302.222 325.279L301.965 326.625C294.562 330.738 286.272 330.631 279.253 327.148L278.815 311.711" fill="#455A64"/>
<path d="M297.148 313.57C297.148 313.57 301.977 312.619 305.096 317.063C307.008 319.788 307.949 321.593 307.949 321.593C305.459 324.307 303.43 326.368 299.958 327.565L297.148 313.57Z" fill="#455A64"/>
<path d="M278.825 311.701C278.825 311.701 274.68 312.203 273.067 315.739C271.454 319.275 271.091 320.386 271.091 320.386C273.238 322.961 275.962 326.016 279.306 327.159C279.306 327.159 280.065 318.26 280.171 315.739C280.278 312.983 280.396 311.616 278.825 311.701Z" fill="#455A64"/>
<path d="M282.618 289.053C284.862 286.318 287.864 284.747 291.4 284.694C293.398 284.662 294.22 285.078 295.652 285.463C297.083 285.848 298.387 286.617 299.241 287.835C300.256 289.277 301.111 290.89 301.303 292.642C301.506 294.448 301.698 296.253 301.559 298.058C301.421 299.864 300.929 301.68 299.861 303.154L295.256 303.955C292.714 304.041 290.129 304.126 287.65 303.55C285.172 302.973 282.768 301.637 281.432 299.469C279.584 296.456 280.353 291.787 282.597 289.063L282.618 289.053Z" fill="#263238"/>
<path d="M278.152 302.396C278.27 301.36 278.815 300.345 279.712 299.811C280.609 299.276 281.87 299.33 282.618 300.067L283.344 300.932C284.477 301.413 285.193 302.706 285.054 303.924C284.915 305.141 283.975 306.22 282.799 306.584C281.624 306.947 280.268 306.594 279.37 305.761C278.473 304.917 278.024 303.635 278.163 302.407L278.152 302.396Z" fill="#263238"/>
<path d="M279.071 305.494C279.071 305.494 278.783 305.184 278.826 304.575C278.868 303.987 279.296 303.218 279.883 302.513C280.482 301.808 281.187 301.317 281.732 301.039C282.276 300.75 282.64 300.643 282.629 300.611C282.629 300.59 282.234 300.644 281.657 300.9C281.08 301.156 280.332 301.637 279.712 302.374C279.403 302.737 279.146 303.133 278.965 303.507C278.783 303.88 278.666 304.254 278.666 304.586C278.666 304.917 278.772 305.162 278.869 305.312C278.975 305.462 279.061 305.515 279.071 305.504V305.494Z" fill="#455A64"/>
<path d="M295.254 313.132C295.254 313.132 295.233 308.859 295.233 308.87C295.233 308.87 298.994 308.453 300.03 303.656C300.543 301.263 300.639 297.311 300.617 294.074C300.596 291.157 298.107 287.183 294.496 287.172L292.894 286.991L286.751 289.426C285.864 289.469 285.159 290.185 285.127 291.072L284.945 311.594L287.755 315.536C290.084 318.805 295.244 317.17 295.265 313.154L295.254 313.132Z" fill="#FFBE9D"/>
<path d="M292.776 302.139C292.808 301.883 292.947 301.659 293.129 301.509C293.492 301.199 294.016 301.167 294.4 301.434C294.785 301.701 295.009 302.246 294.934 302.748C294.721 303.047 294.39 303.24 294.026 303.272C293.973 303.272 293.909 303.272 293.855 303.272C293.578 303.272 293.3 303.176 293.086 302.962C292.873 302.759 292.744 302.439 292.787 302.118L292.776 302.139Z" fill="#EB996E"/>
<path d="M298.374 297.428C298.374 297.759 298.086 298.026 297.744 298.026C297.402 298.026 297.124 297.759 297.135 297.428C297.135 297.097 297.424 296.83 297.765 296.83C298.107 296.83 298.385 297.097 298.374 297.428Z" fill="#263238"/>
<path d="M299.389 295.879C299.304 295.954 298.855 295.58 298.182 295.548C297.509 295.505 297.007 295.826 296.932 295.73C296.9 295.687 296.986 295.548 297.21 295.409C297.434 295.27 297.798 295.131 298.214 295.163C298.631 295.185 298.973 295.366 299.165 295.527C299.357 295.698 299.421 295.847 299.389 295.879Z" fill="#263238"/>
<path d="M295.181 300.943C295.181 300.943 295.597 300.857 296.281 300.804C296.452 300.804 296.612 300.772 296.655 300.654C296.698 300.537 296.644 300.345 296.57 300.142C296.431 299.714 296.292 299.276 296.132 298.817C295.533 296.926 295.106 295.377 295.181 295.356C295.256 295.334 295.811 296.841 296.409 298.731C296.548 299.201 296.687 299.639 296.826 300.067C296.879 300.259 296.976 300.494 296.879 300.74C296.826 300.868 296.698 300.953 296.58 300.975C296.474 301.007 296.377 300.996 296.292 300.996C295.608 300.996 295.192 300.975 295.192 300.932L295.181 300.943Z" fill="#263238"/>
<path d="M295.202 308.88C295.202 308.88 291.923 308.912 288.792 306.797C288.792 306.797 290.342 310.248 295.224 310.066L295.202 308.891V308.88Z" fill="#EB996E"/>
<path d="M293.183 301.296C293.29 301.296 293.258 302.022 293.845 302.567C294.433 303.122 295.223 303.08 295.223 303.176C295.223 303.219 295.042 303.304 294.71 303.293C294.39 303.293 293.931 303.154 293.567 302.823C293.204 302.481 293.065 302.054 293.055 301.755C293.044 301.445 293.129 301.274 293.183 301.285V301.296Z" fill="#263238"/>
<path d="M299.262 293.358C299.145 293.518 298.632 293.379 298.034 293.39C297.435 293.39 296.923 293.54 296.805 293.39C296.752 293.315 296.827 293.155 297.04 293.005C297.254 292.856 297.617 292.717 298.034 292.717C298.45 292.717 298.814 292.834 299.027 292.984C299.252 293.134 299.326 293.283 299.273 293.358H299.262Z" fill="#263238"/>
<path d="M291.025 297.385C291.003 297.716 291.27 297.994 291.612 298.026C291.954 298.048 292.243 297.802 292.264 297.481C292.285 297.15 292.018 296.872 291.676 296.84C291.334 296.819 291.035 297.065 291.025 297.385Z" fill="#263238"/>
<path d="M290.202 295.644C290.277 295.73 290.758 295.388 291.431 295.398C292.104 295.398 292.584 295.751 292.659 295.676C292.691 295.644 292.616 295.495 292.403 295.334C292.189 295.174 291.837 295.014 291.42 295.014C291.003 295.014 290.651 295.153 290.448 295.313C290.234 295.462 290.17 295.612 290.202 295.655V295.644Z" fill="#263238"/>
<path d="M289.819 294.202C289.947 294.351 290.47 294.202 291.09 294.202C291.71 294.18 292.233 294.319 292.361 294.17C292.415 294.095 292.34 293.935 292.105 293.796C291.881 293.646 291.507 293.529 291.079 293.529C290.652 293.529 290.278 293.668 290.064 293.817C289.84 293.967 289.765 294.127 289.819 294.202Z" fill="#263238"/>
<path d="M285.93 298.807C285.952 298.443 285.578 297.567 285.225 297.493C284.274 297.29 282.554 297.279 282.405 299.693C282.202 302.994 285.567 302.514 285.578 302.428C285.578 302.353 285.866 300.056 285.93 298.807Z" fill="#FFBE9D"/>
<path d="M284.744 301.167C284.744 301.167 284.68 301.199 284.584 301.242C284.488 301.274 284.317 301.296 284.157 301.221C283.815 301.071 283.559 300.494 283.58 299.907C283.58 299.608 283.665 299.319 283.794 299.095C283.911 298.86 284.071 298.7 284.253 298.678C284.435 298.646 284.552 298.764 284.584 298.86C284.627 298.956 284.595 299.02 284.616 299.031C284.616 299.031 284.691 298.977 284.67 298.838C284.67 298.774 284.627 298.689 284.552 298.625C284.477 298.561 284.36 298.518 284.242 298.518C283.986 298.518 283.74 298.742 283.612 298.988C283.462 299.244 283.366 299.554 283.356 299.896C283.334 300.558 283.633 301.21 284.114 301.37C284.338 301.445 284.541 301.392 284.648 301.317C284.755 301.242 284.776 301.167 284.766 301.167H284.744Z" fill="#EB996E"/>
<path d="M285.084 297.514L285.928 298.379C289.561 294.907 296.654 286.222 296.259 286.745C296.259 286.745 293.77 285.72 291.067 286.179C288.364 286.638 283.247 287.984 283.322 291.168C283.396 294.341 285.084 297.514 285.084 297.514Z" fill="#263238"/>
<path d="M280.277 296.777C280.277 296.777 280.288 296.712 280.331 296.584C280.373 296.456 280.438 296.285 280.555 296.061C280.79 295.623 281.228 295.035 281.933 294.512C282.638 293.967 283.61 293.529 284.721 293.176C285.833 292.813 287.072 292.535 288.3 292.012C289.529 291.51 290.629 290.858 291.569 290.185C292.499 289.512 293.279 288.807 293.877 288.177C294.475 287.546 294.913 286.991 295.212 286.596C295.351 286.414 295.458 286.254 295.543 286.136C295.618 286.029 295.661 285.976 295.672 285.987C295.672 285.987 295.64 286.051 295.575 286.158C295.511 286.264 295.405 286.435 295.266 286.628C294.988 287.034 294.561 287.6 293.962 288.251C293.364 288.903 292.595 289.619 291.655 290.313C290.715 290.997 289.604 291.659 288.354 292.172C287.114 292.706 285.854 292.984 284.754 293.326C283.653 293.668 282.692 294.084 281.997 294.608C281.292 295.121 280.843 295.676 280.598 296.093C280.352 296.509 280.277 296.777 280.267 296.777H280.277Z" fill="#455A64"/>
<path d="M281.239 297.3C281.239 297.3 281.207 297.033 281.367 296.574C281.517 296.125 281.912 295.516 282.607 295.014C283.301 294.501 284.284 294.181 285.373 293.935C286.463 293.7 287.638 293.39 288.803 292.845C289.967 292.311 291.003 291.659 291.858 290.965C292.723 290.271 293.418 289.555 293.952 288.903C294.497 288.262 294.86 287.685 295.116 287.301C295.234 287.108 295.319 286.959 295.394 286.841C295.458 286.734 295.501 286.681 295.501 286.681C295.501 286.681 295.48 286.745 295.426 286.852C295.362 286.98 295.277 287.14 295.17 287.333C294.924 287.739 294.572 288.326 294.037 288.978C293.503 289.64 292.809 290.377 291.944 291.082C291.078 291.798 290.031 292.461 288.856 292.995C287.681 293.54 286.474 293.849 285.384 294.084C284.305 294.319 283.333 294.619 282.66 295.11C281.976 295.58 281.581 296.157 281.41 296.595C281.228 297.022 281.239 297.3 281.218 297.289L281.239 297.3Z" fill="#455A64"/>
<path d="M279.305 327.138C279.241 327.138 279.198 325.728 279.198 323.976C279.198 322.224 279.252 320.814 279.305 320.814C279.358 320.814 279.412 322.224 279.412 323.976C279.412 325.728 279.358 327.138 279.305 327.138Z" fill="#263238"/>
<path d="M301.986 326.7C301.986 326.7 301.986 326.273 302.018 325.578C302.05 324.895 302.092 323.933 301.921 322.897C301.751 321.861 301.398 320.974 301.152 320.322C300.896 319.681 300.736 319.275 300.768 319.265C300.789 319.254 301.003 319.628 301.302 320.258C301.59 320.888 301.964 321.796 302.146 322.854C302.317 323.912 302.253 324.884 302.178 325.578C302.103 326.273 302.007 326.689 301.986 326.689V326.7Z" fill="#263238"/>
<path d="M417.288 319.777H335.626C331.566 319.777 328.287 316.487 328.287 312.438V294.447L319.281 286.456H417.288C421.347 286.456 424.627 289.747 424.627 293.796V312.438C424.627 316.497 421.336 319.777 417.288 319.777Z" fill="#EBEBEB"/>
<path d="M416.241 296.274C416.241 296.424 398.411 296.552 376.425 296.552C354.439 296.552 336.598 296.424 336.598 296.274C336.598 296.125 354.428 295.997 376.425 295.997C398.421 295.997 416.241 296.125 416.241 296.274Z" fill="white"/>
<path d="M416.241 302.118C416.241 302.268 398.411 302.396 376.425 302.396C354.439 302.396 336.598 302.268 336.598 302.118C336.598 301.968 354.428 301.84 376.425 301.84C398.421 301.84 416.241 301.968 416.241 302.118Z" fill="white"/>
<path d="M416.241 307.972C416.241 308.122 398.411 308.25 376.425 308.25C354.439 308.25 336.598 308.122 336.598 307.972C336.598 307.823 354.428 307.694 376.425 307.694C398.421 307.694 416.241 307.823 416.241 307.972Z" fill="white"/>
<path d="M416.241 164.723C416.241 164.872 398.411 165 376.425 165C354.439 165 336.598 164.872 336.598 164.723C336.598 164.573 354.428 164.445 376.425 164.445C398.421 164.445 416.241 164.573 416.241 164.723Z" fill="white"/>
<path d="M416.241 170.566C416.241 170.716 398.411 170.844 376.425 170.844C354.439 170.844 336.598 170.716 336.598 170.566C336.598 170.417 354.428 170.288 376.425 170.288C398.421 170.288 416.241 170.417 416.241 170.566Z" fill="white"/>
<path d="M416.241 177.607C416.241 177.756 398.411 177.884 376.425 177.884C354.439 177.884 336.598 177.756 336.598 177.607C336.598 177.457 354.428 177.329 376.425 177.329C398.421 177.329 416.241 177.457 416.241 177.607Z" fill="white"/>
<path d="M337.038 75.9355C337.038 73.6066 338.832 71.9293 341.236 71.9293C342.571 71.9293 343.693 72.4208 344.42 73.2968L343.266 74.3544C342.742 73.7561 342.091 73.4463 341.321 73.4463C339.869 73.4463 338.843 74.4612 338.843 75.9248C338.843 77.3884 339.869 78.4033 341.321 78.4033C342.091 78.4033 342.742 78.0935 343.266 77.4845L344.42 78.5422C343.693 79.4395 342.571 79.9203 341.225 79.9203C338.822 79.9203 337.038 78.2537 337.038 75.9141V75.9355Z" fill="#263238"/>
<path d="M351.578 76.4056V79.8135H349.858V76.6727C349.858 75.7112 349.42 75.2732 348.651 75.2732C347.818 75.2732 347.23 75.786 347.23 76.8757V79.8135H345.51V71.6089H347.23V74.4826C347.69 74.0233 348.363 73.7776 349.121 73.7776C350.521 73.7776 351.589 74.6002 351.589 76.4056H351.578Z" fill="#263238"/>
<path d="M358.393 76.4162V79.8134H356.78V79.0763C356.459 79.6211 355.84 79.9096 354.964 79.9096C353.575 79.9096 352.742 79.1404 352.742 78.1041C352.742 77.0679 353.479 76.32 355.295 76.32H356.662C356.662 75.5829 356.224 75.1449 355.295 75.1449C354.665 75.1449 354.013 75.3586 353.586 75.7004L352.966 74.4932C353.618 74.0339 354.579 73.7775 355.53 73.7775C357.346 73.7775 358.393 74.6214 358.393 76.4162ZM356.662 77.9225V77.3136H355.477C354.675 77.3136 354.419 77.6127 354.419 78.008C354.419 78.4353 354.782 78.7237 355.391 78.7237C355.968 78.7237 356.459 78.4567 356.662 77.9118V77.9225Z" fill="#263238"/>
<path d="M363.776 79.5143C363.424 79.7707 362.9 79.8882 362.377 79.8882C360.977 79.8882 360.155 79.1724 360.155 77.7516V75.3051H359.236V73.9804H360.155V72.5382H361.875V73.9804H363.359V75.3051H361.875V77.7302C361.875 78.243 362.152 78.5101 362.612 78.5101C362.868 78.5101 363.124 78.4353 363.306 78.2857L363.765 79.5036L363.776 79.5143Z" fill="#263238"/>
<path d="M394.267 87.8578C394.267 88.0074 376.063 88.1356 353.607 88.1356C331.151 88.1356 312.937 88.0074 312.937 87.8578C312.937 87.7083 331.14 87.5801 353.607 87.5801C376.074 87.5801 394.267 87.7083 394.267 87.8578Z" fill="#263238"/>
<path d="M430.301 75.9357C431.345 75.9357 432.191 75.0892 432.191 74.0448C432.191 73.0005 431.345 72.1539 430.301 72.1539C429.256 72.1539 428.41 73.0005 428.41 74.0448C428.41 75.0892 429.256 75.9357 430.301 75.9357Z" fill="#263238"/>
<path d="M432.201 79.5571C432.201 80.604 431.357 81.448 430.31 81.448C429.263 81.448 428.419 80.604 428.419 79.5571C428.419 78.5101 429.263 77.6661 430.31 77.6661C431.357 77.6661 432.201 78.5101 432.201 79.5571Z" fill="#263238"/>
<path d="M432.201 85.08C432.201 86.1269 431.357 86.9709 430.31 86.9709C429.263 86.9709 428.419 86.1269 428.419 85.08C428.419 84.0331 429.263 83.1891 430.31 83.1891C431.357 83.1891 432.201 84.0331 432.201 85.08Z" fill="#263238"/>
<path d="M276.527 80.4545C276.42 80.4545 276.303 80.4225 276.206 80.3477L271.196 76.6727C271.057 76.5766 270.972 76.4056 270.982 76.2347C270.982 76.0638 271.068 75.9035 271.207 75.8074L276.217 72.1965C276.452 72.0256 276.794 72.079 276.965 72.314C277.136 72.549 277.082 72.8909 276.847 73.0618L272.435 76.2454L276.858 79.4824C277.093 79.6533 277.147 79.9952 276.976 80.2302C276.869 80.3691 276.708 80.4438 276.548 80.4438L276.527 80.4545Z" fill="#263238"/>
<path d="M407.289 260.091C420.523 260.091 431.251 249.386 431.251 236.182C431.251 222.978 420.523 212.273 407.289 212.273C394.055 212.273 383.327 222.978 383.327 236.182C383.327 249.386 394.055 260.091 407.289 260.091Z" fill="#E0E0E0"/>
<path d="M395.142 256.715C395.142 256.715 399.063 252.88 407.289 252.88C415.515 252.88 419.713 256.715 419.713 256.715C419.713 256.715 408.261 264.449 395.142 256.715Z" fill="#4866FB"/>
<path d="M407.426 234.109C410.801 234.109 413.537 231.373 413.537 227.999C413.537 224.624 410.801 221.888 407.426 221.888C404.051 221.888 401.315 224.624 401.315 227.999C401.315 231.373 404.051 234.109 407.426 234.109Z" fill="#E6E9F2" stroke="#4866FB" stroke-width="0.85" stroke-miterlimit="10"/>
<path d="M389.341 240.402C391.052 240.402 392.439 239.014 392.439 237.303C392.439 235.592 391.052 234.205 389.341 234.205C387.63 234.205 386.243 235.592 386.243 237.303C386.243 239.014 387.63 240.402 389.341 240.402Z" fill="#E6E9F2" stroke="#4866FB" stroke-width="0.85" stroke-miterlimit="10"/>
<path d="M383.027 238.895C383.906 238.895 384.619 238.183 384.619 237.303C384.619 236.424 383.906 235.712 383.027 235.712C382.148 235.712 381.436 236.424 381.436 237.303C381.436 238.183 382.148 238.895 383.027 238.895Z" fill="#E6E9F2" stroke="#4866FB" stroke-width="0.85" stroke-miterlimit="10"/>
<path d="M431.817 238.895C432.696 238.895 433.409 238.183 433.409 237.303C433.409 236.424 432.696 235.712 431.817 235.712C430.938 235.712 430.225 236.424 430.225 237.303C430.225 238.183 430.938 238.895 431.817 238.895Z" fill="#E6E9F2" stroke="#4866FB" stroke-width="0.85" stroke-miterlimit="10"/>
<path d="M425.513 240.402C427.224 240.402 428.611 239.014 428.611 237.303C428.611 235.592 427.224 234.205 425.513 234.205C423.802 234.205 422.415 235.592 422.415 237.303C422.415 239.014 423.802 240.402 425.513 240.402Z" fill="#E6E9F2" stroke="#4866FB" stroke-width="0.85" stroke-miterlimit="10"/>
<path d="M401.734 249.707H413.1C419.95 249.707 425.503 244.156 425.503 237.309C425.503 230.462 419.95 224.911 413.1 224.911H401.734C394.884 224.911 389.33 230.462 389.33 237.309C389.33 244.156 394.884 249.707 401.734 249.707Z" fill="#E6E9F2" stroke="#4866FB" stroke-width="0.85" stroke-miterlimit="10"/>
<path d="M403.004 244.429H411.839C415.775 244.429 418.965 241.239 418.965 237.304C418.965 233.368 415.775 230.178 411.839 230.178H403.004C399.069 230.178 395.879 233.368 395.879 237.304C395.879 241.239 399.069 244.429 403.004 244.429Z" fill="white" stroke="#4866FB" stroke-width="0.85" stroke-miterlimit="10"/>
<path d="M428.602 237.304H430.215" stroke="#4866FB" stroke-width="0.85" stroke-miterlimit="10"/>
<path d="M384.629 237.304H386.243" stroke="#4866FB" stroke-width="0.85" stroke-miterlimit="10"/>
<path d="M411.273 236.545C411.273 236.545 411.359 236.599 411.412 236.599C411.444 236.599 411.476 236.599 411.508 236.577C412.107 236.289 413.292 235.894 414.553 236.406C414.585 236.417 414.606 236.428 414.638 236.428C414.702 236.428 414.767 236.396 414.809 236.353C414.873 236.278 414.884 236.171 414.831 236.086C414.564 235.616 414.072 235.039 413.324 234.954C412.31 234.836 411.455 235.392 411.198 236.321C411.177 236.406 411.198 236.492 411.263 236.545H411.273Z" fill="#253CA3"/>
<path d="M400.056 236.588C400.056 236.588 400.142 236.641 400.195 236.641C400.227 236.641 400.259 236.641 400.291 236.62C400.89 236.331 402.075 235.936 403.336 236.449C403.368 236.46 403.389 236.47 403.421 236.47C403.486 236.47 403.55 236.438 403.592 236.396C403.656 236.321 403.667 236.214 403.614 236.128C403.347 235.658 402.855 235.082 402.107 234.996C401.093 234.879 400.238 235.434 399.981 236.363C399.96 236.449 399.981 236.534 400.056 236.588Z" fill="#253CA3"/>
<path d="M404.703 238.842C405.226 240.637 406.423 241.01 407.331 241.01H407.341C408.26 241.01 409.457 240.626 409.969 238.82C410.023 238.617 409.969 238.404 409.799 238.265C409.638 238.126 409.414 238.094 409.222 238.179C408.72 238.393 408.057 238.596 407.299 238.596C406.722 238.596 406.092 238.489 405.429 238.19C405.237 238.105 405.013 238.137 404.852 238.276C404.692 238.414 404.628 238.628 404.692 238.842H404.703Z" fill="#253CA3"/>
<path d="M276.154 260.561H357.816C361.875 260.561 365.155 257.27 365.155 253.222V229.526L374.161 221.536H276.154C272.095 221.536 268.815 224.826 268.815 228.875V253.222C268.815 257.281 272.105 260.561 276.154 260.561Z" fill="#EBEBEB"/>
<path d="M354.204 233.116C354.204 233.265 337.389 233.394 316.642 233.394C295.896 233.394 279.081 233.265 279.081 233.116C279.081 232.966 295.896 232.838 316.642 232.838C337.389 232.838 354.204 232.966 354.204 233.116Z" fill="white"/>
<path d="M354.204 239.451C354.204 239.6 337.389 239.729 316.642 239.729C295.896 239.729 279.081 239.6 279.081 239.451C279.081 239.301 295.896 239.173 316.642 239.173C337.389 239.173 354.204 239.301 354.204 239.451Z" fill="white"/>
<path d="M354.204 245.797C354.204 245.946 337.389 246.074 316.642 246.074C295.896 246.074 279.081 245.946 279.081 245.797C279.081 245.647 295.896 245.519 316.642 245.519C337.389 245.519 354.204 245.647 354.204 245.797Z" fill="white"/>
<path d="M354.204 252.143C354.204 252.292 337.389 252.42 316.642 252.42C295.896 252.42 279.081 252.292 279.081 252.143C279.081 251.993 295.896 251.865 316.642 251.865C337.389 251.865 354.204 251.993 354.204 252.143Z" fill="white"/>
<path d="M407.137 392.978C420.371 392.978 431.1 382.274 431.1 369.069C431.1 355.865 420.371 345.16 407.137 345.16C393.904 345.16 383.175 355.865 383.175 369.069C383.175 382.274 393.904 392.978 407.137 392.978Z" fill="#E0E0E0"/>
<path d="M394.993 389.602C394.993 389.602 398.913 385.767 407.139 385.767C415.365 385.767 419.564 389.602 419.564 389.602C419.564 389.602 408.112 397.337 394.993 389.602Z" fill="#4866FB"/>
<path d="M407.278 366.996C410.653 366.996 413.388 364.261 413.388 360.886C413.388 357.511 410.653 354.775 407.278 354.775C403.903 354.775 401.167 357.511 401.167 360.886C401.167 364.261 403.903 366.996 407.278 366.996Z" fill="#E6E9F2" stroke="#4866FB" stroke-width="0.85" stroke-miterlimit="10"/>
<path d="M389.192 373.289C390.903 373.289 392.29 371.902 392.29 370.19C392.29 368.479 390.903 367.092 389.192 367.092C387.481 367.092 386.094 368.479 386.094 370.19C386.094 371.902 387.481 373.289 389.192 373.289Z" fill="#E6E9F2" stroke="#4866FB" stroke-width="0.85" stroke-miterlimit="10"/>
<path d="M382.888 371.783C383.767 371.783 384.48 371.07 384.48 370.191C384.48 369.312 383.767 368.599 382.888 368.599C382.009 368.599 381.296 369.312 381.296 370.191C381.296 371.07 382.009 371.783 382.888 371.783Z" fill="#E6E9F2" stroke="#4866FB" stroke-width="0.85" stroke-miterlimit="10"/>
<path d="M431.677 371.783C432.556 371.783 433.269 371.07 433.269 370.191C433.269 369.312 432.556 368.599 431.677 368.599C430.798 368.599 430.085 369.312 430.085 370.191C430.085 371.07 430.798 371.783 431.677 371.783Z" fill="#E6E9F2" stroke="#4866FB" stroke-width="0.85" stroke-miterlimit="10"/>
<path d="M425.364 373.289C427.075 373.289 428.462 371.902 428.462 370.19C428.462 368.479 427.075 367.092 425.364 367.092C423.653 367.092 422.266 368.479 422.266 370.19C422.266 371.902 423.653 373.289 425.364 373.289Z" fill="#E6E9F2" stroke="#4866FB" stroke-width="0.85" stroke-miterlimit="10"/>
<path d="M401.605 382.594H412.971C419.821 382.594 425.375 377.043 425.375 370.196C425.375 363.349 419.821 357.798 412.971 357.798H401.605C394.755 357.798 389.202 363.349 389.202 370.196C389.202 377.043 394.755 382.594 401.605 382.594Z" fill="#E6E9F2" stroke="#4866FB" stroke-width="0.85" stroke-miterlimit="10"/>
<path d="M402.866 377.316H411.701C415.636 377.316 418.827 374.126 418.827 370.191C418.827 366.255 415.636 363.065 411.701 363.065H402.866C398.931 363.065 395.74 366.255 395.74 370.191C395.74 374.126 398.931 377.316 402.866 377.316Z" fill="white" stroke="#4866FB" stroke-width="0.85" stroke-miterlimit="10"/>
<path d="M428.462 370.191H430.076" stroke="#4866FB" stroke-width="0.85" stroke-miterlimit="10"/>
<path d="M384.491 370.191H386.104" stroke="#4866FB" stroke-width="0.85" stroke-miterlimit="10"/>
<path d="M411.123 369.432C411.123 369.432 411.209 369.486 411.262 369.486C411.294 369.486 411.326 369.486 411.358 369.464C411.957 369.176 413.142 368.781 414.403 369.293C414.435 369.304 414.456 369.315 414.488 369.315C414.553 369.315 414.617 369.283 414.659 369.24C414.724 369.165 414.734 369.058 414.681 368.973C414.414 368.503 413.922 367.926 413.174 367.841C412.16 367.723 411.305 368.279 411.049 369.208C411.027 369.293 411.049 369.379 411.113 369.432H411.123Z" fill="#253CA3"/>
<path d="M399.917 369.475C399.917 369.475 400.003 369.528 400.056 369.528C400.088 369.528 400.12 369.528 400.152 369.507C400.75 369.218 401.936 368.823 403.197 369.336C403.229 369.347 403.25 369.357 403.282 369.357C403.346 369.357 403.41 369.325 403.453 369.282C403.517 369.208 403.528 369.101 403.475 369.015C403.208 368.545 402.716 367.968 401.968 367.883C400.953 367.765 400.099 368.321 399.842 369.25C399.821 369.336 399.842 369.421 399.917 369.475Z" fill="#253CA3"/>
<path d="M404.565 371.729C405.089 373.524 406.285 373.898 407.193 373.898H407.204C408.123 373.898 409.319 373.513 409.832 371.708C409.885 371.505 409.832 371.291 409.661 371.152C409.501 371.013 409.276 370.981 409.084 371.067C408.582 371.281 407.92 371.484 407.161 371.484C406.584 371.484 405.954 371.377 405.291 371.078C405.099 370.992 404.875 371.024 404.715 371.163C404.554 371.302 404.49 371.516 404.554 371.729H404.565Z" fill="#253CA3"/>
<path d="M276.154 393.32H357.816C361.875 393.32 365.155 390.029 365.155 385.98V362.285L374.161 354.294H276.154C272.095 354.294 268.815 357.585 268.815 361.633V385.98C268.815 390.04 272.105 393.32 276.154 393.32Z" fill="#EBEBEB"/>
<path d="M276.154 430.379H357.816C361.875 430.379 365.155 427.088 365.155 423.04V415.187L374.161 407.197H276.154C272.095 407.197 268.815 410.487 268.815 414.536V423.04C268.815 427.099 272.105 430.379 276.154 430.379Z" fill="#EBEBEB"/>
<path d="M354.204 365.875C354.204 366.024 337.389 366.152 316.642 366.152C295.896 366.152 279.081 366.024 279.081 365.875C279.081 365.725 295.896 365.597 316.642 365.597C337.389 365.597 354.204 365.725 354.204 365.875Z" fill="white"/>
<path d="M354.204 372.22C354.204 372.37 337.389 372.498 316.642 372.498C295.896 372.498 279.081 372.37 279.081 372.22C279.081 372.071 295.896 371.943 316.642 371.943C337.389 371.943 354.204 372.071 354.204 372.22Z" fill="white"/>
<path d="M354.204 378.566C354.204 378.716 337.389 378.844 316.642 378.844C295.896 378.844 279.081 378.716 279.081 378.566C279.081 378.417 295.896 378.288 316.642 378.288C337.389 378.288 354.204 378.417 354.204 378.566Z" fill="white"/>
<path d="M354.204 384.912C354.204 385.061 337.389 385.19 316.642 385.19C295.896 385.19 279.081 385.061 279.081 384.912C279.081 384.762 295.896 384.634 316.642 384.634C337.389 384.634 354.204 384.762 354.204 384.912Z" fill="white"/>
<path d="M354.439 419.119C354.439 419.269 337.795 419.397 317.273 419.397C296.751 419.397 280.106 419.269 280.106 419.119C280.106 418.97 296.751 418.842 317.273 418.842C337.795 418.842 354.439 418.97 354.439 419.119Z" fill="white"/>
<path d="M83.5369 129.564L79.5842 117.236C83.601 110.709 85.9299 103.028 85.9299 94.8016C85.9299 71.1492 66.7538 51.973 43.1014 51.973C19.449 51.973 0.262207 71.1492 0.262207 94.8016C0.262207 118.454 19.4384 137.63 43.0907 137.63C52.9726 137.63 62.0532 134.276 69.3071 128.656V128.678L83.5369 129.564Z" fill="#FAFAFA"/>
<path d="M83.5376 129.564C83.5376 129.564 83.2492 129.564 82.6402 129.532C82.0099 129.5 81.1125 129.457 79.9374 129.393C77.5017 129.255 73.9335 129.062 69.2864 128.806C69.2223 128.806 69.1688 128.742 69.1688 128.678C69.1688 128.656 69.1795 128.624 69.1902 128.614V128.592L69.3718 128.763C65.0024 132.171 58.5178 135.846 50.0354 137.256C47.9309 137.609 45.7088 137.812 43.4012 137.833C41.1044 137.737 38.7113 137.726 36.297 137.267C31.4575 136.508 26.4151 134.863 21.6718 132.139C16.9178 129.425 12.463 125.633 8.85209 120.89C5.23052 116.157 2.4636 110.463 1.05343 104.224C-0.38879 98.0065 -0.367424 91.2441 1.22436 84.706C1.43802 83.8941 1.641 83.0715 1.85466 82.2489C2.10037 81.437 2.42086 80.6571 2.70931 79.8452C3.0298 79.0546 3.24346 78.2214 3.64942 77.4629C4.02333 76.6937 4.39724 75.9138 4.77115 75.1446C5.113 74.3541 5.58306 73.6276 6.03175 72.8905L7.3885 70.6684L8.94824 68.5745L9.7281 67.5276C9.99518 67.1857 10.305 66.8759 10.5934 66.5447C15.3047 61.1925 21.1804 56.994 27.6116 54.6117C34.0108 52.1546 40.8159 51.3106 47.2792 51.9196C53.7531 52.5392 59.8318 54.6758 65.0238 57.7739C70.2265 60.872 74.5424 64.9316 77.8115 69.3971C81.0805 73.8733 83.3026 78.7341 84.5845 83.5095C85.2896 85.8918 85.5888 88.2742 85.9093 90.571C86.0054 92.8786 86.1977 95.1113 86.0375 97.2586C85.5247 105.869 82.5654 112.674 79.6917 117.3V117.204C80.963 121.232 81.9245 124.319 82.5868 126.434C82.9073 127.46 83.1423 128.24 83.3133 128.784C83.4735 129.308 83.5483 129.564 83.5483 129.564C83.5483 129.564 83.4415 129.287 83.2705 128.752C83.0889 128.208 82.8218 127.417 82.48 126.381C81.7963 124.298 80.7921 121.242 79.4887 117.268C79.478 117.236 79.4887 117.204 79.4994 117.172C82.3197 112.557 85.2255 105.773 85.6849 97.2373C85.8452 95.1113 85.6422 92.8999 85.5353 90.6138C85.2149 88.3489 84.905 85.9773 84.2 83.627C82.9073 78.9051 80.6959 74.0977 77.4482 69.6749C74.2113 65.2628 69.9273 61.2566 64.7781 58.2012C59.6395 55.1566 53.6356 53.052 47.2471 52.443C40.8693 51.8555 34.1497 52.6888 27.8253 55.1138C21.4795 57.4641 15.6679 61.6091 11.0208 66.8973C10.7323 67.2178 10.4225 67.5276 10.1661 67.8694L9.39693 68.9057L7.84788 70.9675L6.51249 73.1576C6.0638 73.884 5.60443 74.5998 5.27325 75.3797C4.89934 76.1488 4.53612 76.9073 4.17289 77.6658C3.76693 78.4137 3.56396 79.2363 3.24346 80.0161C2.9657 80.8067 2.64521 81.5865 2.3995 82.3878C2.19652 83.1997 1.98286 84.0009 1.77988 84.8128C0.19878 91.2654 0.177414 97.9424 1.59827 104.085C2.98707 110.239 5.71126 115.869 9.27941 120.558C12.8476 125.259 17.249 129.009 21.9389 131.712C26.6288 134.414 31.6071 136.06 36.4038 136.829C38.7968 137.299 41.1684 137.31 43.444 137.416C45.7194 137.416 47.9202 137.224 50.0141 136.872C58.4216 135.515 64.8849 131.904 69.265 128.549C69.3184 128.507 69.3932 128.517 69.4359 128.571C69.468 128.614 69.468 128.678 69.4359 128.72V128.742L69.3291 128.549C73.9335 128.87 77.4803 129.116 79.884 129.276C81.0805 129.361 81.9886 129.425 82.6189 129.468C83.2385 129.511 83.559 129.543 83.559 129.543L83.5376 129.564Z" fill="#263238"/>
<path d="M31.0188 94.7908C31.0188 97.1945 29.0745 99.1388 26.6708 99.1388C24.2671 99.1388 22.3228 97.1945 22.3228 94.7908C22.3228 92.3871 24.2671 90.4427 26.6708 90.4427C29.0745 90.4427 31.0188 92.3871 31.0188 94.7908Z" fill="#263238"/>
<path d="M48.4324 94.7909C48.4324 97.1946 46.488 99.1389 44.0843 99.1389C41.6807 99.1389 39.7363 97.1946 39.7363 94.7909C39.7363 92.3872 41.6807 90.4429 44.0843 90.4429C46.488 90.4429 48.4324 92.3872 48.4324 94.7909Z" fill="#263238"/>
<path d="M65.8031 92.6115C66.9996 94.6947 66.2946 97.3548 64.2114 98.5513C62.1282 99.7478 59.4681 99.0427 58.2716 96.9595C57.0751 94.8763 57.7801 92.2162 59.8633 91.0197C61.9465 89.8232 64.6066 90.5283 65.8031 92.6115Z" fill="#263238"/>
<path d="M210.377 135.718L225.9 81.6832L203.487 88.5097L203.636 135.74L210.377 135.718Z" fill="#253CA3"/>
<path d="M245.002 115.367C245.002 115.367 230.943 104.043 230.27 104.043C229.597 104.043 213.957 135.707 213.957 135.707L220.046 140.739L245.002 115.367Z" fill="#253CA3"/>
<path d="M263.804 113.38L269.039 132.706L225.035 154.659L222.749 145.675L263.804 113.38Z" fill="#253CA3"/>
<path d="M52.674 277.867C52.674 277.867 67.235 286.435 77.1062 283.925L72.2668 276.244C72.2668 276.244 60.1201 274.684 54.1162 269.695L50.2275 273.968L52.6847 277.857L52.674 277.867Z" fill="#4866FB"/>
<path d="M33.3585 262.409C33.3585 262.409 28.8395 255.572 26.7243 251.982C26.3931 251.405 25.7521 251.085 25.0897 251.16C22.0451 251.48 13.3383 251.662 8.96896 243.917L6.20204 239.045C5.16578 237.229 5.75335 234.921 7.51606 233.81C9.34287 232.657 11.7572 233.201 12.911 235.028L15.5711 239.237C15.5711 239.237 20.0046 245.861 26.1046 243.03C32.2047 240.199 31.0082 234.462 30.2924 232.122C30.1429 231.631 29.9719 231.118 29.7903 230.616C29.0425 228.544 30.0147 226.247 32.0231 225.349C34.2665 224.345 36.9053 225.488 37.6958 227.817C39.3624 232.689 40.6657 240.797 34.0422 246.491C33.4332 247.015 33.2944 247.901 33.7217 248.585L37.9949 255.369L33.3478 262.409H33.3585Z" fill="#253CA3"/>
<path d="M30.817 264.417C33.5305 268.317 39.7053 276.553 46.8203 281.767C49.053 283.401 52.2366 282.365 53.0912 279.726L56.9799 267.772C57.5781 265.945 56.809 263.958 55.1531 262.986C51.8841 261.073 46.4036 257.559 41.9595 253.168C40.3677 251.598 37.761 251.758 36.3615 253.499L30.9559 260.23C29.9837 261.437 29.9303 263.135 30.817 264.407V264.417Z" fill="#E6E9F2" stroke="#4866FB" stroke-width="4.25" stroke-miterlimit="10"/>
<path d="M75.4389 292.802C79.6339 292.802 83.0346 287.723 83.0346 281.457C83.0346 275.191 79.6339 270.111 75.4389 270.111C71.244 270.111 67.8433 275.191 67.8433 281.457C67.8433 287.723 71.244 292.802 75.4389 292.802Z" fill="#E6E9F2" stroke="#4866FB" stroke-width="3.18" stroke-miterlimit="10"/>
<path d="M214.842 284.64C214.842 284.64 200.281 276.073 190.41 278.583L195.25 286.264C195.25 286.264 207.396 287.824 213.4 292.813L217.289 288.54L214.832 284.651L214.842 284.64Z" fill="#4866FB"/>
<path d="M234.147 300.099C234.147 300.099 238.666 306.936 240.781 310.525C241.113 311.102 241.754 311.423 242.416 311.348C245.461 311.027 254.167 310.846 258.537 318.591L261.304 323.463C262.34 325.279 261.752 327.586 259.99 328.697C258.163 329.851 255.748 329.306 254.595 327.479L251.935 323.27C251.935 323.27 247.501 316.647 241.401 319.478C235.301 322.309 236.497 328.046 237.213 330.385C237.363 330.877 237.534 331.389 237.715 331.892C238.463 333.964 237.491 336.261 235.483 337.158C233.239 338.162 230.6 337.019 229.81 334.69C228.143 329.819 226.84 321.711 233.463 316.016C234.072 315.493 234.211 314.606 233.784 313.923L229.511 307.139L234.158 300.099H234.147Z" fill="#253CA3"/>
<path d="M236.69 298.101C233.977 294.202 227.802 285.965 220.687 280.752C218.454 279.117 215.271 280.154 214.416 282.792L210.527 294.747C209.929 296.574 210.698 298.561 212.354 299.533C215.623 301.445 221.104 304.96 225.548 309.351C227.14 310.921 229.746 310.761 231.146 309.019L236.551 302.289C237.524 301.082 237.577 299.383 236.69 298.112V298.101Z" fill="#E6E9F2" stroke="#4866FB" stroke-width="4.25" stroke-miterlimit="10"/>
<path d="M192.066 292.396C196.261 292.396 199.662 287.317 199.662 281.051C199.662 274.785 196.261 269.705 192.066 269.705C187.871 269.705 184.471 274.785 184.471 281.051C184.471 287.317 187.871 292.396 192.066 292.396Z" fill="#E6E9F2" stroke="#4866FB" stroke-width="3.18" stroke-miterlimit="10"/>
<path d="M132.978 188.161C149.793 188.161 163.425 174.53 163.425 157.715C163.425 140.899 149.793 127.268 132.978 127.268C116.163 127.268 102.531 140.899 102.531 157.715C102.531 174.53 116.163 188.161 132.978 188.161Z" fill="#E6E9F2" stroke="#4866FB" stroke-width="4.25" stroke-miterlimit="10"/>
<path d="M132.978 369.902C149.387 369.902 162.025 360.191 171.213 348.76C183.894 332.992 190.517 313.207 190.517 292.973V233.725C190.517 201.943 75.439 201.943 75.439 233.725V292.973C75.439 313.207 82.0625 332.992 94.7433 348.76C103.941 360.202 116.569 369.902 132.978 369.902Z" fill="#E6E9F2" stroke="#4866FB" stroke-width="4.55" stroke-miterlimit="10"/>
<path d="M42.8224 219.516C51.3363 219.516 58.2381 212.615 58.2381 204.101C58.2381 195.587 51.3363 188.685 42.8224 188.685C34.3086 188.685 27.4067 195.587 27.4067 204.101C27.4067 212.615 34.3086 219.516 42.8224 219.516Z" fill="#E6E9F2" stroke="#4866FB" stroke-width="4.25" stroke-miterlimit="10"/>
<path d="M11.3945 212.059C15.79 212.059 19.3534 208.496 19.3534 204.101C19.3534 199.705 15.79 196.142 11.3945 196.142C6.99887 196.142 3.43555 199.705 3.43555 204.101C3.43555 208.496 6.99887 212.059 11.3945 212.059Z" fill="#E6E9F2" stroke="#4866FB" stroke-width="4.25" stroke-miterlimit="10"/>
<path d="M254.563 212.059C258.959 212.059 262.522 208.496 262.522 204.101C262.522 199.705 258.959 196.142 254.563 196.142C250.168 196.142 246.604 199.705 246.604 204.101C246.604 208.496 250.168 212.059 254.563 212.059Z" fill="#E6E9F2" stroke="#4866FB" stroke-width="4.25" stroke-miterlimit="10"/>
<path d="M223.144 219.516C231.658 219.516 238.559 212.615 238.559 204.101C238.559 195.587 231.658 188.685 223.144 188.685C214.63 188.685 207.728 195.587 207.728 204.101C207.728 212.615 214.63 219.516 223.144 219.516Z" fill="#E6E9F2" stroke="#4866FB" stroke-width="4.25" stroke-miterlimit="10"/>
<path d="M104.636 265.903H161.332C195.47 265.903 223.144 238.231 223.144 204.096C223.144 169.96 195.47 142.288 161.332 142.288H104.636C70.4984 142.288 42.8241 169.96 42.8241 204.096C42.8241 238.231 70.4984 265.903 104.636 265.903Z" fill="#E6E9F2" stroke="#4866FB" stroke-width="4.25" stroke-miterlimit="10"/>
<path d="M110.96 239.612H155.017C174.629 239.612 190.527 223.715 190.527 204.106C190.527 184.497 174.629 168.601 155.017 168.601H110.96C91.3477 168.601 75.449 184.497 75.449 204.106C75.449 223.715 91.3477 239.612 110.96 239.612Z" fill="white" stroke="#4866FB" stroke-width="4.25" stroke-miterlimit="10"/>
<path d="M238.559 204.101H246.614" stroke="#4866FB" stroke-width="4.25" stroke-miterlimit="10"/>
<path d="M19.353 204.101H27.4081" stroke="#4866FB" stroke-width="4.25" stroke-miterlimit="10"/>
<path d="M96.6225 295.815C99.8912 295.815 102.541 293.165 102.541 289.896C102.541 286.628 99.8912 283.978 96.6225 283.978C93.3539 283.978 90.7041 286.628 90.7041 289.896C90.7041 293.165 93.3539 295.815 96.6225 295.815Z" fill="#253CA3"/>
<path d="M81.9341 326.807C84.7331 333.783 88.4187 340.406 92.9911 346.485C103.963 349.177 117.295 350.758 131.664 350.758C147.486 350.758 162.047 348.846 173.606 345.651C178.157 339.434 181.81 332.672 184.535 325.546C172.067 330.984 153.019 334.456 131.675 334.456C112.05 334.456 94.3585 331.518 81.9448 326.817L81.9341 326.807Z" fill="#E6E9F2" stroke="#4866FB" stroke-width="4.55" stroke-miterlimit="10"/>
<path d="M133.234 352.831C139.411 352.831 144.419 347.823 144.419 341.645C144.419 335.468 139.411 330.46 133.234 330.46C127.057 330.46 122.049 335.468 122.049 341.645C122.049 347.823 127.057 352.831 133.234 352.831Z" fill="#4866FB" stroke="#253CA4" stroke-width="4.55" stroke-miterlimit="10"/>
<path d="M152.154 200.319C152.357 200.49 152.602 200.575 152.859 200.575C153.019 200.575 153.179 200.532 153.329 200.468C156.299 199.058 162.207 197.06 168.499 199.614C168.638 199.667 168.787 199.699 168.937 199.699C169.257 199.699 169.567 199.56 169.792 199.314C170.112 198.941 170.165 198.428 169.92 198C168.563 195.672 166.159 192.808 162.41 192.381C157.356 191.804 153.105 194.55 151.823 199.208C151.705 199.624 151.844 200.052 152.164 200.329L152.154 200.319Z" fill="#253CA3"/>
<path d="M96.2815 200.49C96.4845 200.661 96.7302 200.746 96.9759 200.746C97.1361 200.746 97.2964 200.714 97.4459 200.639C100.416 199.229 106.324 197.231 112.627 199.785C112.766 199.838 112.915 199.87 113.065 199.87C113.385 199.87 113.695 199.731 113.919 199.486C114.24 199.112 114.293 198.599 114.047 198.172C112.691 195.843 110.287 192.98 106.527 192.552C101.484 191.975 97.2216 194.721 95.9396 199.379C95.8328 199.795 95.961 200.223 96.2922 200.5L96.2815 200.49Z" fill="#253CA3"/>
<path d="M119.412 211.739C121.997 220.681 127.969 222.561 132.531 222.561H132.584C137.157 222.55 143.139 220.649 145.692 211.664C145.981 210.649 145.671 209.57 144.859 208.876C144.058 208.182 142.968 208.011 141.996 208.438C139.507 209.528 136.206 210.511 132.392 210.511C129.54 210.511 126.399 209.955 123.087 208.502C122.126 208.075 121.015 208.246 120.224 208.94C119.423 209.645 119.102 210.714 119.401 211.739H119.412Z" fill="#253CA3"/>
<path d="M94.1381 423.647C94.1381 423.647 77.275 405.893 85.4589 398.867C93.6414 391.844 99.5785 411.688 94.1381 423.647Z" fill="#99B7FF"/>
<path d="M88.2561 432.422C88.2561 432.422 76.81 413.93 70.366 423.647C64.5473 432.422 88.2561 432.422 88.2561 432.422Z" fill="#99B7FF"/>
<path d="M103.347 427.006C103.347 427.006 116.568 406.818 122.309 418.644C127.251 428.824 103.347 427.006 103.347 427.006Z" fill="#99B7FF"/>
<path d="M95.0337 459.59L94.5999 459.533C94.6101 459.458 95.5889 451.907 95.3741 441.302C95.1769 431.521 93.8942 417.067 88.9067 403.759L89.3172 403.605C94.3267 416.974 95.6137 431.484 95.8124 441.302C96.0271 451.937 95.044 459.515 95.0337 459.59Z" fill="#377FFD"/>
<path d="M95.827 439.727L95.4136 439.58C95.4296 439.536 96.9943 435.143 100.273 430.582C103.307 426.361 108.473 421.122 115.85 420.144L115.907 420.579C108.689 421.536 103.617 426.681 100.633 430.828C97.3887 435.34 95.8402 439.683 95.8255 439.725L95.827 439.727Z" fill="#377FFD"/>
<path d="M95.4098 444.049C95.3996 444.015 94.3668 440.618 91.5063 436.609C88.8694 432.913 84.0952 427.926 76.3188 425.15L76.4664 424.736C84.3567 427.552 89.201 432.615 91.8745 436.367C94.7729 440.434 95.8204 443.89 95.8306 443.923L95.4098 444.049Z" fill="#377FFD"/>
<path d="M111.223 446.789C111.223 446.789 117.664 440.883 114.922 438.179C112.181 435.477 109.579 442.396 111.223 446.789Z" fill="#D6E4FF"/>
<path d="M113.103 450.059C113.103 450.059 117.633 443.756 119.688 447.375C121.545 450.643 113.103 450.059 113.103 450.059Z" fill="#D6E4FF"/>
<path d="M107.86 447.758C107.86 447.758 103.649 440.243 101.313 444.313C99.3025 447.815 107.86 447.758 107.86 447.758Z" fill="#D6E4FF"/>
<path d="M109.954 459.571C109.947 459.463 109.322 448.631 113.37 439.743L113.636 439.864C109.618 448.685 110.239 459.445 110.245 459.553L109.953 459.572L109.954 459.571Z" fill="#99B7FF"/>
<path d="M110.109 452.486C110.092 452.423 108.371 446.211 103.532 445.226L103.591 444.939C108.607 445.961 110.374 452.346 110.391 452.41L110.109 452.486Z" fill="#99B7FF"/>
<path d="M110.277 454.097L110.003 453.993C110.022 453.944 111.929 449.104 117.47 447.548L117.549 447.83C112.147 449.347 110.294 454.05 110.275 454.098L110.277 454.097Z" fill="#99B7FF"/>
<path d="M430.422 433.804C430.422 433.804 444.049 421.308 438.248 415.588C432.448 409.869 426.945 424.511 430.422 433.804Z" fill="#D6E4FF"/>
<path d="M434.399 440.722C434.399 440.722 443.982 427.387 448.333 435.044C452.261 441.959 434.399 440.722 434.399 440.722Z" fill="#D6E4FF"/>
<path d="M423.31 435.854C423.31 435.854 414.398 419.954 409.459 428.564C405.206 435.976 423.31 435.854 423.31 435.854Z" fill="#D6E4FF"/>
<path d="M427.819 460.84C427.804 460.61 426.484 437.715 435.039 418.929L435.455 419.12C426.947 437.8 428.26 460.584 428.275 460.812L427.819 460.842V460.84Z" fill="#99B7FF"/>
<path d="M428.145 445.838C428.11 445.705 424.456 432.515 414.168 430.42L414.259 429.971C424.826 432.122 428.55 445.583 428.585 445.719L428.143 445.838H428.145Z" fill="#99B7FF"/>
<path d="M428.345 449.234L427.918 449.07C427.958 448.967 431.977 438.765 443.663 435.484L443.785 435.925C432.326 439.142 428.383 449.133 428.344 449.234H428.345Z" fill="#99B7FF"/>
<path d="M232.263 447.587C232.263 447.587 238.301 442.05 235.731 439.516C233.161 436.982 230.723 443.47 232.263 447.587Z" fill="#D6E4FF"/>
<path d="M234.023 450.654C234.023 450.654 238.27 444.746 240.197 448.138C241.937 451.201 234.023 450.654 234.023 450.654Z" fill="#D6E4FF"/>
<path d="M229.11 448.496C229.11 448.496 225.161 441.451 222.973 445.266C221.088 448.55 229.11 448.496 229.11 448.496Z" fill="#D6E4FF"/>
<path d="M231.064 459.571C231.058 459.47 230.471 449.313 234.268 440.978L234.533 441.1C230.769 449.366 231.35 459.451 231.356 459.552L231.064 459.571Z" fill="#99B7FF"/>
<path d="M231.208 452.932C231.192 452.873 229.581 447.054 225.051 446.132L225.109 445.845C229.818 446.804 231.476 452.795 231.492 452.855L231.21 452.932H231.208Z" fill="#99B7FF"/>
<path d="M231.384 454.442L231.11 454.337C231.128 454.291 232.917 449.749 238.117 448.29L238.196 448.572C233.141 449.991 231.401 454.398 231.384 454.442Z" fill="#99B7FF"/>
<path d="M250.473 451.598C250.473 451.598 254.489 447.915 252.78 446.229C251.071 444.544 249.449 448.859 250.473 451.598Z" fill="#99B7FF"/>
<path d="M251.646 453.637C251.646 453.637 254.47 449.706 255.753 451.964C256.91 454.001 251.646 453.637 251.646 453.637Z" fill="#99B7FF"/>
<path d="M248.379 452.203C248.379 452.203 245.752 447.517 244.297 450.054C243.044 452.238 248.379 452.203 248.379 452.203Z" fill="#99B7FF"/>
<path d="M249.703 459.567C249.699 459.499 249.308 452.75 251.831 447.211L251.964 447.273C249.457 452.776 249.845 459.491 249.849 459.558L249.703 459.567Z" fill="#377FFD"/>
<path d="M249.803 454.777C249.793 454.737 248.716 450.854 245.688 450.236L245.717 450.093C248.835 450.728 249.933 454.698 249.944 454.739L249.802 454.777H249.803Z" fill="#377FFD"/>
<path d="M249.867 456.147L249.731 456.094C249.743 456.064 250.928 453.054 254.376 452.087L254.415 452.227C251.037 453.176 249.879 456.116 249.869 456.146L249.867 456.147Z" fill="#377FFD"/>
<path d="M455.251 448.372C455.251 448.372 461.531 442.612 458.857 439.976C456.184 437.339 453.648 444.089 455.251 448.372Z" fill="#99B7FF"/>
<path d="M457.083 451.559C457.083 451.559 461.5 445.413 463.505 448.942C465.315 452.129 457.083 451.559 457.083 451.559Z" fill="#99B7FF"/>
<path d="M451.973 449.316C451.973 449.316 447.865 441.988 445.589 445.957C443.629 449.373 451.973 449.316 451.973 449.316Z" fill="#99B7FF"/>
<path d="M454.041 460.833C454.034 460.728 453.425 450.172 457.371 441.511L457.578 441.606C453.657 450.215 454.263 460.715 454.269 460.818L454.041 460.833Z" fill="#377FFD"/>
<path d="M454.192 453.92C454.176 453.858 452.493 447.784 447.757 446.819L447.802 446.595C452.677 447.588 454.395 453.797 454.413 453.86L454.192 453.92Z" fill="#377FFD"/>
<path d="M454.3 455.487L454.087 455.405C454.104 455.358 455.958 450.651 461.349 449.137L461.41 449.358C456.129 450.841 454.316 455.44 454.299 455.487H454.3Z" fill="#377FFD"/>
</svg>
