<?xml version="1.0" encoding="utf-8"?>
<!-- Generator: Adobe Illustrator 26.0.0, SVG Export Plug-In . SVG Version: 6.00 Build 0)  -->
<svg version="1.1" id="Capa_1" xmlns="http://www.w3.org/2000/svg" xmlns:xlink="http://www.w3.org/1999/xlink" x="0px" y="0px"
	 viewBox="0 0 1024 1024" style="enable-background:new 0 0 1024 1024;" xml:space="preserve">
<style type="text/css">
	.st0{fill:#0C39A8;}
	.st1{fill:#F04D4E;}
	.st2{fill:#D84850;}
	.st3{fill:#C7928E;}
	.st4{fill:#333333;}
	.st5{fill:#FECCCB;}
	.st6{fill:#D8AEAF;}
	.st7{fill:#2B2B2B;}
	.st8{fill:#B6D5D0;}
</style>
<path class="st0" d="M15.4,518.1c0,275.7,223.4,499.2,499.1,499.3s499.2-223.4,499.3-499.1c0,0,0-0.1,0-0.1
	c0-275.7-223.4-499.2-499.1-499.3C238.9,18.8,15.4,242.3,15.4,518C15.4,518.1,15.4,518.1,15.4,518.1z"/>
<path class="st1" d="M839.7,775.2v-43c0-87.6-156.7-111.6-156.7-111.6H367.6c0,0-158.2,24.1-158.2,111.6v42.5
	c0,0-0.5,32.3,50.7,33.3c50.7,1,265.2,0,265.2,0s214,1,264.7,0C841.2,807.4,839.7,775.2,839.7,775.2L839.7,775.2z"/>
<path class="st2" d="M578.6,614.4h-52.7l-158.2,3.1c0,0-158.2,27.1-158.2,114.7v42.5c0,0-0.5,32.3,50.7,33.3
	c50.7,1,51.2-0.5,51.2-0.5l155.1-116.2h112.1V614.4z"/>
<path class="st3" d="M430.1,522.2h189.4V640H430.1L430.1,522.2z"/>
<path class="st4" d="M702,357.9c0,0,25.1,73.2-41.5,117.2V343.6L702,357.9L702,357.9z M337.4,357.9c0,0-9.7,73.2,41.5,117.2V343.6
	L337.4,357.9L337.4,357.9z"/>
<path class="st5" d="M378.9,344.6v133.6c0,0,32.8,115.2,146.4,115.2s145.4-117.2,145.4-117.2V353.8c0,0,6.1-174.1-145.4-174.1
	S378.9,344.6,378.9,344.6z"/>
<path class="st6" d="M527.4,593.9c-112.6,0-148.5-115.2-148.5-115.2V345.1c0,0-5.1-164.9,148.5-164.9V593.9z"/>
<path class="st7" d="M463.9,273.9c0,0,24.1,96.8,249.3,96.8c0,0-3.6-194-186.4-194S337.9,371.2,337.9,371.2S414.2,350.2,463.9,273.9
	L463.9,273.9z"/>
<path class="st8" d="M428,557.1l-59.9,62.5l97.8,72.7l62.5-48.6L428,557.1z"/>
<path class="st8" d="M621.6,557.1l60.4,62.5l-97.8,72.7l-62.5-48.6L621.6,557.1z"/>
</svg>
